M48
; DRILL file {KiCad 8.0.4} date 2025-01-10T13:04:41-0800
; FORMAT={-:-/ absolute / metric / decimal}
; #@! TF.CreationDate,2025-01-10T13:04:41-08:00
; #@! TF.GenerationSoftware,Kicad,Pcbnew,8.0.4
; #@! TF.FileFunction,Plated,1,2,PTH
FMAT,2
METRIC
; #@! TA.AperFunction,Plated,PTH,ViaDrill
T1C0.300
; #@! TA.AperFunction,Plated,PTH,ViaDrill
T2C0.533
; #@! TA.AperFunction,Plated,PTH,ComponentDrill
T3C0.762
; #@! TA.AperFunction,Plated,PTH,ComponentDrill
T4C1.000
; #@! TA.AperFunction,Plated,PTH,ComponentDrill
T5C1.020
; #@! TA.AperFunction,Plated,PTH,ComponentDrill
T6C1.040
; #@! TA.AperFunction,Plated,PTH,ComponentDrill
T7C1.100
; #@! TA.AperFunction,Plated,PTH,ComponentDrill
T8C1.270
%
G90
G05
T1
X101.1Y-147.3
X105.2Y-147.2
X106.6Y-140.3
X110.007Y-55.27
X110.007Y-59.106
X110.058Y-62.763
X110.058Y-66.599
X110.6Y-146.1
X110.669Y-80.387
X110.744Y-76.5
X110.795Y-72.817
X112.4Y-136.0
X113.1Y-117.2
X113.4Y-122.8
X113.5Y-108.7
X113.5Y-115.4
X113.6Y-112.4
X114.2Y-124.2
X114.3Y-110.5
X114.6Y-114.1
X115.0Y-131.2
X115.025Y-55.252
X115.025Y-59.087
X115.075Y-62.745
X115.075Y-66.58
X115.1Y-126.4
X115.1Y-138.5
X115.2Y-128.6
X115.392Y-80.416
X115.468Y-76.529
X115.518Y-72.846
X115.7Y-133.8
X117.246Y-84.357
X117.246Y-89.332
X117.297Y-94.234
X117.3Y-139.9
X118.3Y-113.0
X119.2Y-114.7
X119.888Y-96.596
X120.015Y-55.245
X120.015Y-59.08
X120.066Y-62.738
X120.066Y-66.573
X120.345Y-80.467
X120.371Y-76.53
X120.421Y-72.847
X120.7Y-108.6
X121.0Y-140.4
X121.564Y-93.32
X121.792Y-84.383
X121.793Y-89.357
X122.1Y-114.2
X122.3Y-109.9
X122.4Y-107.4
X124.435Y-92.126
X124.435Y-96.622
X124.8Y-107.4
X124.8Y-109.8
X124.8Y-126.0
X124.8Y-131.0
X124.9Y-137.2
X124.968Y-55.194
X124.968Y-59.03
X125.019Y-62.687
X125.019Y-66.523
X125.6Y-117.7
X125.7Y-114.3
X125.7Y-146.8
X126.2Y-120.7
X126.2Y-139.6
X126.873Y-69.977
X129.2Y-114.3
X129.2Y-117.5
X129.7Y-147.0
X130.3Y-140.2
X132.4Y-114.3
X132.4Y-117.6
X132.5Y-142.6
X132.6Y-139.5
X134.7Y-109.3
X135.1Y-65.0
X135.106Y-60.806
X135.106Y-69.698
X135.34Y-96.672
X135.365Y-91.973
X135.6Y-140.9
X135.9Y-114.2
X136.1Y-138.8
X137.1Y-109.5
X137.9Y-149.4
X138.5Y-137.7
X138.6Y-134.3
X138.7Y-131.7
X139.95Y-64.95
X140.106Y-60.706
X140.106Y-69.748
X140.39Y-96.622
X140.415Y-91.923
X140.5Y-134.2
X140.5Y-137.8
X140.6Y-131.7
X140.7Y-128.6
X143.0Y-122.0
X143.0Y-126.9
X144.962Y-69.598
X145.0Y-64.95
X145.39Y-96.672
X145.415Y-91.973
X146.2Y-148.7
X146.6Y-109.0
X148.01Y-60.47
X148.2Y-121.4
X148.7Y-148.7
X149.37Y-96.622
X149.42Y-92.0
X150.012Y-69.698
X150.05Y-65.05
X150.56Y-117.6
X150.9Y-109.2
X153.4Y-110.0
X154.47Y-96.622
X154.52Y-92.0
X154.7Y-117.3
X154.95Y-65.0
X155.05Y-70.15
X155.1Y-61.011
X155.1Y-121.7
X155.5Y-111.4
X159.52Y-96.672
X159.57Y-92.05
X160.0Y-65.0
X160.0Y-70.0
X160.1Y-61.011
X161.95Y-111.35
X162.7Y-149.2
X164.47Y-96.672
X164.52Y-92.05
X165.0Y-69.95
X165.05Y-64.95
X165.1Y-61.011
X167.1Y-145.1
X167.8Y-149.2
X169.0Y-143.3
X169.52Y-96.672
X169.545Y-100.533
X169.57Y-92.05
X170.05Y-64.95
X170.053Y-61.062
X171.2Y-140.5
X172.4Y-143.9
X172.9Y-147.9
X173.177Y-96.672
X173.203Y-100.533
X173.228Y-92.05
X173.5Y-107.4
X173.507Y-61.036
X173.51Y-57.148
X173.533Y-64.872
X174.3Y-133.0
X174.3Y-135.4
X178.7Y-143.9
X180.3Y-115.6
X180.3Y-118.1
T2
X106.0Y-48.4
X106.0Y-51.4
X116.668Y-109.632
X118.3Y-108.0
X157.167Y-107.27
X173.6Y-139.2
T3
X140.4Y-109.0
X140.4Y-111.0
X140.4Y-113.0
X140.4Y-115.0
X140.4Y-117.0
X142.4Y-109.0
X142.4Y-111.0
X142.4Y-113.0
X142.4Y-115.0
X142.4Y-117.0
X167.871Y-109.0
X167.871Y-111.0
X167.871Y-113.0
X167.871Y-115.0
X167.871Y-117.0
X169.871Y-109.0
X169.871Y-111.0
X169.871Y-113.0
X169.871Y-115.0
X169.871Y-117.0
T4
X108.45Y-47.1
X132.435Y-43.175
X134.975Y-43.175
X137.515Y-43.175
X140.055Y-43.175
X142.595Y-43.175
X145.135Y-43.175
X147.2Y-143.035
X147.2Y-145.575
X147.675Y-43.175
X156.625Y-132.0
X159.165Y-132.0
X179.0Y-110.0
T5
X95.0Y-85.89
X95.0Y-88.43
X95.0Y-90.97
X95.0Y-93.51
X95.0Y-96.05
X95.0Y-98.59
X95.0Y-101.13
X95.0Y-103.67
X96.0Y-61.58
X96.0Y-64.58
X96.0Y-67.08
X96.0Y-70.08
X96.0Y-72.58
X96.0Y-75.58
X96.0Y-78.08
X96.0Y-81.08
X96.0Y-108.84
X96.0Y-111.84
X96.0Y-114.34
X96.0Y-117.34
X96.0Y-119.84
X96.0Y-122.84
X96.0Y-125.34
X96.0Y-128.34
X97.54Y-85.89
X97.54Y-88.43
X97.54Y-90.97
X97.54Y-93.51
X97.54Y-96.05
X97.54Y-98.59
X97.54Y-101.13
X97.54Y-103.67
X98.5Y-61.58
X98.5Y-64.58
X98.5Y-67.08
X98.5Y-70.08
X98.5Y-72.58
X98.5Y-75.58
X98.5Y-78.08
X98.5Y-81.08
X98.5Y-108.84
X98.5Y-111.84
X98.5Y-114.34
X98.5Y-117.34
X98.5Y-119.84
X98.5Y-122.84
X98.5Y-125.34
X98.5Y-128.34
X100.08Y-85.89
X100.08Y-88.43
X100.08Y-90.97
X100.08Y-93.51
X100.08Y-96.05
X100.08Y-98.59
X100.08Y-101.13
X100.08Y-103.67
X101.0Y-61.58
X101.0Y-64.58
X101.0Y-67.08
X101.0Y-70.08
X101.0Y-72.58
X101.0Y-75.58
X101.0Y-78.08
X101.0Y-81.08
X101.0Y-108.84
X101.0Y-111.84
X101.0Y-114.34
X101.0Y-117.34
X101.0Y-119.84
X101.0Y-122.84
X101.0Y-125.34
X101.0Y-128.34
X103.5Y-61.58
X103.5Y-64.58
X103.5Y-67.08
X103.5Y-70.08
X103.5Y-72.58
X103.5Y-75.58
X103.5Y-78.08
X103.5Y-81.08
X103.5Y-108.84
X103.5Y-111.84
X103.5Y-114.34
X103.5Y-117.34
X103.5Y-119.84
X103.5Y-122.84
X103.5Y-125.34
X103.5Y-128.34
X106.0Y-61.58
X106.0Y-64.58
X106.0Y-67.08
X106.0Y-70.08
X106.0Y-72.58
X106.0Y-75.58
X106.0Y-78.08
X106.0Y-81.08
X106.0Y-108.84
X106.0Y-111.84
X106.0Y-114.34
X106.0Y-117.34
X106.0Y-119.84
X106.0Y-122.84
X106.0Y-125.34
X106.0Y-128.34
X115.7Y-117.4
X115.7Y-120.4
X118.7Y-117.4
X118.7Y-120.4
X121.7Y-117.4
X121.7Y-120.4
X138.2Y-142.5
X138.2Y-145.5
X156.415Y-138.76
X159.415Y-138.76
T6
X128.66Y-56.32
X128.66Y-58.86
X128.66Y-61.4
X128.66Y-63.94
X128.66Y-66.48
X128.885Y-89.32
X128.885Y-91.86
X128.885Y-94.4
X128.885Y-96.94
X128.885Y-99.48
X128.91Y-122.36
X128.91Y-124.9
X128.91Y-127.44
X128.91Y-129.98
X128.91Y-132.52
X131.2Y-56.32
X131.2Y-58.86
X131.2Y-61.4
X131.2Y-63.94
X131.2Y-66.48
X131.425Y-89.32
X131.425Y-91.86
X131.425Y-94.4
X131.425Y-96.94
X131.425Y-99.48
X131.45Y-122.36
X131.45Y-124.9
X131.45Y-127.44
X131.45Y-129.98
X131.45Y-132.52
X176.66Y-56.32
X176.66Y-58.86
X176.66Y-61.4
X176.66Y-63.94
X176.66Y-66.48
X176.885Y-89.32
X176.885Y-91.86
X176.885Y-94.4
X176.885Y-96.94
X176.885Y-99.48
X176.91Y-122.36
X176.91Y-124.9
X176.91Y-127.44
X176.91Y-129.98
X176.91Y-132.52
X179.2Y-56.32
X179.2Y-58.86
X179.2Y-61.4
X179.2Y-63.94
X179.2Y-66.48
X179.425Y-89.32
X179.425Y-91.86
X179.425Y-94.4
X179.425Y-96.94
X179.425Y-99.48
X179.45Y-122.36
X179.45Y-124.9
X179.45Y-127.44
X179.45Y-129.98
X179.45Y-132.52
T7
X153.9Y-44.1
X156.4Y-44.1
X158.9Y-44.1
X161.4Y-44.1
X163.9Y-44.1
X166.4Y-44.1
X168.9Y-44.1
X171.4Y-44.1
T8
X103.933Y-143.5
X109.013Y-143.5
X114.093Y-143.5
X114.97Y-47.55
X119.173Y-143.5
X120.05Y-47.55
X124.253Y-143.5
X125.13Y-47.55
X129.333Y-143.5
M30
