%TF.GenerationSoftware,KiCad,Pcbnew,8.0.4*%
%TF.CreationDate,2025-01-12T00:12:45-05:00*%
%TF.ProjectId,X17_Backplane,5831375f-4261-4636-9b70-6c616e652e6b,rev?*%
%TF.SameCoordinates,Original*%
%TF.FileFunction,Soldermask,Bot*%
%TF.FilePolarity,Negative*%
%FSLAX46Y46*%
G04 Gerber Fmt 4.6, Leading zero omitted, Abs format (unit mm)*
G04 Created by KiCad (PCBNEW 8.0.4) date 2025-01-12 00:12:45*
%MOMM*%
%LPD*%
G01*
G04 APERTURE LIST*
G04 Aperture macros list*
%AMRoundRect*
0 Rectangle with rounded corners*
0 $1 Rounding radius*
0 $2 $3 $4 $5 $6 $7 $8 $9 X,Y pos of 4 corners*
0 Add a 4 corners polygon primitive as box body*
4,1,4,$2,$3,$4,$5,$6,$7,$8,$9,$2,$3,0*
0 Add four circle primitives for the rounded corners*
1,1,$1+$1,$2,$3*
1,1,$1+$1,$4,$5*
1,1,$1+$1,$6,$7*
1,1,$1+$1,$8,$9*
0 Add four rect primitives between the rounded corners*
20,1,$1+$1,$2,$3,$4,$5,0*
20,1,$1+$1,$4,$5,$6,$7,0*
20,1,$1+$1,$6,$7,$8,$9,0*
20,1,$1+$1,$8,$9,$2,$3,0*%
G04 Aperture macros list end*
%ADD10R,1.700000X1.700000*%
%ADD11O,1.700000X1.700000*%
%ADD12C,3.200000*%
%ADD13RoundRect,0.102000X-0.765000X0.765000X-0.765000X-0.765000X0.765000X-0.765000X0.765000X0.765000X0*%
%ADD14C,1.734000*%
%ADD15C,2.032000*%
%ADD16C,1.020000*%
%ADD17R,1.520000X1.520000*%
%ADD18C,1.520000*%
%ADD19RoundRect,0.102000X0.825000X0.825000X-0.825000X0.825000X-0.825000X-0.825000X0.825000X-0.825000X0*%
%ADD20C,1.854000*%
%ADD21C,1.270000*%
%ADD22C,1.594000*%
%ADD23RoundRect,0.102000X-0.695000X0.695000X-0.695000X-0.695000X0.695000X-0.695000X0.695000X0.695000X0*%
%ADD24RoundRect,0.102000X0.695000X-0.695000X0.695000X0.695000X-0.695000X0.695000X-0.695000X-0.695000X0*%
%ADD25C,3.810000*%
%ADD26R,3.150000X1.960000*%
G04 APERTURE END LIST*
D10*
%TO.C,J11*%
X147200000Y-145575000D03*
D11*
X147200000Y-143035000D03*
%TD*%
D12*
%TO.C,J14*%
X101000000Y-56080000D03*
X101000000Y-133840000D03*
D13*
X95000000Y-103670000D03*
D14*
X95000000Y-101130000D03*
X95000000Y-98590000D03*
X95000000Y-96050000D03*
X95000000Y-93510000D03*
X95000000Y-90970000D03*
X95000000Y-88430000D03*
X95000000Y-85890000D03*
X97540000Y-103670000D03*
X97540000Y-101130000D03*
X97540000Y-98590000D03*
X97540000Y-96050000D03*
X97540000Y-93510000D03*
X97540000Y-90970000D03*
X97540000Y-88430000D03*
X97540000Y-85890000D03*
X100080000Y-103670000D03*
X100080000Y-101130000D03*
X100080000Y-98590000D03*
X100080000Y-96050000D03*
X100080000Y-93510000D03*
X100080000Y-90970000D03*
X100080000Y-88430000D03*
X100080000Y-85890000D03*
X106000000Y-125340000D03*
X103500000Y-125340000D03*
X101000000Y-125340000D03*
X98500000Y-125340000D03*
X96000000Y-125340000D03*
X106000000Y-128340000D03*
X103500000Y-128340000D03*
X101000000Y-128340000D03*
X98500000Y-128340000D03*
X96000000Y-128340000D03*
X106000000Y-119840000D03*
X103500000Y-119840000D03*
X101000000Y-119840000D03*
X98500000Y-119840000D03*
X96000000Y-119840000D03*
X106000000Y-122840000D03*
X103500000Y-122840000D03*
X101000000Y-122840000D03*
X98500000Y-122840000D03*
X96000000Y-122840000D03*
X106000000Y-114340000D03*
X103500000Y-114340000D03*
X101000000Y-114340000D03*
X98500000Y-114340000D03*
X96000000Y-114340000D03*
X106000000Y-117340000D03*
X103500000Y-117340000D03*
X101000000Y-117340000D03*
X98500000Y-117340000D03*
X96000000Y-117340000D03*
X106000000Y-108840000D03*
X103500000Y-108840000D03*
X101000000Y-108840000D03*
X98500000Y-108840000D03*
X96000000Y-108840000D03*
X106000000Y-111840000D03*
X103500000Y-111840000D03*
X101000000Y-111840000D03*
X98500000Y-111840000D03*
X96000000Y-111840000D03*
X106000000Y-78080000D03*
X103500000Y-78080000D03*
X101000000Y-78080000D03*
X98500000Y-78080000D03*
X96000000Y-78080000D03*
X106000000Y-81080000D03*
X103500000Y-81080000D03*
X101000000Y-81080000D03*
X98500000Y-81080000D03*
X96000000Y-81080000D03*
X106000000Y-72580000D03*
X103500000Y-72580000D03*
X101000000Y-72580000D03*
X98500000Y-72580000D03*
X96000000Y-72580000D03*
X106000000Y-75580000D03*
X103500000Y-75580000D03*
X101000000Y-75580000D03*
X98500000Y-75580000D03*
X96000000Y-75580000D03*
X106000000Y-67080000D03*
X103500000Y-67080000D03*
X101000000Y-67080000D03*
X98500000Y-67080000D03*
X96000000Y-67080000D03*
X106000000Y-70080000D03*
X103500000Y-70080000D03*
X101000000Y-70080000D03*
X98500000Y-70080000D03*
X96000000Y-70080000D03*
X106000000Y-61580000D03*
X103500000Y-61580000D03*
X101000000Y-61580000D03*
X98500000Y-61580000D03*
X96000000Y-61580000D03*
X106000000Y-64580000D03*
X103500000Y-64580000D03*
X101000000Y-64580000D03*
X98500000Y-64580000D03*
X96000000Y-64580000D03*
%TD*%
D15*
%TO.C,U4*%
X114970000Y-47550000D03*
X120050000Y-47550000D03*
X125130000Y-47550000D03*
%TD*%
D16*
%TO.C,J8*%
X124699979Y-121340000D03*
X112700003Y-121340000D03*
D17*
X115700002Y-117400000D03*
D18*
X118700001Y-117400000D03*
X121700000Y-117400000D03*
X115700002Y-120399999D03*
X118700001Y-120399999D03*
X121700000Y-120399999D03*
%TD*%
D10*
%TO.C,J6*%
X156625000Y-132000000D03*
D11*
X159165000Y-132000000D03*
%TD*%
D10*
%TO.C,J5*%
X108450000Y-47100000D03*
%TD*%
D16*
%TO.C,J18*%
X155475000Y-141760341D03*
X155475000Y-135760353D03*
D17*
X159415000Y-138760352D03*
D18*
X156415001Y-138760352D03*
%TD*%
D19*
%TO.C,U3*%
X171400000Y-44100000D03*
D20*
X168900000Y-44100000D03*
X166400000Y-44100000D03*
X163900000Y-44100000D03*
X161400000Y-44100000D03*
X158900000Y-44100000D03*
X156400000Y-44100000D03*
X153900000Y-44100000D03*
%TD*%
D10*
%TO.C,J4*%
X132435000Y-43175001D03*
D11*
X134975000Y-43175001D03*
X137515000Y-43175001D03*
X140055000Y-43175001D03*
X142595000Y-43175001D03*
X145135000Y-43175001D03*
X147675000Y-43175001D03*
%TD*%
D15*
%TO.C,U1*%
X103933400Y-143500000D03*
X109013400Y-143500000D03*
X114093400Y-143500000D03*
X119173400Y-143500000D03*
X124253400Y-143500000D03*
X129333400Y-143500000D03*
%TD*%
D21*
%TO.C,J19*%
X142400000Y-109000001D03*
X140399999Y-109000001D03*
X142400000Y-111000000D03*
X140399999Y-111000000D03*
X142400000Y-113000001D03*
X140399999Y-113000001D03*
X142400000Y-115000002D03*
X140399999Y-115000002D03*
X142400000Y-117000000D03*
X140399999Y-117000000D03*
X169870901Y-109000001D03*
X167870900Y-109000001D03*
X169870901Y-111000000D03*
X167870900Y-111000000D03*
X169870901Y-113000001D03*
X167870900Y-113000001D03*
X169870901Y-115000002D03*
X167870900Y-115000002D03*
X169870901Y-117000000D03*
X167870900Y-117000000D03*
%TD*%
D22*
%TO.C,J3*%
X179425000Y-89320000D03*
X176885000Y-89320000D03*
X179425000Y-91860000D03*
X176885000Y-91860000D03*
X179425000Y-94400000D03*
X176885000Y-94400000D03*
X179425000Y-96940000D03*
X176885000Y-96940000D03*
X179425000Y-99480000D03*
D23*
X176885000Y-99480000D03*
D22*
X179450000Y-129980000D03*
X179450000Y-132520000D03*
D23*
X176910000Y-132520000D03*
D24*
X179200000Y-56320000D03*
D22*
X176660000Y-56320000D03*
X179200000Y-58860000D03*
X176660000Y-58860000D03*
X179200000Y-61400000D03*
X176660000Y-61400000D03*
X179200000Y-63940000D03*
X176660000Y-63940000D03*
X179200000Y-66480000D03*
X176660000Y-66480000D03*
X176910000Y-129980000D03*
X179450000Y-127440000D03*
X176910000Y-127440000D03*
X179450000Y-124900000D03*
X176910000Y-124900000D03*
X179450000Y-122360000D03*
X176910000Y-122360000D03*
%TD*%
%TO.C,J2*%
X131425000Y-89320000D03*
X128885000Y-89320000D03*
X131425000Y-91860000D03*
X128885000Y-91860000D03*
X131425000Y-94400000D03*
X128885000Y-94400000D03*
X131425000Y-96940000D03*
X128885000Y-96940000D03*
X131425000Y-99480000D03*
D23*
X128885000Y-99480000D03*
D22*
X131450000Y-129980000D03*
X131450000Y-132520000D03*
D23*
X128910000Y-132520000D03*
D24*
X131200000Y-56320000D03*
D22*
X128660000Y-56320000D03*
X131200000Y-58860000D03*
X128660000Y-58860000D03*
X131200000Y-61400000D03*
X128660000Y-61400000D03*
X131200000Y-63940000D03*
X128660000Y-63940000D03*
X131200000Y-66480000D03*
X128660000Y-66480000D03*
X128910000Y-129980000D03*
X131450000Y-127440000D03*
X128910000Y-127440000D03*
X131450000Y-124900000D03*
X128910000Y-124900000D03*
X131450000Y-122360000D03*
X128910000Y-122360000D03*
%TD*%
D16*
%TO.C,J1*%
X141199989Y-146440000D03*
X135200001Y-146440000D03*
D17*
X138200000Y-142500000D03*
D18*
X138200000Y-145499999D03*
%TD*%
D10*
%TO.C,J10*%
X179000000Y-110000000D03*
%TD*%
D25*
%TO.C,H1*%
X97000000Y-146800000D03*
%TD*%
D26*
%TO.C,F1*%
X109300000Y-129190000D03*
X109300000Y-134100000D03*
%TD*%
D25*
%TO.C,H1*%
X96900000Y-45100000D03*
%TD*%
%TO.C,H1*%
X177700000Y-146800000D03*
%TD*%
%TO.C,H1*%
X177700000Y-45200000D03*
%TD*%
M02*
