%TF.GenerationSoftware,KiCad,Pcbnew,8.0.4*%
%TF.CreationDate,2025-01-12T00:12:45-05:00*%
%TF.ProjectId,X17_Backplane,5831375f-4261-4636-9b70-6c616e652e6b,rev?*%
%TF.SameCoordinates,Original*%
%TF.FileFunction,Soldermask,Top*%
%TF.FilePolarity,Negative*%
%FSLAX46Y46*%
G04 Gerber Fmt 4.6, Leading zero omitted, Abs format (unit mm)*
G04 Created by KiCad (PCBNEW 8.0.4) date 2025-01-12 00:12:45*
%MOMM*%
%LPD*%
G01*
G04 APERTURE LIST*
G04 Aperture macros list*
%AMRoundRect*
0 Rectangle with rounded corners*
0 $1 Rounding radius*
0 $2 $3 $4 $5 $6 $7 $8 $9 X,Y pos of 4 corners*
0 Add a 4 corners polygon primitive as box body*
4,1,4,$2,$3,$4,$5,$6,$7,$8,$9,$2,$3,0*
0 Add four circle primitives for the rounded corners*
1,1,$1+$1,$2,$3*
1,1,$1+$1,$4,$5*
1,1,$1+$1,$6,$7*
1,1,$1+$1,$8,$9*
0 Add four rect primitives between the rounded corners*
20,1,$1+$1,$2,$3,$4,$5,0*
20,1,$1+$1,$4,$5,$6,$7,0*
20,1,$1+$1,$6,$7,$8,$9,0*
20,1,$1+$1,$8,$9,$2,$3,0*%
G04 Aperture macros list end*
%ADD10C,0.100000*%
%ADD11C,0.000000*%
%ADD12R,1.700000X1.700000*%
%ADD13O,1.700000X1.700000*%
%ADD14C,3.200000*%
%ADD15RoundRect,0.102000X-0.765000X0.765000X-0.765000X-0.765000X0.765000X-0.765000X0.765000X0.765000X0*%
%ADD16C,1.734000*%
%ADD17C,2.032000*%
%ADD18C,1.020000*%
%ADD19R,1.520000X1.520000*%
%ADD20C,1.520000*%
%ADD21RoundRect,0.237500X-0.250000X-0.237500X0.250000X-0.237500X0.250000X0.237500X-0.250000X0.237500X0*%
%ADD22C,4.000000*%
%ADD23RoundRect,0.102000X0.825000X0.825000X-0.825000X0.825000X-0.825000X-0.825000X0.825000X-0.825000X0*%
%ADD24C,1.854000*%
%ADD25RoundRect,0.250000X-0.450000X0.325000X-0.450000X-0.325000X0.450000X-0.325000X0.450000X0.325000X0*%
%ADD26R,1.498600X3.810000*%
%ADD27RoundRect,0.237500X0.237500X-0.250000X0.237500X0.250000X-0.237500X0.250000X-0.237500X-0.250000X0*%
%ADD28RoundRect,0.250000X0.325000X0.450000X-0.325000X0.450000X-0.325000X-0.450000X0.325000X-0.450000X0*%
%ADD29O,0.549999X1.250000*%
%ADD30C,1.270000*%
%ADD31C,1.594000*%
%ADD32RoundRect,0.102000X-0.695000X0.695000X-0.695000X-0.695000X0.695000X-0.695000X0.695000X0.695000X0*%
%ADD33RoundRect,0.102000X0.695000X-0.695000X0.695000X0.695000X-0.695000X0.695000X-0.695000X-0.695000X0*%
%ADD34C,3.810000*%
G04 APERTURE END LIST*
D10*
X123210000Y-90200000D02*
X166500000Y-90200000D01*
X166500000Y-98600000D01*
X123210000Y-98600000D01*
X123210000Y-90200000D01*
D11*
G36*
X181310000Y-68750000D02*
G01*
X96960000Y-68750000D01*
X96960000Y-59770000D01*
X181310000Y-59770000D01*
X181310000Y-68750000D01*
G37*
G36*
X123210000Y-98000000D02*
G01*
X116430000Y-98000000D01*
X116430000Y-96280000D01*
X123210000Y-96280000D01*
X123210000Y-98000000D01*
G37*
D10*
X94890000Y-73510000D02*
X123200000Y-73510000D01*
X123200000Y-82490000D01*
X94890000Y-82490000D01*
X94890000Y-73510000D01*
X166500000Y-90200000D02*
X181300000Y-90200000D01*
X181300000Y-99200000D01*
X166500000Y-99200000D01*
X166500000Y-90200000D01*
D11*
G36*
X123210000Y-96280000D02*
G01*
X114580000Y-96280000D01*
X114580000Y-82040000D01*
X123210000Y-82040000D01*
X123210000Y-96280000D01*
G37*
G36*
X166500000Y-98600000D02*
G01*
X123210000Y-98600000D01*
X123210000Y-90200000D01*
X166500000Y-90200000D01*
X166500000Y-98600000D01*
G37*
D10*
X96960000Y-59770000D02*
X181310000Y-59770000D01*
X181310000Y-68750000D01*
X96960000Y-68750000D01*
X96960000Y-59770000D01*
D11*
G36*
X123200000Y-82490000D02*
G01*
X94890000Y-82490000D01*
X94890000Y-73510000D01*
X123200000Y-73510000D01*
X123200000Y-82490000D01*
G37*
G36*
X181300000Y-99200000D02*
G01*
X166500000Y-99200000D01*
X166500000Y-90200000D01*
X181300000Y-90200000D01*
X181300000Y-99200000D01*
G37*
D10*
X114580000Y-82040000D02*
X123210000Y-82040000D01*
X123210000Y-96280000D01*
X114580000Y-96280000D01*
X114580000Y-82040000D01*
X116430000Y-96280000D02*
X123210000Y-96280000D01*
X123210000Y-98000000D01*
X116430000Y-98000000D01*
X116430000Y-96280000D01*
D12*
%TO.C,J11*%
X147200000Y-145575000D03*
D13*
X147200000Y-143035000D03*
%TD*%
D14*
%TO.C,J14*%
X101000000Y-56080000D03*
X101000000Y-133840000D03*
D15*
X95000000Y-103670000D03*
D16*
X95000000Y-101130000D03*
X95000000Y-98590000D03*
X95000000Y-96050000D03*
X95000000Y-93510000D03*
X95000000Y-90970000D03*
X95000000Y-88430000D03*
X95000000Y-85890000D03*
X97540000Y-103670000D03*
X97540000Y-101130000D03*
X97540000Y-98590000D03*
X97540000Y-96050000D03*
X97540000Y-93510000D03*
X97540000Y-90970000D03*
X97540000Y-88430000D03*
X97540000Y-85890000D03*
X100080000Y-103670000D03*
X100080000Y-101130000D03*
X100080000Y-98590000D03*
X100080000Y-96050000D03*
X100080000Y-93510000D03*
X100080000Y-90970000D03*
X100080000Y-88430000D03*
X100080000Y-85890000D03*
X106000000Y-125340000D03*
X103500000Y-125340000D03*
X101000000Y-125340000D03*
X98500000Y-125340000D03*
X96000000Y-125340000D03*
X106000000Y-128340000D03*
X103500000Y-128340000D03*
X101000000Y-128340000D03*
X98500000Y-128340000D03*
X96000000Y-128340000D03*
X106000000Y-119840000D03*
X103500000Y-119840000D03*
X101000000Y-119840000D03*
X98500000Y-119840000D03*
X96000000Y-119840000D03*
X106000000Y-122840000D03*
X103500000Y-122840000D03*
X101000000Y-122840000D03*
X98500000Y-122840000D03*
X96000000Y-122840000D03*
X106000000Y-114340000D03*
X103500000Y-114340000D03*
X101000000Y-114340000D03*
X98500000Y-114340000D03*
X96000000Y-114340000D03*
X106000000Y-117340000D03*
X103500000Y-117340000D03*
X101000000Y-117340000D03*
X98500000Y-117340000D03*
X96000000Y-117340000D03*
X106000000Y-108840000D03*
X103500000Y-108840000D03*
X101000000Y-108840000D03*
X98500000Y-108840000D03*
X96000000Y-108840000D03*
X106000000Y-111840000D03*
X103500000Y-111840000D03*
X101000000Y-111840000D03*
X98500000Y-111840000D03*
X96000000Y-111840000D03*
X106000000Y-78080000D03*
X103500000Y-78080000D03*
X101000000Y-78080000D03*
X98500000Y-78080000D03*
X96000000Y-78080000D03*
X106000000Y-81080000D03*
X103500000Y-81080000D03*
X101000000Y-81080000D03*
X98500000Y-81080000D03*
X96000000Y-81080000D03*
X106000000Y-72580000D03*
X103500000Y-72580000D03*
X101000000Y-72580000D03*
X98500000Y-72580000D03*
X96000000Y-72580000D03*
X106000000Y-75580000D03*
X103500000Y-75580000D03*
X101000000Y-75580000D03*
X98500000Y-75580000D03*
X96000000Y-75580000D03*
X106000000Y-67080000D03*
X103500000Y-67080000D03*
X101000000Y-67080000D03*
X98500000Y-67080000D03*
X96000000Y-67080000D03*
X106000000Y-70080000D03*
X103500000Y-70080000D03*
X101000000Y-70080000D03*
X98500000Y-70080000D03*
X96000000Y-70080000D03*
X106000000Y-61580000D03*
X103500000Y-61580000D03*
X101000000Y-61580000D03*
X98500000Y-61580000D03*
X96000000Y-61580000D03*
X106000000Y-64580000D03*
X103500000Y-64580000D03*
X101000000Y-64580000D03*
X98500000Y-64580000D03*
X96000000Y-64580000D03*
%TD*%
D17*
%TO.C,U4*%
X114970000Y-47550000D03*
X120050000Y-47550000D03*
X125130000Y-47550000D03*
%TD*%
D18*
%TO.C,J8*%
X124699979Y-121340000D03*
X112700003Y-121340000D03*
D19*
X115700002Y-117400000D03*
D20*
X118700001Y-117400000D03*
X121700000Y-117400000D03*
X115700002Y-120399999D03*
X118700001Y-120399999D03*
X121700000Y-120399999D03*
%TD*%
D21*
%TO.C,R6*%
X153255000Y-106470000D03*
X155080000Y-106470000D03*
%TD*%
D12*
%TO.C,J6*%
X156625000Y-132000000D03*
D13*
X159165000Y-132000000D03*
%TD*%
D12*
%TO.C,J5*%
X108450000Y-47100000D03*
%TD*%
D18*
%TO.C,J18*%
X155475000Y-141760341D03*
X155475000Y-135760353D03*
D19*
X159415000Y-138760352D03*
D20*
X156415001Y-138760352D03*
%TD*%
D22*
%TO.C,J9*%
X166600000Y-54100000D03*
%TD*%
D23*
%TO.C,U3*%
X171400000Y-44100000D03*
D24*
X168900000Y-44100000D03*
X166400000Y-44100000D03*
X163900000Y-44100000D03*
X161400000Y-44100000D03*
X158900000Y-44100000D03*
X156400000Y-44100000D03*
X153900000Y-44100000D03*
%TD*%
D25*
%TO.C,D1*%
X150275000Y-80475000D03*
X150275000Y-82525000D03*
%TD*%
D26*
%TO.C,C1*%
X175700000Y-81606800D03*
X175700000Y-74393200D03*
%TD*%
D25*
%TO.C,D4*%
X111050000Y-90675000D03*
X111050000Y-92725000D03*
%TD*%
D27*
%TO.C,R5*%
X150275000Y-77062500D03*
X150275000Y-75237500D03*
%TD*%
D12*
%TO.C,J4*%
X132435000Y-43175001D03*
D13*
X134975000Y-43175001D03*
X137515000Y-43175001D03*
X140055000Y-43175001D03*
X142595000Y-43175001D03*
X145135000Y-43175001D03*
X147675000Y-43175001D03*
%TD*%
D26*
%TO.C,C2*%
X129600000Y-81606800D03*
X129600000Y-74393200D03*
%TD*%
D28*
%TO.C,D2*%
X149092500Y-106570000D03*
X147042500Y-106570000D03*
%TD*%
D17*
%TO.C,U1*%
X103933400Y-143500000D03*
X109013400Y-143500000D03*
X114093400Y-143500000D03*
X119173400Y-143500000D03*
X124253400Y-143500000D03*
X129333400Y-143500000D03*
%TD*%
D29*
%TO.C,U2*%
X147300000Y-47250000D03*
X146030000Y-47250000D03*
X144760000Y-47250000D03*
X143490000Y-47250000D03*
X142220000Y-47250000D03*
X140950000Y-47250000D03*
X139680000Y-47250000D03*
X138410000Y-47250000D03*
X138410000Y-52500000D03*
X139680000Y-52500000D03*
X140950000Y-52500000D03*
X142220000Y-52500000D03*
X143490000Y-52500000D03*
X144760000Y-52500000D03*
X146030000Y-52500000D03*
X147300000Y-52500000D03*
%TD*%
D30*
%TO.C,J19*%
X142400000Y-109000001D03*
X140399999Y-109000001D03*
X142400000Y-111000000D03*
X140399999Y-111000000D03*
X142400000Y-113000001D03*
X140399999Y-113000001D03*
X142400000Y-115000002D03*
X140399999Y-115000002D03*
X142400000Y-117000000D03*
X140399999Y-117000000D03*
X169870901Y-109000001D03*
X167870900Y-109000001D03*
X169870901Y-111000000D03*
X167870900Y-111000000D03*
X169870901Y-113000001D03*
X167870900Y-113000001D03*
X169870901Y-115000002D03*
X167870900Y-115000002D03*
X169870901Y-117000000D03*
X167870900Y-117000000D03*
%TD*%
D22*
%TO.C,J15*%
X129200000Y-106500000D03*
%TD*%
%TO.C,J7*%
X178900000Y-105200000D03*
%TD*%
D31*
%TO.C,J3*%
X179425000Y-89320000D03*
X176885000Y-89320000D03*
X179425000Y-91860000D03*
X176885000Y-91860000D03*
X179425000Y-94400000D03*
X176885000Y-94400000D03*
X179425000Y-96940000D03*
X176885000Y-96940000D03*
X179425000Y-99480000D03*
D32*
X176885000Y-99480000D03*
D31*
X179450000Y-129980000D03*
X179450000Y-132520000D03*
D32*
X176910000Y-132520000D03*
D33*
X179200000Y-56320000D03*
D31*
X176660000Y-56320000D03*
X179200000Y-58860000D03*
X176660000Y-58860000D03*
X179200000Y-61400000D03*
X176660000Y-61400000D03*
X179200000Y-63940000D03*
X176660000Y-63940000D03*
X179200000Y-66480000D03*
X176660000Y-66480000D03*
X176910000Y-129980000D03*
X179450000Y-127440000D03*
X176910000Y-127440000D03*
X179450000Y-124900000D03*
X176910000Y-124900000D03*
X179450000Y-122360000D03*
X176910000Y-122360000D03*
%TD*%
D22*
%TO.C,J16*%
X178700000Y-139200000D03*
%TD*%
D31*
%TO.C,J2*%
X131425000Y-89320000D03*
X128885000Y-89320000D03*
X131425000Y-91860000D03*
X128885000Y-91860000D03*
X131425000Y-94400000D03*
X128885000Y-94400000D03*
X131425000Y-96940000D03*
X128885000Y-96940000D03*
X131425000Y-99480000D03*
D32*
X128885000Y-99480000D03*
D31*
X131450000Y-129980000D03*
X131450000Y-132520000D03*
D32*
X128910000Y-132520000D03*
D33*
X131200000Y-56320000D03*
D31*
X128660000Y-56320000D03*
X131200000Y-58860000D03*
X128660000Y-58860000D03*
X131200000Y-61400000D03*
X128660000Y-61400000D03*
X131200000Y-63940000D03*
X128660000Y-63940000D03*
X131200000Y-66480000D03*
X128660000Y-66480000D03*
X128910000Y-129980000D03*
X131450000Y-127440000D03*
X128910000Y-127440000D03*
X131450000Y-124900000D03*
X128910000Y-124900000D03*
X131450000Y-122360000D03*
X128910000Y-122360000D03*
%TD*%
D18*
%TO.C,J1*%
X141199989Y-146440000D03*
X135200001Y-146440000D03*
D19*
X138200000Y-142500000D03*
D20*
X138200000Y-145499999D03*
%TD*%
D12*
%TO.C,J10*%
X179000000Y-110000000D03*
%TD*%
D27*
%TO.C,R8*%
X111000000Y-88112500D03*
X111000000Y-86287500D03*
%TD*%
D34*
%TO.C,H1*%
X97000000Y-146800000D03*
%TD*%
%TO.C,H1*%
X96900000Y-45100000D03*
%TD*%
%TO.C,H1*%
X177700000Y-146800000D03*
%TD*%
%TO.C,H1*%
X177700000Y-45200000D03*
%TD*%
M02*
