%TF.GenerationSoftware,KiCad,Pcbnew,8.0.4*%
%TF.CreationDate,2025-01-10T13:04:31-08:00*%
%TF.ProjectId,X17_Backplane,5831375f-4261-4636-9b70-6c616e652e6b,rev?*%
%TF.SameCoordinates,Original*%
%TF.FileFunction,Legend,Top*%
%TF.FilePolarity,Positive*%
%FSLAX46Y46*%
G04 Gerber Fmt 4.6, Leading zero omitted, Abs format (unit mm)*
G04 Created by KiCad (PCBNEW 8.0.4) date 2025-01-10 13:04:31*
%MOMM*%
%LPD*%
G01*
G04 APERTURE LIST*
G04 Aperture macros list*
%AMRoundRect*
0 Rectangle with rounded corners*
0 $1 Rounding radius*
0 $2 $3 $4 $5 $6 $7 $8 $9 X,Y pos of 4 corners*
0 Add a 4 corners polygon primitive as box body*
4,1,4,$2,$3,$4,$5,$6,$7,$8,$9,$2,$3,0*
0 Add four circle primitives for the rounded corners*
1,1,$1+$1,$2,$3*
1,1,$1+$1,$4,$5*
1,1,$1+$1,$6,$7*
1,1,$1+$1,$8,$9*
0 Add four rect primitives between the rounded corners*
20,1,$1+$1,$2,$3,$4,$5,0*
20,1,$1+$1,$4,$5,$6,$7,0*
20,1,$1+$1,$6,$7,$8,$9,0*
20,1,$1+$1,$8,$9,$2,$3,0*%
G04 Aperture macros list end*
%ADD10C,0.100000*%
%ADD11C,0.150000*%
%ADD12C,0.152400*%
%ADD13C,0.120000*%
%ADD14C,0.200000*%
%ADD15C,0.508000*%
%ADD16C,0.127000*%
%ADD17C,0.000000*%
%ADD18C,3.810000*%
%ADD19R,1.700000X1.700000*%
%ADD20O,1.700000X1.700000*%
%ADD21C,3.200000*%
%ADD22RoundRect,0.102000X-0.765000X0.765000X-0.765000X-0.765000X0.765000X-0.765000X0.765000X0.765000X0*%
%ADD23C,1.734000*%
%ADD24C,2.032000*%
%ADD25C,1.020000*%
%ADD26R,1.520000X1.520000*%
%ADD27C,1.520000*%
%ADD28RoundRect,0.237500X-0.250000X-0.237500X0.250000X-0.237500X0.250000X0.237500X-0.250000X0.237500X0*%
%ADD29C,4.000000*%
%ADD30C,1.854000*%
%ADD31RoundRect,0.102000X0.825000X0.825000X-0.825000X0.825000X-0.825000X-0.825000X0.825000X-0.825000X0*%
%ADD32RoundRect,0.250000X-0.450000X0.325000X-0.450000X-0.325000X0.450000X-0.325000X0.450000X0.325000X0*%
%ADD33R,1.498600X3.810000*%
%ADD34RoundRect,0.237500X0.237500X-0.250000X0.237500X0.250000X-0.237500X0.250000X-0.237500X-0.250000X0*%
%ADD35RoundRect,0.250000X0.325000X0.450000X-0.325000X0.450000X-0.325000X-0.450000X0.325000X-0.450000X0*%
%ADD36O,0.549999X1.250000*%
%ADD37C,1.270000*%
%ADD38C,1.594000*%
%ADD39RoundRect,0.102000X-0.695000X0.695000X-0.695000X-0.695000X0.695000X-0.695000X0.695000X0.695000X0*%
%ADD40RoundRect,0.102000X0.695000X-0.695000X0.695000X0.695000X-0.695000X0.695000X-0.695000X-0.695000X0*%
G04 APERTURE END LIST*
D10*
X131000050Y-97400000D02*
X180999950Y-97400000D01*
X180999950Y-130699400D01*
X131000050Y-130699400D01*
X131000050Y-97400000D01*
D11*
X127576190Y-148402438D02*
X127480952Y-148354819D01*
X127480952Y-148354819D02*
X127338095Y-148354819D01*
X127338095Y-148354819D02*
X127195238Y-148402438D01*
X127195238Y-148402438D02*
X127100000Y-148497676D01*
X127100000Y-148497676D02*
X127052381Y-148592914D01*
X127052381Y-148592914D02*
X127004762Y-148783390D01*
X127004762Y-148783390D02*
X127004762Y-148926247D01*
X127004762Y-148926247D02*
X127052381Y-149116723D01*
X127052381Y-149116723D02*
X127100000Y-149211961D01*
X127100000Y-149211961D02*
X127195238Y-149307200D01*
X127195238Y-149307200D02*
X127338095Y-149354819D01*
X127338095Y-149354819D02*
X127433333Y-149354819D01*
X127433333Y-149354819D02*
X127576190Y-149307200D01*
X127576190Y-149307200D02*
X127623809Y-149259580D01*
X127623809Y-149259580D02*
X127623809Y-148926247D01*
X127623809Y-148926247D02*
X127433333Y-148926247D01*
X128052381Y-149354819D02*
X128052381Y-148354819D01*
X128052381Y-148354819D02*
X128623809Y-149354819D01*
X128623809Y-149354819D02*
X128623809Y-148354819D01*
X129100000Y-149354819D02*
X129100000Y-148354819D01*
X129100000Y-148354819D02*
X129338095Y-148354819D01*
X129338095Y-148354819D02*
X129480952Y-148402438D01*
X129480952Y-148402438D02*
X129576190Y-148497676D01*
X129576190Y-148497676D02*
X129623809Y-148592914D01*
X129623809Y-148592914D02*
X129671428Y-148783390D01*
X129671428Y-148783390D02*
X129671428Y-148926247D01*
X129671428Y-148926247D02*
X129623809Y-149116723D01*
X129623809Y-149116723D02*
X129576190Y-149211961D01*
X129576190Y-149211961D02*
X129480952Y-149307200D01*
X129480952Y-149307200D02*
X129338095Y-149354819D01*
X129338095Y-149354819D02*
X129100000Y-149354819D01*
X129861905Y-149450057D02*
X130623809Y-149450057D01*
X130719048Y-148354819D02*
X131290476Y-148354819D01*
X131004762Y-149354819D02*
X131004762Y-148354819D01*
X131957143Y-148831009D02*
X132100000Y-148878628D01*
X132100000Y-148878628D02*
X132147619Y-148926247D01*
X132147619Y-148926247D02*
X132195238Y-149021485D01*
X132195238Y-149021485D02*
X132195238Y-149164342D01*
X132195238Y-149164342D02*
X132147619Y-149259580D01*
X132147619Y-149259580D02*
X132100000Y-149307200D01*
X132100000Y-149307200D02*
X132004762Y-149354819D01*
X132004762Y-149354819D02*
X131623810Y-149354819D01*
X131623810Y-149354819D02*
X131623810Y-148354819D01*
X131623810Y-148354819D02*
X131957143Y-148354819D01*
X131957143Y-148354819D02*
X132052381Y-148402438D01*
X132052381Y-148402438D02*
X132100000Y-148450057D01*
X132100000Y-148450057D02*
X132147619Y-148545295D01*
X132147619Y-148545295D02*
X132147619Y-148640533D01*
X132147619Y-148640533D02*
X132100000Y-148735771D01*
X132100000Y-148735771D02*
X132052381Y-148783390D01*
X132052381Y-148783390D02*
X131957143Y-148831009D01*
X131957143Y-148831009D02*
X131623810Y-148831009D01*
X144980952Y-140569104D02*
X145457142Y-140569104D01*
X144885714Y-140854819D02*
X145219047Y-139854819D01*
X145219047Y-139854819D02*
X145552380Y-140854819D01*
X145647619Y-140950057D02*
X146409523Y-140950057D01*
X146504762Y-139854819D02*
X147076190Y-139854819D01*
X146790476Y-140854819D02*
X146790476Y-139854819D01*
X147742857Y-140331009D02*
X147885714Y-140378628D01*
X147885714Y-140378628D02*
X147933333Y-140426247D01*
X147933333Y-140426247D02*
X147980952Y-140521485D01*
X147980952Y-140521485D02*
X147980952Y-140664342D01*
X147980952Y-140664342D02*
X147933333Y-140759580D01*
X147933333Y-140759580D02*
X147885714Y-140807200D01*
X147885714Y-140807200D02*
X147790476Y-140854819D01*
X147790476Y-140854819D02*
X147409524Y-140854819D01*
X147409524Y-140854819D02*
X147409524Y-139854819D01*
X147409524Y-139854819D02*
X147742857Y-139854819D01*
X147742857Y-139854819D02*
X147838095Y-139902438D01*
X147838095Y-139902438D02*
X147885714Y-139950057D01*
X147885714Y-139950057D02*
X147933333Y-140045295D01*
X147933333Y-140045295D02*
X147933333Y-140140533D01*
X147933333Y-140140533D02*
X147885714Y-140235771D01*
X147885714Y-140235771D02*
X147838095Y-140283390D01*
X147838095Y-140283390D02*
X147742857Y-140331009D01*
X147742857Y-140331009D02*
X147409524Y-140331009D01*
X148409524Y-140473866D02*
X149171429Y-140473866D01*
X174180952Y-105454819D02*
X173609524Y-105454819D01*
X173895238Y-105454819D02*
X173895238Y-104454819D01*
X173895238Y-104454819D02*
X173800000Y-104597676D01*
X173800000Y-104597676D02*
X173704762Y-104692914D01*
X173704762Y-104692914D02*
X173609524Y-104740533D01*
X174561905Y-104550057D02*
X174609524Y-104502438D01*
X174609524Y-104502438D02*
X174704762Y-104454819D01*
X174704762Y-104454819D02*
X174942857Y-104454819D01*
X174942857Y-104454819D02*
X175038095Y-104502438D01*
X175038095Y-104502438D02*
X175085714Y-104550057D01*
X175085714Y-104550057D02*
X175133333Y-104645295D01*
X175133333Y-104645295D02*
X175133333Y-104740533D01*
X175133333Y-104740533D02*
X175085714Y-104883390D01*
X175085714Y-104883390D02*
X174514286Y-105454819D01*
X174514286Y-105454819D02*
X175133333Y-105454819D01*
X175419048Y-104454819D02*
X175752381Y-105454819D01*
X175752381Y-105454819D02*
X176085714Y-104454819D01*
X147223810Y-46354819D02*
X147223810Y-45354819D01*
X148223809Y-46354819D02*
X147652381Y-46354819D01*
X147938095Y-46354819D02*
X147938095Y-45354819D01*
X147938095Y-45354819D02*
X147842857Y-45497676D01*
X147842857Y-45497676D02*
X147747619Y-45592914D01*
X147747619Y-45592914D02*
X147652381Y-45640533D01*
X142123810Y-46154819D02*
X142123810Y-45154819D01*
X142504762Y-45154819D02*
X143123809Y-45154819D01*
X143123809Y-45154819D02*
X142790476Y-45535771D01*
X142790476Y-45535771D02*
X142933333Y-45535771D01*
X142933333Y-45535771D02*
X143028571Y-45583390D01*
X143028571Y-45583390D02*
X143076190Y-45631009D01*
X143076190Y-45631009D02*
X143123809Y-45726247D01*
X143123809Y-45726247D02*
X143123809Y-45964342D01*
X143123809Y-45964342D02*
X143076190Y-46059580D01*
X143076190Y-46059580D02*
X143028571Y-46107200D01*
X143028571Y-46107200D02*
X142933333Y-46154819D01*
X142933333Y-46154819D02*
X142647619Y-46154819D01*
X142647619Y-46154819D02*
X142552381Y-46107200D01*
X142552381Y-46107200D02*
X142504762Y-46059580D01*
X155238095Y-48107200D02*
X155380952Y-48154819D01*
X155380952Y-48154819D02*
X155619047Y-48154819D01*
X155619047Y-48154819D02*
X155714285Y-48107200D01*
X155714285Y-48107200D02*
X155761904Y-48059580D01*
X155761904Y-48059580D02*
X155809523Y-47964342D01*
X155809523Y-47964342D02*
X155809523Y-47869104D01*
X155809523Y-47869104D02*
X155761904Y-47773866D01*
X155761904Y-47773866D02*
X155714285Y-47726247D01*
X155714285Y-47726247D02*
X155619047Y-47678628D01*
X155619047Y-47678628D02*
X155428571Y-47631009D01*
X155428571Y-47631009D02*
X155333333Y-47583390D01*
X155333333Y-47583390D02*
X155285714Y-47535771D01*
X155285714Y-47535771D02*
X155238095Y-47440533D01*
X155238095Y-47440533D02*
X155238095Y-47345295D01*
X155238095Y-47345295D02*
X155285714Y-47250057D01*
X155285714Y-47250057D02*
X155333333Y-47202438D01*
X155333333Y-47202438D02*
X155428571Y-47154819D01*
X155428571Y-47154819D02*
X155666666Y-47154819D01*
X155666666Y-47154819D02*
X155809523Y-47202438D01*
X156190476Y-47250057D02*
X156238095Y-47202438D01*
X156238095Y-47202438D02*
X156333333Y-47154819D01*
X156333333Y-47154819D02*
X156571428Y-47154819D01*
X156571428Y-47154819D02*
X156666666Y-47202438D01*
X156666666Y-47202438D02*
X156714285Y-47250057D01*
X156714285Y-47250057D02*
X156761904Y-47345295D01*
X156761904Y-47345295D02*
X156761904Y-47440533D01*
X156761904Y-47440533D02*
X156714285Y-47583390D01*
X156714285Y-47583390D02*
X156142857Y-48154819D01*
X156142857Y-48154819D02*
X156761904Y-48154819D01*
X128809523Y-109354819D02*
X128333333Y-109354819D01*
X128333333Y-109354819D02*
X128285714Y-109831009D01*
X128285714Y-109831009D02*
X128333333Y-109783390D01*
X128333333Y-109783390D02*
X128428571Y-109735771D01*
X128428571Y-109735771D02*
X128666666Y-109735771D01*
X128666666Y-109735771D02*
X128761904Y-109783390D01*
X128761904Y-109783390D02*
X128809523Y-109831009D01*
X128809523Y-109831009D02*
X128857142Y-109926247D01*
X128857142Y-109926247D02*
X128857142Y-110164342D01*
X128857142Y-110164342D02*
X128809523Y-110259580D01*
X128809523Y-110259580D02*
X128761904Y-110307200D01*
X128761904Y-110307200D02*
X128666666Y-110354819D01*
X128666666Y-110354819D02*
X128428571Y-110354819D01*
X128428571Y-110354819D02*
X128333333Y-110307200D01*
X128333333Y-110307200D02*
X128285714Y-110259580D01*
X129142857Y-109354819D02*
X129476190Y-110354819D01*
X129476190Y-110354819D02*
X129809523Y-109354819D01*
X171604761Y-137154819D02*
X171128571Y-137154819D01*
X171128571Y-137154819D02*
X171080952Y-137631009D01*
X171080952Y-137631009D02*
X171128571Y-137583390D01*
X171128571Y-137583390D02*
X171223809Y-137535771D01*
X171223809Y-137535771D02*
X171461904Y-137535771D01*
X171461904Y-137535771D02*
X171557142Y-137583390D01*
X171557142Y-137583390D02*
X171604761Y-137631009D01*
X171604761Y-137631009D02*
X171652380Y-137726247D01*
X171652380Y-137726247D02*
X171652380Y-137964342D01*
X171652380Y-137964342D02*
X171604761Y-138059580D01*
X171604761Y-138059580D02*
X171557142Y-138107200D01*
X171557142Y-138107200D02*
X171461904Y-138154819D01*
X171461904Y-138154819D02*
X171223809Y-138154819D01*
X171223809Y-138154819D02*
X171128571Y-138107200D01*
X171128571Y-138107200D02*
X171080952Y-138059580D01*
X171938095Y-137154819D02*
X172271428Y-138154819D01*
X172271428Y-138154819D02*
X172604761Y-137154819D01*
X172700000Y-138250057D02*
X173461904Y-138250057D01*
X174223809Y-137202438D02*
X174128571Y-137154819D01*
X174128571Y-137154819D02*
X173985714Y-137154819D01*
X173985714Y-137154819D02*
X173842857Y-137202438D01*
X173842857Y-137202438D02*
X173747619Y-137297676D01*
X173747619Y-137297676D02*
X173700000Y-137392914D01*
X173700000Y-137392914D02*
X173652381Y-137583390D01*
X173652381Y-137583390D02*
X173652381Y-137726247D01*
X173652381Y-137726247D02*
X173700000Y-137916723D01*
X173700000Y-137916723D02*
X173747619Y-138011961D01*
X173747619Y-138011961D02*
X173842857Y-138107200D01*
X173842857Y-138107200D02*
X173985714Y-138154819D01*
X173985714Y-138154819D02*
X174080952Y-138154819D01*
X174080952Y-138154819D02*
X174223809Y-138107200D01*
X174223809Y-138107200D02*
X174271428Y-138059580D01*
X174271428Y-138059580D02*
X174271428Y-137726247D01*
X174271428Y-137726247D02*
X174080952Y-137726247D01*
X174700000Y-138154819D02*
X174700000Y-137154819D01*
X174700000Y-137154819D02*
X175271428Y-138154819D01*
X175271428Y-138154819D02*
X175271428Y-137154819D01*
X175747619Y-138154819D02*
X175747619Y-137154819D01*
X175747619Y-137154819D02*
X175985714Y-137154819D01*
X175985714Y-137154819D02*
X176128571Y-137202438D01*
X176128571Y-137202438D02*
X176223809Y-137297676D01*
X176223809Y-137297676D02*
X176271428Y-137392914D01*
X176271428Y-137392914D02*
X176319047Y-137583390D01*
X176319047Y-137583390D02*
X176319047Y-137726247D01*
X176319047Y-137726247D02*
X176271428Y-137916723D01*
X176271428Y-137916723D02*
X176223809Y-138011961D01*
X176223809Y-138011961D02*
X176128571Y-138107200D01*
X176128571Y-138107200D02*
X175985714Y-138154819D01*
X175985714Y-138154819D02*
X175747619Y-138154819D01*
X108988152Y-92314285D02*
X109654819Y-92314285D01*
X108607200Y-92552380D02*
X109321485Y-92790475D01*
X109321485Y-92790475D02*
X109321485Y-92171428D01*
X109083390Y-91647618D02*
X109035771Y-91742856D01*
X109035771Y-91742856D02*
X108988152Y-91790475D01*
X108988152Y-91790475D02*
X108892914Y-91838094D01*
X108892914Y-91838094D02*
X108845295Y-91838094D01*
X108845295Y-91838094D02*
X108750057Y-91790475D01*
X108750057Y-91790475D02*
X108702438Y-91742856D01*
X108702438Y-91742856D02*
X108654819Y-91647618D01*
X108654819Y-91647618D02*
X108654819Y-91457142D01*
X108654819Y-91457142D02*
X108702438Y-91361904D01*
X108702438Y-91361904D02*
X108750057Y-91314285D01*
X108750057Y-91314285D02*
X108845295Y-91266666D01*
X108845295Y-91266666D02*
X108892914Y-91266666D01*
X108892914Y-91266666D02*
X108988152Y-91314285D01*
X108988152Y-91314285D02*
X109035771Y-91361904D01*
X109035771Y-91361904D02*
X109083390Y-91457142D01*
X109083390Y-91457142D02*
X109083390Y-91647618D01*
X109083390Y-91647618D02*
X109131009Y-91742856D01*
X109131009Y-91742856D02*
X109178628Y-91790475D01*
X109178628Y-91790475D02*
X109273866Y-91838094D01*
X109273866Y-91838094D02*
X109464342Y-91838094D01*
X109464342Y-91838094D02*
X109559580Y-91790475D01*
X109559580Y-91790475D02*
X109607200Y-91742856D01*
X109607200Y-91742856D02*
X109654819Y-91647618D01*
X109654819Y-91647618D02*
X109654819Y-91457142D01*
X109654819Y-91457142D02*
X109607200Y-91361904D01*
X109607200Y-91361904D02*
X109559580Y-91314285D01*
X109559580Y-91314285D02*
X109464342Y-91266666D01*
X109464342Y-91266666D02*
X109273866Y-91266666D01*
X109273866Y-91266666D02*
X109178628Y-91314285D01*
X109178628Y-91314285D02*
X109131009Y-91361904D01*
X109131009Y-91361904D02*
X109083390Y-91457142D01*
X108654819Y-90980951D02*
X109654819Y-90647618D01*
X109654819Y-90647618D02*
X108654819Y-90314285D01*
X157738095Y-48007200D02*
X157880952Y-48054819D01*
X157880952Y-48054819D02*
X158119047Y-48054819D01*
X158119047Y-48054819D02*
X158214285Y-48007200D01*
X158214285Y-48007200D02*
X158261904Y-47959580D01*
X158261904Y-47959580D02*
X158309523Y-47864342D01*
X158309523Y-47864342D02*
X158309523Y-47769104D01*
X158309523Y-47769104D02*
X158261904Y-47673866D01*
X158261904Y-47673866D02*
X158214285Y-47626247D01*
X158214285Y-47626247D02*
X158119047Y-47578628D01*
X158119047Y-47578628D02*
X157928571Y-47531009D01*
X157928571Y-47531009D02*
X157833333Y-47483390D01*
X157833333Y-47483390D02*
X157785714Y-47435771D01*
X157785714Y-47435771D02*
X157738095Y-47340533D01*
X157738095Y-47340533D02*
X157738095Y-47245295D01*
X157738095Y-47245295D02*
X157785714Y-47150057D01*
X157785714Y-47150057D02*
X157833333Y-47102438D01*
X157833333Y-47102438D02*
X157928571Y-47054819D01*
X157928571Y-47054819D02*
X158166666Y-47054819D01*
X158166666Y-47054819D02*
X158309523Y-47102438D01*
X158642857Y-47054819D02*
X159261904Y-47054819D01*
X159261904Y-47054819D02*
X158928571Y-47435771D01*
X158928571Y-47435771D02*
X159071428Y-47435771D01*
X159071428Y-47435771D02*
X159166666Y-47483390D01*
X159166666Y-47483390D02*
X159214285Y-47531009D01*
X159214285Y-47531009D02*
X159261904Y-47626247D01*
X159261904Y-47626247D02*
X159261904Y-47864342D01*
X159261904Y-47864342D02*
X159214285Y-47959580D01*
X159214285Y-47959580D02*
X159166666Y-48007200D01*
X159166666Y-48007200D02*
X159071428Y-48054819D01*
X159071428Y-48054819D02*
X158785714Y-48054819D01*
X158785714Y-48054819D02*
X158690476Y-48007200D01*
X158690476Y-48007200D02*
X158642857Y-47959580D01*
X106445238Y-44504819D02*
X106445238Y-43504819D01*
X106445238Y-43504819D02*
X106826190Y-43504819D01*
X106826190Y-43504819D02*
X106921428Y-43552438D01*
X106921428Y-43552438D02*
X106969047Y-43600057D01*
X106969047Y-43600057D02*
X107016666Y-43695295D01*
X107016666Y-43695295D02*
X107016666Y-43838152D01*
X107016666Y-43838152D02*
X106969047Y-43933390D01*
X106969047Y-43933390D02*
X106921428Y-43981009D01*
X106921428Y-43981009D02*
X106826190Y-44028628D01*
X106826190Y-44028628D02*
X106445238Y-44028628D01*
X107350000Y-43504819D02*
X107588095Y-44504819D01*
X107588095Y-44504819D02*
X107778571Y-43790533D01*
X107778571Y-43790533D02*
X107969047Y-44504819D01*
X107969047Y-44504819D02*
X108207143Y-43504819D01*
X108588095Y-44504819D02*
X108588095Y-43504819D01*
X108588095Y-43504819D02*
X108921428Y-44219104D01*
X108921428Y-44219104D02*
X109254761Y-43504819D01*
X109254761Y-43504819D02*
X109254761Y-44504819D01*
X110302380Y-44409580D02*
X110254761Y-44457200D01*
X110254761Y-44457200D02*
X110111904Y-44504819D01*
X110111904Y-44504819D02*
X110016666Y-44504819D01*
X110016666Y-44504819D02*
X109873809Y-44457200D01*
X109873809Y-44457200D02*
X109778571Y-44361961D01*
X109778571Y-44361961D02*
X109730952Y-44266723D01*
X109730952Y-44266723D02*
X109683333Y-44076247D01*
X109683333Y-44076247D02*
X109683333Y-43933390D01*
X109683333Y-43933390D02*
X109730952Y-43742914D01*
X109730952Y-43742914D02*
X109778571Y-43647676D01*
X109778571Y-43647676D02*
X109873809Y-43552438D01*
X109873809Y-43552438D02*
X110016666Y-43504819D01*
X110016666Y-43504819D02*
X110111904Y-43504819D01*
X110111904Y-43504819D02*
X110254761Y-43552438D01*
X110254761Y-43552438D02*
X110302380Y-43600057D01*
X119638095Y-41902438D02*
X119542857Y-41854819D01*
X119542857Y-41854819D02*
X119400000Y-41854819D01*
X119400000Y-41854819D02*
X119257143Y-41902438D01*
X119257143Y-41902438D02*
X119161905Y-41997676D01*
X119161905Y-41997676D02*
X119114286Y-42092914D01*
X119114286Y-42092914D02*
X119066667Y-42283390D01*
X119066667Y-42283390D02*
X119066667Y-42426247D01*
X119066667Y-42426247D02*
X119114286Y-42616723D01*
X119114286Y-42616723D02*
X119161905Y-42711961D01*
X119161905Y-42711961D02*
X119257143Y-42807200D01*
X119257143Y-42807200D02*
X119400000Y-42854819D01*
X119400000Y-42854819D02*
X119495238Y-42854819D01*
X119495238Y-42854819D02*
X119638095Y-42807200D01*
X119638095Y-42807200D02*
X119685714Y-42759580D01*
X119685714Y-42759580D02*
X119685714Y-42426247D01*
X119685714Y-42426247D02*
X119495238Y-42426247D01*
X120114286Y-42854819D02*
X120114286Y-41854819D01*
X120114286Y-41854819D02*
X120685714Y-42854819D01*
X120685714Y-42854819D02*
X120685714Y-41854819D01*
X121161905Y-42854819D02*
X121161905Y-41854819D01*
X121161905Y-41854819D02*
X121400000Y-41854819D01*
X121400000Y-41854819D02*
X121542857Y-41902438D01*
X121542857Y-41902438D02*
X121638095Y-41997676D01*
X121638095Y-41997676D02*
X121685714Y-42092914D01*
X121685714Y-42092914D02*
X121733333Y-42283390D01*
X121733333Y-42283390D02*
X121733333Y-42426247D01*
X121733333Y-42426247D02*
X121685714Y-42616723D01*
X121685714Y-42616723D02*
X121638095Y-42711961D01*
X121638095Y-42711961D02*
X121542857Y-42807200D01*
X121542857Y-42807200D02*
X121400000Y-42854819D01*
X121400000Y-42854819D02*
X121161905Y-42854819D01*
X124480952Y-42754819D02*
X123909524Y-42754819D01*
X124195238Y-42754819D02*
X124195238Y-41754819D01*
X124195238Y-41754819D02*
X124100000Y-41897676D01*
X124100000Y-41897676D02*
X124004762Y-41992914D01*
X124004762Y-41992914D02*
X123909524Y-42040533D01*
X124861905Y-41850057D02*
X124909524Y-41802438D01*
X124909524Y-41802438D02*
X125004762Y-41754819D01*
X125004762Y-41754819D02*
X125242857Y-41754819D01*
X125242857Y-41754819D02*
X125338095Y-41802438D01*
X125338095Y-41802438D02*
X125385714Y-41850057D01*
X125385714Y-41850057D02*
X125433333Y-41945295D01*
X125433333Y-41945295D02*
X125433333Y-42040533D01*
X125433333Y-42040533D02*
X125385714Y-42183390D01*
X125385714Y-42183390D02*
X124814286Y-42754819D01*
X124814286Y-42754819D02*
X125433333Y-42754819D01*
X125719048Y-41754819D02*
X126052381Y-42754819D01*
X126052381Y-42754819D02*
X126385714Y-41754819D01*
X152938095Y-48207200D02*
X153080952Y-48254819D01*
X153080952Y-48254819D02*
X153319047Y-48254819D01*
X153319047Y-48254819D02*
X153414285Y-48207200D01*
X153414285Y-48207200D02*
X153461904Y-48159580D01*
X153461904Y-48159580D02*
X153509523Y-48064342D01*
X153509523Y-48064342D02*
X153509523Y-47969104D01*
X153509523Y-47969104D02*
X153461904Y-47873866D01*
X153461904Y-47873866D02*
X153414285Y-47826247D01*
X153414285Y-47826247D02*
X153319047Y-47778628D01*
X153319047Y-47778628D02*
X153128571Y-47731009D01*
X153128571Y-47731009D02*
X153033333Y-47683390D01*
X153033333Y-47683390D02*
X152985714Y-47635771D01*
X152985714Y-47635771D02*
X152938095Y-47540533D01*
X152938095Y-47540533D02*
X152938095Y-47445295D01*
X152938095Y-47445295D02*
X152985714Y-47350057D01*
X152985714Y-47350057D02*
X153033333Y-47302438D01*
X153033333Y-47302438D02*
X153128571Y-47254819D01*
X153128571Y-47254819D02*
X153366666Y-47254819D01*
X153366666Y-47254819D02*
X153509523Y-47302438D01*
X154461904Y-48254819D02*
X153890476Y-48254819D01*
X154176190Y-48254819D02*
X154176190Y-47254819D01*
X154176190Y-47254819D02*
X154080952Y-47397676D01*
X154080952Y-47397676D02*
X153985714Y-47492914D01*
X153985714Y-47492914D02*
X153890476Y-47540533D01*
X134423810Y-46154819D02*
X134423810Y-45154819D01*
X135328571Y-45154819D02*
X135138095Y-45154819D01*
X135138095Y-45154819D02*
X135042857Y-45202438D01*
X135042857Y-45202438D02*
X134995238Y-45250057D01*
X134995238Y-45250057D02*
X134900000Y-45392914D01*
X134900000Y-45392914D02*
X134852381Y-45583390D01*
X134852381Y-45583390D02*
X134852381Y-45964342D01*
X134852381Y-45964342D02*
X134900000Y-46059580D01*
X134900000Y-46059580D02*
X134947619Y-46107200D01*
X134947619Y-46107200D02*
X135042857Y-46154819D01*
X135042857Y-46154819D02*
X135233333Y-46154819D01*
X135233333Y-46154819D02*
X135328571Y-46107200D01*
X135328571Y-46107200D02*
X135376190Y-46059580D01*
X135376190Y-46059580D02*
X135423809Y-45964342D01*
X135423809Y-45964342D02*
X135423809Y-45726247D01*
X135423809Y-45726247D02*
X135376190Y-45631009D01*
X135376190Y-45631009D02*
X135328571Y-45583390D01*
X135328571Y-45583390D02*
X135233333Y-45535771D01*
X135233333Y-45535771D02*
X135042857Y-45535771D01*
X135042857Y-45535771D02*
X134947619Y-45583390D01*
X134947619Y-45583390D02*
X134900000Y-45631009D01*
X134900000Y-45631009D02*
X134852381Y-45726247D01*
X131923810Y-46254819D02*
X131923810Y-45254819D01*
X132304762Y-45254819D02*
X132971428Y-45254819D01*
X132971428Y-45254819D02*
X132542857Y-46254819D01*
X162538095Y-48007200D02*
X162680952Y-48054819D01*
X162680952Y-48054819D02*
X162919047Y-48054819D01*
X162919047Y-48054819D02*
X163014285Y-48007200D01*
X163014285Y-48007200D02*
X163061904Y-47959580D01*
X163061904Y-47959580D02*
X163109523Y-47864342D01*
X163109523Y-47864342D02*
X163109523Y-47769104D01*
X163109523Y-47769104D02*
X163061904Y-47673866D01*
X163061904Y-47673866D02*
X163014285Y-47626247D01*
X163014285Y-47626247D02*
X162919047Y-47578628D01*
X162919047Y-47578628D02*
X162728571Y-47531009D01*
X162728571Y-47531009D02*
X162633333Y-47483390D01*
X162633333Y-47483390D02*
X162585714Y-47435771D01*
X162585714Y-47435771D02*
X162538095Y-47340533D01*
X162538095Y-47340533D02*
X162538095Y-47245295D01*
X162538095Y-47245295D02*
X162585714Y-47150057D01*
X162585714Y-47150057D02*
X162633333Y-47102438D01*
X162633333Y-47102438D02*
X162728571Y-47054819D01*
X162728571Y-47054819D02*
X162966666Y-47054819D01*
X162966666Y-47054819D02*
X163109523Y-47102438D01*
X164014285Y-47054819D02*
X163538095Y-47054819D01*
X163538095Y-47054819D02*
X163490476Y-47531009D01*
X163490476Y-47531009D02*
X163538095Y-47483390D01*
X163538095Y-47483390D02*
X163633333Y-47435771D01*
X163633333Y-47435771D02*
X163871428Y-47435771D01*
X163871428Y-47435771D02*
X163966666Y-47483390D01*
X163966666Y-47483390D02*
X164014285Y-47531009D01*
X164014285Y-47531009D02*
X164061904Y-47626247D01*
X164061904Y-47626247D02*
X164061904Y-47864342D01*
X164061904Y-47864342D02*
X164014285Y-47959580D01*
X164014285Y-47959580D02*
X163966666Y-48007200D01*
X163966666Y-48007200D02*
X163871428Y-48054819D01*
X163871428Y-48054819D02*
X163633333Y-48054819D01*
X163633333Y-48054819D02*
X163538095Y-48007200D01*
X163538095Y-48007200D02*
X163490476Y-47959580D01*
X112980952Y-149069104D02*
X113457142Y-149069104D01*
X112885714Y-149354819D02*
X113219047Y-148354819D01*
X113219047Y-148354819D02*
X113552380Y-149354819D01*
X113647619Y-149450057D02*
X114409523Y-149450057D01*
X114504762Y-148354819D02*
X115076190Y-148354819D01*
X114790476Y-149354819D02*
X114790476Y-148354819D01*
X115742857Y-148831009D02*
X115885714Y-148878628D01*
X115885714Y-148878628D02*
X115933333Y-148926247D01*
X115933333Y-148926247D02*
X115980952Y-149021485D01*
X115980952Y-149021485D02*
X115980952Y-149164342D01*
X115980952Y-149164342D02*
X115933333Y-149259580D01*
X115933333Y-149259580D02*
X115885714Y-149307200D01*
X115885714Y-149307200D02*
X115790476Y-149354819D01*
X115790476Y-149354819D02*
X115409524Y-149354819D01*
X115409524Y-149354819D02*
X115409524Y-148354819D01*
X115409524Y-148354819D02*
X115742857Y-148354819D01*
X115742857Y-148354819D02*
X115838095Y-148402438D01*
X115838095Y-148402438D02*
X115885714Y-148450057D01*
X115885714Y-148450057D02*
X115933333Y-148545295D01*
X115933333Y-148545295D02*
X115933333Y-148640533D01*
X115933333Y-148640533D02*
X115885714Y-148735771D01*
X115885714Y-148735771D02*
X115838095Y-148783390D01*
X115838095Y-148783390D02*
X115742857Y-148831009D01*
X115742857Y-148831009D02*
X115409524Y-148831009D01*
X116409524Y-148973866D02*
X117171429Y-148973866D01*
D12*
X150743120Y-144949806D02*
X151409786Y-145949806D01*
X151409786Y-144949806D02*
X150743120Y-145949806D01*
X152314548Y-145949806D02*
X151743120Y-145949806D01*
X152028834Y-145949806D02*
X152028834Y-144949806D01*
X152028834Y-144949806D02*
X151933596Y-145092663D01*
X151933596Y-145092663D02*
X151838358Y-145187901D01*
X151838358Y-145187901D02*
X151743120Y-145235520D01*
X152647882Y-144949806D02*
X153314548Y-144949806D01*
X153314548Y-144949806D02*
X152885977Y-145949806D01*
X154790739Y-145425996D02*
X154933596Y-145473615D01*
X154933596Y-145473615D02*
X154981215Y-145521234D01*
X154981215Y-145521234D02*
X155028834Y-145616472D01*
X155028834Y-145616472D02*
X155028834Y-145759329D01*
X155028834Y-145759329D02*
X154981215Y-145854567D01*
X154981215Y-145854567D02*
X154933596Y-145902187D01*
X154933596Y-145902187D02*
X154838358Y-145949806D01*
X154838358Y-145949806D02*
X154457406Y-145949806D01*
X154457406Y-145949806D02*
X154457406Y-144949806D01*
X154457406Y-144949806D02*
X154790739Y-144949806D01*
X154790739Y-144949806D02*
X154885977Y-144997425D01*
X154885977Y-144997425D02*
X154933596Y-145045044D01*
X154933596Y-145045044D02*
X154981215Y-145140282D01*
X154981215Y-145140282D02*
X154981215Y-145235520D01*
X154981215Y-145235520D02*
X154933596Y-145330758D01*
X154933596Y-145330758D02*
X154885977Y-145378377D01*
X154885977Y-145378377D02*
X154790739Y-145425996D01*
X154790739Y-145425996D02*
X154457406Y-145425996D01*
X155885977Y-145949806D02*
X155885977Y-145425996D01*
X155885977Y-145425996D02*
X155838358Y-145330758D01*
X155838358Y-145330758D02*
X155743120Y-145283139D01*
X155743120Y-145283139D02*
X155552644Y-145283139D01*
X155552644Y-145283139D02*
X155457406Y-145330758D01*
X155885977Y-145902187D02*
X155790739Y-145949806D01*
X155790739Y-145949806D02*
X155552644Y-145949806D01*
X155552644Y-145949806D02*
X155457406Y-145902187D01*
X155457406Y-145902187D02*
X155409787Y-145806948D01*
X155409787Y-145806948D02*
X155409787Y-145711710D01*
X155409787Y-145711710D02*
X155457406Y-145616472D01*
X155457406Y-145616472D02*
X155552644Y-145568853D01*
X155552644Y-145568853D02*
X155790739Y-145568853D01*
X155790739Y-145568853D02*
X155885977Y-145521234D01*
X156790739Y-145902187D02*
X156695501Y-145949806D01*
X156695501Y-145949806D02*
X156505025Y-145949806D01*
X156505025Y-145949806D02*
X156409787Y-145902187D01*
X156409787Y-145902187D02*
X156362168Y-145854567D01*
X156362168Y-145854567D02*
X156314549Y-145759329D01*
X156314549Y-145759329D02*
X156314549Y-145473615D01*
X156314549Y-145473615D02*
X156362168Y-145378377D01*
X156362168Y-145378377D02*
X156409787Y-145330758D01*
X156409787Y-145330758D02*
X156505025Y-145283139D01*
X156505025Y-145283139D02*
X156695501Y-145283139D01*
X156695501Y-145283139D02*
X156790739Y-145330758D01*
X157219311Y-145949806D02*
X157219311Y-144949806D01*
X157314549Y-145568853D02*
X157600263Y-145949806D01*
X157600263Y-145283139D02*
X157219311Y-145664091D01*
X158028835Y-145283139D02*
X158028835Y-146283139D01*
X158028835Y-145330758D02*
X158124073Y-145283139D01*
X158124073Y-145283139D02*
X158314549Y-145283139D01*
X158314549Y-145283139D02*
X158409787Y-145330758D01*
X158409787Y-145330758D02*
X158457406Y-145378377D01*
X158457406Y-145378377D02*
X158505025Y-145473615D01*
X158505025Y-145473615D02*
X158505025Y-145759329D01*
X158505025Y-145759329D02*
X158457406Y-145854567D01*
X158457406Y-145854567D02*
X158409787Y-145902187D01*
X158409787Y-145902187D02*
X158314549Y-145949806D01*
X158314549Y-145949806D02*
X158124073Y-145949806D01*
X158124073Y-145949806D02*
X158028835Y-145902187D01*
X159076454Y-145949806D02*
X158981216Y-145902187D01*
X158981216Y-145902187D02*
X158933597Y-145806948D01*
X158933597Y-145806948D02*
X158933597Y-144949806D01*
X159885978Y-145949806D02*
X159885978Y-145425996D01*
X159885978Y-145425996D02*
X159838359Y-145330758D01*
X159838359Y-145330758D02*
X159743121Y-145283139D01*
X159743121Y-145283139D02*
X159552645Y-145283139D01*
X159552645Y-145283139D02*
X159457407Y-145330758D01*
X159885978Y-145902187D02*
X159790740Y-145949806D01*
X159790740Y-145949806D02*
X159552645Y-145949806D01*
X159552645Y-145949806D02*
X159457407Y-145902187D01*
X159457407Y-145902187D02*
X159409788Y-145806948D01*
X159409788Y-145806948D02*
X159409788Y-145711710D01*
X159409788Y-145711710D02*
X159457407Y-145616472D01*
X159457407Y-145616472D02*
X159552645Y-145568853D01*
X159552645Y-145568853D02*
X159790740Y-145568853D01*
X159790740Y-145568853D02*
X159885978Y-145521234D01*
X160362169Y-145283139D02*
X160362169Y-145949806D01*
X160362169Y-145378377D02*
X160409788Y-145330758D01*
X160409788Y-145330758D02*
X160505026Y-145283139D01*
X160505026Y-145283139D02*
X160647883Y-145283139D01*
X160647883Y-145283139D02*
X160743121Y-145330758D01*
X160743121Y-145330758D02*
X160790740Y-145425996D01*
X160790740Y-145425996D02*
X160790740Y-145949806D01*
X161647883Y-145902187D02*
X161552645Y-145949806D01*
X161552645Y-145949806D02*
X161362169Y-145949806D01*
X161362169Y-145949806D02*
X161266931Y-145902187D01*
X161266931Y-145902187D02*
X161219312Y-145806948D01*
X161219312Y-145806948D02*
X161219312Y-145425996D01*
X161219312Y-145425996D02*
X161266931Y-145330758D01*
X161266931Y-145330758D02*
X161362169Y-145283139D01*
X161362169Y-145283139D02*
X161552645Y-145283139D01*
X161552645Y-145283139D02*
X161647883Y-145330758D01*
X161647883Y-145330758D02*
X161695502Y-145425996D01*
X161695502Y-145425996D02*
X161695502Y-145521234D01*
X161695502Y-145521234D02*
X161219312Y-145616472D01*
X150695501Y-146559750D02*
X151028834Y-147559750D01*
X151028834Y-147559750D02*
X151362167Y-146559750D01*
X151695501Y-147559750D02*
X151695501Y-146893083D01*
X151695501Y-146559750D02*
X151647882Y-146607369D01*
X151647882Y-146607369D02*
X151695501Y-146654988D01*
X151695501Y-146654988D02*
X151743120Y-146607369D01*
X151743120Y-146607369D02*
X151695501Y-146559750D01*
X151695501Y-146559750D02*
X151695501Y-146654988D01*
X152171691Y-146893083D02*
X152171691Y-147750226D01*
X152171691Y-147750226D02*
X152124072Y-147845464D01*
X152124072Y-147845464D02*
X152028834Y-147893083D01*
X152028834Y-147893083D02*
X151981215Y-147893083D01*
X152171691Y-146559750D02*
X152124072Y-146607369D01*
X152124072Y-146607369D02*
X152171691Y-146654988D01*
X152171691Y-146654988D02*
X152219310Y-146607369D01*
X152219310Y-146607369D02*
X152171691Y-146559750D01*
X152171691Y-146559750D02*
X152171691Y-146654988D01*
X153076452Y-147559750D02*
X153076452Y-147035940D01*
X153076452Y-147035940D02*
X153028833Y-146940702D01*
X153028833Y-146940702D02*
X152933595Y-146893083D01*
X152933595Y-146893083D02*
X152743119Y-146893083D01*
X152743119Y-146893083D02*
X152647881Y-146940702D01*
X153076452Y-147512131D02*
X152981214Y-147559750D01*
X152981214Y-147559750D02*
X152743119Y-147559750D01*
X152743119Y-147559750D02*
X152647881Y-147512131D01*
X152647881Y-147512131D02*
X152600262Y-147416892D01*
X152600262Y-147416892D02*
X152600262Y-147321654D01*
X152600262Y-147321654D02*
X152647881Y-147226416D01*
X152647881Y-147226416D02*
X152743119Y-147178797D01*
X152743119Y-147178797D02*
X152981214Y-147178797D01*
X152981214Y-147178797D02*
X153076452Y-147131178D01*
X153457405Y-146893083D02*
X153695500Y-147559750D01*
X153933595Y-146893083D02*
X153695500Y-147559750D01*
X153695500Y-147559750D02*
X153600262Y-147797845D01*
X153600262Y-147797845D02*
X153552643Y-147845464D01*
X153552643Y-147845464D02*
X153457405Y-147893083D01*
X154362167Y-147512131D02*
X154362167Y-147559750D01*
X154362167Y-147559750D02*
X154314548Y-147654988D01*
X154314548Y-147654988D02*
X154266929Y-147702607D01*
X155552643Y-147559750D02*
X155552643Y-146559750D01*
X155552643Y-146559750D02*
X155790738Y-146559750D01*
X155790738Y-146559750D02*
X155933595Y-146607369D01*
X155933595Y-146607369D02*
X156028833Y-146702607D01*
X156028833Y-146702607D02*
X156076452Y-146797845D01*
X156076452Y-146797845D02*
X156124071Y-146988321D01*
X156124071Y-146988321D02*
X156124071Y-147131178D01*
X156124071Y-147131178D02*
X156076452Y-147321654D01*
X156076452Y-147321654D02*
X156028833Y-147416892D01*
X156028833Y-147416892D02*
X155933595Y-147512131D01*
X155933595Y-147512131D02*
X155790738Y-147559750D01*
X155790738Y-147559750D02*
X155552643Y-147559750D01*
X156981214Y-147559750D02*
X156981214Y-147035940D01*
X156981214Y-147035940D02*
X156933595Y-146940702D01*
X156933595Y-146940702D02*
X156838357Y-146893083D01*
X156838357Y-146893083D02*
X156647881Y-146893083D01*
X156647881Y-146893083D02*
X156552643Y-146940702D01*
X156981214Y-147512131D02*
X156885976Y-147559750D01*
X156885976Y-147559750D02*
X156647881Y-147559750D01*
X156647881Y-147559750D02*
X156552643Y-147512131D01*
X156552643Y-147512131D02*
X156505024Y-147416892D01*
X156505024Y-147416892D02*
X156505024Y-147321654D01*
X156505024Y-147321654D02*
X156552643Y-147226416D01*
X156552643Y-147226416D02*
X156647881Y-147178797D01*
X156647881Y-147178797D02*
X156885976Y-147178797D01*
X156885976Y-147178797D02*
X156981214Y-147131178D01*
X157457405Y-146893083D02*
X157457405Y-147559750D01*
X157457405Y-146988321D02*
X157505024Y-146940702D01*
X157505024Y-146940702D02*
X157600262Y-146893083D01*
X157600262Y-146893083D02*
X157743119Y-146893083D01*
X157743119Y-146893083D02*
X157838357Y-146940702D01*
X157838357Y-146940702D02*
X157885976Y-147035940D01*
X157885976Y-147035940D02*
X157885976Y-147559750D01*
X158362167Y-147559750D02*
X158362167Y-146893083D01*
X158362167Y-146559750D02*
X158314548Y-146607369D01*
X158314548Y-146607369D02*
X158362167Y-146654988D01*
X158362167Y-146654988D02*
X158409786Y-146607369D01*
X158409786Y-146607369D02*
X158362167Y-146559750D01*
X158362167Y-146559750D02*
X158362167Y-146654988D01*
X159219309Y-147512131D02*
X159124071Y-147559750D01*
X159124071Y-147559750D02*
X158933595Y-147559750D01*
X158933595Y-147559750D02*
X158838357Y-147512131D01*
X158838357Y-147512131D02*
X158790738Y-147416892D01*
X158790738Y-147416892D02*
X158790738Y-147035940D01*
X158790738Y-147035940D02*
X158838357Y-146940702D01*
X158838357Y-146940702D02*
X158933595Y-146893083D01*
X158933595Y-146893083D02*
X159124071Y-146893083D01*
X159124071Y-146893083D02*
X159219309Y-146940702D01*
X159219309Y-146940702D02*
X159266928Y-147035940D01*
X159266928Y-147035940D02*
X159266928Y-147131178D01*
X159266928Y-147131178D02*
X158790738Y-147226416D01*
X159838357Y-147559750D02*
X159743119Y-147512131D01*
X159743119Y-147512131D02*
X159695500Y-147416892D01*
X159695500Y-147416892D02*
X159695500Y-146559750D01*
X160266929Y-147512131D02*
X160266929Y-147559750D01*
X160266929Y-147559750D02*
X160219310Y-147654988D01*
X160219310Y-147654988D02*
X160171691Y-147702607D01*
X161933595Y-147559750D02*
X161457405Y-147559750D01*
X161457405Y-147559750D02*
X161457405Y-146559750D01*
X162647881Y-147512131D02*
X162552643Y-147559750D01*
X162552643Y-147559750D02*
X162362167Y-147559750D01*
X162362167Y-147559750D02*
X162266929Y-147512131D01*
X162266929Y-147512131D02*
X162219310Y-147416892D01*
X162219310Y-147416892D02*
X162219310Y-147035940D01*
X162219310Y-147035940D02*
X162266929Y-146940702D01*
X162266929Y-146940702D02*
X162362167Y-146893083D01*
X162362167Y-146893083D02*
X162552643Y-146893083D01*
X162552643Y-146893083D02*
X162647881Y-146940702D01*
X162647881Y-146940702D02*
X162695500Y-147035940D01*
X162695500Y-147035940D02*
X162695500Y-147131178D01*
X162695500Y-147131178D02*
X162219310Y-147226416D01*
X163266929Y-147559750D02*
X163171691Y-147512131D01*
X163171691Y-147512131D02*
X163124072Y-147464511D01*
X163124072Y-147464511D02*
X163076453Y-147369273D01*
X163076453Y-147369273D02*
X163076453Y-147083559D01*
X163076453Y-147083559D02*
X163124072Y-146988321D01*
X163124072Y-146988321D02*
X163171691Y-146940702D01*
X163171691Y-146940702D02*
X163266929Y-146893083D01*
X163266929Y-146893083D02*
X163409786Y-146893083D01*
X163409786Y-146893083D02*
X163505024Y-146940702D01*
X163505024Y-146940702D02*
X163552643Y-146988321D01*
X163552643Y-146988321D02*
X163600262Y-147083559D01*
X163600262Y-147083559D02*
X163600262Y-147369273D01*
X163600262Y-147369273D02*
X163552643Y-147464511D01*
X163552643Y-147464511D02*
X163505024Y-147512131D01*
X163505024Y-147512131D02*
X163409786Y-147559750D01*
X163409786Y-147559750D02*
X163266929Y-147559750D01*
X164076453Y-147512131D02*
X164076453Y-147559750D01*
X164076453Y-147559750D02*
X164028834Y-147654988D01*
X164028834Y-147654988D02*
X163981215Y-147702607D01*
X165266929Y-147559750D02*
X165266929Y-146559750D01*
X165838357Y-147559750D02*
X165409786Y-146988321D01*
X165838357Y-146559750D02*
X165266929Y-147131178D01*
X166647881Y-147512131D02*
X166552643Y-147559750D01*
X166552643Y-147559750D02*
X166362167Y-147559750D01*
X166362167Y-147559750D02*
X166266929Y-147512131D01*
X166266929Y-147512131D02*
X166219310Y-147416892D01*
X166219310Y-147416892D02*
X166219310Y-147035940D01*
X166219310Y-147035940D02*
X166266929Y-146940702D01*
X166266929Y-146940702D02*
X166362167Y-146893083D01*
X166362167Y-146893083D02*
X166552643Y-146893083D01*
X166552643Y-146893083D02*
X166647881Y-146940702D01*
X166647881Y-146940702D02*
X166695500Y-147035940D01*
X166695500Y-147035940D02*
X166695500Y-147131178D01*
X166695500Y-147131178D02*
X166219310Y-147226416D01*
X167266929Y-147559750D02*
X167171691Y-147512131D01*
X167171691Y-147512131D02*
X167124072Y-147464511D01*
X167124072Y-147464511D02*
X167076453Y-147369273D01*
X167076453Y-147369273D02*
X167076453Y-147083559D01*
X167076453Y-147083559D02*
X167124072Y-146988321D01*
X167124072Y-146988321D02*
X167171691Y-146940702D01*
X167171691Y-146940702D02*
X167266929Y-146893083D01*
X167266929Y-146893083D02*
X167409786Y-146893083D01*
X167409786Y-146893083D02*
X167505024Y-146940702D01*
X167505024Y-146940702D02*
X167552643Y-146988321D01*
X167552643Y-146988321D02*
X167600262Y-147083559D01*
X167600262Y-147083559D02*
X167600262Y-147369273D01*
X167600262Y-147369273D02*
X167552643Y-147464511D01*
X167552643Y-147464511D02*
X167505024Y-147512131D01*
X167505024Y-147512131D02*
X167409786Y-147559750D01*
X167409786Y-147559750D02*
X167266929Y-147559750D01*
X168028834Y-146893083D02*
X168028834Y-147559750D01*
X168028834Y-146988321D02*
X168076453Y-146940702D01*
X168076453Y-146940702D02*
X168171691Y-146893083D01*
X168171691Y-146893083D02*
X168314548Y-146893083D01*
X168314548Y-146893083D02*
X168409786Y-146940702D01*
X168409786Y-146940702D02*
X168457405Y-147035940D01*
X168457405Y-147035940D02*
X168457405Y-147559750D01*
X169362167Y-147559750D02*
X169362167Y-147035940D01*
X169362167Y-147035940D02*
X169314548Y-146940702D01*
X169314548Y-146940702D02*
X169219310Y-146893083D01*
X169219310Y-146893083D02*
X169028834Y-146893083D01*
X169028834Y-146893083D02*
X168933596Y-146940702D01*
X169362167Y-147512131D02*
X169266929Y-147559750D01*
X169266929Y-147559750D02*
X169028834Y-147559750D01*
X169028834Y-147559750D02*
X168933596Y-147512131D01*
X168933596Y-147512131D02*
X168885977Y-147416892D01*
X168885977Y-147416892D02*
X168885977Y-147321654D01*
X168885977Y-147321654D02*
X168933596Y-147226416D01*
X168933596Y-147226416D02*
X169028834Y-147178797D01*
X169028834Y-147178797D02*
X169266929Y-147178797D01*
X169266929Y-147178797D02*
X169362167Y-147131178D01*
X150695501Y-148169694D02*
X151028834Y-149169694D01*
X151028834Y-149169694D02*
X151362167Y-148169694D01*
X151695501Y-149169694D02*
X151695501Y-148503027D01*
X151695501Y-148169694D02*
X151647882Y-148217313D01*
X151647882Y-148217313D02*
X151695501Y-148264932D01*
X151695501Y-148264932D02*
X151743120Y-148217313D01*
X151743120Y-148217313D02*
X151695501Y-148169694D01*
X151695501Y-148169694D02*
X151695501Y-148264932D01*
X152124072Y-149122075D02*
X152219310Y-149169694D01*
X152219310Y-149169694D02*
X152409786Y-149169694D01*
X152409786Y-149169694D02*
X152505024Y-149122075D01*
X152505024Y-149122075D02*
X152552643Y-149026836D01*
X152552643Y-149026836D02*
X152552643Y-148979217D01*
X152552643Y-148979217D02*
X152505024Y-148883979D01*
X152505024Y-148883979D02*
X152409786Y-148836360D01*
X152409786Y-148836360D02*
X152266929Y-148836360D01*
X152266929Y-148836360D02*
X152171691Y-148788741D01*
X152171691Y-148788741D02*
X152124072Y-148693503D01*
X152124072Y-148693503D02*
X152124072Y-148645884D01*
X152124072Y-148645884D02*
X152171691Y-148550646D01*
X152171691Y-148550646D02*
X152266929Y-148503027D01*
X152266929Y-148503027D02*
X152409786Y-148503027D01*
X152409786Y-148503027D02*
X152505024Y-148550646D01*
X152981215Y-149169694D02*
X152981215Y-148169694D01*
X153409786Y-149169694D02*
X153409786Y-148645884D01*
X153409786Y-148645884D02*
X153362167Y-148550646D01*
X153362167Y-148550646D02*
X153266929Y-148503027D01*
X153266929Y-148503027D02*
X153124072Y-148503027D01*
X153124072Y-148503027D02*
X153028834Y-148550646D01*
X153028834Y-148550646D02*
X152981215Y-148598265D01*
X154314548Y-149169694D02*
X154314548Y-148645884D01*
X154314548Y-148645884D02*
X154266929Y-148550646D01*
X154266929Y-148550646D02*
X154171691Y-148503027D01*
X154171691Y-148503027D02*
X153981215Y-148503027D01*
X153981215Y-148503027D02*
X153885977Y-148550646D01*
X154314548Y-149122075D02*
X154219310Y-149169694D01*
X154219310Y-149169694D02*
X153981215Y-149169694D01*
X153981215Y-149169694D02*
X153885977Y-149122075D01*
X153885977Y-149122075D02*
X153838358Y-149026836D01*
X153838358Y-149026836D02*
X153838358Y-148931598D01*
X153838358Y-148931598D02*
X153885977Y-148836360D01*
X153885977Y-148836360D02*
X153981215Y-148788741D01*
X153981215Y-148788741D02*
X154219310Y-148788741D01*
X154219310Y-148788741D02*
X154314548Y-148741122D01*
X154790739Y-149169694D02*
X154790739Y-148169694D01*
X154885977Y-148788741D02*
X155171691Y-149169694D01*
X155171691Y-148503027D02*
X154790739Y-148883979D01*
X155600263Y-149169694D02*
X155600263Y-148169694D01*
X156028834Y-149169694D02*
X156028834Y-148645884D01*
X156028834Y-148645884D02*
X155981215Y-148550646D01*
X155981215Y-148550646D02*
X155885977Y-148503027D01*
X155885977Y-148503027D02*
X155743120Y-148503027D01*
X155743120Y-148503027D02*
X155647882Y-148550646D01*
X155647882Y-148550646D02*
X155600263Y-148598265D01*
X157266930Y-149169694D02*
X157266930Y-148169694D01*
X157266930Y-148169694D02*
X157600263Y-148883979D01*
X157600263Y-148883979D02*
X157933596Y-148169694D01*
X157933596Y-148169694D02*
X157933596Y-149169694D01*
X158790739Y-149122075D02*
X158695501Y-149169694D01*
X158695501Y-149169694D02*
X158505025Y-149169694D01*
X158505025Y-149169694D02*
X158409787Y-149122075D01*
X158409787Y-149122075D02*
X158362168Y-149026836D01*
X158362168Y-149026836D02*
X158362168Y-148645884D01*
X158362168Y-148645884D02*
X158409787Y-148550646D01*
X158409787Y-148550646D02*
X158505025Y-148503027D01*
X158505025Y-148503027D02*
X158695501Y-148503027D01*
X158695501Y-148503027D02*
X158790739Y-148550646D01*
X158790739Y-148550646D02*
X158838358Y-148645884D01*
X158838358Y-148645884D02*
X158838358Y-148741122D01*
X158838358Y-148741122D02*
X158362168Y-148836360D01*
X159266930Y-148503027D02*
X159266930Y-149169694D01*
X159266930Y-148598265D02*
X159314549Y-148550646D01*
X159314549Y-148550646D02*
X159409787Y-148503027D01*
X159409787Y-148503027D02*
X159552644Y-148503027D01*
X159552644Y-148503027D02*
X159647882Y-148550646D01*
X159647882Y-148550646D02*
X159695501Y-148645884D01*
X159695501Y-148645884D02*
X159695501Y-149169694D01*
X160314549Y-149169694D02*
X160219311Y-149122075D01*
X160219311Y-149122075D02*
X160171692Y-149074455D01*
X160171692Y-149074455D02*
X160124073Y-148979217D01*
X160124073Y-148979217D02*
X160124073Y-148693503D01*
X160124073Y-148693503D02*
X160171692Y-148598265D01*
X160171692Y-148598265D02*
X160219311Y-148550646D01*
X160219311Y-148550646D02*
X160314549Y-148503027D01*
X160314549Y-148503027D02*
X160457406Y-148503027D01*
X160457406Y-148503027D02*
X160552644Y-148550646D01*
X160552644Y-148550646D02*
X160600263Y-148598265D01*
X160600263Y-148598265D02*
X160647882Y-148693503D01*
X160647882Y-148693503D02*
X160647882Y-148979217D01*
X160647882Y-148979217D02*
X160600263Y-149074455D01*
X160600263Y-149074455D02*
X160552644Y-149122075D01*
X160552644Y-149122075D02*
X160457406Y-149169694D01*
X160457406Y-149169694D02*
X160314549Y-149169694D01*
X161076454Y-148503027D02*
X161076454Y-149169694D01*
X161076454Y-148598265D02*
X161124073Y-148550646D01*
X161124073Y-148550646D02*
X161219311Y-148503027D01*
X161219311Y-148503027D02*
X161362168Y-148503027D01*
X161362168Y-148503027D02*
X161457406Y-148550646D01*
X161457406Y-148550646D02*
X161505025Y-148645884D01*
X161505025Y-148645884D02*
X161505025Y-149169694D01*
D11*
X165138095Y-48107200D02*
X165280952Y-48154819D01*
X165280952Y-48154819D02*
X165519047Y-48154819D01*
X165519047Y-48154819D02*
X165614285Y-48107200D01*
X165614285Y-48107200D02*
X165661904Y-48059580D01*
X165661904Y-48059580D02*
X165709523Y-47964342D01*
X165709523Y-47964342D02*
X165709523Y-47869104D01*
X165709523Y-47869104D02*
X165661904Y-47773866D01*
X165661904Y-47773866D02*
X165614285Y-47726247D01*
X165614285Y-47726247D02*
X165519047Y-47678628D01*
X165519047Y-47678628D02*
X165328571Y-47631009D01*
X165328571Y-47631009D02*
X165233333Y-47583390D01*
X165233333Y-47583390D02*
X165185714Y-47535771D01*
X165185714Y-47535771D02*
X165138095Y-47440533D01*
X165138095Y-47440533D02*
X165138095Y-47345295D01*
X165138095Y-47345295D02*
X165185714Y-47250057D01*
X165185714Y-47250057D02*
X165233333Y-47202438D01*
X165233333Y-47202438D02*
X165328571Y-47154819D01*
X165328571Y-47154819D02*
X165566666Y-47154819D01*
X165566666Y-47154819D02*
X165709523Y-47202438D01*
X166566666Y-47154819D02*
X166376190Y-47154819D01*
X166376190Y-47154819D02*
X166280952Y-47202438D01*
X166280952Y-47202438D02*
X166233333Y-47250057D01*
X166233333Y-47250057D02*
X166138095Y-47392914D01*
X166138095Y-47392914D02*
X166090476Y-47583390D01*
X166090476Y-47583390D02*
X166090476Y-47964342D01*
X166090476Y-47964342D02*
X166138095Y-48059580D01*
X166138095Y-48059580D02*
X166185714Y-48107200D01*
X166185714Y-48107200D02*
X166280952Y-48154819D01*
X166280952Y-48154819D02*
X166471428Y-48154819D01*
X166471428Y-48154819D02*
X166566666Y-48107200D01*
X166566666Y-48107200D02*
X166614285Y-48059580D01*
X166614285Y-48059580D02*
X166661904Y-47964342D01*
X166661904Y-47964342D02*
X166661904Y-47726247D01*
X166661904Y-47726247D02*
X166614285Y-47631009D01*
X166614285Y-47631009D02*
X166566666Y-47583390D01*
X166566666Y-47583390D02*
X166471428Y-47535771D01*
X166471428Y-47535771D02*
X166280952Y-47535771D01*
X166280952Y-47535771D02*
X166185714Y-47583390D01*
X166185714Y-47583390D02*
X166138095Y-47631009D01*
X166138095Y-47631009D02*
X166090476Y-47726247D01*
X148109523Y-104354819D02*
X147633333Y-104354819D01*
X147633333Y-104354819D02*
X147585714Y-104831009D01*
X147585714Y-104831009D02*
X147633333Y-104783390D01*
X147633333Y-104783390D02*
X147728571Y-104735771D01*
X147728571Y-104735771D02*
X147966666Y-104735771D01*
X147966666Y-104735771D02*
X148061904Y-104783390D01*
X148061904Y-104783390D02*
X148109523Y-104831009D01*
X148109523Y-104831009D02*
X148157142Y-104926247D01*
X148157142Y-104926247D02*
X148157142Y-105164342D01*
X148157142Y-105164342D02*
X148109523Y-105259580D01*
X148109523Y-105259580D02*
X148061904Y-105307200D01*
X148061904Y-105307200D02*
X147966666Y-105354819D01*
X147966666Y-105354819D02*
X147728571Y-105354819D01*
X147728571Y-105354819D02*
X147633333Y-105307200D01*
X147633333Y-105307200D02*
X147585714Y-105259580D01*
X148442857Y-104354819D02*
X148776190Y-105354819D01*
X148776190Y-105354819D02*
X149109523Y-104354819D01*
X176395238Y-113254819D02*
X176395238Y-112254819D01*
X176395238Y-112254819D02*
X176776190Y-112254819D01*
X176776190Y-112254819D02*
X176871428Y-112302438D01*
X176871428Y-112302438D02*
X176919047Y-112350057D01*
X176919047Y-112350057D02*
X176966666Y-112445295D01*
X176966666Y-112445295D02*
X176966666Y-112588152D01*
X176966666Y-112588152D02*
X176919047Y-112683390D01*
X176919047Y-112683390D02*
X176871428Y-112731009D01*
X176871428Y-112731009D02*
X176776190Y-112778628D01*
X176776190Y-112778628D02*
X176395238Y-112778628D01*
X177300000Y-112254819D02*
X177538095Y-113254819D01*
X177538095Y-113254819D02*
X177728571Y-112540533D01*
X177728571Y-112540533D02*
X177919047Y-113254819D01*
X177919047Y-113254819D02*
X178157143Y-112254819D01*
X178538095Y-113254819D02*
X178538095Y-112254819D01*
X178538095Y-112254819D02*
X178871428Y-112969104D01*
X178871428Y-112969104D02*
X179204761Y-112254819D01*
X179204761Y-112254819D02*
X179204761Y-113254819D01*
X180252380Y-113159580D02*
X180204761Y-113207200D01*
X180204761Y-113207200D02*
X180061904Y-113254819D01*
X180061904Y-113254819D02*
X179966666Y-113254819D01*
X179966666Y-113254819D02*
X179823809Y-113207200D01*
X179823809Y-113207200D02*
X179728571Y-113111961D01*
X179728571Y-113111961D02*
X179680952Y-113016723D01*
X179680952Y-113016723D02*
X179633333Y-112826247D01*
X179633333Y-112826247D02*
X179633333Y-112683390D01*
X179633333Y-112683390D02*
X179680952Y-112492914D01*
X179680952Y-112492914D02*
X179728571Y-112397676D01*
X179728571Y-112397676D02*
X179823809Y-112302438D01*
X179823809Y-112302438D02*
X179966666Y-112254819D01*
X179966666Y-112254819D02*
X180061904Y-112254819D01*
X180061904Y-112254819D02*
X180204761Y-112302438D01*
X180204761Y-112302438D02*
X180252380Y-112350057D01*
X139523810Y-46254819D02*
X139523810Y-45254819D01*
X140428571Y-45588152D02*
X140428571Y-46254819D01*
X140190476Y-45207200D02*
X139952381Y-45921485D01*
X139952381Y-45921485D02*
X140571428Y-45921485D01*
X162976190Y-50454819D02*
X162404762Y-50454819D01*
X162690476Y-50454819D02*
X162690476Y-49454819D01*
X162690476Y-49454819D02*
X162595238Y-49597676D01*
X162595238Y-49597676D02*
X162500000Y-49692914D01*
X162500000Y-49692914D02*
X162404762Y-49740533D01*
X163357143Y-49550057D02*
X163404762Y-49502438D01*
X163404762Y-49502438D02*
X163500000Y-49454819D01*
X163500000Y-49454819D02*
X163738095Y-49454819D01*
X163738095Y-49454819D02*
X163833333Y-49502438D01*
X163833333Y-49502438D02*
X163880952Y-49550057D01*
X163880952Y-49550057D02*
X163928571Y-49645295D01*
X163928571Y-49645295D02*
X163928571Y-49740533D01*
X163928571Y-49740533D02*
X163880952Y-49883390D01*
X163880952Y-49883390D02*
X163309524Y-50454819D01*
X163309524Y-50454819D02*
X163928571Y-50454819D01*
X164214286Y-49454819D02*
X164547619Y-50454819D01*
X164547619Y-50454819D02*
X164880952Y-49454819D01*
X164976191Y-50550057D02*
X165738095Y-50550057D01*
X166500000Y-49502438D02*
X166404762Y-49454819D01*
X166404762Y-49454819D02*
X166261905Y-49454819D01*
X166261905Y-49454819D02*
X166119048Y-49502438D01*
X166119048Y-49502438D02*
X166023810Y-49597676D01*
X166023810Y-49597676D02*
X165976191Y-49692914D01*
X165976191Y-49692914D02*
X165928572Y-49883390D01*
X165928572Y-49883390D02*
X165928572Y-50026247D01*
X165928572Y-50026247D02*
X165976191Y-50216723D01*
X165976191Y-50216723D02*
X166023810Y-50311961D01*
X166023810Y-50311961D02*
X166119048Y-50407200D01*
X166119048Y-50407200D02*
X166261905Y-50454819D01*
X166261905Y-50454819D02*
X166357143Y-50454819D01*
X166357143Y-50454819D02*
X166500000Y-50407200D01*
X166500000Y-50407200D02*
X166547619Y-50359580D01*
X166547619Y-50359580D02*
X166547619Y-50026247D01*
X166547619Y-50026247D02*
X166357143Y-50026247D01*
X166976191Y-50454819D02*
X166976191Y-49454819D01*
X166976191Y-49454819D02*
X167547619Y-50454819D01*
X167547619Y-50454819D02*
X167547619Y-49454819D01*
X168023810Y-50454819D02*
X168023810Y-49454819D01*
X168023810Y-49454819D02*
X168261905Y-49454819D01*
X168261905Y-49454819D02*
X168404762Y-49502438D01*
X168404762Y-49502438D02*
X168500000Y-49597676D01*
X168500000Y-49597676D02*
X168547619Y-49692914D01*
X168547619Y-49692914D02*
X168595238Y-49883390D01*
X168595238Y-49883390D02*
X168595238Y-50026247D01*
X168595238Y-50026247D02*
X168547619Y-50216723D01*
X168547619Y-50216723D02*
X168500000Y-50311961D01*
X168500000Y-50311961D02*
X168404762Y-50407200D01*
X168404762Y-50407200D02*
X168261905Y-50454819D01*
X168261905Y-50454819D02*
X168023810Y-50454819D01*
X152942857Y-132569104D02*
X153419047Y-132569104D01*
X152847619Y-132854819D02*
X153180952Y-131854819D01*
X153180952Y-131854819D02*
X153514285Y-132854819D01*
X153847619Y-132473866D02*
X154609524Y-132473866D01*
X154228571Y-132854819D02*
X154228571Y-132092914D01*
X102257143Y-149354819D02*
X102257143Y-148354819D01*
X102257143Y-148354819D02*
X102828571Y-149354819D01*
X102828571Y-149354819D02*
X102828571Y-148354819D01*
X103876190Y-149354819D02*
X103542857Y-148878628D01*
X103304762Y-149354819D02*
X103304762Y-148354819D01*
X103304762Y-148354819D02*
X103685714Y-148354819D01*
X103685714Y-148354819D02*
X103780952Y-148402438D01*
X103780952Y-148402438D02*
X103828571Y-148450057D01*
X103828571Y-148450057D02*
X103876190Y-148545295D01*
X103876190Y-148545295D02*
X103876190Y-148688152D01*
X103876190Y-148688152D02*
X103828571Y-148783390D01*
X103828571Y-148783390D02*
X103780952Y-148831009D01*
X103780952Y-148831009D02*
X103685714Y-148878628D01*
X103685714Y-148878628D02*
X103304762Y-148878628D01*
X104257143Y-149307200D02*
X104400000Y-149354819D01*
X104400000Y-149354819D02*
X104638095Y-149354819D01*
X104638095Y-149354819D02*
X104733333Y-149307200D01*
X104733333Y-149307200D02*
X104780952Y-149259580D01*
X104780952Y-149259580D02*
X104828571Y-149164342D01*
X104828571Y-149164342D02*
X104828571Y-149069104D01*
X104828571Y-149069104D02*
X104780952Y-148973866D01*
X104780952Y-148973866D02*
X104733333Y-148926247D01*
X104733333Y-148926247D02*
X104638095Y-148878628D01*
X104638095Y-148878628D02*
X104447619Y-148831009D01*
X104447619Y-148831009D02*
X104352381Y-148783390D01*
X104352381Y-148783390D02*
X104304762Y-148735771D01*
X104304762Y-148735771D02*
X104257143Y-148640533D01*
X104257143Y-148640533D02*
X104257143Y-148545295D01*
X104257143Y-148545295D02*
X104304762Y-148450057D01*
X104304762Y-148450057D02*
X104352381Y-148402438D01*
X104352381Y-148402438D02*
X104447619Y-148354819D01*
X104447619Y-148354819D02*
X104685714Y-148354819D01*
X104685714Y-148354819D02*
X104828571Y-148402438D01*
X105114286Y-148354819D02*
X105685714Y-148354819D01*
X105400000Y-149354819D02*
X105400000Y-148354819D01*
X123485714Y-148788152D02*
X123485714Y-149454819D01*
X123247619Y-148407200D02*
X123009524Y-149121485D01*
X123009524Y-149121485D02*
X123628571Y-149121485D01*
X124152381Y-148883390D02*
X124057143Y-148835771D01*
X124057143Y-148835771D02*
X124009524Y-148788152D01*
X124009524Y-148788152D02*
X123961905Y-148692914D01*
X123961905Y-148692914D02*
X123961905Y-148645295D01*
X123961905Y-148645295D02*
X124009524Y-148550057D01*
X124009524Y-148550057D02*
X124057143Y-148502438D01*
X124057143Y-148502438D02*
X124152381Y-148454819D01*
X124152381Y-148454819D02*
X124342857Y-148454819D01*
X124342857Y-148454819D02*
X124438095Y-148502438D01*
X124438095Y-148502438D02*
X124485714Y-148550057D01*
X124485714Y-148550057D02*
X124533333Y-148645295D01*
X124533333Y-148645295D02*
X124533333Y-148692914D01*
X124533333Y-148692914D02*
X124485714Y-148788152D01*
X124485714Y-148788152D02*
X124438095Y-148835771D01*
X124438095Y-148835771D02*
X124342857Y-148883390D01*
X124342857Y-148883390D02*
X124152381Y-148883390D01*
X124152381Y-148883390D02*
X124057143Y-148931009D01*
X124057143Y-148931009D02*
X124009524Y-148978628D01*
X124009524Y-148978628D02*
X123961905Y-149073866D01*
X123961905Y-149073866D02*
X123961905Y-149264342D01*
X123961905Y-149264342D02*
X124009524Y-149359580D01*
X124009524Y-149359580D02*
X124057143Y-149407200D01*
X124057143Y-149407200D02*
X124152381Y-149454819D01*
X124152381Y-149454819D02*
X124342857Y-149454819D01*
X124342857Y-149454819D02*
X124438095Y-149407200D01*
X124438095Y-149407200D02*
X124485714Y-149359580D01*
X124485714Y-149359580D02*
X124533333Y-149264342D01*
X124533333Y-149264342D02*
X124533333Y-149073866D01*
X124533333Y-149073866D02*
X124485714Y-148978628D01*
X124485714Y-148978628D02*
X124438095Y-148931009D01*
X124438095Y-148931009D02*
X124342857Y-148883390D01*
X124819048Y-148454819D02*
X125152381Y-149454819D01*
X125152381Y-149454819D02*
X125485714Y-148454819D01*
X107780952Y-149069104D02*
X108257142Y-149069104D01*
X107685714Y-149354819D02*
X108019047Y-148354819D01*
X108019047Y-148354819D02*
X108352380Y-149354819D01*
X108447619Y-149450057D02*
X109209523Y-149450057D01*
X109304762Y-148354819D02*
X109876190Y-148354819D01*
X109590476Y-149354819D02*
X109590476Y-148354819D01*
X110542857Y-148831009D02*
X110685714Y-148878628D01*
X110685714Y-148878628D02*
X110733333Y-148926247D01*
X110733333Y-148926247D02*
X110780952Y-149021485D01*
X110780952Y-149021485D02*
X110780952Y-149164342D01*
X110780952Y-149164342D02*
X110733333Y-149259580D01*
X110733333Y-149259580D02*
X110685714Y-149307200D01*
X110685714Y-149307200D02*
X110590476Y-149354819D01*
X110590476Y-149354819D02*
X110209524Y-149354819D01*
X110209524Y-149354819D02*
X110209524Y-148354819D01*
X110209524Y-148354819D02*
X110542857Y-148354819D01*
X110542857Y-148354819D02*
X110638095Y-148402438D01*
X110638095Y-148402438D02*
X110685714Y-148450057D01*
X110685714Y-148450057D02*
X110733333Y-148545295D01*
X110733333Y-148545295D02*
X110733333Y-148640533D01*
X110733333Y-148640533D02*
X110685714Y-148735771D01*
X110685714Y-148735771D02*
X110638095Y-148783390D01*
X110638095Y-148783390D02*
X110542857Y-148831009D01*
X110542857Y-148831009D02*
X110209524Y-148831009D01*
X111209524Y-148973866D02*
X111971429Y-148973866D01*
X111590476Y-149354819D02*
X111590476Y-148592914D01*
X137123810Y-46154819D02*
X137123810Y-45154819D01*
X138076190Y-45154819D02*
X137600000Y-45154819D01*
X137600000Y-45154819D02*
X137552381Y-45631009D01*
X137552381Y-45631009D02*
X137600000Y-45583390D01*
X137600000Y-45583390D02*
X137695238Y-45535771D01*
X137695238Y-45535771D02*
X137933333Y-45535771D01*
X137933333Y-45535771D02*
X138028571Y-45583390D01*
X138028571Y-45583390D02*
X138076190Y-45631009D01*
X138076190Y-45631009D02*
X138123809Y-45726247D01*
X138123809Y-45726247D02*
X138123809Y-45964342D01*
X138123809Y-45964342D02*
X138076190Y-46059580D01*
X138076190Y-46059580D02*
X138028571Y-46107200D01*
X138028571Y-46107200D02*
X137933333Y-46154819D01*
X137933333Y-46154819D02*
X137695238Y-46154819D01*
X137695238Y-46154819D02*
X137600000Y-46107200D01*
X137600000Y-46107200D02*
X137552381Y-46059580D01*
X145080952Y-148469104D02*
X145557142Y-148469104D01*
X144985714Y-148754819D02*
X145319047Y-147754819D01*
X145319047Y-147754819D02*
X145652380Y-148754819D01*
X145747619Y-148850057D02*
X146509523Y-148850057D01*
X146604762Y-147754819D02*
X147176190Y-147754819D01*
X146890476Y-148754819D02*
X146890476Y-147754819D01*
X147842857Y-148231009D02*
X147985714Y-148278628D01*
X147985714Y-148278628D02*
X148033333Y-148326247D01*
X148033333Y-148326247D02*
X148080952Y-148421485D01*
X148080952Y-148421485D02*
X148080952Y-148564342D01*
X148080952Y-148564342D02*
X148033333Y-148659580D01*
X148033333Y-148659580D02*
X147985714Y-148707200D01*
X147985714Y-148707200D02*
X147890476Y-148754819D01*
X147890476Y-148754819D02*
X147509524Y-148754819D01*
X147509524Y-148754819D02*
X147509524Y-147754819D01*
X147509524Y-147754819D02*
X147842857Y-147754819D01*
X147842857Y-147754819D02*
X147938095Y-147802438D01*
X147938095Y-147802438D02*
X147985714Y-147850057D01*
X147985714Y-147850057D02*
X148033333Y-147945295D01*
X148033333Y-147945295D02*
X148033333Y-148040533D01*
X148033333Y-148040533D02*
X147985714Y-148135771D01*
X147985714Y-148135771D02*
X147938095Y-148183390D01*
X147938095Y-148183390D02*
X147842857Y-148231009D01*
X147842857Y-148231009D02*
X147509524Y-148231009D01*
X148509524Y-148373866D02*
X149271429Y-148373866D01*
X148890476Y-148754819D02*
X148890476Y-147992914D01*
X148754819Y-82019047D02*
X148754819Y-82590475D01*
X148754819Y-82304761D02*
X147754819Y-82304761D01*
X147754819Y-82304761D02*
X147897676Y-82399999D01*
X147897676Y-82399999D02*
X147992914Y-82495237D01*
X147992914Y-82495237D02*
X148040533Y-82590475D01*
X147850057Y-81638094D02*
X147802438Y-81590475D01*
X147802438Y-81590475D02*
X147754819Y-81495237D01*
X147754819Y-81495237D02*
X147754819Y-81257142D01*
X147754819Y-81257142D02*
X147802438Y-81161904D01*
X147802438Y-81161904D02*
X147850057Y-81114285D01*
X147850057Y-81114285D02*
X147945295Y-81066666D01*
X147945295Y-81066666D02*
X148040533Y-81066666D01*
X148040533Y-81066666D02*
X148183390Y-81114285D01*
X148183390Y-81114285D02*
X148754819Y-81685713D01*
X148754819Y-81685713D02*
X148754819Y-81066666D01*
X147754819Y-80780951D02*
X148754819Y-80447618D01*
X148754819Y-80447618D02*
X147754819Y-80114285D01*
X167938095Y-48007200D02*
X168080952Y-48054819D01*
X168080952Y-48054819D02*
X168319047Y-48054819D01*
X168319047Y-48054819D02*
X168414285Y-48007200D01*
X168414285Y-48007200D02*
X168461904Y-47959580D01*
X168461904Y-47959580D02*
X168509523Y-47864342D01*
X168509523Y-47864342D02*
X168509523Y-47769104D01*
X168509523Y-47769104D02*
X168461904Y-47673866D01*
X168461904Y-47673866D02*
X168414285Y-47626247D01*
X168414285Y-47626247D02*
X168319047Y-47578628D01*
X168319047Y-47578628D02*
X168128571Y-47531009D01*
X168128571Y-47531009D02*
X168033333Y-47483390D01*
X168033333Y-47483390D02*
X167985714Y-47435771D01*
X167985714Y-47435771D02*
X167938095Y-47340533D01*
X167938095Y-47340533D02*
X167938095Y-47245295D01*
X167938095Y-47245295D02*
X167985714Y-47150057D01*
X167985714Y-47150057D02*
X168033333Y-47102438D01*
X168033333Y-47102438D02*
X168128571Y-47054819D01*
X168128571Y-47054819D02*
X168366666Y-47054819D01*
X168366666Y-47054819D02*
X168509523Y-47102438D01*
X168842857Y-47054819D02*
X169509523Y-47054819D01*
X169509523Y-47054819D02*
X169080952Y-48054819D01*
X161642857Y-132369104D02*
X162119047Y-132369104D01*
X161547619Y-132654819D02*
X161880952Y-131654819D01*
X161880952Y-131654819D02*
X162214285Y-132654819D01*
X162547619Y-132273866D02*
X163309524Y-132273866D01*
X118038095Y-148502438D02*
X117942857Y-148454819D01*
X117942857Y-148454819D02*
X117800000Y-148454819D01*
X117800000Y-148454819D02*
X117657143Y-148502438D01*
X117657143Y-148502438D02*
X117561905Y-148597676D01*
X117561905Y-148597676D02*
X117514286Y-148692914D01*
X117514286Y-148692914D02*
X117466667Y-148883390D01*
X117466667Y-148883390D02*
X117466667Y-149026247D01*
X117466667Y-149026247D02*
X117514286Y-149216723D01*
X117514286Y-149216723D02*
X117561905Y-149311961D01*
X117561905Y-149311961D02*
X117657143Y-149407200D01*
X117657143Y-149407200D02*
X117800000Y-149454819D01*
X117800000Y-149454819D02*
X117895238Y-149454819D01*
X117895238Y-149454819D02*
X118038095Y-149407200D01*
X118038095Y-149407200D02*
X118085714Y-149359580D01*
X118085714Y-149359580D02*
X118085714Y-149026247D01*
X118085714Y-149026247D02*
X117895238Y-149026247D01*
X118514286Y-149454819D02*
X118514286Y-148454819D01*
X118514286Y-148454819D02*
X119085714Y-149454819D01*
X119085714Y-149454819D02*
X119085714Y-148454819D01*
X119561905Y-149454819D02*
X119561905Y-148454819D01*
X119561905Y-148454819D02*
X119800000Y-148454819D01*
X119800000Y-148454819D02*
X119942857Y-148502438D01*
X119942857Y-148502438D02*
X120038095Y-148597676D01*
X120038095Y-148597676D02*
X120085714Y-148692914D01*
X120085714Y-148692914D02*
X120133333Y-148883390D01*
X120133333Y-148883390D02*
X120133333Y-149026247D01*
X120133333Y-149026247D02*
X120085714Y-149216723D01*
X120085714Y-149216723D02*
X120038095Y-149311961D01*
X120038095Y-149311961D02*
X119942857Y-149407200D01*
X119942857Y-149407200D02*
X119800000Y-149454819D01*
X119800000Y-149454819D02*
X119561905Y-149454819D01*
X160138095Y-48007200D02*
X160280952Y-48054819D01*
X160280952Y-48054819D02*
X160519047Y-48054819D01*
X160519047Y-48054819D02*
X160614285Y-48007200D01*
X160614285Y-48007200D02*
X160661904Y-47959580D01*
X160661904Y-47959580D02*
X160709523Y-47864342D01*
X160709523Y-47864342D02*
X160709523Y-47769104D01*
X160709523Y-47769104D02*
X160661904Y-47673866D01*
X160661904Y-47673866D02*
X160614285Y-47626247D01*
X160614285Y-47626247D02*
X160519047Y-47578628D01*
X160519047Y-47578628D02*
X160328571Y-47531009D01*
X160328571Y-47531009D02*
X160233333Y-47483390D01*
X160233333Y-47483390D02*
X160185714Y-47435771D01*
X160185714Y-47435771D02*
X160138095Y-47340533D01*
X160138095Y-47340533D02*
X160138095Y-47245295D01*
X160138095Y-47245295D02*
X160185714Y-47150057D01*
X160185714Y-47150057D02*
X160233333Y-47102438D01*
X160233333Y-47102438D02*
X160328571Y-47054819D01*
X160328571Y-47054819D02*
X160566666Y-47054819D01*
X160566666Y-47054819D02*
X160709523Y-47102438D01*
X161566666Y-47388152D02*
X161566666Y-48054819D01*
X161328571Y-47007200D02*
X161090476Y-47721485D01*
X161090476Y-47721485D02*
X161709523Y-47721485D01*
X144723810Y-46254819D02*
X144723810Y-45254819D01*
X145152381Y-45350057D02*
X145200000Y-45302438D01*
X145200000Y-45302438D02*
X145295238Y-45254819D01*
X145295238Y-45254819D02*
X145533333Y-45254819D01*
X145533333Y-45254819D02*
X145628571Y-45302438D01*
X145628571Y-45302438D02*
X145676190Y-45350057D01*
X145676190Y-45350057D02*
X145723809Y-45445295D01*
X145723809Y-45445295D02*
X145723809Y-45540533D01*
X145723809Y-45540533D02*
X145676190Y-45683390D01*
X145676190Y-45683390D02*
X145104762Y-46254819D01*
X145104762Y-46254819D02*
X145723809Y-46254819D01*
X113695238Y-42754819D02*
X113695238Y-41754819D01*
X113695238Y-41754819D02*
X114076190Y-41754819D01*
X114076190Y-41754819D02*
X114171428Y-41802438D01*
X114171428Y-41802438D02*
X114219047Y-41850057D01*
X114219047Y-41850057D02*
X114266666Y-41945295D01*
X114266666Y-41945295D02*
X114266666Y-42088152D01*
X114266666Y-42088152D02*
X114219047Y-42183390D01*
X114219047Y-42183390D02*
X114171428Y-42231009D01*
X114171428Y-42231009D02*
X114076190Y-42278628D01*
X114076190Y-42278628D02*
X113695238Y-42278628D01*
X114600000Y-41754819D02*
X114838095Y-42754819D01*
X114838095Y-42754819D02*
X115028571Y-42040533D01*
X115028571Y-42040533D02*
X115219047Y-42754819D01*
X115219047Y-42754819D02*
X115457143Y-41754819D01*
X115838095Y-42754819D02*
X115838095Y-41754819D01*
X115838095Y-41754819D02*
X116171428Y-42469104D01*
X116171428Y-42469104D02*
X116504761Y-41754819D01*
X116504761Y-41754819D02*
X116504761Y-42754819D01*
X154000833Y-105494819D02*
X153667500Y-105018628D01*
X153429405Y-105494819D02*
X153429405Y-104494819D01*
X153429405Y-104494819D02*
X153810357Y-104494819D01*
X153810357Y-104494819D02*
X153905595Y-104542438D01*
X153905595Y-104542438D02*
X153953214Y-104590057D01*
X153953214Y-104590057D02*
X154000833Y-104685295D01*
X154000833Y-104685295D02*
X154000833Y-104828152D01*
X154000833Y-104828152D02*
X153953214Y-104923390D01*
X153953214Y-104923390D02*
X153905595Y-104971009D01*
X153905595Y-104971009D02*
X153810357Y-105018628D01*
X153810357Y-105018628D02*
X153429405Y-105018628D01*
X154857976Y-104494819D02*
X154667500Y-104494819D01*
X154667500Y-104494819D02*
X154572262Y-104542438D01*
X154572262Y-104542438D02*
X154524643Y-104590057D01*
X154524643Y-104590057D02*
X154429405Y-104732914D01*
X154429405Y-104732914D02*
X154381786Y-104923390D01*
X154381786Y-104923390D02*
X154381786Y-105304342D01*
X154381786Y-105304342D02*
X154429405Y-105399580D01*
X154429405Y-105399580D02*
X154477024Y-105447200D01*
X154477024Y-105447200D02*
X154572262Y-105494819D01*
X154572262Y-105494819D02*
X154762738Y-105494819D01*
X154762738Y-105494819D02*
X154857976Y-105447200D01*
X154857976Y-105447200D02*
X154905595Y-105399580D01*
X154905595Y-105399580D02*
X154953214Y-105304342D01*
X154953214Y-105304342D02*
X154953214Y-105066247D01*
X154953214Y-105066247D02*
X154905595Y-104971009D01*
X154905595Y-104971009D02*
X154857976Y-104923390D01*
X154857976Y-104923390D02*
X154762738Y-104875771D01*
X154762738Y-104875771D02*
X154572262Y-104875771D01*
X154572262Y-104875771D02*
X154477024Y-104923390D01*
X154477024Y-104923390D02*
X154429405Y-104971009D01*
X154429405Y-104971009D02*
X154381786Y-105066247D01*
X152529819Y-82238094D02*
X151529819Y-82238094D01*
X151529819Y-82238094D02*
X151529819Y-81999999D01*
X151529819Y-81999999D02*
X151577438Y-81857142D01*
X151577438Y-81857142D02*
X151672676Y-81761904D01*
X151672676Y-81761904D02*
X151767914Y-81714285D01*
X151767914Y-81714285D02*
X151958390Y-81666666D01*
X151958390Y-81666666D02*
X152101247Y-81666666D01*
X152101247Y-81666666D02*
X152291723Y-81714285D01*
X152291723Y-81714285D02*
X152386961Y-81761904D01*
X152386961Y-81761904D02*
X152482200Y-81857142D01*
X152482200Y-81857142D02*
X152529819Y-81999999D01*
X152529819Y-81999999D02*
X152529819Y-82238094D01*
X152529819Y-80714285D02*
X152529819Y-81285713D01*
X152529819Y-80999999D02*
X151529819Y-80999999D01*
X151529819Y-80999999D02*
X151672676Y-81095237D01*
X151672676Y-81095237D02*
X151767914Y-81190475D01*
X151767914Y-81190475D02*
X151815533Y-81285713D01*
X176059580Y-78166666D02*
X176107200Y-78214285D01*
X176107200Y-78214285D02*
X176154819Y-78357142D01*
X176154819Y-78357142D02*
X176154819Y-78452380D01*
X176154819Y-78452380D02*
X176107200Y-78595237D01*
X176107200Y-78595237D02*
X176011961Y-78690475D01*
X176011961Y-78690475D02*
X175916723Y-78738094D01*
X175916723Y-78738094D02*
X175726247Y-78785713D01*
X175726247Y-78785713D02*
X175583390Y-78785713D01*
X175583390Y-78785713D02*
X175392914Y-78738094D01*
X175392914Y-78738094D02*
X175297676Y-78690475D01*
X175297676Y-78690475D02*
X175202438Y-78595237D01*
X175202438Y-78595237D02*
X175154819Y-78452380D01*
X175154819Y-78452380D02*
X175154819Y-78357142D01*
X175154819Y-78357142D02*
X175202438Y-78214285D01*
X175202438Y-78214285D02*
X175250057Y-78166666D01*
X176154819Y-77214285D02*
X176154819Y-77785713D01*
X176154819Y-77499999D02*
X175154819Y-77499999D01*
X175154819Y-77499999D02*
X175297676Y-77595237D01*
X175297676Y-77595237D02*
X175392914Y-77690475D01*
X175392914Y-77690475D02*
X175440533Y-77785713D01*
X113354819Y-92288094D02*
X112354819Y-92288094D01*
X112354819Y-92288094D02*
X112354819Y-92049999D01*
X112354819Y-92049999D02*
X112402438Y-91907142D01*
X112402438Y-91907142D02*
X112497676Y-91811904D01*
X112497676Y-91811904D02*
X112592914Y-91764285D01*
X112592914Y-91764285D02*
X112783390Y-91716666D01*
X112783390Y-91716666D02*
X112926247Y-91716666D01*
X112926247Y-91716666D02*
X113116723Y-91764285D01*
X113116723Y-91764285D02*
X113211961Y-91811904D01*
X113211961Y-91811904D02*
X113307200Y-91907142D01*
X113307200Y-91907142D02*
X113354819Y-92049999D01*
X113354819Y-92049999D02*
X113354819Y-92288094D01*
X112688152Y-90859523D02*
X113354819Y-90859523D01*
X112307200Y-91097618D02*
X113021485Y-91335713D01*
X113021485Y-91335713D02*
X113021485Y-90716666D01*
X148929819Y-76316666D02*
X148453628Y-76649999D01*
X148929819Y-76888094D02*
X147929819Y-76888094D01*
X147929819Y-76888094D02*
X147929819Y-76507142D01*
X147929819Y-76507142D02*
X147977438Y-76411904D01*
X147977438Y-76411904D02*
X148025057Y-76364285D01*
X148025057Y-76364285D02*
X148120295Y-76316666D01*
X148120295Y-76316666D02*
X148263152Y-76316666D01*
X148263152Y-76316666D02*
X148358390Y-76364285D01*
X148358390Y-76364285D02*
X148406009Y-76411904D01*
X148406009Y-76411904D02*
X148453628Y-76507142D01*
X148453628Y-76507142D02*
X148453628Y-76888094D01*
X147929819Y-75411904D02*
X147929819Y-75888094D01*
X147929819Y-75888094D02*
X148406009Y-75935713D01*
X148406009Y-75935713D02*
X148358390Y-75888094D01*
X148358390Y-75888094D02*
X148310771Y-75792856D01*
X148310771Y-75792856D02*
X148310771Y-75554761D01*
X148310771Y-75554761D02*
X148358390Y-75459523D01*
X148358390Y-75459523D02*
X148406009Y-75411904D01*
X148406009Y-75411904D02*
X148501247Y-75364285D01*
X148501247Y-75364285D02*
X148739342Y-75364285D01*
X148739342Y-75364285D02*
X148834580Y-75411904D01*
X148834580Y-75411904D02*
X148882200Y-75459523D01*
X148882200Y-75459523D02*
X148929819Y-75554761D01*
X148929819Y-75554761D02*
X148929819Y-75792856D01*
X148929819Y-75792856D02*
X148882200Y-75888094D01*
X148882200Y-75888094D02*
X148834580Y-75935713D01*
X129959580Y-78166666D02*
X130007200Y-78214285D01*
X130007200Y-78214285D02*
X130054819Y-78357142D01*
X130054819Y-78357142D02*
X130054819Y-78452380D01*
X130054819Y-78452380D02*
X130007200Y-78595237D01*
X130007200Y-78595237D02*
X129911961Y-78690475D01*
X129911961Y-78690475D02*
X129816723Y-78738094D01*
X129816723Y-78738094D02*
X129626247Y-78785713D01*
X129626247Y-78785713D02*
X129483390Y-78785713D01*
X129483390Y-78785713D02*
X129292914Y-78738094D01*
X129292914Y-78738094D02*
X129197676Y-78690475D01*
X129197676Y-78690475D02*
X129102438Y-78595237D01*
X129102438Y-78595237D02*
X129054819Y-78452380D01*
X129054819Y-78452380D02*
X129054819Y-78357142D01*
X129054819Y-78357142D02*
X129102438Y-78214285D01*
X129102438Y-78214285D02*
X129150057Y-78166666D01*
X129150057Y-77785713D02*
X129102438Y-77738094D01*
X129102438Y-77738094D02*
X129054819Y-77642856D01*
X129054819Y-77642856D02*
X129054819Y-77404761D01*
X129054819Y-77404761D02*
X129102438Y-77309523D01*
X129102438Y-77309523D02*
X129150057Y-77261904D01*
X129150057Y-77261904D02*
X129245295Y-77214285D01*
X129245295Y-77214285D02*
X129340533Y-77214285D01*
X129340533Y-77214285D02*
X129483390Y-77261904D01*
X129483390Y-77261904D02*
X130054819Y-77833332D01*
X130054819Y-77833332D02*
X130054819Y-77214285D01*
X147179405Y-108824819D02*
X147179405Y-107824819D01*
X147179405Y-107824819D02*
X147417500Y-107824819D01*
X147417500Y-107824819D02*
X147560357Y-107872438D01*
X147560357Y-107872438D02*
X147655595Y-107967676D01*
X147655595Y-107967676D02*
X147703214Y-108062914D01*
X147703214Y-108062914D02*
X147750833Y-108253390D01*
X147750833Y-108253390D02*
X147750833Y-108396247D01*
X147750833Y-108396247D02*
X147703214Y-108586723D01*
X147703214Y-108586723D02*
X147655595Y-108681961D01*
X147655595Y-108681961D02*
X147560357Y-108777200D01*
X147560357Y-108777200D02*
X147417500Y-108824819D01*
X147417500Y-108824819D02*
X147179405Y-108824819D01*
X148131786Y-107920057D02*
X148179405Y-107872438D01*
X148179405Y-107872438D02*
X148274643Y-107824819D01*
X148274643Y-107824819D02*
X148512738Y-107824819D01*
X148512738Y-107824819D02*
X148607976Y-107872438D01*
X148607976Y-107872438D02*
X148655595Y-107920057D01*
X148655595Y-107920057D02*
X148703214Y-108015295D01*
X148703214Y-108015295D02*
X148703214Y-108110533D01*
X148703214Y-108110533D02*
X148655595Y-108253390D01*
X148655595Y-108253390D02*
X148084167Y-108824819D01*
X148084167Y-108824819D02*
X148703214Y-108824819D01*
X138807381Y-49329820D02*
X138807381Y-50139343D01*
X138807381Y-50139343D02*
X138855000Y-50234581D01*
X138855000Y-50234581D02*
X138902619Y-50282201D01*
X138902619Y-50282201D02*
X138997857Y-50329820D01*
X138997857Y-50329820D02*
X139188333Y-50329820D01*
X139188333Y-50329820D02*
X139283571Y-50282201D01*
X139283571Y-50282201D02*
X139331190Y-50234581D01*
X139331190Y-50234581D02*
X139378809Y-50139343D01*
X139378809Y-50139343D02*
X139378809Y-49329820D01*
X140331190Y-50329820D02*
X139855000Y-50329820D01*
X139855000Y-50329820D02*
X139855000Y-49329820D01*
X140664524Y-50329820D02*
X140664524Y-49329820D01*
X140664524Y-49329820D02*
X141235952Y-50329820D01*
X141235952Y-50329820D02*
X141235952Y-49329820D01*
X141664524Y-49425058D02*
X141712143Y-49377439D01*
X141712143Y-49377439D02*
X141807381Y-49329820D01*
X141807381Y-49329820D02*
X142045476Y-49329820D01*
X142045476Y-49329820D02*
X142140714Y-49377439D01*
X142140714Y-49377439D02*
X142188333Y-49425058D01*
X142188333Y-49425058D02*
X142235952Y-49520296D01*
X142235952Y-49520296D02*
X142235952Y-49615534D01*
X142235952Y-49615534D02*
X142188333Y-49758391D01*
X142188333Y-49758391D02*
X141616905Y-50329820D01*
X141616905Y-50329820D02*
X142235952Y-50329820D01*
X142855000Y-49329820D02*
X142950238Y-49329820D01*
X142950238Y-49329820D02*
X143045476Y-49377439D01*
X143045476Y-49377439D02*
X143093095Y-49425058D01*
X143093095Y-49425058D02*
X143140714Y-49520296D01*
X143140714Y-49520296D02*
X143188333Y-49710772D01*
X143188333Y-49710772D02*
X143188333Y-49948867D01*
X143188333Y-49948867D02*
X143140714Y-50139343D01*
X143140714Y-50139343D02*
X143093095Y-50234581D01*
X143093095Y-50234581D02*
X143045476Y-50282201D01*
X143045476Y-50282201D02*
X142950238Y-50329820D01*
X142950238Y-50329820D02*
X142855000Y-50329820D01*
X142855000Y-50329820D02*
X142759762Y-50282201D01*
X142759762Y-50282201D02*
X142712143Y-50234581D01*
X142712143Y-50234581D02*
X142664524Y-50139343D01*
X142664524Y-50139343D02*
X142616905Y-49948867D01*
X142616905Y-49948867D02*
X142616905Y-49710772D01*
X142616905Y-49710772D02*
X142664524Y-49520296D01*
X142664524Y-49520296D02*
X142712143Y-49425058D01*
X142712143Y-49425058D02*
X142759762Y-49377439D01*
X142759762Y-49377439D02*
X142855000Y-49329820D01*
X143807381Y-49329820D02*
X143902619Y-49329820D01*
X143902619Y-49329820D02*
X143997857Y-49377439D01*
X143997857Y-49377439D02*
X144045476Y-49425058D01*
X144045476Y-49425058D02*
X144093095Y-49520296D01*
X144093095Y-49520296D02*
X144140714Y-49710772D01*
X144140714Y-49710772D02*
X144140714Y-49948867D01*
X144140714Y-49948867D02*
X144093095Y-50139343D01*
X144093095Y-50139343D02*
X144045476Y-50234581D01*
X144045476Y-50234581D02*
X143997857Y-50282201D01*
X143997857Y-50282201D02*
X143902619Y-50329820D01*
X143902619Y-50329820D02*
X143807381Y-50329820D01*
X143807381Y-50329820D02*
X143712143Y-50282201D01*
X143712143Y-50282201D02*
X143664524Y-50234581D01*
X143664524Y-50234581D02*
X143616905Y-50139343D01*
X143616905Y-50139343D02*
X143569286Y-49948867D01*
X143569286Y-49948867D02*
X143569286Y-49710772D01*
X143569286Y-49710772D02*
X143616905Y-49520296D01*
X143616905Y-49520296D02*
X143664524Y-49425058D01*
X143664524Y-49425058D02*
X143712143Y-49377439D01*
X143712143Y-49377439D02*
X143807381Y-49329820D01*
X144474048Y-49329820D02*
X145093095Y-49329820D01*
X145093095Y-49329820D02*
X144759762Y-49710772D01*
X144759762Y-49710772D02*
X144902619Y-49710772D01*
X144902619Y-49710772D02*
X144997857Y-49758391D01*
X144997857Y-49758391D02*
X145045476Y-49806010D01*
X145045476Y-49806010D02*
X145093095Y-49901248D01*
X145093095Y-49901248D02*
X145093095Y-50139343D01*
X145093095Y-50139343D02*
X145045476Y-50234581D01*
X145045476Y-50234581D02*
X144997857Y-50282201D01*
X144997857Y-50282201D02*
X144902619Y-50329820D01*
X144902619Y-50329820D02*
X144616905Y-50329820D01*
X144616905Y-50329820D02*
X144521667Y-50282201D01*
X144521667Y-50282201D02*
X144474048Y-50234581D01*
X145474048Y-50044105D02*
X145950238Y-50044105D01*
X145378810Y-50329820D02*
X145712143Y-49329820D01*
X145712143Y-49329820D02*
X146045476Y-50329820D01*
X146378810Y-50329820D02*
X146378810Y-49329820D01*
X146378810Y-49329820D02*
X146616905Y-49329820D01*
X146616905Y-49329820D02*
X146759762Y-49377439D01*
X146759762Y-49377439D02*
X146855000Y-49472677D01*
X146855000Y-49472677D02*
X146902619Y-49567915D01*
X146902619Y-49567915D02*
X146950238Y-49758391D01*
X146950238Y-49758391D02*
X146950238Y-49901248D01*
X146950238Y-49901248D02*
X146902619Y-50091724D01*
X146902619Y-50091724D02*
X146855000Y-50186962D01*
X146855000Y-50186962D02*
X146759762Y-50282201D01*
X146759762Y-50282201D02*
X146616905Y-50329820D01*
X146616905Y-50329820D02*
X146378810Y-50329820D01*
X113154819Y-87416666D02*
X112678628Y-87749999D01*
X113154819Y-87988094D02*
X112154819Y-87988094D01*
X112154819Y-87988094D02*
X112154819Y-87607142D01*
X112154819Y-87607142D02*
X112202438Y-87511904D01*
X112202438Y-87511904D02*
X112250057Y-87464285D01*
X112250057Y-87464285D02*
X112345295Y-87416666D01*
X112345295Y-87416666D02*
X112488152Y-87416666D01*
X112488152Y-87416666D02*
X112583390Y-87464285D01*
X112583390Y-87464285D02*
X112631009Y-87511904D01*
X112631009Y-87511904D02*
X112678628Y-87607142D01*
X112678628Y-87607142D02*
X112678628Y-87988094D01*
X112583390Y-86845237D02*
X112535771Y-86940475D01*
X112535771Y-86940475D02*
X112488152Y-86988094D01*
X112488152Y-86988094D02*
X112392914Y-87035713D01*
X112392914Y-87035713D02*
X112345295Y-87035713D01*
X112345295Y-87035713D02*
X112250057Y-86988094D01*
X112250057Y-86988094D02*
X112202438Y-86940475D01*
X112202438Y-86940475D02*
X112154819Y-86845237D01*
X112154819Y-86845237D02*
X112154819Y-86654761D01*
X112154819Y-86654761D02*
X112202438Y-86559523D01*
X112202438Y-86559523D02*
X112250057Y-86511904D01*
X112250057Y-86511904D02*
X112345295Y-86464285D01*
X112345295Y-86464285D02*
X112392914Y-86464285D01*
X112392914Y-86464285D02*
X112488152Y-86511904D01*
X112488152Y-86511904D02*
X112535771Y-86559523D01*
X112535771Y-86559523D02*
X112583390Y-86654761D01*
X112583390Y-86654761D02*
X112583390Y-86845237D01*
X112583390Y-86845237D02*
X112631009Y-86940475D01*
X112631009Y-86940475D02*
X112678628Y-86988094D01*
X112678628Y-86988094D02*
X112773866Y-87035713D01*
X112773866Y-87035713D02*
X112964342Y-87035713D01*
X112964342Y-87035713D02*
X113059580Y-86988094D01*
X113059580Y-86988094D02*
X113107200Y-86940475D01*
X113107200Y-86940475D02*
X113154819Y-86845237D01*
X113154819Y-86845237D02*
X113154819Y-86654761D01*
X113154819Y-86654761D02*
X113107200Y-86559523D01*
X113107200Y-86559523D02*
X113059580Y-86511904D01*
X113059580Y-86511904D02*
X112964342Y-86464285D01*
X112964342Y-86464285D02*
X112773866Y-86464285D01*
X112773866Y-86464285D02*
X112678628Y-86511904D01*
X112678628Y-86511904D02*
X112631009Y-86559523D01*
X112631009Y-86559523D02*
X112583390Y-86654761D01*
D13*
%TO.C,J11*%
X145870000Y-144305000D02*
X145870000Y-141705000D01*
X148530000Y-141705000D02*
X145870000Y-141705000D01*
X148530000Y-144305000D02*
X145870000Y-144305000D01*
X148530000Y-144305000D02*
X148530000Y-141705000D01*
X148530000Y-145575000D02*
X148530000Y-146905000D01*
X148530000Y-146905000D02*
X147200000Y-146905000D01*
D14*
%TO.C,J14*%
X91680000Y-52400000D02*
X91680000Y-137160000D01*
X91680000Y-137160000D02*
X106590000Y-137160000D01*
X106590000Y-52400000D02*
X91680000Y-52400000D01*
X106590000Y-52400000D02*
X106590000Y-59730000D01*
X106590000Y-130190000D02*
X106590000Y-137160000D01*
X93480000Y-138180000D02*
G75*
G02*
X93280000Y-138180000I-100000J0D01*
G01*
X93280000Y-138180000D02*
G75*
G02*
X93480000Y-138180000I100000J0D01*
G01*
D12*
%TO.C,U4*%
X112303000Y-43333600D02*
X112303000Y-51766400D01*
X112303000Y-51766400D02*
X127797000Y-51766400D01*
X127797000Y-43333600D02*
X112303000Y-43333600D01*
X127797000Y-51766400D02*
X127797000Y-43333600D01*
D15*
X112049000Y-47550000D02*
G75*
G02*
X111287000Y-47550000I-381000J0D01*
G01*
X111287000Y-47550000D02*
G75*
G02*
X112049000Y-47550000I381000J0D01*
G01*
D12*
%TO.C,J8*%
X110347016Y-116765000D02*
X111871016Y-117400000D01*
X110347016Y-118035000D02*
X110347016Y-116765000D01*
X111871016Y-117400000D02*
X110347016Y-118035000D01*
X112125016Y-114930000D02*
X112125016Y-120744898D01*
X112125016Y-121935101D02*
X112125016Y-123700000D01*
X112125016Y-123700000D02*
X125274989Y-123700000D01*
X125274989Y-114930000D02*
X112125016Y-114930000D01*
X125274989Y-120744920D02*
X125274989Y-114930000D01*
X125274989Y-123700000D02*
X125274989Y-121935080D01*
D13*
%TO.C,R6*%
X153912776Y-105947500D02*
X154422224Y-105947500D01*
X153912776Y-106992500D02*
X154422224Y-106992500D01*
%TO.C,J6*%
X155295000Y-133330000D02*
X155295000Y-132000000D01*
X156625000Y-133330000D02*
X155295000Y-133330000D01*
X157895000Y-130670000D02*
X160495000Y-130670000D01*
X157895000Y-133330000D02*
X157895000Y-130670000D01*
X157895000Y-133330000D02*
X160495000Y-133330000D01*
X160495000Y-133330000D02*
X160495000Y-130670000D01*
%TO.C,J5*%
X107120000Y-45770000D02*
X108450000Y-45770000D01*
X107120000Y-47100000D02*
X107120000Y-45770000D01*
X107120000Y-48370000D02*
X107120000Y-48430000D01*
X107120000Y-48370000D02*
X109780000Y-48370000D01*
X107120000Y-48430000D02*
X109780000Y-48430000D01*
X109780000Y-48370000D02*
X109780000Y-48430000D01*
D12*
%TO.C,J18*%
X153115000Y-135185358D02*
X153115000Y-142335343D01*
X153115000Y-142335343D02*
X154879913Y-142335343D01*
X154879906Y-135185358D02*
X153115000Y-135185358D01*
X156070087Y-142335343D02*
X161885000Y-142335343D01*
X158780000Y-133407358D02*
X160050000Y-133407358D01*
X159415000Y-134931358D02*
X158780000Y-133407358D01*
X160050000Y-133407358D02*
X159415000Y-134931358D01*
X161885000Y-135185358D02*
X156070094Y-135185358D01*
X161885000Y-142335343D02*
X161885000Y-135185358D01*
D13*
%TO.C,J9*%
X168850000Y-54100000D02*
G75*
G02*
X164350000Y-54100000I-2250000J0D01*
G01*
X164350000Y-54100000D02*
G75*
G02*
X168850000Y-54100000I2250000J0D01*
G01*
D14*
%TO.C,U3*%
X174250000Y-44100000D02*
G75*
G02*
X174050000Y-44100000I-100000J0D01*
G01*
X174050000Y-44100000D02*
G75*
G02*
X174250000Y-44100000I100000J0D01*
G01*
D16*
X173500000Y-41600000D02*
X173500000Y-46600000D01*
X151800000Y-46600000D02*
X173500000Y-46600000D01*
X151800000Y-46600000D02*
X151800000Y-41600000D01*
X151800000Y-41600000D02*
X173500000Y-41600000D01*
D13*
%TO.C,D1*%
X149315000Y-79640000D02*
X149315000Y-82500000D01*
X151235000Y-79640000D02*
X149315000Y-79640000D01*
X151235000Y-82500000D02*
X151235000Y-79640000D01*
D12*
%TO.C,C1*%
X171318500Y-73618500D02*
X171318500Y-82381500D01*
X171318500Y-82381500D02*
X174617960Y-82381500D01*
X174617960Y-73618500D02*
X171318500Y-73618500D01*
X176782040Y-82381500D02*
X180081500Y-82381500D01*
X180081500Y-73618500D02*
X176782040Y-73618500D01*
X180081500Y-82381500D02*
X180081500Y-73618500D01*
X175776200Y-84273800D02*
G75*
G02*
X175623800Y-84273800I-76200J0D01*
G01*
X175623800Y-84273800D02*
G75*
G02*
X175776200Y-84273800I76200J0D01*
G01*
D13*
%TO.C,D4*%
X110090000Y-89840000D02*
X110090000Y-92700000D01*
X112010000Y-89840000D02*
X110090000Y-89840000D01*
X112010000Y-92700000D02*
X112010000Y-89840000D01*
%TO.C,R5*%
X149752500Y-76404724D02*
X149752500Y-75895276D01*
X150797500Y-76404724D02*
X150797500Y-75895276D01*
%TO.C,J4*%
X149005000Y-44505001D02*
X149005000Y-41845001D01*
X133705000Y-44505001D02*
X149005000Y-44505001D01*
X133705000Y-44505001D02*
X133705000Y-41845001D01*
X133705000Y-41845001D02*
X149005000Y-41845001D01*
X132435000Y-44505001D02*
X131105000Y-44505001D01*
X131105000Y-44505001D02*
X131105000Y-43175001D01*
D12*
%TO.C,C2*%
X125218500Y-73618500D02*
X125218500Y-82381500D01*
X125218500Y-82381500D02*
X128517960Y-82381500D01*
X128517960Y-73618500D02*
X125218500Y-73618500D01*
X130682040Y-82381500D02*
X133981500Y-82381500D01*
X133981500Y-73618500D02*
X130682040Y-73618500D01*
X133981500Y-82381500D02*
X133981500Y-73618500D01*
X129676200Y-84273800D02*
G75*
G02*
X129523800Y-84273800I-76200J0D01*
G01*
X129523800Y-84273800D02*
G75*
G02*
X129676200Y-84273800I76200J0D01*
G01*
D13*
%TO.C,D2*%
X147067500Y-107530000D02*
X149927500Y-107530000D01*
X149927500Y-105610000D02*
X147067500Y-105610000D01*
X149927500Y-107530000D02*
X149927500Y-105610000D01*
D12*
%TO.C,U1*%
X101266400Y-139283600D02*
X101266400Y-147716400D01*
X101266400Y-147716400D02*
X132000400Y-147716400D01*
X132000400Y-139283600D02*
X101266400Y-139283600D01*
X132000400Y-147716400D02*
X132000400Y-139283600D01*
D15*
X101012400Y-143500000D02*
G75*
G02*
X100250400Y-143500000I-381000J0D01*
G01*
X100250400Y-143500000D02*
G75*
G02*
X101012400Y-143500000I381000J0D01*
G01*
D14*
%TO.C,U2*%
X147855000Y-46775002D02*
X147855000Y-50775002D01*
X137855000Y-48975000D02*
X137855000Y-50775002D01*
D12*
%TO.C,J19*%
X138771100Y-106878601D02*
X138771100Y-119121401D01*
X138771100Y-119121401D02*
X144028900Y-119121401D01*
X144028900Y-106878601D02*
X138771100Y-106878601D01*
X144028900Y-119121401D02*
X144028900Y-106878601D01*
X166242001Y-106878601D02*
X166242001Y-119121401D01*
X166242001Y-119121401D02*
X171499801Y-119121401D01*
X171499801Y-106878601D02*
X166242001Y-106878601D01*
X171499801Y-119121401D02*
X171499801Y-106878601D01*
D15*
X142781000Y-106243601D02*
G75*
G02*
X142019000Y-106243601I-381000J0D01*
G01*
X142019000Y-106243601D02*
G75*
G02*
X142781000Y-106243601I381000J0D01*
G01*
X170251901Y-106243601D02*
G75*
G02*
X169489901Y-106243601I-381000J0D01*
G01*
X169489901Y-106243601D02*
G75*
G02*
X170251901Y-106243601I381000J0D01*
G01*
D13*
%TO.C,J15*%
X131450000Y-106500000D02*
G75*
G02*
X126950000Y-106500000I-2250000J0D01*
G01*
X126950000Y-106500000D02*
G75*
G02*
X131450000Y-106500000I2250000J0D01*
G01*
%TO.C,J7*%
X181150000Y-105200000D02*
G75*
G02*
X176650000Y-105200000I-2250000J0D01*
G01*
X176650000Y-105200000D02*
G75*
G02*
X181150000Y-105200000I2250000J0D01*
G01*
D14*
%TO.C,J3*%
X175455000Y-54860000D02*
X175455000Y-67940000D01*
X175455000Y-54860000D02*
X180405000Y-54860000D01*
X175680000Y-87860000D02*
X180630000Y-87860000D01*
X175680000Y-100940000D02*
X175680000Y-87860000D01*
X175705000Y-120900000D02*
X180655000Y-120900000D01*
X175705000Y-133980000D02*
X175705000Y-120900000D01*
X180405000Y-54860000D02*
X180405000Y-67940000D01*
X180405000Y-67940000D02*
X175455000Y-67940000D01*
X180630000Y-100940000D02*
X175680000Y-100940000D01*
X180630000Y-100940000D02*
X180630000Y-87860000D01*
X180655000Y-133980000D02*
X175705000Y-133980000D01*
X180655000Y-133980000D02*
X180655000Y-120900000D01*
X176985000Y-101590000D02*
G75*
G02*
X176785000Y-101590000I-100000J0D01*
G01*
X176785000Y-101590000D02*
G75*
G02*
X176985000Y-101590000I100000J0D01*
G01*
X177010000Y-134630000D02*
G75*
G02*
X176810000Y-134630000I-100000J0D01*
G01*
X176810000Y-134630000D02*
G75*
G02*
X177010000Y-134630000I100000J0D01*
G01*
X179300000Y-54210000D02*
G75*
G02*
X179100000Y-54210000I-100000J0D01*
G01*
X179100000Y-54210000D02*
G75*
G02*
X179300000Y-54210000I100000J0D01*
G01*
D13*
%TO.C,J16*%
X180950000Y-139200000D02*
G75*
G02*
X176450000Y-139200000I-2250000J0D01*
G01*
X176450000Y-139200000D02*
G75*
G02*
X180950000Y-139200000I2250000J0D01*
G01*
D14*
%TO.C,J2*%
X127455000Y-54860000D02*
X127455000Y-67940000D01*
X127455000Y-54860000D02*
X132405000Y-54860000D01*
X127680000Y-87860000D02*
X132630000Y-87860000D01*
X127680000Y-100940000D02*
X127680000Y-87860000D01*
X127705000Y-120900000D02*
X132655000Y-120900000D01*
X127705000Y-133980000D02*
X127705000Y-120900000D01*
X132405000Y-54860000D02*
X132405000Y-67940000D01*
X132405000Y-67940000D02*
X127455000Y-67940000D01*
X132630000Y-100940000D02*
X127680000Y-100940000D01*
X132630000Y-100940000D02*
X132630000Y-87860000D01*
X132655000Y-133980000D02*
X127705000Y-133980000D01*
X132655000Y-133980000D02*
X132655000Y-120900000D01*
X128985000Y-101590000D02*
G75*
G02*
X128785000Y-101590000I-100000J0D01*
G01*
X128785000Y-101590000D02*
G75*
G02*
X128985000Y-101590000I100000J0D01*
G01*
X129010000Y-134630000D02*
G75*
G02*
X128810000Y-134630000I-100000J0D01*
G01*
X128810000Y-134630000D02*
G75*
G02*
X129010000Y-134630000I100000J0D01*
G01*
X131300000Y-54210000D02*
G75*
G02*
X131100000Y-54210000I-100000J0D01*
G01*
X131100000Y-54210000D02*
G75*
G02*
X131300000Y-54210000I100000J0D01*
G01*
D17*
%TO.C,G\u002A\u002A\u002A*%
G36*
X158362605Y-76355882D02*
G01*
X158335924Y-76382563D01*
X158309244Y-76355882D01*
X158335924Y-76329202D01*
X158362605Y-76355882D01*
G37*
G36*
X158362605Y-79184034D02*
G01*
X158335924Y-79210714D01*
X158309244Y-79184034D01*
X158335924Y-79157353D01*
X158362605Y-79184034D01*
G37*
G36*
X158415966Y-76249160D02*
G01*
X158389286Y-76275840D01*
X158362605Y-76249160D01*
X158389286Y-76222479D01*
X158415966Y-76249160D01*
G37*
G36*
X158736135Y-75768908D02*
G01*
X158709454Y-75795588D01*
X158682773Y-75768908D01*
X158709454Y-75742227D01*
X158736135Y-75768908D01*
G37*
G36*
X159963445Y-75982353D02*
G01*
X159936765Y-76009034D01*
X159910084Y-75982353D01*
X159936765Y-75955672D01*
X159963445Y-75982353D01*
G37*
G36*
X160283614Y-86281093D02*
G01*
X160256933Y-86307773D01*
X160230252Y-86281093D01*
X160256933Y-86254412D01*
X160283614Y-86281093D01*
G37*
G36*
X156637255Y-82430182D02*
G01*
X156643641Y-82493510D01*
X156637255Y-82501331D01*
X156605532Y-82494006D01*
X156601681Y-82465756D01*
X156621205Y-82421834D01*
X156637255Y-82430182D01*
G37*
G36*
X156690616Y-82590266D02*
G01*
X156697003Y-82653594D01*
X156690616Y-82661415D01*
X156658893Y-82654090D01*
X156655042Y-82625840D01*
X156674566Y-82581918D01*
X156690616Y-82590266D01*
G37*
G36*
X156904939Y-82402390D02*
G01*
X156911301Y-82485787D01*
X156900727Y-82504666D01*
X156876473Y-82488751D01*
X156872700Y-82434629D01*
X156885732Y-82377691D01*
X156904939Y-82402390D01*
G37*
G36*
X157223996Y-82345693D02*
G01*
X157231044Y-82454943D01*
X157223996Y-82479097D01*
X157204519Y-82485800D01*
X157197081Y-82412395D01*
X157205467Y-82336642D01*
X157223996Y-82345693D01*
G37*
G36*
X157544164Y-84533508D02*
G01*
X157551212Y-84642758D01*
X157544164Y-84666912D01*
X157524687Y-84673615D01*
X157517249Y-84600210D01*
X157525635Y-84524457D01*
X157544164Y-84533508D01*
G37*
G36*
X157598637Y-84857012D02*
G01*
X157604998Y-84940409D01*
X157594424Y-84959288D01*
X157570171Y-84943373D01*
X157566398Y-84889251D01*
X157579430Y-84832312D01*
X157598637Y-84857012D01*
G37*
G36*
X157650886Y-85120483D02*
G01*
X157657934Y-85229732D01*
X157650886Y-85253887D01*
X157631410Y-85260590D01*
X157623972Y-85187185D01*
X157632358Y-85111432D01*
X157650886Y-85120483D01*
G37*
G36*
X158237861Y-76742752D02*
G01*
X158244909Y-76852001D01*
X158237861Y-76876156D01*
X158218385Y-76882859D01*
X158210947Y-76809454D01*
X158219332Y-76733700D01*
X158237861Y-76742752D01*
G37*
G36*
X158292334Y-76479281D02*
G01*
X158298696Y-76562678D01*
X158288122Y-76581556D01*
X158263868Y-76565642D01*
X158260095Y-76511520D01*
X158273127Y-76454581D01*
X158292334Y-76479281D01*
G37*
G36*
X158399057Y-76532642D02*
G01*
X158405418Y-76616039D01*
X158394844Y-76634918D01*
X158370591Y-76619003D01*
X158366818Y-76564881D01*
X158379850Y-76507943D01*
X158399057Y-76532642D01*
G37*
G36*
X158664986Y-77574300D02*
G01*
X158657661Y-77606023D01*
X158629412Y-77609874D01*
X158585489Y-77590350D01*
X158593838Y-77574300D01*
X158657165Y-77567913D01*
X158664986Y-77574300D01*
G37*
G36*
X159055896Y-76681607D02*
G01*
X159062924Y-76688501D01*
X159105073Y-76758464D01*
X159099358Y-76784185D01*
X159059664Y-76768172D01*
X159033053Y-76718373D01*
X159016806Y-76656032D01*
X159055896Y-76681607D01*
G37*
G36*
X157436439Y-82470938D02*
G01*
X157439080Y-82480112D01*
X157446892Y-82596350D01*
X157437103Y-82640196D01*
X157419585Y-82641970D01*
X157412430Y-82558435D01*
X157412504Y-82545798D01*
X157420198Y-82463037D01*
X157436439Y-82470938D01*
G37*
G36*
X157493753Y-84027309D02*
G01*
X157502532Y-84185120D01*
X157493025Y-84294116D01*
X157480527Y-84315588D01*
X157472472Y-84245675D01*
X157470724Y-84146639D01*
X157474718Y-84025566D01*
X157484279Y-83990153D01*
X157493753Y-84027309D01*
G37*
G36*
X158337282Y-78907292D02*
G01*
X158375945Y-78937101D01*
X158449849Y-79002927D01*
X158469328Y-79030483D01*
X158443371Y-79046456D01*
X158372434Y-78977908D01*
X158355799Y-78957248D01*
X158309649Y-78894042D01*
X158337282Y-78907292D01*
G37*
G36*
X158643768Y-78001763D02*
G01*
X158645542Y-78019281D01*
X158562007Y-78026435D01*
X158549370Y-78026362D01*
X158466609Y-78018668D01*
X158474509Y-78002426D01*
X158483684Y-77999786D01*
X158599921Y-77991974D01*
X158643768Y-78001763D01*
G37*
G36*
X158879477Y-75776696D02*
G01*
X158869538Y-75795588D01*
X158819260Y-75846549D01*
X158809878Y-75848950D01*
X158806237Y-75814481D01*
X158816177Y-75795588D01*
X158866454Y-75744628D01*
X158875836Y-75742227D01*
X158879477Y-75776696D01*
G37*
G36*
X158947082Y-77009589D02*
G01*
X158976261Y-77076261D01*
X158994665Y-77177216D01*
X158986005Y-77217707D01*
X158952078Y-77196294D01*
X158922899Y-77129622D01*
X158904495Y-77028667D01*
X158913155Y-76988176D01*
X158947082Y-77009589D01*
G37*
G36*
X159000443Y-76796144D02*
G01*
X159029622Y-76862815D01*
X159048026Y-76963770D01*
X159039366Y-77004261D01*
X159005440Y-76982848D01*
X158976261Y-76916177D01*
X158957856Y-76815221D01*
X158966516Y-76774731D01*
X159000443Y-76796144D01*
G37*
G36*
X158459713Y-79307368D02*
G01*
X158520512Y-79317039D01*
X158665263Y-79349542D01*
X158760415Y-79382022D01*
X158773824Y-79390701D01*
X158770777Y-79417057D01*
X158758368Y-79416165D01*
X158674020Y-79403414D01*
X158549370Y-79385378D01*
X158420654Y-79355832D01*
X158344973Y-79319711D01*
X158362903Y-79302055D01*
X158459713Y-79307368D01*
G37*
G36*
X158779297Y-79179144D02*
G01*
X158951053Y-79199370D01*
X159081458Y-79233118D01*
X159123477Y-79256544D01*
X159161834Y-79308780D01*
X159155910Y-79317437D01*
X159096430Y-79286401D01*
X159095367Y-79285353D01*
X159028475Y-79259575D01*
X158891193Y-79227859D01*
X158779646Y-79207952D01*
X158496008Y-79162636D01*
X158779297Y-79179144D01*
G37*
G36*
X159284101Y-77917344D02*
G01*
X159266975Y-77932885D01*
X159192240Y-77957396D01*
X159076720Y-77975584D01*
X158956454Y-77984773D01*
X158867483Y-77982285D01*
X158845845Y-77965443D01*
X158847304Y-77964065D01*
X158909102Y-77946208D01*
X159039080Y-77923709D01*
X159106891Y-77914364D01*
X159244678Y-77903301D01*
X159284101Y-77917344D01*
G37*
G36*
X160301864Y-78339609D02*
G01*
X160335458Y-78417238D01*
X160281776Y-78461985D01*
X160260644Y-78463656D01*
X160192254Y-78509025D01*
X160161188Y-78583719D01*
X160144046Y-78658074D01*
X160135221Y-78633187D01*
X160130796Y-78563572D01*
X160150021Y-78446212D01*
X160204601Y-78356138D01*
X160271112Y-78324016D01*
X160301864Y-78339609D01*
G37*
G36*
X158902733Y-77360410D02*
G01*
X158935605Y-77451444D01*
X158928254Y-77488904D01*
X158930172Y-77549667D01*
X158956577Y-77591624D01*
X158997692Y-77649398D01*
X158961470Y-77647920D01*
X158909559Y-77627895D01*
X158863555Y-77561115D01*
X158844461Y-77436906D01*
X158844480Y-77432003D01*
X158850304Y-77325423D01*
X158871147Y-77313622D01*
X158902733Y-77360410D01*
G37*
G36*
X158780264Y-77329488D02*
G01*
X158789496Y-77364039D01*
X158746453Y-77446416D01*
X158709454Y-77469087D01*
X158643646Y-77460411D01*
X158629412Y-77394754D01*
X158639275Y-77369748D01*
X158682773Y-77369748D01*
X158709454Y-77396429D01*
X158736135Y-77369748D01*
X158709454Y-77343067D01*
X158682773Y-77369748D01*
X158639275Y-77369748D01*
X158663173Y-77309162D01*
X158709454Y-77289706D01*
X158780264Y-77329488D01*
G37*
G36*
X158584638Y-76051820D02*
G01*
X158581645Y-76138752D01*
X158542388Y-76238848D01*
X158471453Y-76369165D01*
X158426424Y-76434753D01*
X158416416Y-76424632D01*
X158434145Y-76369223D01*
X158485445Y-76236438D01*
X158505077Y-76187045D01*
X158515978Y-76126965D01*
X158465056Y-76143927D01*
X158417069Y-76166873D01*
X158441260Y-76125927D01*
X158462034Y-76099906D01*
X158474864Y-76089076D01*
X158522689Y-76089076D01*
X158549370Y-76115756D01*
X158576051Y-76089076D01*
X158549370Y-76062395D01*
X158522689Y-76089076D01*
X158474864Y-76089076D01*
X158541346Y-76032955D01*
X158584638Y-76051820D01*
G37*
G36*
X159532539Y-80300008D02*
G01*
X159727131Y-80346679D01*
X159742436Y-80354072D01*
X159911330Y-80494901D01*
X160001734Y-80685832D01*
X160009250Y-80900149D01*
X159929474Y-81111138D01*
X159878660Y-81180990D01*
X159780128Y-81281085D01*
X159676472Y-81329968D01*
X159523427Y-81345298D01*
X159465110Y-81345985D01*
X159252529Y-81354817D01*
X159134550Y-81386099D01*
X159099836Y-81449355D01*
X159137053Y-81554112D01*
X159163299Y-81599597D01*
X159258712Y-81716120D01*
X159342305Y-81740826D01*
X159344236Y-81740126D01*
X159422006Y-81758911D01*
X159495416Y-81844475D01*
X159535206Y-81959819D01*
X159536555Y-81983317D01*
X159484163Y-82050159D01*
X159330838Y-82115975D01*
X159132546Y-82167615D01*
X159010432Y-82179672D01*
X158940553Y-82130153D01*
X158904111Y-82061559D01*
X158866468Y-81924805D01*
X158870323Y-81822947D01*
X158861333Y-81726965D01*
X158805306Y-81560901D01*
X158709823Y-81346360D01*
X158686568Y-81299355D01*
X158567769Y-81077071D01*
X158474703Y-80939188D01*
X158395621Y-80870180D01*
X158350625Y-80855465D01*
X158304167Y-80837834D01*
X158853654Y-80837834D01*
X158863332Y-80939231D01*
X158902378Y-81031846D01*
X158980310Y-81071136D01*
X159102718Y-81078361D01*
X159290644Y-81062061D01*
X159467057Y-81022550D01*
X159475231Y-81019780D01*
X159609563Y-80947065D01*
X159648551Y-80866536D01*
X159601563Y-80791014D01*
X159477965Y-80733320D01*
X159287121Y-80706272D01*
X159245735Y-80705649D01*
X159028324Y-80718128D01*
X158902130Y-80759441D01*
X158853654Y-80837834D01*
X158304167Y-80837834D01*
X158266495Y-80823537D01*
X158233103Y-80738714D01*
X158229202Y-80652719D01*
X158234685Y-80546237D01*
X158268080Y-80483428D01*
X158354800Y-80442504D01*
X158520261Y-80401678D01*
X158522689Y-80401131D01*
X158914856Y-80327831D01*
X159256627Y-80293924D01*
X159532539Y-80300008D01*
G37*
G36*
X157120112Y-83959658D02*
G01*
X157150935Y-84079079D01*
X157188333Y-84260901D01*
X157228477Y-84483439D01*
X157267534Y-84725011D01*
X157301675Y-84963933D01*
X157327067Y-85178520D01*
X157333498Y-85247646D01*
X157351825Y-85441772D01*
X157372921Y-85551614D01*
X157407237Y-85599334D01*
X157465228Y-85607094D01*
X157501345Y-85603511D01*
X157626741Y-85546084D01*
X157674819Y-85453992D01*
X157702816Y-85378381D01*
X157716950Y-85386273D01*
X157766696Y-85447714D01*
X157851811Y-85484471D01*
X157962332Y-85536841D01*
X158009875Y-85591311D01*
X158076699Y-85640404D01*
X158133799Y-85632678D01*
X158190617Y-85618318D01*
X158163473Y-85649986D01*
X158122817Y-85682390D01*
X158028517Y-85729394D01*
X157984352Y-85713155D01*
X157914768Y-85685451D01*
X157797249Y-85692251D01*
X157696181Y-85710830D01*
X157694119Y-85702107D01*
X157771336Y-85667038D01*
X157856679Y-85613308D01*
X157847416Y-85558393D01*
X157839202Y-85549580D01*
X157774502Y-85525464D01*
X157692303Y-85587575D01*
X157677154Y-85604568D01*
X157546745Y-85705080D01*
X157424055Y-85702318D01*
X157349227Y-85641344D01*
X157272029Y-85589791D01*
X157231321Y-85594005D01*
X157213224Y-85651331D01*
X157237367Y-85684132D01*
X157287971Y-85786856D01*
X157291166Y-85824853D01*
X157278239Y-85870509D01*
X157259927Y-85840529D01*
X157207793Y-85797016D01*
X157184709Y-85803279D01*
X157158919Y-85790709D01*
X157168527Y-85749645D01*
X157171037Y-85690709D01*
X157117593Y-85698056D01*
X157031698Y-85773640D01*
X157011119Y-85818724D01*
X156990145Y-85867531D01*
X156981400Y-85831723D01*
X156942764Y-85734855D01*
X156886898Y-85658298D01*
X156839981Y-85586181D01*
X156854508Y-85560714D01*
X156919923Y-85603469D01*
X156941993Y-85642965D01*
X156975333Y-85687506D01*
X157037567Y-85671789D01*
X157138220Y-85603475D01*
X157228865Y-85530388D01*
X157274560Y-85460278D01*
X157285622Y-85358343D01*
X157272366Y-85189784D01*
X157269381Y-85161035D01*
X157242806Y-84947348D01*
X157203929Y-84682497D01*
X157160673Y-84420107D01*
X157156053Y-84394064D01*
X157122392Y-84188915D01*
X157101611Y-84027503D01*
X157096799Y-83935579D01*
X157099697Y-83924323D01*
X157120112Y-83959658D01*
G37*
G36*
X157365961Y-81164390D02*
G01*
X157386408Y-81257436D01*
X157395902Y-81423920D01*
X157392839Y-81630969D01*
X157390722Y-81671875D01*
X157381878Y-81893163D01*
X157388962Y-82034434D01*
X157415515Y-82121670D01*
X157459427Y-82175857D01*
X157597338Y-82357023D01*
X157639096Y-82554007D01*
X157593449Y-82723700D01*
X157523119Y-82842591D01*
X157465133Y-82913101D01*
X157461717Y-82915462D01*
X157442180Y-82978646D01*
X157430833Y-83122204D01*
X157429249Y-83319995D01*
X157431852Y-83412439D01*
X157449853Y-83879832D01*
X157397293Y-83455385D01*
X157370087Y-83254570D01*
X157344580Y-83098737D01*
X157325317Y-83014816D01*
X157321803Y-83008008D01*
X157228460Y-82973886D01*
X157097408Y-82977504D01*
X156989175Y-83014897D01*
X156971126Y-83030971D01*
X156942361Y-83100837D01*
X156946470Y-83218535D01*
X156984922Y-83407834D01*
X156997655Y-83459530D01*
X157039126Y-83639418D01*
X157063184Y-83774010D01*
X157064743Y-83834735D01*
X157064485Y-83835025D01*
X157041719Y-83799184D01*
X157002958Y-83684132D01*
X156956501Y-83514577D01*
X156955500Y-83510600D01*
X156910421Y-83315251D01*
X156878976Y-83148626D01*
X156868487Y-83055105D01*
X156831779Y-82964145D01*
X156762849Y-82946008D01*
X156669965Y-82898937D01*
X156575450Y-82779318D01*
X156497102Y-82619544D01*
X156452715Y-82452005D01*
X156448864Y-82374500D01*
X156455215Y-82276010D01*
X156463931Y-82280580D01*
X156477546Y-82359034D01*
X156513244Y-82500591D01*
X156570930Y-82656743D01*
X156635809Y-82794219D01*
X156693085Y-82879747D01*
X156714833Y-82892647D01*
X156738116Y-82851346D01*
X156729380Y-82799265D01*
X156711893Y-82734643D01*
X156735157Y-82760467D01*
X156760387Y-82799265D01*
X156841238Y-82883446D01*
X156900544Y-82864991D01*
X156927109Y-82747480D01*
X156927168Y-82745903D01*
X156932697Y-82646339D01*
X156945102Y-82649159D01*
X156968661Y-82728607D01*
X157024812Y-82846946D01*
X157088109Y-82871867D01*
X157138551Y-82801116D01*
X157150130Y-82749067D01*
X157172665Y-82599160D01*
X157180660Y-82745903D01*
X157211700Y-82841633D01*
X157271373Y-82894580D01*
X157327830Y-82889652D01*
X157349557Y-82825945D01*
X157367301Y-82797597D01*
X157400432Y-82838412D01*
X157450428Y-82862050D01*
X157502777Y-82807692D01*
X157547552Y-82703356D01*
X157574824Y-82577061D01*
X157574665Y-82456825D01*
X157556553Y-82397836D01*
X157464092Y-82249006D01*
X157371838Y-82148096D01*
X157300960Y-82117312D01*
X157292385Y-82120758D01*
X157278168Y-82093092D01*
X157293824Y-81992347D01*
X157305038Y-81948502D01*
X157331464Y-81784864D01*
X157342279Y-81570413D01*
X157338339Y-81413475D01*
X157332093Y-81230249D01*
X157343142Y-81150368D01*
X157365961Y-81164390D01*
G37*
G36*
X159963445Y-75799977D02*
G01*
X159972689Y-75817165D01*
X159897978Y-75855499D01*
X159859944Y-75870026D01*
X159757427Y-75921156D01*
X159676077Y-75983681D01*
X159633561Y-76037515D01*
X159647549Y-76062574D01*
X159699338Y-76052602D01*
X159785616Y-76075955D01*
X159900752Y-76178422D01*
X160030236Y-76341603D01*
X160159560Y-76547098D01*
X160274213Y-76776507D01*
X160279103Y-76787816D01*
X160375191Y-76992451D01*
X160452180Y-77108155D01*
X160519818Y-77148750D01*
X160533857Y-77149017D01*
X160626657Y-77138974D01*
X160796665Y-77117973D01*
X161015363Y-77089596D01*
X161150106Y-77071599D01*
X161722598Y-77034536D01*
X162236053Y-77085763D01*
X162689955Y-77225223D01*
X162743863Y-77249504D01*
X162964240Y-77355142D01*
X163102064Y-77436903D01*
X163171443Y-77516153D01*
X163186482Y-77614258D01*
X163161288Y-77752582D01*
X163137451Y-77845654D01*
X163032536Y-78154198D01*
X162884224Y-78463924D01*
X162706232Y-78755494D01*
X162512280Y-79009571D01*
X162316087Y-79206816D01*
X162131373Y-79327892D01*
X162070957Y-79348952D01*
X161966448Y-79403713D01*
X161818794Y-79516494D01*
X161655728Y-79665531D01*
X161614717Y-79707027D01*
X161440590Y-79899555D01*
X161330075Y-80058406D01*
X161262825Y-80215784D01*
X161239995Y-80300012D01*
X161149751Y-80600727D01*
X161032500Y-80872164D01*
X160903588Y-81080394D01*
X160868274Y-81121914D01*
X160792478Y-81215220D01*
X160763866Y-81272034D01*
X160731906Y-81337732D01*
X160683933Y-81398409D01*
X160612252Y-81498231D01*
X160523113Y-81648869D01*
X160483828Y-81722990D01*
X160416700Y-81872347D01*
X160388958Y-82002689D01*
X160394361Y-82161754D01*
X160410224Y-82285996D01*
X160432418Y-82473201D01*
X160429359Y-82588962D01*
X160396632Y-82666502D01*
X160353016Y-82716522D01*
X160298734Y-82820076D01*
X160244022Y-83012543D01*
X160191552Y-83276159D01*
X160143994Y-83593159D01*
X160104022Y-83945778D01*
X160074305Y-84316252D01*
X160057689Y-84680252D01*
X160046638Y-84909899D01*
X160028307Y-85098794D01*
X160005630Y-85221975D01*
X159990126Y-85254847D01*
X159988382Y-85314527D01*
X160067383Y-85411035D01*
X160083508Y-85425712D01*
X160200057Y-85549151D01*
X160223198Y-85634664D01*
X160163551Y-85687553D01*
X160158563Y-85699137D01*
X160238051Y-85687350D01*
X160243593Y-85686215D01*
X160348989Y-85685989D01*
X160394180Y-85722686D01*
X160360398Y-85772184D01*
X160323635Y-85789088D01*
X160282649Y-85831497D01*
X160290601Y-85849437D01*
X160348396Y-85845293D01*
X160414095Y-85796140D01*
X160500043Y-85738985D01*
X160564523Y-85766918D01*
X160664052Y-85816194D01*
X160744882Y-85827521D01*
X160883046Y-85869996D01*
X161023461Y-85973821D01*
X161124561Y-86103597D01*
X161147994Y-86170824D01*
X161125895Y-86255806D01*
X161022676Y-86313082D01*
X160829647Y-86345714D01*
X160622831Y-86355815D01*
X160444238Y-86349481D01*
X160347492Y-86317651D01*
X160325231Y-86288311D01*
X160513643Y-86288311D01*
X160577101Y-86276997D01*
X160746638Y-86250220D01*
X160930848Y-86234861D01*
X160932194Y-86234811D01*
X161051724Y-86220836D01*
X161103728Y-86195053D01*
X161102470Y-86187710D01*
X161021984Y-86151701D01*
X160870532Y-86161652D01*
X160672379Y-86215355D01*
X160630462Y-86230700D01*
X160521831Y-86275299D01*
X160513643Y-86288311D01*
X160325231Y-86288311D01*
X160315553Y-86275556D01*
X160249503Y-86216414D01*
X160203122Y-86220520D01*
X160134516Y-86212467D01*
X160123530Y-86175844D01*
X160084814Y-86082114D01*
X160061923Y-86062552D01*
X160025593Y-86056381D01*
X160043847Y-86099423D01*
X160040591Y-86120499D01*
X159976623Y-86076099D01*
X159958710Y-86060639D01*
X159782156Y-85954928D01*
X159536332Y-85894904D01*
X159517354Y-85893889D01*
X160786434Y-85893889D01*
X160787598Y-85951914D01*
X160843083Y-86020812D01*
X160913734Y-86059955D01*
X160942411Y-86055732D01*
X160946222Y-86003146D01*
X160903660Y-85944446D01*
X160825180Y-85891374D01*
X160786434Y-85893889D01*
X159517354Y-85893889D01*
X159206975Y-85877289D01*
X159163025Y-85877835D01*
X158998413Y-85875525D01*
X158931095Y-85859469D01*
X158939818Y-85845308D01*
X159661065Y-85845308D01*
X159668389Y-85877031D01*
X159696639Y-85880882D01*
X159740561Y-85861358D01*
X159732213Y-85845308D01*
X159668886Y-85838922D01*
X159661065Y-85845308D01*
X158939818Y-85845308D01*
X158949580Y-85829461D01*
X159004009Y-85783673D01*
X158977620Y-85778356D01*
X158886763Y-85809849D01*
X158747792Y-85874495D01*
X158747349Y-85874719D01*
X158613591Y-85931135D01*
X158407931Y-86004460D01*
X158161562Y-86084005D01*
X157972109Y-86140380D01*
X157720012Y-86211284D01*
X157548157Y-86254170D01*
X157434463Y-86271348D01*
X157356847Y-86265127D01*
X157293228Y-86237814D01*
X157256978Y-86215145D01*
X157156948Y-86157864D01*
X157098182Y-86168111D01*
X157040650Y-86242972D01*
X156921589Y-86345953D01*
X156783098Y-86361816D01*
X156659466Y-86293359D01*
X156604302Y-86207378D01*
X156565191Y-86041148D01*
X156562607Y-85873870D01*
X156576851Y-85766362D01*
X156584873Y-85754273D01*
X156591012Y-85842268D01*
X156593958Y-85907563D01*
X156612692Y-86065420D01*
X156647149Y-86185105D01*
X156655859Y-86201051D01*
X156706233Y-86254229D01*
X156755434Y-86212815D01*
X156763700Y-86201051D01*
X156796835Y-86080817D01*
X156787087Y-85919963D01*
X156742444Y-85769677D01*
X156683771Y-85689017D01*
X156635536Y-85616923D01*
X156676171Y-85566334D01*
X156715240Y-85560714D01*
X156759107Y-85608136D01*
X156801959Y-85727074D01*
X156836019Y-85882533D01*
X156853513Y-86039521D01*
X156847845Y-86157520D01*
X156844490Y-86274561D01*
X156881011Y-86303457D01*
X156931449Y-86240061D01*
X156953298Y-86174370D01*
X157015017Y-86067163D01*
X157083271Y-86040966D01*
X157180896Y-86008505D01*
X157210397Y-85974265D01*
X157222616Y-85965683D01*
X157209127Y-86034309D01*
X157200632Y-86123109D01*
X157236300Y-86124542D01*
X157289476Y-86123639D01*
X157295378Y-86144540D01*
X157340726Y-86183723D01*
X157451642Y-86195636D01*
X157590439Y-86179984D01*
X157695588Y-86147689D01*
X157767604Y-86112612D01*
X157739422Y-86100554D01*
X157682248Y-86098078D01*
X157594231Y-86065525D01*
X157563710Y-86005392D01*
X157633333Y-86005392D01*
X157640658Y-86037116D01*
X157668908Y-86040966D01*
X157712830Y-86021442D01*
X157704482Y-86005392D01*
X157641154Y-85999006D01*
X157633333Y-86005392D01*
X157563710Y-86005392D01*
X157561805Y-86001638D01*
X157593361Y-85946483D01*
X157647936Y-85934244D01*
X157708525Y-85901434D01*
X157702972Y-85854202D01*
X157709717Y-85785307D01*
X157743225Y-85774160D01*
X157792766Y-85817323D01*
X157789886Y-85901308D01*
X157800145Y-86027987D01*
X157878806Y-86082524D01*
X157978291Y-86063644D01*
X158055092Y-86030594D01*
X158119760Y-86009105D01*
X158215304Y-85986788D01*
X158325482Y-85963646D01*
X158456685Y-85928162D01*
X158510205Y-85875624D01*
X158514105Y-85774581D01*
X158512246Y-85754337D01*
X158487318Y-85637672D01*
X158425590Y-85597483D01*
X158362605Y-85597354D01*
X158287052Y-85595910D01*
X158296236Y-85579456D01*
X158296897Y-85578501D01*
X160034594Y-85578501D01*
X160041919Y-85610225D01*
X160070168Y-85614076D01*
X160114091Y-85594552D01*
X160105742Y-85578501D01*
X160042415Y-85572115D01*
X160034594Y-85578501D01*
X158296897Y-85578501D01*
X158336337Y-85521496D01*
X158327503Y-85493727D01*
X158330765Y-85458986D01*
X158387517Y-85472610D01*
X158440450Y-85469287D01*
X158584652Y-85469287D01*
X158597636Y-85499108D01*
X158651365Y-85556394D01*
X158682254Y-85544643D01*
X158682773Y-85537183D01*
X158644872Y-85492049D01*
X158621167Y-85475577D01*
X158584652Y-85469287D01*
X158440450Y-85469287D01*
X158471465Y-85467340D01*
X158577733Y-85422280D01*
X158698603Y-85422280D01*
X158736135Y-85453992D01*
X158821279Y-85501985D01*
X158832623Y-85483910D01*
X158825955Y-85471779D01*
X159874510Y-85471779D01*
X159881835Y-85503502D01*
X159910084Y-85507353D01*
X159954007Y-85487829D01*
X159945658Y-85471779D01*
X159882331Y-85465392D01*
X159874510Y-85471779D01*
X158825955Y-85471779D01*
X158816177Y-85453992D01*
X158738247Y-85403257D01*
X158719645Y-85401447D01*
X158698603Y-85422280D01*
X158577733Y-85422280D01*
X158585457Y-85419005D01*
X158700398Y-85347002D01*
X158723401Y-85326785D01*
X158807628Y-85326785D01*
X158816177Y-85347269D01*
X158886865Y-85398638D01*
X158902517Y-85400630D01*
X158931448Y-85367753D01*
X158922899Y-85347269D01*
X158878829Y-85315243D01*
X159338950Y-85315243D01*
X159385125Y-85386199D01*
X159429832Y-85400630D01*
X159498073Y-85361698D01*
X159513561Y-85341303D01*
X159510869Y-85272302D01*
X159448286Y-85223943D01*
X159372173Y-85226887D01*
X159357554Y-85238119D01*
X159338950Y-85315243D01*
X158878829Y-85315243D01*
X158852211Y-85295900D01*
X158836559Y-85293908D01*
X158807628Y-85326785D01*
X158723401Y-85326785D01*
X158787187Y-85270725D01*
X158816728Y-85209570D01*
X158805988Y-85193680D01*
X158788535Y-85128529D01*
X158782410Y-84980655D01*
X158788067Y-84773502D01*
X158795562Y-84653572D01*
X158810639Y-84394021D01*
X158823542Y-84070501D01*
X158827000Y-83942169D01*
X159382317Y-83942169D01*
X159385887Y-84108403D01*
X159400776Y-84247405D01*
X159422205Y-84340913D01*
X159445395Y-84370662D01*
X159465565Y-84318389D01*
X159470742Y-84280042D01*
X159469004Y-84144390D01*
X159447461Y-83966187D01*
X159436568Y-83906513D01*
X159388164Y-83666387D01*
X159382317Y-83942169D01*
X158827000Y-83942169D01*
X158832831Y-83725760D01*
X158836947Y-83426261D01*
X158837512Y-83132418D01*
X158832608Y-82918621D01*
X158818217Y-82758202D01*
X158790320Y-82624494D01*
X158744897Y-82490829D01*
X158677928Y-82330540D01*
X158668536Y-82308901D01*
X158575754Y-82106068D01*
X158502163Y-81980773D01*
X158430073Y-81910408D01*
X158341790Y-81872364D01*
X158322926Y-81867232D01*
X158129593Y-81772109D01*
X157927420Y-81593903D01*
X157736553Y-81352242D01*
X157651036Y-81212642D01*
X157575757Y-81066487D01*
X157558412Y-80997161D01*
X157593950Y-80992887D01*
X157704540Y-81022255D01*
X157739974Y-81025817D01*
X157764853Y-81044303D01*
X157730500Y-81072145D01*
X157702888Y-81143894D01*
X157743364Y-81260594D01*
X157835453Y-81402090D01*
X157962679Y-81548227D01*
X158108567Y-81678852D01*
X158256641Y-81773811D01*
X158326984Y-81801805D01*
X158420589Y-81857773D01*
X158552938Y-81970970D01*
X158689323Y-82110407D01*
X158935998Y-82384864D01*
X159259635Y-82380467D01*
X159620044Y-82344645D01*
X159908421Y-82242831D01*
X160142274Y-82067108D01*
X160259885Y-81928121D01*
X160364864Y-81775511D01*
X160439579Y-81648835D01*
X160464557Y-81587553D01*
X160507080Y-81491877D01*
X160574784Y-81401089D01*
X160628844Y-81321135D01*
X160610195Y-81291807D01*
X160607989Y-81261490D01*
X160673063Y-81184226D01*
X160732699Y-81128504D01*
X160885630Y-80948030D01*
X161011949Y-80713609D01*
X161028043Y-80672931D01*
X161101630Y-80463927D01*
X161130630Y-80343685D01*
X161114902Y-80303938D01*
X161054305Y-80336421D01*
X161022776Y-80363053D01*
X160954905Y-80411913D01*
X160943652Y-80391876D01*
X160979233Y-80317599D01*
X161051868Y-80203735D01*
X161151772Y-80064940D01*
X161269164Y-79915868D01*
X161394260Y-79771174D01*
X161473249Y-79688233D01*
X161782423Y-79378600D01*
X161698903Y-79178708D01*
X161582125Y-78964794D01*
X161415480Y-78738586D01*
X161229716Y-78537543D01*
X161062291Y-78403205D01*
X160832105Y-78321235D01*
X160683824Y-78315716D01*
X160557247Y-78329163D01*
X160488806Y-78366143D01*
X160452407Y-78455188D01*
X160426521Y-78597059D01*
X160399002Y-78796374D01*
X160372174Y-79042396D01*
X160355328Y-79237395D01*
X160327401Y-79476364D01*
X160278322Y-79645960D01*
X160197369Y-79783019D01*
X160195989Y-79784841D01*
X160070773Y-79911836D01*
X159904944Y-80033136D01*
X159734673Y-80126223D01*
X159596127Y-80168582D01*
X159578702Y-80169130D01*
X159576618Y-80150162D01*
X159654499Y-80105215D01*
X159696258Y-80086215D01*
X159974616Y-79917263D01*
X160167821Y-79693011D01*
X160269285Y-79422692D01*
X160283614Y-79262813D01*
X160274837Y-79121007D01*
X160242178Y-79062658D01*
X160197280Y-79060058D01*
X160126371Y-79127359D01*
X160093357Y-79274653D01*
X160016474Y-79575497D01*
X159843634Y-79829636D01*
X159738576Y-79925541D01*
X159610372Y-80028715D01*
X159509544Y-80110534D01*
X159492525Y-80124511D01*
X159376595Y-80173290D01*
X159168316Y-80210874D01*
X158881649Y-80235445D01*
X158566568Y-80244948D01*
X158348948Y-80238849D01*
X158206866Y-80211678D01*
X158110167Y-80157177D01*
X158099656Y-80148029D01*
X158006619Y-79997822D01*
X158002098Y-79900600D01*
X158042437Y-79900600D01*
X158082965Y-80029744D01*
X158180421Y-80126372D01*
X158298610Y-80157139D01*
X158317146Y-80153691D01*
X158414772Y-80156720D01*
X158449512Y-80182326D01*
X158524250Y-80212713D01*
X158687762Y-80201859D01*
X158943292Y-80149318D01*
X159220987Y-80075598D01*
X159544359Y-79962516D01*
X159773494Y-79826451D01*
X159920448Y-79653993D01*
X159997277Y-79431735D01*
X160016455Y-79190840D01*
X160019503Y-79018932D01*
X160032538Y-78935280D01*
X160062147Y-78921473D01*
X160102965Y-78948984D01*
X160174554Y-78987531D01*
X160241242Y-78951578D01*
X160289730Y-78896244D01*
X160356642Y-78764254D01*
X160389679Y-78598793D01*
X160388076Y-78435912D01*
X160351073Y-78311663D01*
X160303041Y-78266724D01*
X160175217Y-78265645D01*
X160063967Y-78367938D01*
X159968113Y-78574753D01*
X159959155Y-78601767D01*
X159874823Y-78863405D01*
X159839092Y-78602721D01*
X159817228Y-78407710D01*
X159804599Y-78226351D01*
X159803361Y-78173393D01*
X159769382Y-77998947D01*
X159754536Y-77981904D01*
X160217707Y-77981904D01*
X160265856Y-78108986D01*
X160321465Y-78171738D01*
X160430678Y-78206882D01*
X160586770Y-78211435D01*
X160744789Y-78189365D01*
X160859786Y-78144641D01*
X160883112Y-78122149D01*
X160913471Y-78005234D01*
X160857278Y-77903807D01*
X160734671Y-77830894D01*
X160565792Y-77799526D01*
X160406717Y-77813983D01*
X160273627Y-77853099D01*
X160220389Y-77908083D01*
X160217707Y-77981904D01*
X159754536Y-77981904D01*
X159681442Y-77897992D01*
X159560536Y-77880829D01*
X159427660Y-77957762D01*
X159407169Y-77978964D01*
X159345831Y-78079080D01*
X159368519Y-78181701D01*
X159374095Y-78192410D01*
X159405506Y-78281924D01*
X159376673Y-78303572D01*
X159310231Y-78260829D01*
X159288522Y-78222168D01*
X159241472Y-78171028D01*
X159188672Y-78197707D01*
X159150508Y-78257001D01*
X159169888Y-78349092D01*
X159203380Y-78421673D01*
X159254959Y-78547454D01*
X159249551Y-78641048D01*
X159207696Y-78726280D01*
X159102917Y-78835372D01*
X159014510Y-78851519D01*
X158931690Y-78862385D01*
X158930380Y-78917479D01*
X158909087Y-78986888D01*
X158818483Y-79049682D01*
X158695404Y-79088169D01*
X158580254Y-79085654D01*
X158543183Y-79066657D01*
X158605873Y-79056820D01*
X158703415Y-79033924D01*
X158798168Y-78987726D01*
X158863611Y-78936736D01*
X158873224Y-78899463D01*
X158842857Y-78891426D01*
X158797362Y-78874794D01*
X158822799Y-78849708D01*
X158855291Y-78776041D01*
X158830668Y-78674375D01*
X158767723Y-78591731D01*
X158711173Y-78570378D01*
X158643180Y-78607211D01*
X158635506Y-78683285D01*
X158692520Y-78746963D01*
X158696114Y-78748483D01*
X158714831Y-78771975D01*
X158669433Y-78779611D01*
X158603626Y-78756060D01*
X158577901Y-78661389D01*
X158576051Y-78600208D01*
X158567161Y-78516769D01*
X159024856Y-78516769D01*
X159026470Y-78530357D01*
X159043166Y-78661795D01*
X159052542Y-78742092D01*
X159052701Y-78743803D01*
X159087201Y-78784028D01*
X159147590Y-78756700D01*
X159182500Y-78703318D01*
X159188568Y-78599101D01*
X159156291Y-78476890D01*
X159102061Y-78382310D01*
X159058073Y-78356933D01*
X159027036Y-78403011D01*
X159024856Y-78516769D01*
X158567161Y-78516769D01*
X158561888Y-78467278D01*
X158527319Y-78387188D01*
X158522606Y-78383562D01*
X158490772Y-78403953D01*
X158490430Y-78514884D01*
X158492962Y-78536423D01*
X158492815Y-78680010D01*
X158461002Y-78773505D01*
X158413314Y-78801897D01*
X158365542Y-78750174D01*
X158344095Y-78677934D01*
X158336560Y-78515606D01*
X158361277Y-78387107D01*
X158385755Y-78292894D01*
X158346928Y-78264245D01*
X158306586Y-78265082D01*
X158221218Y-78301038D01*
X158202521Y-78341608D01*
X158158575Y-78400608D01*
X158109139Y-78411991D01*
X158048825Y-78420152D01*
X158072754Y-78455571D01*
X158118112Y-78491137D01*
X158186285Y-78563955D01*
X158180168Y-78652264D01*
X158158133Y-78705396D01*
X158118952Y-78848157D01*
X158099320Y-79037223D01*
X158098907Y-79236841D01*
X158117382Y-79411259D01*
X158154413Y-79524724D01*
X158165859Y-79538760D01*
X158204540Y-79602369D01*
X158162872Y-79676272D01*
X158139178Y-79700948D01*
X158063907Y-79814669D01*
X158042437Y-79900600D01*
X158002098Y-79900600D01*
X157998086Y-79814316D01*
X158040122Y-79695293D01*
X158058389Y-79592700D01*
X158055484Y-79419692D01*
X158035189Y-79209616D01*
X158001289Y-78995822D01*
X157957565Y-78811657D01*
X157931382Y-78736702D01*
X157892595Y-78664886D01*
X157861494Y-78647271D01*
X157989076Y-78647271D01*
X158006958Y-78749050D01*
X158042437Y-78783824D01*
X158086222Y-78739272D01*
X158095798Y-78680250D01*
X158071295Y-78578098D01*
X158042437Y-78543698D01*
X158002868Y-78562590D01*
X157989076Y-78647271D01*
X157861494Y-78647271D01*
X157834349Y-78631897D01*
X157725881Y-78629575D01*
X157582837Y-78644248D01*
X157200816Y-78728130D01*
X156891839Y-78877225D01*
X156661928Y-79084576D01*
X156517105Y-79343225D01*
X156463392Y-79646216D01*
X156488551Y-79908525D01*
X156518546Y-80019720D01*
X156570689Y-80075163D01*
X156677815Y-80096961D01*
X156777186Y-80102858D01*
X156938763Y-80101400D01*
X157015221Y-80074067D01*
X157028572Y-80037678D01*
X157047717Y-79947919D01*
X157096471Y-79815475D01*
X157161814Y-79667487D01*
X157230723Y-79531099D01*
X157290176Y-79433453D01*
X157327152Y-79401692D01*
X157331214Y-79406833D01*
X157323034Y-79489031D01*
X157274603Y-79622808D01*
X157245135Y-79684855D01*
X157170752Y-79891185D01*
X157135824Y-80110736D01*
X157135294Y-80135703D01*
X157156186Y-80355473D01*
X157211120Y-80577256D01*
X157288481Y-80765732D01*
X157376655Y-80885580D01*
X157383666Y-80891028D01*
X157440493Y-80943886D01*
X157400614Y-80972939D01*
X157367089Y-80982302D01*
X157307477Y-80982975D01*
X157260112Y-80935298D01*
X157212678Y-80819516D01*
X157164301Y-80657080D01*
X157106948Y-80468657D01*
X157052516Y-80317386D01*
X157013904Y-80237920D01*
X156922681Y-80190823D01*
X156776951Y-80173212D01*
X156624844Y-80185342D01*
X156514495Y-80227464D01*
X156505630Y-80235252D01*
X156453020Y-80353454D01*
X156447006Y-80531181D01*
X156485382Y-80733051D01*
X156546289Y-80887615D01*
X156612134Y-81053039D01*
X156609186Y-81167626D01*
X156599651Y-81188877D01*
X156554095Y-81366354D01*
X156561774Y-81613908D01*
X156607102Y-81851523D01*
X156676708Y-82035855D01*
X156770266Y-82119292D01*
X156893299Y-82106059D01*
X156921849Y-82092227D01*
X157037881Y-82064379D01*
X157141484Y-82088729D01*
X157188571Y-82154435D01*
X157188656Y-82157831D01*
X157157637Y-82177043D01*
X157112025Y-82148419D01*
X156998131Y-82114430D01*
X156938600Y-82134504D01*
X156840184Y-82174782D01*
X156726116Y-82208674D01*
X156627331Y-82229379D01*
X156574763Y-82230099D01*
X156586523Y-82211885D01*
X156619330Y-82159963D01*
X156612400Y-82057722D01*
X156571670Y-81903436D01*
X156529524Y-81699683D01*
X156505199Y-81454554D01*
X156502727Y-81291807D01*
X156489095Y-80988701D01*
X156432383Y-80739608D01*
X156426703Y-80724680D01*
X156372791Y-80543068D01*
X156376615Y-80383428D01*
X156395291Y-80303731D01*
X156423843Y-80116912D01*
X156418591Y-79933043D01*
X156416401Y-79920240D01*
X156407828Y-79761291D01*
X156423910Y-79558010D01*
X156442981Y-79444175D01*
X156548619Y-79139957D01*
X156727647Y-78904581D01*
X156984880Y-78734468D01*
X157325131Y-78626038D01*
X157596820Y-78586592D01*
X157805871Y-78557416D01*
X157915110Y-78517329D01*
X157935714Y-78483072D01*
X157976689Y-78400970D01*
X158042437Y-78344549D01*
X158135482Y-78266555D01*
X158128014Y-78227252D01*
X158504975Y-78227252D01*
X158562768Y-78293388D01*
X158650087Y-78371744D01*
X158738653Y-78436885D01*
X158799203Y-78463390D01*
X158851240Y-78424365D01*
X158931788Y-78328151D01*
X158945946Y-78308674D01*
X159033274Y-78172691D01*
X159046776Y-78112607D01*
X158986255Y-78127060D01*
X158924777Y-78164031D01*
X158800695Y-78230708D01*
X158720165Y-78247003D01*
X158703676Y-78210596D01*
X158715058Y-78187781D01*
X158717707Y-78148113D01*
X158660482Y-78161100D01*
X158547892Y-78193147D01*
X158504985Y-78198768D01*
X158504975Y-78227252D01*
X158128014Y-78227252D01*
X158125876Y-78216000D01*
X158014631Y-78196906D01*
X158005289Y-78196849D01*
X157861418Y-78196849D01*
X157932227Y-78123792D01*
X158028456Y-78123792D01*
X158081898Y-78125206D01*
X158211668Y-78116993D01*
X158426671Y-78098538D01*
X158735813Y-78069226D01*
X158864408Y-78056633D01*
X159114664Y-78018845D01*
X159276403Y-77961234D01*
X159336603Y-77916549D01*
X159442837Y-77843554D01*
X159610366Y-77762018D01*
X159755283Y-77706415D01*
X159955706Y-77625602D01*
X160055647Y-77551383D01*
X160069871Y-77511593D01*
X160021931Y-77244788D01*
X159894309Y-76979086D01*
X159708714Y-76747081D01*
X159486852Y-76581366D01*
X159433640Y-76556332D01*
X159307725Y-76510651D01*
X159236948Y-76515095D01*
X159180747Y-76572561D01*
X159179340Y-76574480D01*
X159120045Y-76627687D01*
X159098457Y-76582884D01*
X159103345Y-76529307D01*
X159064184Y-76496903D01*
X159002941Y-76489286D01*
X158861800Y-76534302D01*
X158746183Y-76672502D01*
X158652970Y-76908609D01*
X158609485Y-77084920D01*
X158565925Y-77291260D01*
X158528707Y-77467523D01*
X158505362Y-77578033D01*
X158504271Y-77583193D01*
X158487612Y-77622875D01*
X158477536Y-77558083D01*
X158476307Y-77529832D01*
X158485766Y-77392661D01*
X158515805Y-77198874D01*
X158551339Y-77028526D01*
X158596990Y-76812192D01*
X158607882Y-76693645D01*
X158583275Y-76669518D01*
X158522431Y-76736443D01*
X158495827Y-76775561D01*
X158397131Y-76975479D01*
X158314919Y-77228983D01*
X158264512Y-77482944D01*
X158255882Y-77607716D01*
X158231599Y-77808829D01*
X158168062Y-77981930D01*
X158079241Y-78093930D01*
X158042437Y-78113366D01*
X158028456Y-78123792D01*
X157932227Y-78123792D01*
X158030259Y-78022648D01*
X158147763Y-77871264D01*
X158173098Y-77750927D01*
X158170644Y-77739630D01*
X158168641Y-77633060D01*
X158191599Y-77462918D01*
X158229604Y-77286834D01*
X158275895Y-77095996D01*
X158310331Y-76937841D01*
X158324566Y-76853286D01*
X158344868Y-76780609D01*
X158360699Y-76771926D01*
X158413793Y-76744158D01*
X158510938Y-76664881D01*
X158543821Y-76634711D01*
X158662402Y-76541046D01*
X158762162Y-76491588D01*
X158778878Y-76489286D01*
X158824530Y-76475594D01*
X158795649Y-76420498D01*
X158760742Y-76380272D01*
X158704443Y-76311069D01*
X158747837Y-76311069D01*
X158771094Y-76341388D01*
X158842857Y-76373577D01*
X159002308Y-76417788D01*
X159129538Y-76432542D01*
X159230750Y-76426063D01*
X159242501Y-76391654D01*
X159221291Y-76361792D01*
X159096168Y-76282426D01*
X158928159Y-76257735D01*
X158812509Y-76279486D01*
X158747837Y-76311069D01*
X158704443Y-76311069D01*
X158695557Y-76300146D01*
X158708297Y-76263059D01*
X158780649Y-76240254D01*
X158868063Y-76188092D01*
X158869538Y-76115756D01*
X158874352Y-76091864D01*
X158920460Y-76091864D01*
X158949580Y-76142437D01*
X159036256Y-76210034D01*
X159081603Y-76222479D01*
X159158040Y-76256836D01*
X159271271Y-76343001D01*
X159314709Y-76382563D01*
X159446836Y-76492817D01*
X159543967Y-76543129D01*
X159588753Y-76525205D01*
X159589916Y-76514089D01*
X159553553Y-76422129D01*
X159469320Y-76316530D01*
X159374503Y-76238672D01*
X159327171Y-76222479D01*
X159214401Y-76191528D01*
X159133203Y-76144134D01*
X159023908Y-76079505D01*
X158945009Y-76062007D01*
X158920460Y-76091864D01*
X158874352Y-76091864D01*
X158887144Y-76028386D01*
X158971829Y-75989327D01*
X159072928Y-75989327D01*
X159133829Y-76059615D01*
X159234121Y-76140463D01*
X159324846Y-76168915D01*
X159374277Y-76137094D01*
X159376471Y-76119846D01*
X159417337Y-76107545D01*
X159517709Y-76141416D01*
X159537774Y-76151044D01*
X159627839Y-76219852D01*
X159724302Y-76328119D01*
X159810443Y-76450269D01*
X159869537Y-76560723D01*
X159884861Y-76633905D01*
X159863592Y-76649370D01*
X159814445Y-76604474D01*
X159784783Y-76529307D01*
X159737411Y-76406204D01*
X159669810Y-76295631D01*
X159604076Y-76228537D01*
X159568405Y-76226203D01*
X159570872Y-76290367D01*
X159619105Y-76410999D01*
X159697187Y-76557475D01*
X159789200Y-76699173D01*
X159858942Y-76785135D01*
X159933516Y-76901362D01*
X160016162Y-77084367D01*
X160093295Y-77296427D01*
X160151328Y-77499816D01*
X160176676Y-77656811D01*
X160176891Y-77667990D01*
X160217038Y-77749121D01*
X160316634Y-77767621D01*
X160437636Y-77721472D01*
X160523494Y-77721122D01*
X160693835Y-77776761D01*
X160950852Y-77889170D01*
X161069483Y-77945853D01*
X161409199Y-78097751D01*
X161685991Y-78187126D01*
X161921580Y-78216451D01*
X162137688Y-78188200D01*
X162356035Y-78104849D01*
X162376509Y-78094744D01*
X162604832Y-77980261D01*
X162457878Y-78112857D01*
X162241169Y-78238942D01*
X161966855Y-78287697D01*
X161650816Y-78259184D01*
X161308930Y-78153468D01*
X161206045Y-78107825D01*
X161079414Y-78055553D01*
X161010683Y-78055873D01*
X160973154Y-78095026D01*
X160930650Y-78188377D01*
X160960857Y-78255136D01*
X161074704Y-78325427D01*
X161248510Y-78450409D01*
X161436597Y-78641334D01*
X161610865Y-78866201D01*
X161736665Y-79079304D01*
X161814886Y-79216912D01*
X161885648Y-79302920D01*
X161913761Y-79317437D01*
X161989543Y-79288110D01*
X162115075Y-79213258D01*
X162196422Y-79157159D01*
X162426361Y-78946059D01*
X162650718Y-78662031D01*
X162849276Y-78337862D01*
X163001819Y-78006338D01*
X163085571Y-77715165D01*
X163098707Y-77592858D01*
X163067209Y-77515362D01*
X162969171Y-77443804D01*
X162915364Y-77413125D01*
X162498355Y-77236408D01*
X162017713Y-77137994D01*
X161564286Y-77114791D01*
X161238213Y-77126924D01*
X160948387Y-77156614D01*
X160713337Y-77200587D01*
X160551595Y-77255568D01*
X160487570Y-77305060D01*
X160445151Y-77302170D01*
X160381058Y-77207003D01*
X160343793Y-77128722D01*
X160261076Y-76940189D01*
X160162943Y-76716634D01*
X160105649Y-76586168D01*
X159989236Y-76367636D01*
X159851445Y-76215449D01*
X159748263Y-76141341D01*
X159581925Y-76056163D01*
X159448294Y-76024367D01*
X159417884Y-76027620D01*
X159287899Y-76030141D01*
X159173193Y-76002755D01*
X159078118Y-75969837D01*
X159072928Y-75989327D01*
X158971829Y-75989327D01*
X159004687Y-75974172D01*
X159220466Y-75953717D01*
X159323998Y-75954799D01*
X159513194Y-75940581D01*
X159686790Y-75895980D01*
X159724208Y-75879254D01*
X159857635Y-75822564D01*
X159960826Y-75799900D01*
X159963445Y-75799977D01*
G37*
D12*
%TO.C,J1*%
X132847006Y-141865000D02*
X134371006Y-142500000D01*
X132847006Y-143135000D02*
X132847006Y-141865000D01*
X134371006Y-142500000D02*
X132847006Y-143135000D01*
X134625006Y-140030000D02*
X134625006Y-145844906D01*
X134625006Y-147035094D02*
X134625006Y-148800000D01*
X134625006Y-148800000D02*
X141774991Y-148800000D01*
X141774991Y-140030000D02*
X134625006Y-140030000D01*
X141774991Y-145844913D02*
X141774991Y-140030000D01*
X141774991Y-148800000D02*
X141774991Y-147035087D01*
D13*
%TO.C,J10*%
X177670000Y-108670000D02*
X179000000Y-108670000D01*
X177670000Y-110000000D02*
X177670000Y-108670000D01*
X177670000Y-111270000D02*
X177670000Y-111330000D01*
X177670000Y-111270000D02*
X180330000Y-111270000D01*
X177670000Y-111330000D02*
X180330000Y-111330000D01*
X180330000Y-111270000D02*
X180330000Y-111330000D01*
%TO.C,R8*%
X110477500Y-87454724D02*
X110477500Y-86945276D01*
X111522500Y-87454724D02*
X111522500Y-86945276D01*
%TD*%
%LPC*%
D10*
X123210000Y-90200000D02*
X166500000Y-90200000D01*
X166500000Y-98600000D01*
X123210000Y-98600000D01*
X123210000Y-90200000D01*
D17*
G36*
X181310000Y-68750000D02*
G01*
X96960000Y-68750000D01*
X96960000Y-59770000D01*
X181310000Y-59770000D01*
X181310000Y-68750000D01*
G37*
G36*
X123210000Y-98000000D02*
G01*
X116430000Y-98000000D01*
X116430000Y-96280000D01*
X123210000Y-96280000D01*
X123210000Y-98000000D01*
G37*
D10*
X94890000Y-73510000D02*
X123200000Y-73510000D01*
X123200000Y-82490000D01*
X94890000Y-82490000D01*
X94890000Y-73510000D01*
X166500000Y-90200000D02*
X181300000Y-90200000D01*
X181300000Y-99200000D01*
X166500000Y-99200000D01*
X166500000Y-90200000D01*
D17*
G36*
X123210000Y-96280000D02*
G01*
X114580000Y-96280000D01*
X114580000Y-82040000D01*
X123210000Y-82040000D01*
X123210000Y-96280000D01*
G37*
G36*
X166500000Y-98600000D02*
G01*
X123210000Y-98600000D01*
X123210000Y-90200000D01*
X166500000Y-90200000D01*
X166500000Y-98600000D01*
G37*
D10*
X96960000Y-59770000D02*
X181310000Y-59770000D01*
X181310000Y-68750000D01*
X96960000Y-68750000D01*
X96960000Y-59770000D01*
D17*
G36*
X123200000Y-82490000D02*
G01*
X94890000Y-82490000D01*
X94890000Y-73510000D01*
X123200000Y-73510000D01*
X123200000Y-82490000D01*
G37*
G36*
X181300000Y-99200000D02*
G01*
X166500000Y-99200000D01*
X166500000Y-90200000D01*
X181300000Y-90200000D01*
X181300000Y-99200000D01*
G37*
D10*
X114580000Y-82040000D02*
X123210000Y-82040000D01*
X123210000Y-96280000D01*
X114580000Y-96280000D01*
X114580000Y-82040000D01*
X116430000Y-96280000D02*
X123210000Y-96280000D01*
X123210000Y-98000000D01*
X116430000Y-98000000D01*
X116430000Y-96280000D01*
D18*
%TO.C,H1*%
X97000000Y-146800000D03*
%TD*%
%TO.C,H1*%
X177700000Y-146800000D03*
%TD*%
%TO.C,H1*%
X177700000Y-45200000D03*
%TD*%
%TO.C,H1*%
X96900000Y-45100000D03*
%TD*%
D19*
%TO.C,J11*%
X147200000Y-145575000D03*
D20*
X147200000Y-143035000D03*
%TD*%
D21*
%TO.C,J14*%
X101000000Y-56080000D03*
X101000000Y-133840000D03*
D22*
X95000000Y-103670000D03*
D23*
X95000000Y-101130000D03*
X95000000Y-98590000D03*
X95000000Y-96050000D03*
X95000000Y-93510000D03*
X95000000Y-90970000D03*
X95000000Y-88430000D03*
X95000000Y-85890000D03*
X97540000Y-103670000D03*
X97540000Y-101130000D03*
X97540000Y-98590000D03*
X97540000Y-96050000D03*
X97540000Y-93510000D03*
X97540000Y-90970000D03*
X97540000Y-88430000D03*
X97540000Y-85890000D03*
X100080000Y-103670000D03*
X100080000Y-101130000D03*
X100080000Y-98590000D03*
X100080000Y-96050000D03*
X100080000Y-93510000D03*
X100080000Y-90970000D03*
X100080000Y-88430000D03*
X100080000Y-85890000D03*
X106000000Y-125340000D03*
X103500000Y-125340000D03*
X101000000Y-125340000D03*
X98500000Y-125340000D03*
X96000000Y-125340000D03*
X106000000Y-128340000D03*
X103500000Y-128340000D03*
X101000000Y-128340000D03*
X98500000Y-128340000D03*
X96000000Y-128340000D03*
X106000000Y-119840000D03*
X103500000Y-119840000D03*
X101000000Y-119840000D03*
X98500000Y-119840000D03*
X96000000Y-119840000D03*
X106000000Y-122840000D03*
X103500000Y-122840000D03*
X101000000Y-122840000D03*
X98500000Y-122840000D03*
X96000000Y-122840000D03*
X106000000Y-114340000D03*
X103500000Y-114340000D03*
X101000000Y-114340000D03*
X98500000Y-114340000D03*
X96000000Y-114340000D03*
X106000000Y-117340000D03*
X103500000Y-117340000D03*
X101000000Y-117340000D03*
X98500000Y-117340000D03*
X96000000Y-117340000D03*
X106000000Y-108840000D03*
X103500000Y-108840000D03*
X101000000Y-108840000D03*
X98500000Y-108840000D03*
X96000000Y-108840000D03*
X106000000Y-111840000D03*
X103500000Y-111840000D03*
X101000000Y-111840000D03*
X98500000Y-111840000D03*
X96000000Y-111840000D03*
X106000000Y-78080000D03*
X103500000Y-78080000D03*
X101000000Y-78080000D03*
X98500000Y-78080000D03*
X96000000Y-78080000D03*
X106000000Y-81080000D03*
X103500000Y-81080000D03*
X101000000Y-81080000D03*
X98500000Y-81080000D03*
X96000000Y-81080000D03*
X106000000Y-72580000D03*
X103500000Y-72580000D03*
X101000000Y-72580000D03*
X98500000Y-72580000D03*
X96000000Y-72580000D03*
X106000000Y-75580000D03*
X103500000Y-75580000D03*
X101000000Y-75580000D03*
X98500000Y-75580000D03*
X96000000Y-75580000D03*
X106000000Y-67080000D03*
X103500000Y-67080000D03*
X101000000Y-67080000D03*
X98500000Y-67080000D03*
X96000000Y-67080000D03*
X106000000Y-70080000D03*
X103500000Y-70080000D03*
X101000000Y-70080000D03*
X98500000Y-70080000D03*
X96000000Y-70080000D03*
X106000000Y-61580000D03*
X103500000Y-61580000D03*
X101000000Y-61580000D03*
X98500000Y-61580000D03*
X96000000Y-61580000D03*
X106000000Y-64580000D03*
X103500000Y-64580000D03*
X101000000Y-64580000D03*
X98500000Y-64580000D03*
X96000000Y-64580000D03*
%TD*%
D24*
%TO.C,U4*%
X114970000Y-47550000D03*
X120050000Y-47550000D03*
X125130000Y-47550000D03*
%TD*%
D25*
%TO.C,J8*%
X124699979Y-121340000D03*
X112700003Y-121340000D03*
D26*
X115700002Y-117400000D03*
D27*
X118700001Y-117400000D03*
X121700000Y-117400000D03*
X115700002Y-120399999D03*
X118700001Y-120399999D03*
X121700000Y-120399999D03*
%TD*%
D28*
%TO.C,R6*%
X153255000Y-106470000D03*
X155080000Y-106470000D03*
%TD*%
D19*
%TO.C,J6*%
X156625000Y-132000000D03*
D20*
X159165000Y-132000000D03*
%TD*%
D19*
%TO.C,J5*%
X108450000Y-47100000D03*
%TD*%
D25*
%TO.C,J18*%
X155475000Y-141760341D03*
X155475000Y-135760353D03*
D26*
X159415000Y-138760352D03*
D27*
X156415001Y-138760352D03*
%TD*%
D29*
%TO.C,J9*%
X166600000Y-54100000D03*
%TD*%
D30*
%TO.C,U3*%
X153900000Y-44100000D03*
X156400000Y-44100000D03*
X158900000Y-44100000D03*
X161400000Y-44100000D03*
X163900000Y-44100000D03*
X166400000Y-44100000D03*
X168900000Y-44100000D03*
D31*
X171400000Y-44100000D03*
%TD*%
D32*
%TO.C,D1*%
X150275000Y-80475000D03*
X150275000Y-82525000D03*
%TD*%
D33*
%TO.C,C1*%
X175700000Y-81606800D03*
X175700000Y-74393200D03*
%TD*%
D32*
%TO.C,D4*%
X111050000Y-90675000D03*
X111050000Y-92725000D03*
%TD*%
D34*
%TO.C,R5*%
X150275000Y-77062500D03*
X150275000Y-75237500D03*
%TD*%
D20*
%TO.C,J4*%
X147675000Y-43175001D03*
X145135000Y-43175001D03*
X142595000Y-43175001D03*
X140055000Y-43175001D03*
X137515000Y-43175001D03*
X134975000Y-43175001D03*
D19*
X132435000Y-43175001D03*
%TD*%
D33*
%TO.C,C2*%
X129600000Y-81606800D03*
X129600000Y-74393200D03*
%TD*%
D35*
%TO.C,D2*%
X149092500Y-106570000D03*
X147042500Y-106570000D03*
%TD*%
D24*
%TO.C,U1*%
X103933400Y-143500000D03*
X109013400Y-143500000D03*
X114093400Y-143500000D03*
X119173400Y-143500000D03*
X124253400Y-143500000D03*
X129333400Y-143500000D03*
%TD*%
D36*
%TO.C,U2*%
X147300000Y-52500000D03*
X146030000Y-52500000D03*
X144760000Y-52500000D03*
X143490000Y-52500000D03*
X142220000Y-52500000D03*
X140950000Y-52500000D03*
X139680000Y-52500000D03*
X138410000Y-52500000D03*
X138410000Y-47250000D03*
X139680000Y-47250000D03*
X140950000Y-47250000D03*
X142220000Y-47250000D03*
X143490000Y-47250000D03*
X144760000Y-47250000D03*
X146030000Y-47250000D03*
X147300000Y-47250000D03*
%TD*%
D37*
%TO.C,J19*%
X142400000Y-109000001D03*
X140399999Y-109000001D03*
X142400000Y-111000000D03*
X140399999Y-111000000D03*
X142400000Y-113000001D03*
X140399999Y-113000001D03*
X142400000Y-115000002D03*
X140399999Y-115000002D03*
X142400000Y-117000000D03*
X140399999Y-117000000D03*
X169870901Y-109000001D03*
X167870900Y-109000001D03*
X169870901Y-111000000D03*
X167870900Y-111000000D03*
X169870901Y-113000001D03*
X167870900Y-113000001D03*
X169870901Y-115000002D03*
X167870900Y-115000002D03*
X169870901Y-117000000D03*
X167870900Y-117000000D03*
%TD*%
D29*
%TO.C,J15*%
X129200000Y-106500000D03*
%TD*%
%TO.C,J7*%
X178900000Y-105200000D03*
%TD*%
D38*
%TO.C,J3*%
X179425000Y-89320000D03*
X176885000Y-89320000D03*
X179425000Y-91860000D03*
X176885000Y-91860000D03*
X179425000Y-94400000D03*
X176885000Y-94400000D03*
X179425000Y-96940000D03*
X176885000Y-96940000D03*
X179425000Y-99480000D03*
D39*
X176885000Y-99480000D03*
D38*
X179450000Y-129980000D03*
X179450000Y-132520000D03*
D39*
X176910000Y-132520000D03*
D40*
X179200000Y-56320000D03*
D38*
X176660000Y-56320000D03*
X179200000Y-58860000D03*
X176660000Y-58860000D03*
X179200000Y-61400000D03*
X176660000Y-61400000D03*
X179200000Y-63940000D03*
X176660000Y-63940000D03*
X179200000Y-66480000D03*
X176660000Y-66480000D03*
X176910000Y-129980000D03*
X179450000Y-127440000D03*
X176910000Y-127440000D03*
X179450000Y-124900000D03*
X176910000Y-124900000D03*
X179450000Y-122360000D03*
X176910000Y-122360000D03*
%TD*%
D29*
%TO.C,J16*%
X178700000Y-139200000D03*
%TD*%
D38*
%TO.C,J2*%
X131425000Y-89320000D03*
X128885000Y-89320000D03*
X131425000Y-91860000D03*
X128885000Y-91860000D03*
X131425000Y-94400000D03*
X128885000Y-94400000D03*
X131425000Y-96940000D03*
X128885000Y-96940000D03*
X131425000Y-99480000D03*
D39*
X128885000Y-99480000D03*
D38*
X131450000Y-129980000D03*
X131450000Y-132520000D03*
D39*
X128910000Y-132520000D03*
D40*
X131200000Y-56320000D03*
D38*
X128660000Y-56320000D03*
X131200000Y-58860000D03*
X128660000Y-58860000D03*
X131200000Y-61400000D03*
X128660000Y-61400000D03*
X131200000Y-63940000D03*
X128660000Y-63940000D03*
X131200000Y-66480000D03*
X128660000Y-66480000D03*
X128910000Y-129980000D03*
X131450000Y-127440000D03*
X128910000Y-127440000D03*
X131450000Y-124900000D03*
X128910000Y-124900000D03*
X131450000Y-122360000D03*
X128910000Y-122360000D03*
%TD*%
D25*
%TO.C,J1*%
X141199989Y-146440000D03*
X135200001Y-146440000D03*
D26*
X138200000Y-142500000D03*
D27*
X138200000Y-145499999D03*
%TD*%
D19*
%TO.C,J10*%
X179000000Y-110000000D03*
%TD*%
D34*
%TO.C,R8*%
X111000000Y-88112500D03*
X111000000Y-86287500D03*
%TD*%
%LPD*%
M02*
