%TF.GenerationSoftware,KiCad,Pcbnew,8.0.4*%
%TF.CreationDate,2025-01-12T00:12:44-05:00*%
%TF.ProjectId,X17_Backplane,5831375f-4261-4636-9b70-6c616e652e6b,rev?*%
%TF.SameCoordinates,Original*%
%TF.FileFunction,Copper,L1,Top*%
%TF.FilePolarity,Positive*%
%FSLAX46Y46*%
G04 Gerber Fmt 4.6, Leading zero omitted, Abs format (unit mm)*
G04 Created by KiCad (PCBNEW 8.0.4) date 2025-01-12 00:12:44*
%MOMM*%
%LPD*%
G01*
G04 APERTURE LIST*
G04 Aperture macros list*
%AMRoundRect*
0 Rectangle with rounded corners*
0 $1 Rounding radius*
0 $2 $3 $4 $5 $6 $7 $8 $9 X,Y pos of 4 corners*
0 Add a 4 corners polygon primitive as box body*
4,1,4,$2,$3,$4,$5,$6,$7,$8,$9,$2,$3,0*
0 Add four circle primitives for the rounded corners*
1,1,$1+$1,$2,$3*
1,1,$1+$1,$4,$5*
1,1,$1+$1,$6,$7*
1,1,$1+$1,$8,$9*
0 Add four rect primitives between the rounded corners*
20,1,$1+$1,$2,$3,$4,$5,0*
20,1,$1+$1,$4,$5,$6,$7,0*
20,1,$1+$1,$6,$7,$8,$9,0*
20,1,$1+$1,$8,$9,$2,$3,0*%
G04 Aperture macros list end*
%TA.AperFunction,ComponentPad*%
%ADD10R,1.700000X1.700000*%
%TD*%
%TA.AperFunction,ComponentPad*%
%ADD11O,1.700000X1.700000*%
%TD*%
%TA.AperFunction,ComponentPad*%
%ADD12R,1.530000X1.530000*%
%TD*%
%TA.AperFunction,ComponentPad*%
%ADD13C,1.530000*%
%TD*%
%TA.AperFunction,ComponentPad*%
%ADD14C,2.032000*%
%TD*%
%TA.AperFunction,ComponentPad*%
%ADD15R,1.520000X1.520000*%
%TD*%
%TA.AperFunction,ComponentPad*%
%ADD16C,1.520000*%
%TD*%
%TA.AperFunction,SMDPad,CuDef*%
%ADD17RoundRect,0.237500X-0.250000X-0.237500X0.250000X-0.237500X0.250000X0.237500X-0.250000X0.237500X0*%
%TD*%
%TA.AperFunction,SMDPad,CuDef*%
%ADD18C,4.000000*%
%TD*%
%TA.AperFunction,ComponentPad*%
%ADD19R,1.650000X1.650000*%
%TD*%
%TA.AperFunction,ComponentPad*%
%ADD20C,1.650000*%
%TD*%
%TA.AperFunction,SMDPad,CuDef*%
%ADD21RoundRect,0.250000X-0.450000X0.325000X-0.450000X-0.325000X0.450000X-0.325000X0.450000X0.325000X0*%
%TD*%
%TA.AperFunction,SMDPad,CuDef*%
%ADD22R,1.498600X3.810000*%
%TD*%
%TA.AperFunction,SMDPad,CuDef*%
%ADD23RoundRect,0.237500X0.237500X-0.250000X0.237500X0.250000X-0.237500X0.250000X-0.237500X-0.250000X0*%
%TD*%
%TA.AperFunction,SMDPad,CuDef*%
%ADD24RoundRect,0.250000X0.325000X0.450000X-0.325000X0.450000X-0.325000X-0.450000X0.325000X-0.450000X0*%
%TD*%
%TA.AperFunction,SMDPad,CuDef*%
%ADD25O,0.549999X1.250000*%
%TD*%
%TA.AperFunction,ComponentPad*%
%ADD26C,1.270000*%
%TD*%
%TA.AperFunction,ComponentPad*%
%ADD27C,1.390000*%
%TD*%
%TA.AperFunction,ComponentPad*%
%ADD28R,1.390000X1.390000*%
%TD*%
%TA.AperFunction,ViaPad*%
%ADD29C,0.600000*%
%TD*%
%TA.AperFunction,ViaPad*%
%ADD30C,0.939800*%
%TD*%
%TA.AperFunction,Conductor*%
%ADD31C,0.279400*%
%TD*%
%TA.AperFunction,Conductor*%
%ADD32C,0.889000*%
%TD*%
%TA.AperFunction,Conductor*%
%ADD33C,1.524000*%
%TD*%
%TA.AperFunction,Conductor*%
%ADD34C,1.270000*%
%TD*%
%TA.AperFunction,Conductor*%
%ADD35C,0.200000*%
%TD*%
G04 APERTURE END LIST*
D10*
%TO.P,J11,1,Pin_1*%
%TO.N,A_TB+*%
X147200000Y-145575000D03*
D11*
%TO.P,J11,2,Pin_2*%
%TO.N,A_TB-*%
X147200000Y-143035000D03*
%TD*%
D12*
%TO.P,J14,01,01*%
%TO.N,Aout-*%
X95000000Y-103670000D03*
D13*
%TO.P,J14,02,02*%
%TO.N,Aout+*%
X95000000Y-101130000D03*
%TO.P,J14,03,03*%
%TO.N,NRST_PSB*%
X95000000Y-98590000D03*
%TO.P,J14,04,04*%
%TO.N,unconnected-(J14-Pad04)*%
X95000000Y-96050000D03*
%TO.P,J14,05,05*%
%TO.N,unconnected-(J14-Pad05)*%
X95000000Y-93510000D03*
%TO.P,J14,06,06*%
%TO.N,unconnected-(J14-Pad06)*%
X95000000Y-90970000D03*
%TO.P,J14,07,07*%
%TO.N,unconnected-(J14-Pad07)*%
X95000000Y-88430000D03*
%TO.P,J14,08,08*%
%TO.N,unconnected-(J14-Pad08)*%
X95000000Y-85890000D03*
%TO.P,J14,09,09*%
%TO.N,5V_GND*%
X97540000Y-103670000D03*
%TO.P,J14,10,10*%
X97540000Y-101130000D03*
%TO.P,J14,11,11*%
%TO.N,5V*%
X97540000Y-98590000D03*
%TO.P,J14,12,12*%
X97540000Y-96050000D03*
%TO.P,J14,13,13*%
%TO.N,48V*%
X97540000Y-93510000D03*
%TO.P,J14,14,14*%
X97540000Y-90970000D03*
%TO.P,J14,15,15*%
%TO.N,48V_GND*%
X97540000Y-88430000D03*
%TO.P,J14,16,16*%
X97540000Y-85890000D03*
%TO.P,J14,17,17*%
%TO.N,5V_GND*%
X100080000Y-103670000D03*
%TO.P,J14,18,18*%
X100080000Y-101130000D03*
%TO.P,J14,19,19*%
%TO.N,5V*%
X100080000Y-98590000D03*
%TO.P,J14,20,20*%
X100080000Y-96050000D03*
%TO.P,J14,21,21*%
%TO.N,48V*%
X100080000Y-93510000D03*
%TO.P,J14,22,22*%
X100080000Y-90970000D03*
%TO.P,J14,23,23*%
%TO.N,48V_GND*%
X100080000Y-88430000D03*
%TO.P,J14,24,24*%
X100080000Y-85890000D03*
%TO.P,J14,P01_1,P01*%
%TO.N,5V_GND*%
X106000000Y-125340000D03*
X103500000Y-125340000D03*
X101000000Y-125340000D03*
X98500000Y-125340000D03*
X96000000Y-125340000D03*
X106000000Y-128340000D03*
X103500000Y-128340000D03*
X101000000Y-128340000D03*
X98500000Y-128340000D03*
X96000000Y-128340000D03*
%TO.P,J14,P02_1,P02*%
X106000000Y-119840000D03*
X103500000Y-119840000D03*
X101000000Y-119840000D03*
X98500000Y-119840000D03*
X96000000Y-119840000D03*
X106000000Y-122840000D03*
X103500000Y-122840000D03*
X101000000Y-122840000D03*
X98500000Y-122840000D03*
X96000000Y-122840000D03*
%TO.P,J14,P03_1,P03*%
X106000000Y-114340000D03*
X103500000Y-114340000D03*
X101000000Y-114340000D03*
X98500000Y-114340000D03*
X96000000Y-114340000D03*
X106000000Y-117340000D03*
X103500000Y-117340000D03*
X101000000Y-117340000D03*
X98500000Y-117340000D03*
X96000000Y-117340000D03*
%TO.P,J14,P04_1,P04*%
X106000000Y-108840000D03*
X103500000Y-108840000D03*
X101000000Y-108840000D03*
X98500000Y-108840000D03*
X96000000Y-108840000D03*
X106000000Y-111840000D03*
X103500000Y-111840000D03*
X101000000Y-111840000D03*
X98500000Y-111840000D03*
X96000000Y-111840000D03*
%TO.P,J14,P05_1,P05*%
%TO.N,12V*%
X106000000Y-78080000D03*
X103500000Y-78080000D03*
X101000000Y-78080000D03*
X98500000Y-78080000D03*
X96000000Y-78080000D03*
X106000000Y-81080000D03*
X103500000Y-81080000D03*
X101000000Y-81080000D03*
X98500000Y-81080000D03*
X96000000Y-81080000D03*
%TO.P,J14,P06_1,P06*%
X106000000Y-72580000D03*
X103500000Y-72580000D03*
X101000000Y-72580000D03*
X98500000Y-72580000D03*
X96000000Y-72580000D03*
X106000000Y-75580000D03*
X103500000Y-75580000D03*
X101000000Y-75580000D03*
X98500000Y-75580000D03*
X96000000Y-75580000D03*
%TO.P,J14,P07_1,P07*%
%TO.N,12V_GND*%
X106000000Y-67080000D03*
X103500000Y-67080000D03*
X101000000Y-67080000D03*
X98500000Y-67080000D03*
X96000000Y-67080000D03*
X106000000Y-70080000D03*
X103500000Y-70080000D03*
X101000000Y-70080000D03*
X98500000Y-70080000D03*
X96000000Y-70080000D03*
%TO.P,J14,P08_1,P08*%
X106000000Y-61580000D03*
X103500000Y-61580000D03*
X101000000Y-61580000D03*
X98500000Y-61580000D03*
X96000000Y-61580000D03*
X106000000Y-64580000D03*
X103500000Y-64580000D03*
X101000000Y-64580000D03*
X98500000Y-64580000D03*
X96000000Y-64580000D03*
%TD*%
D14*
%TO.P,U4,1,1*%
%TO.N,PWMC0_OUT*%
X114970000Y-47550000D03*
%TO.P,U4,2,2*%
%TO.N,12V_GND*%
X120050000Y-47550000D03*
%TO.P,U4,3,3*%
%TO.N,12V*%
X125130000Y-47550000D03*
%TD*%
D15*
%TO.P,J8,1,1*%
%TO.N,5V*%
X115700002Y-117400000D03*
D16*
%TO.P,J8,2,2*%
%TO.N,5V_GND*%
X118700001Y-117400000D03*
%TO.P,J8,3,3*%
%TO.N,NRST_PSB*%
X121700000Y-117400000D03*
%TO.P,J8,4,4*%
%TO.N,NRST_ESCC*%
X115700002Y-120399999D03*
%TO.P,J8,5,5*%
%TO.N,NRST_TB*%
X118700001Y-120399999D03*
%TO.P,J8,6,6*%
%TO.N,5V_GNDTB*%
X121700000Y-120399999D03*
%TD*%
D17*
%TO.P,R6,1*%
%TO.N,Net-(D2-K)*%
X153255000Y-106470000D03*
%TO.P,R6,2*%
%TO.N,5V_GND*%
X155080000Y-106470000D03*
%TD*%
D10*
%TO.P,J6,1,Pin_1*%
%TO.N,A+*%
X156625000Y-132000000D03*
D11*
%TO.P,J6,2,Pin_2*%
%TO.N,A-*%
X159165000Y-132000000D03*
%TD*%
D10*
%TO.P,J5,1,Pin_1*%
%TO.N,PWMC0_OUT*%
X108450000Y-47100000D03*
%TD*%
D15*
%TO.P,J18,1,1*%
%TO.N,A-*%
X159415000Y-138760352D03*
D16*
%TO.P,J18,2,2*%
%TO.N,A+*%
X156415001Y-138760352D03*
%TD*%
D18*
%TO.P,J9,1,Pin_1*%
%TO.N,12V_GND*%
X166600000Y-54100000D03*
%TD*%
D19*
%TO.P,U3,1,1*%
%TO.N,12V_GND*%
X171400000Y-44100000D03*
D20*
%TO.P,U3,2,2*%
%TO.N,SOL7_1*%
X168900000Y-44100000D03*
%TO.P,U3,3,3*%
%TO.N,SOL6_1*%
X166400000Y-44100000D03*
%TO.P,U3,4,4*%
%TO.N,SOL5_1*%
X163900000Y-44100000D03*
%TO.P,U3,5,5*%
%TO.N,SOL4_1*%
X161400000Y-44100000D03*
%TO.P,U3,6,6*%
%TO.N,SOL3_1*%
X158900000Y-44100000D03*
%TO.P,U3,7,7*%
%TO.N,SOL2_1*%
X156400000Y-44100000D03*
%TO.P,U3,8,8*%
%TO.N,SOL1_1*%
X153900000Y-44100000D03*
%TD*%
D21*
%TO.P,D1,1,K*%
%TO.N,Net-(D1-K)*%
X150275000Y-80475000D03*
%TO.P,D1,2,A*%
%TO.N,12V*%
X150275000Y-82525000D03*
%TD*%
D22*
%TO.P,C1,1*%
%TO.N,12V*%
X175700000Y-81606800D03*
%TO.P,C1,2*%
%TO.N,12V_GND*%
X175700000Y-74393200D03*
%TD*%
D21*
%TO.P,D4,1,K*%
%TO.N,Net-(D4-K)*%
X111050000Y-90675000D03*
%TO.P,D4,2,A*%
%TO.N,48V*%
X111050000Y-92725000D03*
%TD*%
D23*
%TO.P,R5,1*%
%TO.N,Net-(D1-K)*%
X150275000Y-77062500D03*
%TO.P,R5,2*%
%TO.N,12V_GND*%
X150275000Y-75237500D03*
%TD*%
D10*
%TO.P,J4,1,Pin_1*%
%TO.N,GPIO7*%
X132435000Y-43175001D03*
D11*
%TO.P,J4,2,Pin_2*%
%TO.N,GPIO6*%
X134975000Y-43175001D03*
%TO.P,J4,3,Pin_3*%
%TO.N,GPIO5*%
X137515000Y-43175001D03*
%TO.P,J4,4,Pin_4*%
%TO.N,GPIO4*%
X140055000Y-43175001D03*
%TO.P,J4,5,Pin_5*%
%TO.N,GPIO3*%
X142595000Y-43175001D03*
%TO.P,J4,6,Pin_6*%
%TO.N,GPIO2*%
X145135000Y-43175001D03*
%TO.P,J4,7,Pin_7*%
%TO.N,GPIO1*%
X147675000Y-43175001D03*
%TD*%
D22*
%TO.P,C2,1*%
%TO.N,12V*%
X129600000Y-81606800D03*
%TO.P,C2,2*%
%TO.N,12V_GND*%
X129600000Y-74393200D03*
%TD*%
D24*
%TO.P,D2,1,K*%
%TO.N,Net-(D2-K)*%
X149092500Y-106570000D03*
%TO.P,D2,2,A*%
%TO.N,5V*%
X147042500Y-106570000D03*
%TD*%
D14*
%TO.P,U1,1,1*%
%TO.N,NRST_TB*%
X103933400Y-143500000D03*
%TO.P,U1,2,2*%
%TO.N,A_TB+*%
X109013400Y-143500000D03*
%TO.P,U1,3,3*%
%TO.N,A_TB-*%
X114093400Y-143500000D03*
%TO.P,U1,4,4*%
%TO.N,48V_GND*%
X119173400Y-143500000D03*
%TO.P,U1,5,5*%
%TO.N,Net-(F1-Pad2)*%
X124253400Y-143500000D03*
%TO.P,U1,6,6*%
%TO.N,5V_GNDTB*%
X129333400Y-143500000D03*
%TD*%
D25*
%TO.P,U2,1,IN1*%
%TO.N,GPIO1*%
X147300000Y-47250000D03*
%TO.P,U2,2,IN2*%
%TO.N,GPIO2*%
X146030000Y-47250000D03*
%TO.P,U2,3,IN3*%
%TO.N,GPIO3*%
X144760000Y-47250000D03*
%TO.P,U2,4,IN4*%
%TO.N,GPIO4*%
X143490000Y-47250000D03*
%TO.P,U2,5,IN5*%
%TO.N,GPIO5*%
X142220000Y-47250000D03*
%TO.P,U2,6,IN6*%
%TO.N,GPIO6*%
X140950000Y-47250000D03*
%TO.P,U2,7,IN7*%
%TO.N,GPIO7*%
X139680000Y-47250000D03*
%TO.P,U2,8,GND*%
%TO.N,12V_GND*%
X138410000Y-47250000D03*
%TO.P,U2,9,COM*%
%TO.N,12V*%
X138410000Y-52500000D03*
%TO.P,U2,10,OUT7*%
%TO.N,SOL7_1*%
X139680000Y-52500000D03*
%TO.P,U2,11,OUT6*%
%TO.N,SOL6_1*%
X140950000Y-52500000D03*
%TO.P,U2,12,OUT5*%
%TO.N,SOL5_1*%
X142220000Y-52500000D03*
%TO.P,U2,13,OUT4*%
%TO.N,SOL4_1*%
X143490000Y-52500000D03*
%TO.P,U2,14,OUT3*%
%TO.N,SOL3_1*%
X144760000Y-52500000D03*
%TO.P,U2,15,OUT2*%
%TO.N,SOL2_1*%
X146030000Y-52500000D03*
%TO.P,U2,16,OUT1*%
%TO.N,SOL1_1*%
X147300000Y-52500000D03*
%TD*%
D26*
%TO.P,J19,1,1*%
%TO.N,5V*%
X142400000Y-109000001D03*
%TO.P,J19,2,2*%
%TO.N,5V_GND*%
X140399999Y-109000001D03*
%TO.P,J19,3,3*%
%TO.N,PWMA1*%
X142400000Y-111000000D03*
%TO.P,J19,4,4*%
%TO.N,Aout+*%
X140399999Y-111000000D03*
%TO.P,J19,5,5*%
%TO.N,PWMA0*%
X142400000Y-113000001D03*
%TO.P,J19,6,6*%
%TO.N,Aout-*%
X140399999Y-113000001D03*
%TO.P,J19,7,7*%
%TO.N,PWMA2*%
X142400000Y-115000002D03*
%TO.P,J19,8,8*%
%TO.N,PWMA3*%
X140399999Y-115000002D03*
%TO.P,J19,9,9*%
%TO.N,PWMB0*%
X142400000Y-117000000D03*
%TO.P,J19,10,10*%
%TO.N,PWMB1*%
X140399999Y-117000000D03*
%TO.P,J19,11,11*%
%TO.N,PWMB2*%
X169870901Y-109000001D03*
%TO.P,J19,12,12*%
%TO.N,PWMB3*%
X167870900Y-109000001D03*
%TO.P,J19,13,13*%
%TO.N,PWMC0*%
X169870901Y-111000000D03*
%TO.P,J19,14,14*%
%TO.N,PWMC1*%
X167870900Y-111000000D03*
%TO.P,J19,15,15*%
%TO.N,Telemetry*%
X169870901Y-113000001D03*
%TO.P,J19,16,16*%
%TO.N,NRST_ESCC*%
X167870900Y-113000001D03*
%TO.P,J19,17,17*%
%TO.N,A+*%
X169870901Y-115000002D03*
%TO.P,J19,18,18*%
%TO.N,A-*%
X167870900Y-115000002D03*
%TO.P,J19,19,19*%
%TO.N,unconnected-(J19-Pad19)*%
X169870901Y-117000000D03*
%TO.P,J19,20,20*%
%TO.N,unconnected-(J19-Pad20)*%
X167870900Y-117000000D03*
%TD*%
D18*
%TO.P,J15,1,Pin_1*%
%TO.N,5V*%
X129200000Y-106500000D03*
%TD*%
%TO.P,J7,1,Pin_1*%
%TO.N,12V*%
X178900000Y-105200000D03*
%TD*%
D27*
%TO.P,J3,01,01*%
%TO.N,12V*%
X179425000Y-89320000D03*
X176885000Y-89320000D03*
X179425000Y-91860000D03*
X176885000Y-91860000D03*
X179425000Y-94400000D03*
X176885000Y-94400000D03*
X179425000Y-96940000D03*
X176885000Y-96940000D03*
X179425000Y-99480000D03*
D28*
X176885000Y-99480000D03*
D27*
%TO.P,J3,02,02*%
%TO.N,5V_GND*%
X179450000Y-129980000D03*
X179450000Y-132520000D03*
D28*
X176910000Y-132520000D03*
%TO.P,J3,03,03*%
%TO.N,12V_GND*%
X179200000Y-56320000D03*
D27*
X176660000Y-56320000D03*
X179200000Y-58860000D03*
X176660000Y-58860000D03*
X179200000Y-61400000D03*
X176660000Y-61400000D03*
X179200000Y-63940000D03*
X176660000Y-63940000D03*
X179200000Y-66480000D03*
X176660000Y-66480000D03*
%TO.P,J3,04,04*%
%TO.N,PWMB0*%
X176910000Y-129980000D03*
%TO.P,J3,05,05*%
%TO.N,Telemetry*%
X179450000Y-127440000D03*
%TO.P,J3,06,06*%
%TO.N,PWMB1*%
X176910000Y-127440000D03*
%TO.P,J3,07,07*%
%TO.N,unconnected-(J3-Pad07)*%
X179450000Y-124900000D03*
%TO.P,J3,08,08*%
%TO.N,PWMB2*%
X176910000Y-124900000D03*
%TO.P,J3,09,09*%
%TO.N,unconnected-(J3-Pad09)*%
X179450000Y-122360000D03*
%TO.P,J3,10,10*%
%TO.N,PWMB3*%
X176910000Y-122360000D03*
%TD*%
D18*
%TO.P,J16,1,Pin_1*%
%TO.N,5V_GND*%
X178700000Y-139200000D03*
%TD*%
D27*
%TO.P,J2,01,01*%
%TO.N,12V*%
X131425000Y-89320000D03*
X128885000Y-89320000D03*
X131425000Y-91860000D03*
X128885000Y-91860000D03*
X131425000Y-94400000D03*
X128885000Y-94400000D03*
X131425000Y-96940000D03*
X128885000Y-96940000D03*
X131425000Y-99480000D03*
D28*
X128885000Y-99480000D03*
D27*
%TO.P,J2,02,02*%
%TO.N,5V_GND*%
X131450000Y-129980000D03*
X131450000Y-132520000D03*
D28*
X128910000Y-132520000D03*
%TO.P,J2,03,03*%
%TO.N,12V_GND*%
X131200000Y-56320000D03*
D27*
X128660000Y-56320000D03*
X131200000Y-58860000D03*
X128660000Y-58860000D03*
X131200000Y-61400000D03*
X128660000Y-61400000D03*
X131200000Y-63940000D03*
X128660000Y-63940000D03*
X131200000Y-66480000D03*
X128660000Y-66480000D03*
%TO.P,J2,04,04*%
%TO.N,PWMA0*%
X128910000Y-129980000D03*
%TO.P,J2,05,05*%
%TO.N,Telemetry*%
X131450000Y-127440000D03*
%TO.P,J2,06,06*%
%TO.N,PWMA1*%
X128910000Y-127440000D03*
%TO.P,J2,07,07*%
%TO.N,unconnected-(J2-Pad07)*%
X131450000Y-124900000D03*
%TO.P,J2,08,08*%
%TO.N,PWMA2*%
X128910000Y-124900000D03*
%TO.P,J2,09,09*%
%TO.N,unconnected-(J2-Pad09)*%
X131450000Y-122360000D03*
%TO.P,J2,10,10*%
%TO.N,PWMA3*%
X128910000Y-122360000D03*
%TD*%
D15*
%TO.P,J1,1,1*%
%TO.N,A_TB-*%
X138200000Y-142500000D03*
D16*
%TO.P,J1,2,2*%
%TO.N,A_TB+*%
X138200000Y-145499999D03*
%TD*%
D10*
%TO.P,J10,1,Pin_1*%
%TO.N,PWMC0*%
X179000000Y-110000000D03*
%TD*%
D23*
%TO.P,R8,1*%
%TO.N,Net-(D4-K)*%
X111000000Y-88112500D03*
%TO.P,R8,2*%
%TO.N,48V_GND*%
X111000000Y-86287500D03*
%TD*%
D29*
%TO.N,12V_GND*%
X135106400Y-60806000D03*
X124968000Y-55194200D03*
X120015000Y-55245000D03*
X150012400Y-69697600D03*
X148010000Y-60470000D03*
X110007400Y-55270400D03*
X126873000Y-69977000D03*
X160100000Y-61010800D03*
D30*
X106000000Y-48400000D03*
D29*
X115075400Y-66580200D03*
X120065800Y-62738000D03*
X155050000Y-70150000D03*
X135106400Y-69698400D03*
X173507400Y-61036200D03*
X110058200Y-66598800D03*
X120015000Y-59080400D03*
X155100000Y-61010800D03*
X165000000Y-69950000D03*
X125018800Y-66522600D03*
X165100000Y-61010800D03*
X140106400Y-69748400D03*
X160000000Y-70000000D03*
X135100000Y-65000000D03*
X140106400Y-60706000D03*
X154950000Y-65000000D03*
X150050000Y-65050000D03*
X115024600Y-59087200D03*
X139950000Y-64950000D03*
X120065800Y-66573400D03*
D30*
X106000000Y-51400000D03*
D29*
X165050000Y-64950000D03*
X170050000Y-64950000D03*
X110007400Y-59105800D03*
X125018800Y-62687200D03*
X110058200Y-62763400D03*
X115075400Y-62744800D03*
X170053000Y-61061600D03*
X124968000Y-59029600D03*
X160000000Y-65000000D03*
X144962400Y-69597600D03*
X115024600Y-55251800D03*
X145000000Y-64950000D03*
X173510400Y-57147800D03*
X173532800Y-64871600D03*
%TO.N,12V*%
X145415000Y-91973400D03*
X154520400Y-91999600D03*
X164469600Y-96672400D03*
X115392200Y-80416400D03*
X110668600Y-80387200D03*
X120370600Y-76530200D03*
X149369600Y-96622400D03*
X120345200Y-80467200D03*
X145389600Y-96672400D03*
X169519600Y-96672400D03*
X159519600Y-96672400D03*
X169545000Y-100533200D03*
X119888000Y-96596200D03*
X110794800Y-72817200D03*
X124434600Y-92125800D03*
X173177200Y-96672400D03*
X140415000Y-91923400D03*
X154469600Y-96622400D03*
X124434600Y-96621600D03*
X117245600Y-84357200D03*
X164520400Y-92049600D03*
X117246400Y-89331800D03*
X149420400Y-91999600D03*
X173202600Y-100533200D03*
X120421400Y-72847200D03*
X140389600Y-96622400D03*
X110744000Y-76500200D03*
X117297200Y-94234000D03*
X135365000Y-91973400D03*
X169570400Y-92049600D03*
X115467600Y-76529400D03*
X173228000Y-92049600D03*
X121564400Y-93319600D03*
X121792200Y-84382600D03*
X159570400Y-92049600D03*
X115518400Y-72846400D03*
X135339600Y-96672400D03*
X121793000Y-89357200D03*
D30*
%TO.N,5V*%
X118300000Y-108000000D03*
X116668426Y-110700000D03*
D29*
%TO.N,PWMA2*%
X124800000Y-131000000D03*
X124800000Y-126000000D03*
%TO.N,Telemetry*%
X154700000Y-117300000D03*
X150150000Y-117650000D03*
%TO.N,PWMB0*%
X143000000Y-126900000D03*
X143000000Y-122000000D03*
%TO.N,PWMB1*%
X155100000Y-121700000D03*
X148200000Y-121400000D03*
%TO.N,5V_GND*%
X119200000Y-114700000D03*
X140600000Y-131700000D03*
X140500000Y-137800000D03*
X129700000Y-147000000D03*
X106600000Y-140300000D03*
X129200000Y-117500000D03*
X132400000Y-117600000D03*
X174300000Y-135400000D03*
X126200000Y-139600000D03*
X110600000Y-146100000D03*
X120700000Y-108600000D03*
X138600000Y-134300000D03*
X180300000Y-118100000D03*
X126200000Y-120700000D03*
X114200000Y-124200000D03*
X113100000Y-117200000D03*
X122400000Y-107400000D03*
X171200000Y-140500000D03*
X125700000Y-114300000D03*
X138700000Y-131700000D03*
X122300000Y-109900000D03*
X169000000Y-143300000D03*
X129200000Y-114300000D03*
X124800000Y-107400000D03*
X178700000Y-143900000D03*
D30*
X173600000Y-139200000D03*
D29*
X172400000Y-143900000D03*
X146200000Y-148700000D03*
X132400000Y-114300000D03*
X117300000Y-139900000D03*
X148700000Y-148700000D03*
X132500000Y-142600000D03*
X130300000Y-140200000D03*
X146600000Y-109000000D03*
X115000000Y-131200000D03*
X137900000Y-149400000D03*
X105200000Y-147200000D03*
X121000000Y-140400000D03*
X114300000Y-110500000D03*
X114600000Y-114100000D03*
X138500000Y-137700000D03*
X167800000Y-149200000D03*
X115100000Y-138500000D03*
X113500000Y-115400000D03*
X167100000Y-145100000D03*
X172900000Y-147900000D03*
X137100000Y-109500000D03*
X113500000Y-108700000D03*
X140700000Y-128600000D03*
X118300000Y-113000000D03*
X112400000Y-136000000D03*
X135600000Y-140900000D03*
X180300000Y-115600000D03*
X153400000Y-110000000D03*
D30*
X157167500Y-107270000D03*
D29*
X124800000Y-109800000D03*
X173500000Y-107400000D03*
X162700000Y-149200000D03*
X125700000Y-146800000D03*
X135900000Y-114200000D03*
X101100000Y-147300000D03*
X125600000Y-117700000D03*
X174300000Y-133000000D03*
X132600000Y-139500000D03*
X122100000Y-114200000D03*
X115200000Y-128600000D03*
X134700000Y-109300000D03*
X115100000Y-126400000D03*
X150900000Y-109200000D03*
X136100000Y-138800000D03*
X140500000Y-134200000D03*
X113400000Y-122800000D03*
X113600000Y-112400000D03*
%TO.N,NRST_ESCC*%
X115700000Y-133800000D03*
X124900000Y-137200000D03*
X155500000Y-111400000D03*
X161950000Y-111350000D03*
%TD*%
D31*
%TO.N,PWMB2*%
X174100000Y-124900000D02*
X176910000Y-124900000D01*
X169400000Y-135200000D02*
X169400000Y-129600000D01*
X161300000Y-143300000D02*
X169400000Y-135200000D01*
X154300000Y-143300000D02*
X161300000Y-143300000D01*
X145600000Y-134600000D02*
X154300000Y-143300000D01*
X145600000Y-128800000D02*
X145600000Y-134600000D01*
X146000000Y-128400000D02*
X145600000Y-128800000D01*
X151500000Y-128400000D02*
X146000000Y-128400000D01*
X160800000Y-105800000D02*
X156800000Y-109800000D01*
X169200000Y-105800000D02*
X160800000Y-105800000D01*
X156800000Y-109800000D02*
X156800000Y-123100000D01*
X169870901Y-106470901D02*
X169200000Y-105800000D01*
X156800000Y-123100000D02*
X151500000Y-128400000D01*
X169400000Y-129600000D02*
X174100000Y-124900000D01*
X169870901Y-109000001D02*
X169870901Y-106470901D01*
%TO.N,Telemetry*%
X177400000Y-126300000D02*
X178300000Y-125400000D01*
X174300000Y-126300000D02*
X177400000Y-126300000D01*
X170200000Y-130400000D02*
X174300000Y-126300000D01*
X161900000Y-143900000D02*
X170200000Y-135600000D01*
X144900000Y-135200000D02*
X153600000Y-143900000D01*
X144900000Y-128200000D02*
X144900000Y-135200000D01*
X145300000Y-127800000D02*
X144900000Y-128200000D01*
X170200000Y-135600000D02*
X170200000Y-130400000D01*
X151000000Y-127800000D02*
X145300000Y-127800000D01*
X156000000Y-122800000D02*
X151000000Y-127800000D01*
X154700000Y-117300000D02*
X156000000Y-118600000D01*
X156000000Y-118600000D02*
X156000000Y-122800000D01*
X153600000Y-143900000D02*
X161900000Y-143900000D01*
%TO.N,PWMB1*%
X174860000Y-127440000D02*
X176910000Y-127440000D01*
X171000000Y-131300000D02*
X174860000Y-127440000D01*
X144100000Y-135600000D02*
X152950000Y-144450000D01*
X152950000Y-144450000D02*
X162550000Y-144450000D01*
X144900000Y-126900000D02*
X144100000Y-127700000D01*
X150800000Y-126900000D02*
X144900000Y-126900000D01*
X162550000Y-144450000D02*
X171000000Y-136000000D01*
X171000000Y-136000000D02*
X171000000Y-131300000D01*
X155100000Y-122600000D02*
X150800000Y-126900000D01*
X144100000Y-127700000D02*
X144100000Y-135600000D01*
X155100000Y-121700000D02*
X155100000Y-122600000D01*
%TO.N,PWMB0*%
X173420000Y-129980000D02*
X176910000Y-129980000D01*
X171800000Y-131600000D02*
X173420000Y-129980000D01*
X171800000Y-136200000D02*
X171800000Y-131600000D01*
X152200000Y-145000000D02*
X163000000Y-145000000D01*
X143000000Y-135800000D02*
X152200000Y-145000000D01*
X163000000Y-145000000D02*
X171800000Y-136200000D01*
X143000000Y-126900000D02*
X143000000Y-135800000D01*
%TO.N,PWMB3*%
X160850000Y-142650000D02*
X168400000Y-135100000D01*
X168400000Y-127900000D02*
X173940000Y-122360000D01*
X155863366Y-142650000D02*
X160850000Y-142650000D01*
X155849325Y-142664041D02*
X155863366Y-142650000D01*
X154764041Y-142664041D02*
X155849325Y-142664041D01*
X146300000Y-134200000D02*
X154764041Y-142664041D01*
X157500000Y-123300000D02*
X151600000Y-129200000D01*
X151600000Y-129200000D02*
X146700000Y-129200000D01*
X168400000Y-135100000D02*
X168400000Y-127900000D01*
X157500000Y-110500000D02*
X157500000Y-123300000D01*
X158999999Y-109000001D02*
X157500000Y-110500000D01*
X146700000Y-129200000D02*
X146300000Y-129600000D01*
X146300000Y-129600000D02*
X146300000Y-134200000D01*
X173940000Y-122360000D02*
X176910000Y-122360000D01*
X167870900Y-109000001D02*
X158999999Y-109000001D01*
%TO.N,SOL7_1*%
X156250000Y-56750000D02*
X168900000Y-44100000D01*
X142050000Y-56750000D02*
X156250000Y-56750000D01*
X139680000Y-54380000D02*
X142050000Y-56750000D01*
X139680000Y-52500000D02*
X139680000Y-54380000D01*
%TO.N,SOL6_1*%
X154300000Y-56200000D02*
X166400000Y-44100000D01*
X143000000Y-56200000D02*
X154300000Y-56200000D01*
X140950000Y-54150000D02*
X143000000Y-56200000D01*
X140950000Y-52500000D02*
X140950000Y-54150000D01*
%TO.N,SOL5_1*%
X152400000Y-55600000D02*
X163900000Y-44100000D01*
X143800000Y-55600000D02*
X152400000Y-55600000D01*
X142220000Y-54020000D02*
X143800000Y-55600000D01*
X142220000Y-52500000D02*
X142220000Y-54020000D01*
%TO.N,SOL3_1*%
X148650000Y-54350000D02*
X158900000Y-44100000D01*
X144760000Y-53560000D02*
X145550000Y-54350000D01*
X144760000Y-52500000D02*
X144760000Y-53560000D01*
X145550000Y-54350000D02*
X148650000Y-54350000D01*
%TO.N,SOL4_1*%
X144850000Y-55050000D02*
X150450000Y-55050000D01*
X143490000Y-53690000D02*
X144850000Y-55050000D01*
X143490000Y-52500000D02*
X143490000Y-53690000D01*
X150450000Y-55050000D02*
X161400000Y-44100000D01*
%TO.N,PWMA2*%
X123800000Y-133400000D02*
X123800000Y-132000000D01*
X125400000Y-135000000D02*
X123800000Y-133400000D01*
X123800000Y-132000000D02*
X124800000Y-131000000D01*
X134400000Y-128600000D02*
X134400000Y-133800000D01*
X149250000Y-124350000D02*
X138650000Y-124350000D01*
X133200000Y-135000000D02*
X125400000Y-135000000D01*
X151200000Y-115600000D02*
X151200000Y-122400000D01*
X150600002Y-115000002D02*
X151200000Y-115600000D01*
X138650000Y-124350000D02*
X134400000Y-128600000D01*
X134400000Y-133800000D02*
X133200000Y-135000000D01*
X142400000Y-115000002D02*
X150600002Y-115000002D01*
X151200000Y-122400000D02*
X149250000Y-124350000D01*
%TO.N,PWMA0*%
X123820000Y-129980000D02*
X128910000Y-129980000D01*
X125200000Y-135800000D02*
X122400000Y-133000000D01*
X133800000Y-135800000D02*
X125200000Y-135800000D01*
X139200000Y-124900000D02*
X135200000Y-128900000D01*
X152000000Y-122700000D02*
X149800000Y-124900000D01*
X122400000Y-133000000D02*
X122400000Y-131400000D01*
X149800000Y-124900000D02*
X139200000Y-124900000D01*
X122400000Y-131400000D02*
X123820000Y-129980000D01*
X152000000Y-114200000D02*
X152000000Y-122700000D01*
X135200000Y-134400000D02*
X133800000Y-135800000D01*
X150800001Y-113000001D02*
X152000000Y-114200000D01*
X142400000Y-113000001D02*
X150800001Y-113000001D01*
X135200000Y-128900000D02*
X135200000Y-134400000D01*
%TO.N,PWMA1*%
X122760000Y-127440000D02*
X128910000Y-127440000D01*
X121600000Y-128600000D02*
X122760000Y-127440000D01*
X121600000Y-133200000D02*
X121600000Y-128600000D01*
X124800000Y-136400000D02*
X121600000Y-133200000D01*
X134600000Y-136400000D02*
X124800000Y-136400000D01*
X135900000Y-135100000D02*
X134600000Y-136400000D01*
X135900000Y-129200000D02*
X135900000Y-135100000D01*
X139650000Y-125450000D02*
X135900000Y-129200000D01*
X150350000Y-125450000D02*
X139650000Y-125450000D01*
X152600000Y-123200000D02*
X150350000Y-125450000D01*
X152600000Y-113000000D02*
X152600000Y-123200000D01*
X142400000Y-111000000D02*
X150600000Y-111000000D01*
X150600000Y-111000000D02*
X152600000Y-113000000D01*
%TO.N,NRST_ESCC*%
X136600000Y-135400000D02*
X134800000Y-137200000D01*
X136600000Y-129500000D02*
X136600000Y-135400000D01*
X140050000Y-126050000D02*
X136600000Y-129500000D01*
X150550000Y-126050000D02*
X140050000Y-126050000D01*
X134800000Y-137200000D02*
X124900000Y-137200000D01*
X153700000Y-122900000D02*
X150550000Y-126050000D01*
X153700000Y-113200000D02*
X153700000Y-122900000D01*
X155500000Y-111400000D02*
X153700000Y-113200000D01*
%TO.N,SOL2_1*%
X147750000Y-53700000D02*
X156400000Y-45050000D01*
X156400000Y-45050000D02*
X156400000Y-44100000D01*
X146200000Y-53700000D02*
X147750000Y-53700000D01*
X146030000Y-53530000D02*
X146200000Y-53700000D01*
X146030000Y-52500000D02*
X146030000Y-53530000D01*
%TO.N,A_TB+*%
X135849999Y-147850000D02*
X138200000Y-145499999D01*
X133400000Y-147850000D02*
X135849999Y-147850000D01*
X109000000Y-148400000D02*
X110350000Y-149750000D01*
X109000000Y-143513400D02*
X109000000Y-148400000D01*
X109013400Y-143500000D02*
X109000000Y-143513400D01*
X110350000Y-149750000D02*
X131500000Y-149750000D01*
X131500000Y-149750000D02*
X133400000Y-147850000D01*
%TO.N,A+*%
X170845601Y-115974702D02*
X169870901Y-115000002D01*
X170845601Y-117403734D02*
X170845601Y-115974702D01*
X168800000Y-119449335D02*
X170845601Y-117403734D01*
X168800000Y-126500000D02*
X168800000Y-119449335D01*
X167825000Y-127475000D02*
X168800000Y-126500000D01*
X167825000Y-134199736D02*
X167825000Y-127475000D01*
X157754649Y-140100000D02*
X161924736Y-140100000D01*
X161924736Y-140100000D02*
X167825000Y-134199736D01*
X156415001Y-138760352D02*
X157754649Y-140100000D01*
%TO.N,A-*%
X166599998Y-117699998D02*
X166599998Y-116270904D01*
X166599998Y-116270904D02*
X167870900Y-115000002D01*
X168100000Y-119200000D02*
X166599998Y-117699998D01*
X167150000Y-127150000D02*
X168100000Y-126200000D01*
X167150000Y-133700000D02*
X167150000Y-127150000D01*
X162089648Y-138760352D02*
X167150000Y-133700000D01*
X159415000Y-138760352D02*
X162089648Y-138760352D01*
X168100000Y-126200000D02*
X168100000Y-119200000D01*
%TO.N,Telemetry*%
X149100000Y-123600000D02*
X135290000Y-123600000D01*
X135290000Y-123600000D02*
X131450000Y-127440000D01*
X150150000Y-122550000D02*
X149100000Y-123600000D01*
X150150000Y-117650000D02*
X150150000Y-122550000D01*
%TO.N,Aout-*%
X139949997Y-112550000D02*
X140399998Y-113000001D01*
X103600000Y-106150000D02*
X104650000Y-107200000D01*
X114900000Y-107200000D02*
X120250000Y-112550000D01*
X96350000Y-106150000D02*
X103600000Y-106150000D01*
X104650000Y-107200000D02*
X114900000Y-107200000D01*
X95000000Y-104800000D02*
X96350000Y-106150000D01*
X120250000Y-112550000D02*
X139949997Y-112550000D01*
X95000000Y-103670000D02*
X95000000Y-104800000D01*
D32*
%TO.N,5V*%
X116668426Y-116431576D02*
X115700002Y-117400000D01*
X116668426Y-110700000D02*
X116668426Y-116431576D01*
%TO.N,12V_GND*%
X106000000Y-48400000D02*
X106000000Y-44650000D01*
X150275000Y-75237500D02*
X150275000Y-73475000D01*
D33*
X129600000Y-70300000D02*
X131200000Y-68700000D01*
D32*
X151750000Y-72000000D02*
X166000000Y-72000000D01*
D33*
X129600000Y-74393200D02*
X129600000Y-70300000D01*
D32*
X120050000Y-47550000D02*
X117000000Y-44500000D01*
X106000000Y-53450000D02*
X106000000Y-61580000D01*
X116900000Y-42350000D02*
X123300000Y-42350000D01*
X106000000Y-44650000D02*
X108300000Y-42350000D01*
D34*
X171400000Y-51060000D02*
X176660000Y-56320000D01*
D32*
X117000000Y-44500000D02*
X117000000Y-42450000D01*
D34*
X176660000Y-56320000D02*
X171740000Y-51400000D01*
X171400000Y-44100000D02*
X171400000Y-51060000D01*
D32*
X171520000Y-66480000D02*
X176660000Y-66480000D01*
D34*
X169300000Y-51400000D02*
X166600000Y-54100000D01*
D32*
X117000000Y-42450000D02*
X116900000Y-42350000D01*
D33*
X175700000Y-74801100D02*
X175700000Y-70300000D01*
D32*
X166000000Y-72000000D02*
X171520000Y-66480000D01*
D33*
X175700000Y-70300000D02*
X176660000Y-69340000D01*
X176660000Y-69340000D02*
X176660000Y-63940000D01*
D34*
X171740000Y-51400000D02*
X169300000Y-51400000D01*
D32*
X150275000Y-73475000D02*
X151750000Y-72000000D01*
X128200000Y-47250000D02*
X138410000Y-47250000D01*
X108300000Y-42350000D02*
X116900000Y-42350000D01*
X123300000Y-42350000D02*
X128200000Y-47250000D01*
X106000000Y-53450000D02*
X106000000Y-51400000D01*
D33*
X131200000Y-68700000D02*
X131200000Y-63940000D01*
D32*
%TO.N,12V*%
X135100000Y-49800000D02*
X137800000Y-52500000D01*
X98150000Y-49800000D02*
X125100000Y-49800000D01*
D33*
X176885000Y-91860000D02*
X176885000Y-87385000D01*
X176885000Y-87385000D02*
X175700000Y-86200000D01*
X128885000Y-85215000D02*
X128885000Y-91860000D01*
D32*
X125100000Y-49800000D02*
X135100000Y-49800000D01*
X96000000Y-78080000D02*
X94580000Y-78080000D01*
X137800000Y-52500000D02*
X138410000Y-52500000D01*
X125130000Y-47550000D02*
X125130000Y-49770000D01*
D33*
X129600000Y-81606800D02*
X129600000Y-84500000D01*
D32*
X150275000Y-82525000D02*
X150275000Y-86075000D01*
D34*
X178900000Y-100005000D02*
X179425000Y-99480000D01*
D32*
X153520000Y-89320000D02*
X176885000Y-89320000D01*
X150275000Y-86075000D02*
X153520000Y-89320000D01*
D33*
X175700000Y-86200000D02*
X175700000Y-82014700D01*
D32*
X93900000Y-54050000D02*
X98150000Y-49800000D01*
X93900000Y-77400000D02*
X93900000Y-54050000D01*
D34*
X178900000Y-105200000D02*
X178900000Y-100005000D01*
D33*
X129600000Y-84500000D02*
X128885000Y-85215000D01*
D32*
X125130000Y-49770000D02*
X125100000Y-49800000D01*
X94580000Y-78080000D02*
X93900000Y-77400000D01*
%TO.N,Net-(D1-K)*%
X150275000Y-77062500D02*
X150275000Y-80475000D01*
%TO.N,5V*%
X112290000Y-98590000D02*
X113350000Y-99650000D01*
X118900000Y-105200000D02*
X127900000Y-105200000D01*
X142400000Y-106500000D02*
X142470000Y-106570000D01*
X100090000Y-98600000D02*
X100080000Y-98590000D01*
X142470000Y-106570000D02*
X147042500Y-106570000D01*
X142400000Y-109000001D02*
X142400000Y-106500000D01*
X118900000Y-107400000D02*
X118300000Y-108000000D01*
X118900000Y-105200000D02*
X118900000Y-107400000D01*
X127900000Y-105200000D02*
X129200000Y-106500000D01*
X129200000Y-106500000D02*
X142400000Y-106500000D01*
X100080000Y-98590000D02*
X112290000Y-98590000D01*
X113350000Y-99650000D02*
X118900000Y-105200000D01*
X147042500Y-106570000D02*
X147042500Y-106495000D01*
%TO.N,Net-(D2-K)*%
X153155000Y-106570000D02*
X153255000Y-106470000D01*
X149092500Y-106570000D02*
X153155000Y-106570000D01*
%TO.N,Net-(D4-K)*%
X111000000Y-90625000D02*
X111050000Y-90675000D01*
X111000000Y-88112500D02*
X111000000Y-90625000D01*
D31*
%TO.N,PWMA2*%
X125900000Y-124900000D02*
X128910000Y-124900000D01*
X124800000Y-126000000D02*
X125900000Y-124900000D01*
%TO.N,Telemetry*%
X169870901Y-113000001D02*
X169920902Y-112950000D01*
X178300000Y-114950001D02*
X176350000Y-113000001D01*
X179450000Y-127440000D02*
X178415300Y-126405300D01*
X169870901Y-113000001D02*
X176350000Y-113000001D01*
X178415300Y-126405300D02*
X178415300Y-125515300D01*
X178415300Y-125515300D02*
X178300000Y-125400000D01*
X178300000Y-125400000D02*
X178300000Y-114950001D01*
%TO.N,PWMA3*%
X128910000Y-120290000D02*
X129200000Y-120000000D01*
X128910000Y-122360000D02*
X128910000Y-120290000D01*
X129200000Y-120000000D02*
X134300000Y-120000000D01*
X139299998Y-115000002D02*
X140399999Y-115000002D01*
X134300000Y-120000000D02*
X139299998Y-115000002D01*
%TO.N,PWMB0*%
X142400000Y-117000000D02*
X142400000Y-121400000D01*
X142400000Y-121400000D02*
X143000000Y-122000000D01*
%TO.N,PWMB1*%
X141600000Y-122800000D02*
X140399999Y-121599999D01*
X140399999Y-121599999D02*
X140399999Y-117000000D01*
X148200000Y-121400000D02*
X146800000Y-122800000D01*
X146800000Y-122800000D02*
X141600000Y-122800000D01*
D32*
%TO.N,5V_GND*%
X155080000Y-106470000D02*
X156367500Y-106470000D01*
X156367500Y-106470000D02*
X157167500Y-107270000D01*
D34*
X178700000Y-139200000D02*
X173600000Y-139200000D01*
D31*
%TO.N,PWMC0*%
X173050000Y-110000000D02*
X179000000Y-110000000D01*
X169870901Y-111000000D02*
X172050000Y-111000000D01*
X172050000Y-111000000D02*
X173050000Y-110000000D01*
D32*
%TO.N,5V_GNDTB*%
X120300000Y-121799999D02*
X120300000Y-133700002D01*
X120300000Y-133700002D02*
X123120000Y-136520002D01*
X121700000Y-120399999D02*
X120300000Y-121799999D01*
X123120000Y-139416225D02*
X124803775Y-141100000D01*
X126933400Y-141100000D02*
X129333400Y-143500000D01*
X124803775Y-141100000D02*
X126933400Y-141100000D01*
X123120000Y-136520002D02*
X123120000Y-139416225D01*
D31*
%TO.N,GPIO4*%
X143490000Y-47250000D02*
X143490000Y-45990000D01*
X143490000Y-45990000D02*
X140675001Y-43175001D01*
X140675001Y-43175001D02*
X140055000Y-43175001D01*
%TO.N,GPIO6*%
X135355000Y-45275001D02*
X139975001Y-45275001D01*
X134975000Y-44895001D02*
X135355000Y-45275001D01*
X134975000Y-43175001D02*
X134975000Y-44895001D01*
X140950000Y-46250000D02*
X140950000Y-47250000D01*
X139975001Y-45275001D02*
X140950000Y-46250000D01*
%TO.N,GPIO3*%
X144760000Y-47250000D02*
X144760000Y-45340001D01*
X144760000Y-45340001D02*
X142595000Y-43175001D01*
%TO.N,GPIO2*%
X146030000Y-44070001D02*
X145135000Y-43175001D01*
X146030000Y-47250000D02*
X146030000Y-44070001D01*
%TO.N,GPIO5*%
X142220000Y-46220000D02*
X142220000Y-47250000D01*
X137515000Y-43175001D02*
X139039999Y-44700000D01*
X140700000Y-44700000D02*
X142220000Y-46220000D01*
X139039999Y-44700000D02*
X140700000Y-44700000D01*
%TO.N,SOL1_1*%
X147300000Y-52500000D02*
X147800000Y-52500000D01*
X153900000Y-46400000D02*
X153900000Y-44100000D01*
X147800000Y-52500000D02*
X153900000Y-46400000D01*
%TO.N,GPIO1*%
X147675000Y-46125000D02*
X147675000Y-43175001D01*
X147300000Y-47250000D02*
X147300000Y-46500000D01*
X147300000Y-46500000D02*
X147675000Y-46125000D01*
%TO.N,GPIO7*%
X139680000Y-46180000D02*
X139475001Y-45975001D01*
X139680000Y-47250000D02*
X139680000Y-46180000D01*
X139475001Y-45975001D02*
X132855000Y-45975001D01*
X132855000Y-45975001D02*
X132435000Y-45555001D01*
X132435000Y-45555001D02*
X132435000Y-43175001D01*
D32*
%TO.N,48V*%
X109400000Y-92500000D02*
X109400000Y-92550000D01*
D34*
X100080000Y-90970000D02*
X100080000Y-93510000D01*
D32*
X100080000Y-90970000D02*
X107870000Y-90970000D01*
D34*
X97540000Y-93510000D02*
X97540000Y-90970000D01*
D32*
X109575000Y-92725000D02*
X111050000Y-92725000D01*
X109400000Y-92550000D02*
X109575000Y-92725000D01*
D34*
X97540000Y-90970000D02*
X100080000Y-90970000D01*
X97540000Y-93510000D02*
X100080000Y-93510000D01*
D32*
X107870000Y-90970000D02*
X109400000Y-92500000D01*
D34*
%TO.N,48V_GND*%
X100080000Y-85890000D02*
X97540000Y-85890000D01*
D32*
X100080000Y-85890000D02*
X108690000Y-85890000D01*
X109087500Y-86287500D02*
X111000000Y-86287500D01*
X108690000Y-85890000D02*
X109087500Y-86287500D01*
D31*
%TO.N,NRST_TB*%
X112800000Y-138200000D02*
X118500000Y-132500000D01*
X103933400Y-139066600D02*
X104800000Y-138200000D01*
X103933400Y-143500000D02*
X103933400Y-139066600D01*
X118500000Y-120600000D02*
X118700001Y-120399999D01*
X118500000Y-132500000D02*
X118500000Y-120600000D01*
X104800000Y-138200000D02*
X112800000Y-138200000D01*
%TO.N,NRST_PSB*%
X95935300Y-107735300D02*
X93181800Y-104981800D01*
X93960000Y-98590000D02*
X95000000Y-98590000D01*
X98144700Y-118735300D02*
X97104700Y-117695300D01*
X93181800Y-104981800D02*
X93181800Y-99368200D01*
X120364700Y-118735300D02*
X98144700Y-118735300D01*
X96457582Y-107735300D02*
X95935300Y-107735300D01*
X121700000Y-117400000D02*
X120364700Y-118735300D01*
X97104700Y-117695300D02*
X97104700Y-108382418D01*
X93181800Y-99368200D02*
X93960000Y-98590000D01*
X97104700Y-108382418D02*
X96457582Y-107735300D01*
%TO.N,NRST_ESCC*%
X163600001Y-113000001D02*
X167870900Y-113000001D01*
X116800000Y-121499997D02*
X115700002Y-120399999D01*
X115800000Y-133800000D02*
X116800000Y-132800000D01*
X115700000Y-133800000D02*
X115800000Y-133800000D01*
X116800000Y-132800000D02*
X116800000Y-121499997D01*
X161950000Y-111350000D02*
X163600001Y-113000001D01*
%TO.N,A_TB+*%
X146364999Y-144739999D02*
X147200000Y-145575000D01*
X138960000Y-144739999D02*
X146364999Y-144739999D01*
X138200000Y-145499999D02*
X138960000Y-144739999D01*
%TO.N,A+*%
X156415001Y-138760352D02*
X156415001Y-132209999D01*
X156415001Y-132209999D02*
X156625000Y-132000000D01*
D35*
X169870901Y-115547709D02*
X169870901Y-115000002D01*
D31*
%TO.N,A-*%
X159165000Y-138510352D02*
X159415000Y-138760352D01*
D35*
X167870898Y-115000000D02*
X167870900Y-115000002D01*
D31*
X159165000Y-132000000D02*
X159165000Y-138510352D01*
%TO.N,A_TB-*%
X137775264Y-142500000D02*
X138200000Y-142500000D01*
X146665000Y-142500000D02*
X138200000Y-142500000D01*
X111500000Y-148500000D02*
X112200000Y-149200000D01*
X131075264Y-149200000D02*
X137775264Y-142500000D01*
X147200000Y-143035000D02*
X146665000Y-142500000D01*
X111500000Y-146093400D02*
X111500000Y-148500000D01*
X112200000Y-149200000D02*
X131075264Y-149200000D01*
X114093400Y-143500000D02*
X111500000Y-146093400D01*
%TO.N,Aout+*%
X139624999Y-111775000D02*
X140399999Y-111000000D01*
X95000000Y-101130000D02*
X96300000Y-102430000D01*
X120593200Y-111775000D02*
X139624999Y-111775000D01*
X115218200Y-106400000D02*
X120593200Y-111775000D01*
X96876500Y-105476500D02*
X103894700Y-105476500D01*
X96300000Y-104900000D02*
X96876500Y-105476500D01*
X96300000Y-102430000D02*
X96300000Y-104900000D01*
X104818200Y-106400000D02*
X115218200Y-106400000D01*
X103894700Y-105476500D02*
X104818200Y-106400000D01*
D35*
%TO.N,Aout-*%
X140399998Y-113000001D02*
X140399999Y-113000001D01*
D31*
X95300000Y-103670000D02*
X95300000Y-104127582D01*
X95000000Y-103670000D02*
X95300000Y-103670000D01*
%TO.N,PWMC0_OUT*%
X110950000Y-47550000D02*
X114970000Y-47550000D01*
X110500000Y-47100000D02*
X110950000Y-47550000D01*
X108450000Y-47100000D02*
X110500000Y-47100000D01*
%TD*%
%TA.AperFunction,Conductor*%
%TO.N,12V_GND*%
G36*
X124552851Y-52804685D02*
G01*
X124598606Y-52857489D01*
X124609671Y-52903099D01*
X124650000Y-53750000D01*
X134826878Y-53799068D01*
X134893820Y-53819076D01*
X134913959Y-53835386D01*
X134982941Y-53904368D01*
X135016426Y-53965691D01*
X135019259Y-53992526D01*
X134999999Y-59000000D01*
X135000000Y-58999999D01*
X135000000Y-59000000D01*
X140279992Y-58970828D01*
X140270000Y-60140000D01*
X168860000Y-60080000D01*
X168850023Y-58812983D01*
X171200000Y-58800000D01*
X171200000Y-53524000D01*
X171219685Y-53456961D01*
X171272489Y-53411206D01*
X171324000Y-53400000D01*
X181275500Y-53400000D01*
X181342539Y-53419685D01*
X181388294Y-53472489D01*
X181399500Y-53524000D01*
X181399500Y-71276000D01*
X181379815Y-71343039D01*
X181327011Y-71388794D01*
X181275500Y-71400000D01*
X174000256Y-71400000D01*
X173999614Y-71399998D01*
X135400065Y-71200000D01*
X135400000Y-71200000D01*
X135200000Y-71200000D01*
X125926960Y-71200000D01*
X125859921Y-71180315D01*
X125814166Y-71127511D01*
X125804378Y-71094699D01*
X125787323Y-70982893D01*
X125776117Y-70931382D01*
X125776109Y-70931353D01*
X125691107Y-70630787D01*
X125691105Y-70630783D01*
X125566668Y-70336329D01*
X125406308Y-70059795D01*
X125212553Y-69805539D01*
X125166798Y-69752735D01*
X125048127Y-69624907D01*
X124906972Y-69499742D01*
X124808954Y-69412827D01*
X124808952Y-69412825D01*
X124808948Y-69412822D01*
X124545073Y-69232386D01*
X124260668Y-69086446D01*
X124260657Y-69086441D01*
X123960219Y-68977304D01*
X123926688Y-68967458D01*
X123893169Y-68957616D01*
X123883478Y-68954950D01*
X123809048Y-68934474D01*
X123809045Y-68934473D01*
X123809040Y-68934472D01*
X123555342Y-68886076D01*
X123495027Y-68874570D01*
X123495030Y-68874570D01*
X123176011Y-68854500D01*
X123176000Y-68854500D01*
X109116033Y-68854500D01*
X109116026Y-68854500D01*
X109034576Y-68855803D01*
X108716341Y-68886075D01*
X108404417Y-68955992D01*
X108337846Y-68975375D01*
X108177574Y-69027860D01*
X107884719Y-69155992D01*
X107884708Y-69155998D01*
X107610226Y-69319821D01*
X107378277Y-69501238D01*
X107313344Y-69527034D01*
X107249817Y-69516104D01*
X107225299Y-69504761D01*
X107225294Y-69504759D01*
X107225289Y-69504757D01*
X107059717Y-69448969D01*
X106885613Y-69390306D01*
X106535555Y-69313253D01*
X106179220Y-69274500D01*
X106179219Y-69274500D01*
X105820781Y-69274500D01*
X105820779Y-69274500D01*
X105464444Y-69313253D01*
X105114383Y-69390307D01*
X104789593Y-69499742D01*
X104719778Y-69502494D01*
X104710407Y-69499742D01*
X104385616Y-69390307D01*
X104035555Y-69313253D01*
X103679220Y-69274500D01*
X103679219Y-69274500D01*
X103320781Y-69274500D01*
X103320779Y-69274500D01*
X102964444Y-69313253D01*
X102614383Y-69390307D01*
X102289593Y-69499742D01*
X102219778Y-69502494D01*
X102210407Y-69499742D01*
X101885616Y-69390307D01*
X101535555Y-69313253D01*
X101179220Y-69274500D01*
X101179219Y-69274500D01*
X100820781Y-69274500D01*
X100820779Y-69274500D01*
X100464444Y-69313253D01*
X100114383Y-69390307D01*
X99789593Y-69499742D01*
X99719778Y-69502494D01*
X99710407Y-69499742D01*
X99385616Y-69390307D01*
X99035555Y-69313253D01*
X98679220Y-69274500D01*
X98679219Y-69274500D01*
X98320781Y-69274500D01*
X98320779Y-69274500D01*
X97964444Y-69313253D01*
X97614383Y-69390307D01*
X97289592Y-69499742D01*
X97219777Y-69502494D01*
X97210406Y-69499742D01*
X96969407Y-69418540D01*
X96912162Y-69378480D01*
X96885662Y-69313831D01*
X96885000Y-69301031D01*
X96885000Y-55958711D01*
X99149500Y-55958711D01*
X99149500Y-56201288D01*
X99181161Y-56441785D01*
X99243947Y-56676104D01*
X99336773Y-56900205D01*
X99336776Y-56900212D01*
X99458064Y-57110289D01*
X99458066Y-57110292D01*
X99458067Y-57110293D01*
X99605733Y-57302736D01*
X99605739Y-57302743D01*
X99777256Y-57474260D01*
X99777262Y-57474265D01*
X99969711Y-57621936D01*
X100179788Y-57743224D01*
X100403900Y-57836054D01*
X100638211Y-57898838D01*
X100818586Y-57922584D01*
X100878711Y-57930500D01*
X100878712Y-57930500D01*
X101121289Y-57930500D01*
X101169388Y-57924167D01*
X101361789Y-57898838D01*
X101596100Y-57836054D01*
X101820212Y-57743224D01*
X102030289Y-57621936D01*
X102222738Y-57474265D01*
X102394265Y-57302738D01*
X102541936Y-57110289D01*
X102663224Y-56900212D01*
X102756054Y-56676100D01*
X102818838Y-56441789D01*
X102850500Y-56201288D01*
X102850500Y-55958712D01*
X102818838Y-55718211D01*
X102756054Y-55483900D01*
X102663224Y-55259788D01*
X102541936Y-55049711D01*
X102394265Y-54857262D01*
X102394260Y-54857256D01*
X102222743Y-54685739D01*
X102222736Y-54685733D01*
X102030293Y-54538067D01*
X102030292Y-54538066D01*
X102030289Y-54538064D01*
X101820212Y-54416776D01*
X101820205Y-54416773D01*
X101596104Y-54323947D01*
X101361785Y-54261161D01*
X101121289Y-54229500D01*
X101121288Y-54229500D01*
X100878712Y-54229500D01*
X100878711Y-54229500D01*
X100638214Y-54261161D01*
X100403895Y-54323947D01*
X100179794Y-54416773D01*
X100179785Y-54416777D01*
X99969706Y-54538067D01*
X99777263Y-54685733D01*
X99777256Y-54685739D01*
X99605739Y-54857256D01*
X99605733Y-54857263D01*
X99458067Y-55049706D01*
X99336777Y-55259785D01*
X99336773Y-55259794D01*
X99243947Y-55483895D01*
X99181161Y-55718214D01*
X99149500Y-55958711D01*
X96885000Y-55958711D01*
X96885000Y-55337789D01*
X96904685Y-55270750D01*
X96921319Y-55250108D01*
X99350108Y-52821319D01*
X99411431Y-52787834D01*
X99437789Y-52785000D01*
X124485812Y-52785000D01*
X124552851Y-52804685D01*
G37*
%TD.AperFunction*%
%TD*%
%TA.AperFunction,Conductor*%
%TO.N,12V*%
G36*
X123243039Y-71419685D02*
G01*
X123288794Y-71472489D01*
X123300000Y-71524000D01*
X123300000Y-88000000D01*
X125000000Y-88000000D01*
X125000000Y-85924000D01*
X125019685Y-85856961D01*
X125072489Y-85811206D01*
X125124000Y-85800000D01*
X134476000Y-85800000D01*
X134543039Y-85819685D01*
X134588794Y-85872489D01*
X134600000Y-85924000D01*
X134600000Y-89600000D01*
X166099999Y-89700000D01*
X166100000Y-89700000D01*
X166100000Y-86023202D01*
X166119685Y-85956163D01*
X166172489Y-85910408D01*
X166223199Y-85899205D01*
X181274702Y-85802098D01*
X181341865Y-85821349D01*
X181387960Y-85873857D01*
X181399500Y-85926095D01*
X181399500Y-102276000D01*
X181379815Y-102343039D01*
X181327011Y-102388794D01*
X181275500Y-102400000D01*
X166424000Y-102400000D01*
X166356961Y-102380315D01*
X166311206Y-102327511D01*
X166300000Y-102276000D01*
X166300000Y-99000000D01*
X134400000Y-98800000D01*
X134400000Y-102076000D01*
X134380315Y-102143039D01*
X134327511Y-102188794D01*
X134276000Y-102200000D01*
X130678446Y-102200000D01*
X130639040Y-102193572D01*
X130443891Y-102128165D01*
X130035211Y-102032044D01*
X130035203Y-102032042D01*
X129619402Y-101974041D01*
X129619397Y-101974040D01*
X129619392Y-101974040D01*
X129200000Y-101954650D01*
X128780608Y-101974040D01*
X128780602Y-101974040D01*
X128780597Y-101974041D01*
X128364796Y-102032042D01*
X128364788Y-102032044D01*
X127956108Y-102128165D01*
X127760960Y-102193572D01*
X127721554Y-102200000D01*
X125124000Y-102200000D01*
X125056961Y-102180315D01*
X125011206Y-102127511D01*
X125000000Y-102076000D01*
X125000000Y-98800000D01*
X116890424Y-98915850D01*
X116823110Y-98897125D01*
X116800972Y-98879544D01*
X114536319Y-96614891D01*
X114502834Y-96553568D01*
X114500000Y-96527210D01*
X114500000Y-83150000D01*
X109932740Y-83161591D01*
X109878624Y-83149311D01*
X109834121Y-83127879D01*
X109834113Y-83127876D01*
X109517667Y-83017146D01*
X109517655Y-83017142D01*
X109265398Y-82959566D01*
X109190794Y-82942538D01*
X109190791Y-82942537D01*
X109190779Y-82942535D01*
X108891371Y-82908801D01*
X108874503Y-82906900D01*
X108857637Y-82905000D01*
X108857635Y-82905000D01*
X108857634Y-82905000D01*
X101527640Y-82905000D01*
X101475573Y-82893539D01*
X101305296Y-82814759D01*
X100965613Y-82700306D01*
X100615555Y-82623253D01*
X100259220Y-82584500D01*
X100259219Y-82584500D01*
X99900781Y-82584500D01*
X99900779Y-82584500D01*
X99544444Y-82623253D01*
X99194386Y-82700306D01*
X99171527Y-82708009D01*
X99131933Y-82714500D01*
X98488067Y-82714500D01*
X98448473Y-82708009D01*
X98425613Y-82700306D01*
X98075555Y-82623253D01*
X97719220Y-82584500D01*
X97719219Y-82584500D01*
X97360781Y-82584500D01*
X97360779Y-82584500D01*
X97004444Y-82623253D01*
X96654383Y-82700307D01*
X96311528Y-82815829D01*
X96311157Y-82814728D01*
X96246334Y-82820812D01*
X96228552Y-82815590D01*
X96228472Y-82815829D01*
X95885616Y-82700307D01*
X95535555Y-82623253D01*
X95179220Y-82584500D01*
X95179219Y-82584500D01*
X94924000Y-82584500D01*
X94856961Y-82564815D01*
X94811206Y-82512011D01*
X94800000Y-82460500D01*
X94800000Y-73336393D01*
X94819685Y-73269354D01*
X94872489Y-73223599D01*
X94941647Y-73213655D01*
X94963581Y-73218881D01*
X95114386Y-73269693D01*
X95114391Y-73269694D01*
X95114394Y-73269695D01*
X95285537Y-73307366D01*
X95464444Y-73346746D01*
X95820781Y-73385500D01*
X95820787Y-73385500D01*
X96179213Y-73385500D01*
X96179219Y-73385500D01*
X96535556Y-73346746D01*
X96885614Y-73269693D01*
X97210408Y-73160256D01*
X97280222Y-73157505D01*
X97289578Y-73160252D01*
X97614386Y-73269693D01*
X97964444Y-73346746D01*
X98320781Y-73385500D01*
X98320787Y-73385500D01*
X98679213Y-73385500D01*
X98679219Y-73385500D01*
X99035556Y-73346746D01*
X99385614Y-73269693D01*
X99710408Y-73160256D01*
X99780222Y-73157505D01*
X99789578Y-73160252D01*
X100114386Y-73269693D01*
X100464444Y-73346746D01*
X100820781Y-73385500D01*
X100820787Y-73385500D01*
X101179213Y-73385500D01*
X101179219Y-73385500D01*
X101535556Y-73346746D01*
X101885614Y-73269693D01*
X102210408Y-73160256D01*
X102280222Y-73157505D01*
X102289578Y-73160252D01*
X102614386Y-73269693D01*
X102964444Y-73346746D01*
X103320781Y-73385500D01*
X103320787Y-73385500D01*
X103679213Y-73385500D01*
X103679219Y-73385500D01*
X104035556Y-73346746D01*
X104385614Y-73269693D01*
X104710408Y-73160256D01*
X104780222Y-73157505D01*
X104789578Y-73160252D01*
X105114386Y-73269693D01*
X105464444Y-73346746D01*
X105820781Y-73385500D01*
X105820787Y-73385500D01*
X106179213Y-73385500D01*
X106179219Y-73385500D01*
X106535556Y-73346746D01*
X106885614Y-73269693D01*
X107225289Y-73155243D01*
X107550598Y-73004739D01*
X107857728Y-72819944D01*
X108143078Y-72603027D01*
X108403303Y-72356529D01*
X108635351Y-72083341D01*
X108836501Y-71786666D01*
X108966997Y-71540526D01*
X109005971Y-71467014D01*
X109007230Y-71467681D01*
X109049467Y-71419382D01*
X109116033Y-71400000D01*
X123176000Y-71400000D01*
X123243039Y-71419685D01*
G37*
%TD.AperFunction*%
%TD*%
%TA.AperFunction,Conductor*%
%TO.N,12V_GND*%
G36*
X168805898Y-58813227D02*
G01*
X168850023Y-58812983D01*
X168860000Y-60080000D01*
X140270000Y-60140000D01*
X140279992Y-58970827D01*
X140323644Y-58970586D01*
X140331624Y-58969710D01*
X168795732Y-58810303D01*
X168805898Y-58813227D01*
G37*
%TD.AperFunction*%
%TD*%
%TA.AperFunction,Conductor*%
%TO.N,5V_GND*%
G36*
X93447803Y-106524153D02*
G01*
X93454281Y-106530185D01*
X95360177Y-108436082D01*
X95360178Y-108436083D01*
X95360181Y-108436085D01*
X95483631Y-108518571D01*
X95491774Y-108524012D01*
X95507947Y-108534819D01*
X95575957Y-108562989D01*
X95672138Y-108602829D01*
X95846436Y-108637499D01*
X95846439Y-108637500D01*
X95846441Y-108637500D01*
X96032516Y-108637500D01*
X96099555Y-108657185D01*
X96120197Y-108673819D01*
X96166181Y-108719803D01*
X96199666Y-108781126D01*
X96202500Y-108807484D01*
X96202500Y-117784163D01*
X96237169Y-117958454D01*
X96237171Y-117958462D01*
X96282834Y-118068703D01*
X96305181Y-118122652D01*
X96339457Y-118173950D01*
X96403916Y-118270421D01*
X96403917Y-118270422D01*
X97443916Y-119310419D01*
X97569581Y-119436084D01*
X97569582Y-119436085D01*
X97717341Y-119534815D01*
X97717347Y-119534818D01*
X97717348Y-119534819D01*
X97881538Y-119602829D01*
X98055836Y-119637499D01*
X98055839Y-119637500D01*
X98055841Y-119637500D01*
X114182318Y-119637500D01*
X114249357Y-119657185D01*
X114295112Y-119709989D01*
X114305056Y-119779147D01*
X114296879Y-119808952D01*
X114247542Y-119928061D01*
X114191595Y-120161096D01*
X114172794Y-120399999D01*
X114191595Y-120638901D01*
X114191595Y-120638904D01*
X114191596Y-120638907D01*
X114225014Y-120778100D01*
X114247542Y-120871936D01*
X114339247Y-121093333D01*
X114339249Y-121093336D01*
X114464461Y-121297663D01*
X114464462Y-121297666D01*
X114464465Y-121297669D01*
X114620103Y-121479898D01*
X114750688Y-121591428D01*
X114802334Y-121635538D01*
X114802336Y-121635538D01*
X114889352Y-121688862D01*
X115006664Y-121760751D01*
X115006667Y-121760753D01*
X115228064Y-121852458D01*
X115228069Y-121852460D01*
X115461094Y-121908405D01*
X115700002Y-121927207D01*
X115764072Y-121922164D01*
X115832448Y-121936528D01*
X115882205Y-121985579D01*
X115897800Y-122045782D01*
X115897800Y-132374933D01*
X115878115Y-132441972D01*
X115861481Y-132462614D01*
X115611282Y-132712812D01*
X115549959Y-132746297D01*
X115535758Y-132748534D01*
X115491715Y-132752872D01*
X115291428Y-132813629D01*
X115106846Y-132912291D01*
X114945063Y-133045063D01*
X114812291Y-133206846D01*
X114713629Y-133391428D01*
X114652872Y-133591715D01*
X114632359Y-133800000D01*
X114652872Y-134008284D01*
X114652873Y-134008286D01*
X114713628Y-134208569D01*
X114779928Y-134332608D01*
X114812291Y-134393153D01*
X114945063Y-134554936D01*
X114962389Y-134569155D01*
X115001723Y-134626901D01*
X115003594Y-134696746D01*
X114971405Y-134752689D01*
X112462615Y-137261481D01*
X112401292Y-137294966D01*
X112374934Y-137297800D01*
X104711138Y-137297800D01*
X104536845Y-137332469D01*
X104536837Y-137332471D01*
X104396107Y-137390764D01*
X104396106Y-137390764D01*
X104372654Y-137400477D01*
X104372641Y-137400484D01*
X104224881Y-137499215D01*
X104224877Y-137499218D01*
X103232612Y-138491483D01*
X103212597Y-138521441D01*
X103212595Y-138521444D01*
X103133884Y-138639241D01*
X103133879Y-138639250D01*
X103065871Y-138803437D01*
X103065869Y-138803445D01*
X103031200Y-138977736D01*
X103031200Y-141897047D01*
X103011515Y-141964086D01*
X102977052Y-141999500D01*
X102821418Y-142105610D01*
X102626015Y-142286916D01*
X102459814Y-142495326D01*
X102326534Y-142726173D01*
X102229150Y-142974302D01*
X102229145Y-142974319D01*
X102169832Y-143234187D01*
X102149913Y-143499995D01*
X102149913Y-143500004D01*
X102169832Y-143765812D01*
X102211726Y-143949362D01*
X102229148Y-144025692D01*
X102326534Y-144273826D01*
X102459814Y-144504674D01*
X102594049Y-144672999D01*
X102626015Y-144713083D01*
X102726869Y-144806661D01*
X102821414Y-144894386D01*
X103041657Y-145044545D01*
X103041662Y-145044547D01*
X103041663Y-145044548D01*
X103041665Y-145044549D01*
X103044599Y-145045962D01*
X103281815Y-145160199D01*
X103281816Y-145160199D01*
X103281819Y-145160201D01*
X103536537Y-145238771D01*
X103800120Y-145278500D01*
X103800121Y-145278500D01*
X104066679Y-145278500D01*
X104066680Y-145278500D01*
X104330263Y-145238771D01*
X104584981Y-145160201D01*
X104822202Y-145045962D01*
X104825136Y-145044549D01*
X104825136Y-145044548D01*
X104825144Y-145044545D01*
X105045386Y-144894386D01*
X105240788Y-144713079D01*
X105406986Y-144504674D01*
X105540266Y-144273826D01*
X105637652Y-144025692D01*
X105696967Y-143765815D01*
X105716887Y-143500000D01*
X105716886Y-143499993D01*
X105696967Y-143234187D01*
X105696967Y-143234185D01*
X105637652Y-142974308D01*
X105540266Y-142726174D01*
X105406986Y-142495326D01*
X105240788Y-142286921D01*
X105240787Y-142286920D01*
X105240784Y-142286916D01*
X105114893Y-142170107D01*
X105045386Y-142105614D01*
X105045382Y-142105611D01*
X105045375Y-142105606D01*
X104889748Y-141999500D01*
X104845446Y-141945471D01*
X104835600Y-141897047D01*
X104835600Y-139491665D01*
X104855285Y-139424626D01*
X104871919Y-139403984D01*
X105137384Y-139138519D01*
X105198707Y-139105034D01*
X105225065Y-139102200D01*
X112888861Y-139102200D01*
X112888862Y-139102199D01*
X113063162Y-139067529D01*
X113227352Y-138999519D01*
X113375119Y-138900785D01*
X118881319Y-133394583D01*
X118942642Y-133361099D01*
X119012334Y-133366083D01*
X119068267Y-133407955D01*
X119092684Y-133473419D01*
X119093000Y-133482265D01*
X119093000Y-133795000D01*
X119122719Y-133982638D01*
X119122719Y-133982639D01*
X119171402Y-134132471D01*
X119171404Y-134132473D01*
X119181429Y-134163330D01*
X119267683Y-134332611D01*
X119362341Y-134462897D01*
X119379351Y-134486308D01*
X119379354Y-134486312D01*
X121876681Y-136983639D01*
X121910166Y-137044962D01*
X121913000Y-137071320D01*
X121913000Y-139511223D01*
X121942720Y-139698866D01*
X121988658Y-139840250D01*
X122001428Y-139879552D01*
X122060707Y-139995892D01*
X122087681Y-140048831D01*
X122182510Y-140179352D01*
X122199349Y-140202529D01*
X122199354Y-140202535D01*
X123636723Y-141639904D01*
X123670208Y-141701227D01*
X123665224Y-141770919D01*
X123623352Y-141826852D01*
X123602844Y-141839305D01*
X123361661Y-141955452D01*
X123141413Y-142105614D01*
X122946015Y-142286916D01*
X122779814Y-142495326D01*
X122646534Y-142726173D01*
X122549150Y-142974302D01*
X122549145Y-142974319D01*
X122489832Y-143234187D01*
X122469913Y-143499995D01*
X122469913Y-143500004D01*
X122489832Y-143765812D01*
X122531726Y-143949362D01*
X122549148Y-144025692D01*
X122646534Y-144273826D01*
X122779814Y-144504674D01*
X122914049Y-144672999D01*
X122946015Y-144713083D01*
X123046869Y-144806661D01*
X123141414Y-144894386D01*
X123361657Y-145044545D01*
X123361662Y-145044547D01*
X123361663Y-145044548D01*
X123361665Y-145044549D01*
X123364599Y-145045962D01*
X123601815Y-145160199D01*
X123601816Y-145160199D01*
X123601819Y-145160201D01*
X123856537Y-145238771D01*
X124120120Y-145278500D01*
X124120121Y-145278500D01*
X124386679Y-145278500D01*
X124386680Y-145278500D01*
X124650263Y-145238771D01*
X124904981Y-145160201D01*
X125142202Y-145045962D01*
X125145136Y-145044549D01*
X125145136Y-145044548D01*
X125145144Y-145044545D01*
X125365386Y-144894386D01*
X125560788Y-144713079D01*
X125726986Y-144504674D01*
X125860266Y-144273826D01*
X125957652Y-144025692D01*
X126016967Y-143765815D01*
X126036887Y-143500000D01*
X126036886Y-143499993D01*
X126016967Y-143234187D01*
X126016967Y-143234185D01*
X125957652Y-142974308D01*
X125860266Y-142726174D01*
X125726986Y-142495326D01*
X125726985Y-142495325D01*
X125725643Y-142493000D01*
X125709170Y-142425100D01*
X125732023Y-142359073D01*
X125786944Y-142315882D01*
X125833030Y-142307000D01*
X126382082Y-142307000D01*
X126449121Y-142326685D01*
X126469763Y-142343319D01*
X127515025Y-143388580D01*
X127548510Y-143449903D01*
X127550997Y-143485525D01*
X127549913Y-143499993D01*
X127549913Y-143500004D01*
X127569832Y-143765812D01*
X127611726Y-143949362D01*
X127629148Y-144025692D01*
X127726534Y-144273826D01*
X127859814Y-144504674D01*
X127994049Y-144672999D01*
X128026015Y-144713083D01*
X128126869Y-144806661D01*
X128221414Y-144894386D01*
X128441657Y-145044545D01*
X128441662Y-145044547D01*
X128441663Y-145044548D01*
X128441665Y-145044549D01*
X128444599Y-145045962D01*
X128681815Y-145160199D01*
X128681816Y-145160199D01*
X128681819Y-145160201D01*
X128936537Y-145238771D01*
X129200120Y-145278500D01*
X129200121Y-145278500D01*
X129466679Y-145278500D01*
X129466680Y-145278500D01*
X129730263Y-145238771D01*
X129984981Y-145160201D01*
X130222202Y-145045962D01*
X130225136Y-145044549D01*
X130225136Y-145044548D01*
X130225144Y-145044545D01*
X130445386Y-144894386D01*
X130640788Y-144713079D01*
X130806986Y-144504674D01*
X130940266Y-144273826D01*
X131037652Y-144025692D01*
X131096967Y-143765815D01*
X131116887Y-143500000D01*
X131116886Y-143499993D01*
X131096967Y-143234187D01*
X131096967Y-143234185D01*
X131037652Y-142974308D01*
X130940266Y-142726174D01*
X130806986Y-142495326D01*
X130640788Y-142286921D01*
X130640787Y-142286920D01*
X130640784Y-142286916D01*
X130445386Y-142105614D01*
X130445374Y-142105606D01*
X130225144Y-141955455D01*
X130225138Y-141955452D01*
X130225137Y-141955451D01*
X130225136Y-141955450D01*
X129984983Y-141839800D01*
X129984985Y-141839800D01*
X129730271Y-141761231D01*
X129730267Y-141761230D01*
X129730263Y-141761229D01*
X129603474Y-141742118D01*
X129466685Y-141721500D01*
X129466680Y-141721500D01*
X129313217Y-141721500D01*
X129246178Y-141701815D01*
X129225536Y-141685181D01*
X127719706Y-140179350D01*
X127719704Y-140179348D01*
X127639537Y-140121105D01*
X127639536Y-140121104D01*
X127566006Y-140067681D01*
X127396731Y-139981430D01*
X127216040Y-139922719D01*
X127028398Y-139893000D01*
X127028393Y-139893000D01*
X125355093Y-139893000D01*
X125288054Y-139873315D01*
X125267412Y-139856681D01*
X124363319Y-138952588D01*
X124329834Y-138891265D01*
X124327000Y-138864907D01*
X124327000Y-138303686D01*
X124346685Y-138236647D01*
X124399489Y-138190892D01*
X124468647Y-138180948D01*
X124486996Y-138185026D01*
X124491428Y-138186370D01*
X124491431Y-138186372D01*
X124691714Y-138247127D01*
X124900000Y-138267641D01*
X125108286Y-138247127D01*
X125308569Y-138186372D01*
X125438650Y-138116841D01*
X125497103Y-138102200D01*
X134888861Y-138102200D01*
X134888862Y-138102199D01*
X135063162Y-138067529D01*
X135227352Y-137999519D01*
X135375119Y-137900785D01*
X137300784Y-135975119D01*
X137399519Y-135827352D01*
X137467529Y-135663162D01*
X137474652Y-135627352D01*
X137492321Y-135538523D01*
X137502200Y-135488861D01*
X137502200Y-129925066D01*
X137521885Y-129858027D01*
X137538519Y-129837385D01*
X140387385Y-126988519D01*
X140448708Y-126955034D01*
X140475066Y-126952200D01*
X141825113Y-126952200D01*
X141892152Y-126971885D01*
X141937907Y-127024689D01*
X141948516Y-127064047D01*
X141952872Y-127108284D01*
X141958422Y-127126579D01*
X142013628Y-127308569D01*
X142071637Y-127417096D01*
X142083158Y-127438649D01*
X142097800Y-127497103D01*
X142097800Y-135888863D01*
X142116363Y-135982183D01*
X142132471Y-136063162D01*
X142200481Y-136227352D01*
X142212369Y-136245144D01*
X142299216Y-136375121D01*
X142299217Y-136375122D01*
X147141082Y-141216986D01*
X147174567Y-141278309D01*
X147169583Y-141348001D01*
X147127711Y-141403934D01*
X147063131Y-141428285D01*
X146946971Y-141437427D01*
X146700178Y-141496676D01*
X146700166Y-141496680D01*
X146631045Y-141525311D01*
X146487531Y-141584757D01*
X146478830Y-141588361D01*
X146431377Y-141597800D01*
X139805693Y-141597800D01*
X139738654Y-141578115D01*
X139692899Y-141525311D01*
X139687987Y-141512804D01*
X139655764Y-141415560D01*
X139562189Y-141263851D01*
X139436149Y-141137811D01*
X139284440Y-141044236D01*
X139238654Y-141029064D01*
X139115242Y-140988169D01*
X139115235Y-140988168D01*
X139010812Y-140977500D01*
X137389196Y-140977500D01*
X137389180Y-140977501D01*
X137284757Y-140988169D01*
X137115562Y-141044235D01*
X137115557Y-141044237D01*
X136963849Y-141137812D01*
X136837812Y-141263849D01*
X136744237Y-141415557D01*
X136744235Y-141415562D01*
X136688169Y-141584757D01*
X136688168Y-141584764D01*
X136677500Y-141689181D01*
X136677500Y-142270497D01*
X136657815Y-142337536D01*
X136641181Y-142358178D01*
X130737879Y-148261481D01*
X130676556Y-148294966D01*
X130650198Y-148297800D01*
X112625065Y-148297800D01*
X112558026Y-148278115D01*
X112537389Y-148261486D01*
X112438517Y-148162613D01*
X112405034Y-148101291D01*
X112402200Y-148074934D01*
X112402200Y-146518464D01*
X112421885Y-146451425D01*
X112438514Y-146430787D01*
X113594915Y-145274386D01*
X113656236Y-145240903D01*
X113701069Y-145239454D01*
X113960120Y-145278500D01*
X113960121Y-145278500D01*
X114226679Y-145278500D01*
X114226680Y-145278500D01*
X114490263Y-145238771D01*
X114744981Y-145160201D01*
X114982202Y-145045962D01*
X114985136Y-145044549D01*
X114985136Y-145044548D01*
X114985144Y-145044545D01*
X115205386Y-144894386D01*
X115400788Y-144713079D01*
X115566986Y-144504674D01*
X115700266Y-144273826D01*
X115797652Y-144025692D01*
X115856967Y-143765815D01*
X115876887Y-143500000D01*
X115876886Y-143499995D01*
X117389913Y-143499995D01*
X117389913Y-143500004D01*
X117409832Y-143765812D01*
X117451726Y-143949362D01*
X117469148Y-144025692D01*
X117566534Y-144273826D01*
X117699814Y-144504674D01*
X117834049Y-144672999D01*
X117866015Y-144713083D01*
X117966869Y-144806661D01*
X118061414Y-144894386D01*
X118281657Y-145044545D01*
X118281662Y-145044547D01*
X118281663Y-145044548D01*
X118281665Y-145044549D01*
X118284599Y-145045962D01*
X118521815Y-145160199D01*
X118521816Y-145160199D01*
X118521819Y-145160201D01*
X118776537Y-145238771D01*
X119040120Y-145278500D01*
X119040121Y-145278500D01*
X119306679Y-145278500D01*
X119306680Y-145278500D01*
X119570263Y-145238771D01*
X119824981Y-145160201D01*
X120062202Y-145045962D01*
X120065136Y-145044549D01*
X120065136Y-145044548D01*
X120065144Y-145044545D01*
X120285386Y-144894386D01*
X120480788Y-144713079D01*
X120646986Y-144504674D01*
X120780266Y-144273826D01*
X120877652Y-144025692D01*
X120936967Y-143765815D01*
X120956887Y-143500000D01*
X120956886Y-143499993D01*
X120936967Y-143234187D01*
X120936967Y-143234185D01*
X120877652Y-142974308D01*
X120780266Y-142726174D01*
X120646986Y-142495326D01*
X120480788Y-142286921D01*
X120480787Y-142286920D01*
X120480784Y-142286916D01*
X120285386Y-142105614D01*
X120285374Y-142105606D01*
X120065144Y-141955455D01*
X120065138Y-141955452D01*
X120065137Y-141955451D01*
X120065136Y-141955450D01*
X119824983Y-141839800D01*
X119824985Y-141839800D01*
X119570271Y-141761231D01*
X119570267Y-141761230D01*
X119570263Y-141761229D01*
X119443474Y-141742118D01*
X119306685Y-141721500D01*
X119306680Y-141721500D01*
X119040120Y-141721500D01*
X119040114Y-141721500D01*
X118884434Y-141744966D01*
X118776537Y-141761229D01*
X118776534Y-141761230D01*
X118776528Y-141761231D01*
X118521815Y-141839800D01*
X118281665Y-141955450D01*
X118281663Y-141955451D01*
X118061413Y-142105614D01*
X117866015Y-142286916D01*
X117699814Y-142495326D01*
X117566534Y-142726173D01*
X117469150Y-142974302D01*
X117469145Y-142974319D01*
X117409832Y-143234187D01*
X117389913Y-143499995D01*
X115876886Y-143499995D01*
X115876886Y-143499993D01*
X115856967Y-143234187D01*
X115856967Y-143234185D01*
X115797652Y-142974308D01*
X115700266Y-142726174D01*
X115566986Y-142495326D01*
X115400788Y-142286921D01*
X115400787Y-142286920D01*
X115400784Y-142286916D01*
X115205386Y-142105614D01*
X115205374Y-142105606D01*
X114985144Y-141955455D01*
X114985138Y-141955452D01*
X114985137Y-141955451D01*
X114985136Y-141955450D01*
X114744983Y-141839800D01*
X114744985Y-141839800D01*
X114490271Y-141761231D01*
X114490267Y-141761230D01*
X114490263Y-141761229D01*
X114363474Y-141742118D01*
X114226685Y-141721500D01*
X114226680Y-141721500D01*
X113960120Y-141721500D01*
X113960114Y-141721500D01*
X113804434Y-141744966D01*
X113696537Y-141761229D01*
X113696534Y-141761230D01*
X113696528Y-141761231D01*
X113441815Y-141839800D01*
X113201665Y-141955450D01*
X113201663Y-141955451D01*
X112981413Y-142105614D01*
X112786015Y-142286916D01*
X112619814Y-142495326D01*
X112486534Y-142726173D01*
X112389150Y-142974302D01*
X112389145Y-142974319D01*
X112329832Y-143234187D01*
X112309913Y-143499995D01*
X112309913Y-143500004D01*
X112329832Y-143765813D01*
X112329832Y-143765815D01*
X112355808Y-143879623D01*
X112351535Y-143949362D01*
X112322598Y-143994896D01*
X110799218Y-145518276D01*
X110739584Y-145607527D01*
X110739583Y-145607528D01*
X110700479Y-145666049D01*
X110632471Y-145830237D01*
X110632469Y-145830245D01*
X110597800Y-146004536D01*
X110597800Y-148422534D01*
X110578115Y-148489573D01*
X110525311Y-148535328D01*
X110456153Y-148545272D01*
X110392597Y-148516247D01*
X110386119Y-148510215D01*
X109938519Y-148062615D01*
X109905034Y-148001292D01*
X109902200Y-147974934D01*
X109902200Y-145112088D01*
X109921885Y-145045049D01*
X109956348Y-145009635D01*
X110078031Y-144926672D01*
X110125386Y-144894386D01*
X110320788Y-144713079D01*
X110486986Y-144504674D01*
X110620266Y-144273826D01*
X110717652Y-144025692D01*
X110776967Y-143765815D01*
X110796887Y-143500000D01*
X110796886Y-143499993D01*
X110776967Y-143234187D01*
X110776967Y-143234185D01*
X110717652Y-142974308D01*
X110620266Y-142726174D01*
X110486986Y-142495326D01*
X110320788Y-142286921D01*
X110320787Y-142286920D01*
X110320784Y-142286916D01*
X110125386Y-142105614D01*
X110125374Y-142105606D01*
X109905144Y-141955455D01*
X109905138Y-141955452D01*
X109905137Y-141955451D01*
X109905136Y-141955450D01*
X109664983Y-141839800D01*
X109664985Y-141839800D01*
X109410271Y-141761231D01*
X109410267Y-141761230D01*
X109410263Y-141761229D01*
X109283474Y-141742118D01*
X109146685Y-141721500D01*
X109146680Y-141721500D01*
X108880120Y-141721500D01*
X108880114Y-141721500D01*
X108724434Y-141744966D01*
X108616537Y-141761229D01*
X108616534Y-141761230D01*
X108616528Y-141761231D01*
X108361815Y-141839800D01*
X108121665Y-141955450D01*
X108121663Y-141955451D01*
X107901413Y-142105614D01*
X107706015Y-142286916D01*
X107539814Y-142495326D01*
X107406534Y-142726173D01*
X107309150Y-142974302D01*
X107309145Y-142974319D01*
X107249832Y-143234187D01*
X107229913Y-143499995D01*
X107229913Y-143500004D01*
X107249832Y-143765812D01*
X107291726Y-143949362D01*
X107309148Y-144025692D01*
X107406534Y-144273826D01*
X107539814Y-144504674D01*
X107674049Y-144672999D01*
X107706015Y-144713083D01*
X107806869Y-144806661D01*
X107901414Y-144894386D01*
X107901417Y-144894388D01*
X108043651Y-144991361D01*
X108087953Y-145045390D01*
X108097800Y-145093815D01*
X108097800Y-148488863D01*
X108132469Y-148663154D01*
X108132471Y-148663162D01*
X108200480Y-148827350D01*
X108299216Y-148975121D01*
X108299217Y-148975122D01*
X109611916Y-150287819D01*
X109645401Y-150349142D01*
X109640417Y-150418833D01*
X109598546Y-150474767D01*
X109533081Y-150499184D01*
X109524235Y-150499500D01*
X93366600Y-150499500D01*
X93299561Y-150479815D01*
X93253806Y-150427011D01*
X93242600Y-150375500D01*
X93242600Y-146799998D01*
X94777500Y-146799998D01*
X94777500Y-146800001D01*
X94797329Y-147096226D01*
X94797331Y-147096236D01*
X94856467Y-147387176D01*
X94905724Y-147529027D01*
X94953856Y-147667640D01*
X95087757Y-147932623D01*
X95255783Y-148177394D01*
X95255785Y-148177396D01*
X95255789Y-148177402D01*
X95255792Y-148177404D01*
X95454935Y-148397586D01*
X95681658Y-148589268D01*
X95931907Y-148749021D01*
X95931910Y-148749022D01*
X95931911Y-148749023D01*
X95971942Y-148767599D01*
X96201216Y-148873994D01*
X96484780Y-148961956D01*
X96777537Y-149011338D01*
X97074265Y-149021259D01*
X97369667Y-148991541D01*
X97658472Y-148922715D01*
X97658475Y-148922713D01*
X97658479Y-148922713D01*
X97797000Y-148869362D01*
X97935528Y-148816010D01*
X98195888Y-148673328D01*
X98434908Y-148497217D01*
X98648322Y-148290819D01*
X98832321Y-148057817D01*
X98983623Y-147802370D01*
X99099527Y-147529035D01*
X99177965Y-147242691D01*
X99217537Y-146948447D01*
X99217537Y-146651553D01*
X99177965Y-146357309D01*
X99101938Y-146079768D01*
X99099529Y-146070972D01*
X99099529Y-146070971D01*
X99099527Y-146070968D01*
X99099527Y-146070965D01*
X98983623Y-145797630D01*
X98903220Y-145661884D01*
X98832321Y-145542182D01*
X98648321Y-145309180D01*
X98576225Y-145239454D01*
X98434908Y-145102783D01*
X98309160Y-145010131D01*
X98195894Y-144926676D01*
X98195891Y-144926674D01*
X98195888Y-144926672D01*
X97935528Y-144783990D01*
X97935523Y-144783988D01*
X97935521Y-144783987D01*
X97658479Y-144677286D01*
X97658474Y-144677285D01*
X97369667Y-144608459D01*
X97369664Y-144608458D01*
X97074269Y-144578741D01*
X97074265Y-144578741D01*
X96777537Y-144588662D01*
X96484779Y-144638044D01*
X96368236Y-144674196D01*
X96201216Y-144726006D01*
X96201209Y-144726009D01*
X96201207Y-144726010D01*
X95931911Y-144850976D01*
X95681658Y-145010731D01*
X95681656Y-145010733D01*
X95454933Y-145202415D01*
X95255792Y-145422595D01*
X95255789Y-145422597D01*
X95255783Y-145422606D01*
X95088063Y-145666932D01*
X95087755Y-145667380D01*
X95037894Y-145766053D01*
X94953856Y-145932360D01*
X94953854Y-145932363D01*
X94953854Y-145932365D01*
X94856467Y-146212823D01*
X94797331Y-146503763D01*
X94797329Y-146503773D01*
X94777500Y-146799998D01*
X93242600Y-146799998D01*
X93242600Y-133718711D01*
X99149500Y-133718711D01*
X99149500Y-133961288D01*
X99181161Y-134201785D01*
X99243947Y-134436104D01*
X99264744Y-134486312D01*
X99336776Y-134660212D01*
X99458064Y-134870289D01*
X99458066Y-134870292D01*
X99458067Y-134870293D01*
X99605733Y-135062736D01*
X99605739Y-135062743D01*
X99777256Y-135234260D01*
X99777262Y-135234265D01*
X99969711Y-135381936D01*
X100179788Y-135503224D01*
X100403900Y-135596054D01*
X100638211Y-135658838D01*
X100818586Y-135682584D01*
X100878711Y-135690500D01*
X100878712Y-135690500D01*
X101121289Y-135690500D01*
X101169388Y-135684167D01*
X101361789Y-135658838D01*
X101596100Y-135596054D01*
X101820212Y-135503224D01*
X102030289Y-135381936D01*
X102222738Y-135234265D01*
X102394265Y-135062738D01*
X102541936Y-134870289D01*
X102663224Y-134660212D01*
X102756054Y-134436100D01*
X102818838Y-134201789D01*
X102850500Y-133961288D01*
X102850500Y-133718712D01*
X102818838Y-133478211D01*
X102756054Y-133243900D01*
X102663224Y-133019788D01*
X102541936Y-132809711D01*
X102394265Y-132617262D01*
X102394260Y-132617256D01*
X102222743Y-132445739D01*
X102222736Y-132445733D01*
X102030293Y-132298067D01*
X102030292Y-132298066D01*
X102030289Y-132298064D01*
X101820212Y-132176776D01*
X101820205Y-132176773D01*
X101596104Y-132083947D01*
X101361785Y-132021161D01*
X101121289Y-131989500D01*
X101121288Y-131989500D01*
X100878712Y-131989500D01*
X100878711Y-131989500D01*
X100638214Y-132021161D01*
X100403895Y-132083947D01*
X100179794Y-132176773D01*
X100179785Y-132176777D01*
X99969706Y-132298067D01*
X99777263Y-132445733D01*
X99777256Y-132445739D01*
X99605739Y-132617256D01*
X99605733Y-132617263D01*
X99458067Y-132809706D01*
X99336777Y-133019785D01*
X99336773Y-133019794D01*
X99243947Y-133243895D01*
X99181161Y-133478214D01*
X99149500Y-133718711D01*
X93242600Y-133718711D01*
X93242600Y-121265092D01*
X111939503Y-121265092D01*
X111939503Y-121414907D01*
X111968726Y-121561822D01*
X111968728Y-121561830D01*
X112026054Y-121700229D01*
X112026059Y-121700238D01*
X112109283Y-121824790D01*
X112109286Y-121824794D01*
X112215208Y-121930716D01*
X112215212Y-121930719D01*
X112339764Y-122013943D01*
X112339770Y-122013946D01*
X112339771Y-122013947D01*
X112478173Y-122071275D01*
X112625095Y-122100499D01*
X112625099Y-122100500D01*
X112625100Y-122100500D01*
X112774907Y-122100500D01*
X112774908Y-122100499D01*
X112921833Y-122071275D01*
X113060235Y-122013947D01*
X113184794Y-121930719D01*
X113290722Y-121824791D01*
X113373950Y-121700232D01*
X113431278Y-121561830D01*
X113460503Y-121414903D01*
X113460503Y-121265097D01*
X113431278Y-121118170D01*
X113378781Y-120991430D01*
X113373951Y-120979770D01*
X113373946Y-120979761D01*
X113290722Y-120855209D01*
X113290719Y-120855205D01*
X113184797Y-120749283D01*
X113184793Y-120749280D01*
X113060241Y-120666056D01*
X113060232Y-120666051D01*
X112921833Y-120608725D01*
X112921825Y-120608723D01*
X112774910Y-120579500D01*
X112774906Y-120579500D01*
X112625100Y-120579500D01*
X112625095Y-120579500D01*
X112478180Y-120608723D01*
X112478172Y-120608725D01*
X112339773Y-120666051D01*
X112339764Y-120666056D01*
X112215212Y-120749280D01*
X112215208Y-120749283D01*
X112109286Y-120855205D01*
X112109283Y-120855209D01*
X112026059Y-120979761D01*
X112026054Y-120979770D01*
X111968728Y-121118169D01*
X111968726Y-121118177D01*
X111939503Y-121265092D01*
X93242600Y-121265092D01*
X93242600Y-106617866D01*
X93262285Y-106550827D01*
X93315089Y-106505072D01*
X93384247Y-106495128D01*
X93447803Y-106524153D01*
G37*
%TD.AperFunction*%
%TA.AperFunction,Conductor*%
G36*
X176130602Y-105883756D02*
G01*
X176197265Y-105904680D01*
X176242033Y-105958323D01*
X176246688Y-105970844D01*
X176312291Y-106181371D01*
X176312294Y-106181378D01*
X176312295Y-106181381D01*
X176312297Y-106181386D01*
X176449457Y-106486144D01*
X176529086Y-106617866D01*
X176622351Y-106772145D01*
X176622357Y-106772154D01*
X176828462Y-107035227D01*
X177064772Y-107271537D01*
X177064776Y-107271540D01*
X177327853Y-107477648D01*
X177613856Y-107650543D01*
X177918614Y-107787703D01*
X177918624Y-107787706D01*
X177918632Y-107787709D01*
X178131326Y-107853987D01*
X178237682Y-107887129D01*
X178566409Y-107947370D01*
X178900000Y-107967549D01*
X179233591Y-107947370D01*
X179562318Y-107887129D01*
X179852562Y-107796685D01*
X179881367Y-107787709D01*
X179881368Y-107787708D01*
X179881386Y-107787703D01*
X180186144Y-107650543D01*
X180472147Y-107477648D01*
X180735224Y-107271540D01*
X180971540Y-107035224D01*
X181177648Y-106772147D01*
X181177651Y-106772140D01*
X181177889Y-106771838D01*
X181234729Y-106731205D01*
X181304513Y-106727753D01*
X181365086Y-106762577D01*
X181397216Y-106824621D01*
X181399500Y-106848311D01*
X181399500Y-150375500D01*
X181379815Y-150442539D01*
X181327011Y-150488294D01*
X181275500Y-150499500D01*
X132325767Y-150499500D01*
X132258728Y-150479815D01*
X132212973Y-150427011D01*
X132203029Y-150357853D01*
X132232054Y-150294297D01*
X132238086Y-150287819D01*
X133737385Y-148788519D01*
X133798708Y-148755034D01*
X133825066Y-148752200D01*
X135938860Y-148752200D01*
X135938861Y-148752199D01*
X136113161Y-148717529D01*
X136277351Y-148649519D01*
X136425118Y-148550785D01*
X137926610Y-147049291D01*
X137987931Y-147015808D01*
X138024011Y-147013356D01*
X138200000Y-147027207D01*
X138438908Y-147008405D01*
X138671933Y-146952460D01*
X138795809Y-146901149D01*
X138893334Y-146860753D01*
X138893335Y-146860752D01*
X138893338Y-146860751D01*
X139097670Y-146735536D01*
X139279899Y-146579898D01*
X139435537Y-146397669D01*
X139560752Y-146193337D01*
X139652461Y-145971932D01*
X139708406Y-145738907D01*
X139708406Y-145738903D01*
X139708803Y-145737251D01*
X139743594Y-145676660D01*
X139805621Y-145644496D01*
X139829377Y-145642199D01*
X140622917Y-145642199D01*
X140689956Y-145661884D01*
X140735711Y-145714688D01*
X140745655Y-145783846D01*
X140716630Y-145847402D01*
X140710598Y-145853880D01*
X140609272Y-145955205D01*
X140609269Y-145955209D01*
X140526045Y-146079761D01*
X140526040Y-146079770D01*
X140468714Y-146218169D01*
X140468712Y-146218177D01*
X140439489Y-146365092D01*
X140439489Y-146514907D01*
X140468712Y-146661822D01*
X140468714Y-146661830D01*
X140526040Y-146800229D01*
X140526045Y-146800238D01*
X140609269Y-146924790D01*
X140609272Y-146924794D01*
X140715194Y-147030716D01*
X140715198Y-147030719D01*
X140839750Y-147113943D01*
X140839759Y-147113948D01*
X140871112Y-147126934D01*
X140978159Y-147171275D01*
X141125081Y-147200499D01*
X141125085Y-147200500D01*
X141125086Y-147200500D01*
X141274893Y-147200500D01*
X141274894Y-147200499D01*
X141421819Y-147171275D01*
X141560221Y-147113947D01*
X141684780Y-147030719D01*
X141790708Y-146924791D01*
X141873936Y-146800232D01*
X141931264Y-146661830D01*
X141960489Y-146514903D01*
X141960489Y-146365097D01*
X141931264Y-146218170D01*
X141873936Y-146079768D01*
X141873935Y-146079767D01*
X141873932Y-146079761D01*
X141790708Y-145955209D01*
X141790705Y-145955205D01*
X141689380Y-145853880D01*
X141655895Y-145792557D01*
X141660879Y-145722865D01*
X141702751Y-145666932D01*
X141768215Y-145642515D01*
X141777061Y-145642199D01*
X145463501Y-145642199D01*
X145530540Y-145661884D01*
X145576295Y-145714688D01*
X145587501Y-145766199D01*
X145587501Y-146475818D01*
X145598169Y-146580242D01*
X145654235Y-146749437D01*
X145654237Y-146749442D01*
X145689678Y-146806900D01*
X145747811Y-146901149D01*
X145873851Y-147027189D01*
X146025560Y-147120764D01*
X146194759Y-147176831D01*
X146299189Y-147187500D01*
X148100810Y-147187499D01*
X148205241Y-147176831D01*
X148374440Y-147120764D01*
X148526149Y-147027189D01*
X148652189Y-146901149D01*
X148714580Y-146799998D01*
X175477500Y-146799998D01*
X175477500Y-146800001D01*
X175497329Y-147096226D01*
X175497331Y-147096236D01*
X175556467Y-147387176D01*
X175605724Y-147529027D01*
X175653856Y-147667640D01*
X175787757Y-147932623D01*
X175955783Y-148177394D01*
X175955785Y-148177396D01*
X175955789Y-148177402D01*
X175955792Y-148177404D01*
X176154935Y-148397586D01*
X176381658Y-148589268D01*
X176631907Y-148749021D01*
X176631910Y-148749022D01*
X176631911Y-148749023D01*
X176671942Y-148767599D01*
X176901216Y-148873994D01*
X177184780Y-148961956D01*
X177477537Y-149011338D01*
X177774265Y-149021259D01*
X178069667Y-148991541D01*
X178358472Y-148922715D01*
X178358475Y-148922713D01*
X178358479Y-148922713D01*
X178497000Y-148869362D01*
X178635528Y-148816010D01*
X178895888Y-148673328D01*
X179134908Y-148497217D01*
X179348322Y-148290819D01*
X179532321Y-148057817D01*
X179683623Y-147802370D01*
X179799527Y-147529035D01*
X179877965Y-147242691D01*
X179917537Y-146948447D01*
X179917537Y-146651553D01*
X179877965Y-146357309D01*
X179801938Y-146079768D01*
X179799529Y-146070972D01*
X179799529Y-146070971D01*
X179799527Y-146070968D01*
X179799527Y-146070965D01*
X179683623Y-145797630D01*
X179603220Y-145661884D01*
X179532321Y-145542182D01*
X179348321Y-145309180D01*
X179276225Y-145239454D01*
X179134908Y-145102783D01*
X179009160Y-145010131D01*
X178895894Y-144926676D01*
X178895891Y-144926674D01*
X178895888Y-144926672D01*
X178635528Y-144783990D01*
X178635523Y-144783988D01*
X178635521Y-144783987D01*
X178358479Y-144677286D01*
X178358474Y-144677285D01*
X178069667Y-144608459D01*
X178069664Y-144608458D01*
X177774269Y-144578741D01*
X177774265Y-144578741D01*
X177477537Y-144588662D01*
X177184779Y-144638044D01*
X177068236Y-144674196D01*
X176901216Y-144726006D01*
X176901209Y-144726009D01*
X176901207Y-144726010D01*
X176631911Y-144850976D01*
X176381658Y-145010731D01*
X176381656Y-145010733D01*
X176154933Y-145202415D01*
X175955792Y-145422595D01*
X175955789Y-145422597D01*
X175955783Y-145422606D01*
X175788063Y-145666932D01*
X175787755Y-145667380D01*
X175737894Y-145766053D01*
X175653856Y-145932360D01*
X175653854Y-145932363D01*
X175653854Y-145932365D01*
X175556467Y-146212823D01*
X175497331Y-146503763D01*
X175497329Y-146503773D01*
X175477500Y-146799998D01*
X148714580Y-146799998D01*
X148745764Y-146749440D01*
X148801831Y-146580241D01*
X148812500Y-146475811D01*
X148812499Y-144674190D01*
X148801831Y-144569759D01*
X148745764Y-144400560D01*
X148652189Y-144248851D01*
X148532290Y-144128952D01*
X148498805Y-144067629D01*
X148503789Y-143997937D01*
X148514244Y-143976481D01*
X148641191Y-143769323D01*
X148683845Y-143666347D01*
X148738321Y-143534831D01*
X148797572Y-143288031D01*
X148806714Y-143171868D01*
X148831598Y-143106581D01*
X148887829Y-143065110D01*
X148957554Y-143060623D01*
X149018013Y-143093917D01*
X151624877Y-145700782D01*
X151624878Y-145700783D01*
X151624881Y-145700785D01*
X151769821Y-145797630D01*
X151769822Y-145797630D01*
X151769825Y-145797634D01*
X151769825Y-145797633D01*
X151772648Y-145799519D01*
X151936838Y-145867529D01*
X152111136Y-145902199D01*
X152111139Y-145902200D01*
X152111141Y-145902200D01*
X163088861Y-145902200D01*
X163088862Y-145902199D01*
X163263162Y-145867529D01*
X163427352Y-145799519D01*
X163575119Y-145700785D01*
X172500784Y-136775119D01*
X172599519Y-136627352D01*
X172667529Y-136463162D01*
X172675118Y-136425009D01*
X172702200Y-136288859D01*
X172702200Y-132025066D01*
X172721885Y-131958027D01*
X172738519Y-131937385D01*
X173757385Y-130918519D01*
X173818708Y-130885034D01*
X173845066Y-130882200D01*
X175705100Y-130882200D01*
X175772139Y-130901885D01*
X175796330Y-130922217D01*
X175919479Y-131055993D01*
X175919482Y-131055995D01*
X175919485Y-131055998D01*
X176110082Y-131204346D01*
X176110088Y-131204350D01*
X176110091Y-131204352D01*
X176322522Y-131319314D01*
X176550979Y-131397743D01*
X176789228Y-131437500D01*
X176789229Y-131437500D01*
X177030771Y-131437500D01*
X177030772Y-131437500D01*
X177269021Y-131397743D01*
X177497478Y-131319314D01*
X177709909Y-131204352D01*
X177900521Y-131055993D01*
X178064114Y-130878283D01*
X178196226Y-130676071D01*
X178293253Y-130454871D01*
X178352548Y-130220719D01*
X178365242Y-130067528D01*
X178372495Y-129980005D01*
X178372495Y-129979994D01*
X178352548Y-129739284D01*
X178352548Y-129739281D01*
X178293253Y-129505129D01*
X178196226Y-129283929D01*
X178064114Y-129081717D01*
X177900521Y-128904007D01*
X177900516Y-128904003D01*
X177900514Y-128904001D01*
X177776983Y-128807853D01*
X177736170Y-128751143D01*
X177732495Y-128681370D01*
X177767127Y-128620687D01*
X177776983Y-128612147D01*
X177851993Y-128553763D01*
X177900521Y-128515993D01*
X178064114Y-128338283D01*
X178064118Y-128338277D01*
X178076191Y-128319798D01*
X178129337Y-128274441D01*
X178198568Y-128265017D01*
X178261904Y-128294518D01*
X178283809Y-128319798D01*
X178295881Y-128338277D01*
X178295884Y-128338280D01*
X178295886Y-128338283D01*
X178459479Y-128515993D01*
X178459482Y-128515995D01*
X178459485Y-128515998D01*
X178650082Y-128664346D01*
X178650088Y-128664350D01*
X178650091Y-128664352D01*
X178862522Y-128779314D01*
X179090979Y-128857743D01*
X179329228Y-128897500D01*
X179329229Y-128897500D01*
X179570771Y-128897500D01*
X179570772Y-128897500D01*
X179809021Y-128857743D01*
X180037478Y-128779314D01*
X180249909Y-128664352D01*
X180440521Y-128515993D01*
X180604114Y-128338283D01*
X180736226Y-128136071D01*
X180833253Y-127914871D01*
X180892548Y-127680719D01*
X180912495Y-127440000D01*
X180912383Y-127438649D01*
X180895418Y-127233915D01*
X180892548Y-127199281D01*
X180833253Y-126965129D01*
X180736226Y-126743929D01*
X180733147Y-126739217D01*
X180668639Y-126640480D01*
X180604114Y-126541717D01*
X180440521Y-126364007D01*
X180440516Y-126364003D01*
X180440514Y-126364001D01*
X180316983Y-126267853D01*
X180276170Y-126211143D01*
X180272495Y-126141370D01*
X180307127Y-126080687D01*
X180316983Y-126072147D01*
X180409677Y-126000000D01*
X180440521Y-125975993D01*
X180604114Y-125798283D01*
X180736226Y-125596071D01*
X180833253Y-125374871D01*
X180892548Y-125140719D01*
X180903079Y-125013628D01*
X180912495Y-124900005D01*
X180912495Y-124899994D01*
X180897072Y-124713881D01*
X180892548Y-124659281D01*
X180833253Y-124425129D01*
X180736226Y-124203929D01*
X180604114Y-124001717D01*
X180440521Y-123824007D01*
X180440516Y-123824003D01*
X180440514Y-123824001D01*
X180316983Y-123727853D01*
X180276170Y-123671143D01*
X180272495Y-123601370D01*
X180307127Y-123540687D01*
X180316983Y-123532147D01*
X180391993Y-123473763D01*
X180440521Y-123435993D01*
X180604114Y-123258283D01*
X180736226Y-123056071D01*
X180833253Y-122834871D01*
X180892548Y-122600719D01*
X180912495Y-122360000D01*
X180911775Y-122351316D01*
X180899197Y-122199520D01*
X180892548Y-122119281D01*
X180833253Y-121885129D01*
X180736226Y-121663929D01*
X180604114Y-121461717D01*
X180440521Y-121284007D01*
X180440516Y-121284003D01*
X180440514Y-121284001D01*
X180249917Y-121135653D01*
X180249911Y-121135649D01*
X180037479Y-121020686D01*
X180037474Y-121020684D01*
X179809023Y-120942257D01*
X179650188Y-120915752D01*
X179570772Y-120902500D01*
X179329228Y-120902500D01*
X179326200Y-120902500D01*
X179259161Y-120882815D01*
X179213406Y-120830011D01*
X179202200Y-120778500D01*
X179202200Y-114861139D01*
X179202199Y-114861137D01*
X179167529Y-114686839D01*
X179099519Y-114522649D01*
X179099518Y-114522648D01*
X179099515Y-114522642D01*
X179000785Y-114374883D01*
X178958488Y-114332586D01*
X178875119Y-114249217D01*
X178398546Y-113772644D01*
X176925122Y-112299218D01*
X176925121Y-112299217D01*
X176851235Y-112249849D01*
X176777352Y-112200482D01*
X176613162Y-112132472D01*
X176613154Y-112132470D01*
X176438862Y-112097801D01*
X176438859Y-112097801D01*
X172380626Y-112097801D01*
X172313587Y-112078116D01*
X172267832Y-112025312D01*
X172257888Y-111956154D01*
X172286913Y-111892598D01*
X172333173Y-111859240D01*
X172477352Y-111799519D01*
X172625119Y-111700785D01*
X173387385Y-110938519D01*
X173448708Y-110905034D01*
X173475066Y-110902200D01*
X177275846Y-110902200D01*
X177342885Y-110921885D01*
X177388640Y-110974689D01*
X177397099Y-111000244D01*
X177398168Y-111005240D01*
X177454235Y-111174437D01*
X177454237Y-111174442D01*
X177489000Y-111230801D01*
X177547811Y-111326149D01*
X177673851Y-111452189D01*
X177825560Y-111545764D01*
X177994759Y-111601831D01*
X178099189Y-111612500D01*
X179900810Y-111612499D01*
X180005241Y-111601831D01*
X180174440Y-111545764D01*
X180326149Y-111452189D01*
X180452189Y-111326149D01*
X180545764Y-111174440D01*
X180601831Y-111005241D01*
X180612500Y-110900811D01*
X180612499Y-109099190D01*
X180601831Y-108994759D01*
X180545764Y-108825560D01*
X180452189Y-108673851D01*
X180326149Y-108547811D01*
X180174440Y-108454236D01*
X180119655Y-108436082D01*
X180005242Y-108398169D01*
X180005235Y-108398168D01*
X179900812Y-108387500D01*
X178099196Y-108387500D01*
X178099180Y-108387501D01*
X177994757Y-108398169D01*
X177825562Y-108454235D01*
X177825557Y-108454237D01*
X177673849Y-108547812D01*
X177547812Y-108673849D01*
X177454237Y-108825557D01*
X177454235Y-108825562D01*
X177398167Y-108994764D01*
X177397097Y-108999764D01*
X177363812Y-109061196D01*
X177302598Y-109094880D01*
X177275846Y-109097800D01*
X172961138Y-109097800D01*
X172786840Y-109132469D01*
X172786836Y-109132471D01*
X172754778Y-109145750D01*
X172738748Y-109152390D01*
X172622654Y-109200476D01*
X172622641Y-109200483D01*
X172474881Y-109299214D01*
X172474877Y-109299217D01*
X171712615Y-110061481D01*
X171651292Y-110094966D01*
X171624934Y-110097800D01*
X171042487Y-110097800D01*
X170975448Y-110078115D01*
X170929693Y-110025311D01*
X170919749Y-109956153D01*
X170948774Y-109892597D01*
X170951241Y-109889834D01*
X170977505Y-109861305D01*
X171104178Y-109667417D01*
X171197211Y-109455324D01*
X171254066Y-109230810D01*
X171254067Y-109230802D01*
X171273191Y-109000007D01*
X171273191Y-108999994D01*
X171254067Y-108769199D01*
X171254065Y-108769188D01*
X171197211Y-108544677D01*
X171104178Y-108332585D01*
X170977507Y-108138699D01*
X170879743Y-108032499D01*
X170820646Y-107968303D01*
X170820645Y-107968302D01*
X170820643Y-107968300D01*
X170816870Y-107964827D01*
X170817656Y-107963972D01*
X170780123Y-107911813D01*
X170773101Y-107870677D01*
X170773101Y-106382039D01*
X170773100Y-106382037D01*
X170772171Y-106377365D01*
X170738430Y-106207739D01*
X170670420Y-106043549D01*
X170670419Y-106043548D01*
X170670416Y-106043542D01*
X170625626Y-105976509D01*
X170604748Y-105909831D01*
X170623233Y-105842451D01*
X170675211Y-105795761D01*
X170731020Y-105783640D01*
X176130602Y-105883756D01*
G37*
%TD.AperFunction*%
%TA.AperFunction,Conductor*%
G36*
X136989573Y-124521885D02*
G01*
X137035328Y-124574689D01*
X137045272Y-124643847D01*
X137016247Y-124707403D01*
X137010215Y-124713881D01*
X133699219Y-128024875D01*
X133699213Y-128024882D01*
X133621772Y-128140783D01*
X133600482Y-128172645D01*
X133600480Y-128172649D01*
X133532471Y-128336837D01*
X133532469Y-128336845D01*
X133497800Y-128511136D01*
X133497800Y-133374934D01*
X133478115Y-133441973D01*
X133461481Y-133462615D01*
X132862615Y-134061481D01*
X132801292Y-134094966D01*
X132774934Y-134097800D01*
X125825066Y-134097800D01*
X125758027Y-134078115D01*
X125737385Y-134061481D01*
X124738519Y-133062615D01*
X124705034Y-133001292D01*
X124702200Y-132974934D01*
X124702200Y-132425065D01*
X124721885Y-132358026D01*
X124738515Y-132337388D01*
X125015737Y-132060165D01*
X125067417Y-132029189D01*
X125208569Y-131986372D01*
X125393150Y-131887711D01*
X125554936Y-131754936D01*
X125687711Y-131593150D01*
X125786372Y-131408569D01*
X125847127Y-131208286D01*
X125867641Y-131000000D01*
X125867640Y-130999997D01*
X125868227Y-130994046D01*
X125894388Y-130929259D01*
X125951422Y-130888900D01*
X125991630Y-130882200D01*
X127705100Y-130882200D01*
X127772139Y-130901885D01*
X127796330Y-130922217D01*
X127919479Y-131055993D01*
X127919482Y-131055995D01*
X127919485Y-131055998D01*
X128110082Y-131204346D01*
X128110088Y-131204350D01*
X128110091Y-131204352D01*
X128322522Y-131319314D01*
X128550979Y-131397743D01*
X128789228Y-131437500D01*
X128789229Y-131437500D01*
X129030771Y-131437500D01*
X129030772Y-131437500D01*
X129269021Y-131397743D01*
X129497478Y-131319314D01*
X129709909Y-131204352D01*
X129900521Y-131055993D01*
X130064114Y-130878283D01*
X130196226Y-130676071D01*
X130293253Y-130454871D01*
X130352548Y-130220719D01*
X130365242Y-130067528D01*
X130372495Y-129980005D01*
X130372495Y-129979994D01*
X130352548Y-129739284D01*
X130352548Y-129739281D01*
X130293253Y-129505129D01*
X130196226Y-129283929D01*
X130064114Y-129081717D01*
X129900521Y-128904007D01*
X129900516Y-128904003D01*
X129900514Y-128904001D01*
X129776983Y-128807853D01*
X129736170Y-128751143D01*
X129732495Y-128681370D01*
X129767127Y-128620687D01*
X129776983Y-128612147D01*
X129851993Y-128553763D01*
X129900521Y-128515993D01*
X130064114Y-128338283D01*
X130064118Y-128338277D01*
X130076191Y-128319798D01*
X130129337Y-128274441D01*
X130198568Y-128265017D01*
X130261904Y-128294518D01*
X130283809Y-128319798D01*
X130295881Y-128338277D01*
X130295884Y-128338280D01*
X130295886Y-128338283D01*
X130459479Y-128515993D01*
X130459482Y-128515995D01*
X130459485Y-128515998D01*
X130650082Y-128664346D01*
X130650088Y-128664350D01*
X130650091Y-128664352D01*
X130862522Y-128779314D01*
X131090979Y-128857743D01*
X131329228Y-128897500D01*
X131329229Y-128897500D01*
X131570771Y-128897500D01*
X131570772Y-128897500D01*
X131809021Y-128857743D01*
X132037478Y-128779314D01*
X132249909Y-128664352D01*
X132440521Y-128515993D01*
X132604114Y-128338283D01*
X132736226Y-128136071D01*
X132833253Y-127914871D01*
X132892548Y-127680719D01*
X132912495Y-127440000D01*
X132902962Y-127324964D01*
X132917042Y-127256531D01*
X132938854Y-127227048D01*
X135627384Y-124538519D01*
X135688707Y-124505034D01*
X135715065Y-124502200D01*
X136922534Y-124502200D01*
X136989573Y-124521885D01*
G37*
%TD.AperFunction*%
%TA.AperFunction,Conductor*%
G36*
X118080629Y-111656979D02*
G01*
X118087107Y-111663011D01*
X119674877Y-113250782D01*
X119674881Y-113250785D01*
X119822648Y-113349520D01*
X119938747Y-113397608D01*
X119938749Y-113397610D01*
X119986833Y-113417527D01*
X119986838Y-113417529D01*
X120161136Y-113452199D01*
X120161139Y-113452200D01*
X120161141Y-113452200D01*
X120161142Y-113452200D01*
X120338859Y-113452200D01*
X138991306Y-113452200D01*
X139058345Y-113471885D01*
X139104100Y-113524689D01*
X139104862Y-113526390D01*
X139166721Y-113667416D01*
X139293395Y-113861305D01*
X139319644Y-113889820D01*
X139350566Y-113952474D01*
X139342706Y-114021900D01*
X139298558Y-114076056D01*
X139232141Y-114097746D01*
X139228414Y-114097802D01*
X139211136Y-114097802D01*
X139036843Y-114132471D01*
X139036835Y-114132473D01*
X138872647Y-114200482D01*
X138724876Y-114299218D01*
X138724875Y-114299219D01*
X133962615Y-119061481D01*
X133901292Y-119094966D01*
X133874934Y-119097800D01*
X129111138Y-119097800D01*
X128936845Y-119132469D01*
X128936837Y-119132471D01*
X128772649Y-119200480D01*
X128624878Y-119299216D01*
X128209219Y-119714875D01*
X128209213Y-119714882D01*
X128135717Y-119824879D01*
X128135717Y-119824880D01*
X128110479Y-119862649D01*
X128042471Y-120026837D01*
X128042469Y-120026845D01*
X128007800Y-120201136D01*
X128007800Y-121154644D01*
X127988115Y-121221683D01*
X127959963Y-121252497D01*
X127919481Y-121284005D01*
X127755887Y-121461715D01*
X127755884Y-121461719D01*
X127623774Y-121663927D01*
X127526746Y-121885130D01*
X127467451Y-122119284D01*
X127447505Y-122359994D01*
X127447505Y-122360005D01*
X127467451Y-122600715D01*
X127526746Y-122834869D01*
X127623774Y-123056072D01*
X127727293Y-123214518D01*
X127755886Y-123258283D01*
X127919479Y-123435993D01*
X127974507Y-123478823D01*
X128043017Y-123532147D01*
X128083830Y-123588857D01*
X128087504Y-123658630D01*
X128052872Y-123719313D01*
X128043017Y-123727853D01*
X127919481Y-123824005D01*
X127919479Y-123824006D01*
X127919479Y-123824007D01*
X127839768Y-123910597D01*
X127796330Y-123957783D01*
X127736443Y-123993773D01*
X127705100Y-123997800D01*
X125811138Y-123997800D01*
X125636845Y-124032469D01*
X125636837Y-124032471D01*
X125472649Y-124100480D01*
X125324878Y-124199216D01*
X124584264Y-124939830D01*
X124532580Y-124970809D01*
X124391430Y-125013628D01*
X124206846Y-125112291D01*
X124045063Y-125245063D01*
X123912291Y-125406846D01*
X123813629Y-125591428D01*
X123813628Y-125591430D01*
X123813628Y-125591431D01*
X123812220Y-125596072D01*
X123752872Y-125791715D01*
X123732359Y-126000000D01*
X123752872Y-126208284D01*
X123761795Y-126237699D01*
X123800108Y-126364001D01*
X123804296Y-126377805D01*
X123804919Y-126447672D01*
X123767671Y-126506785D01*
X123704377Y-126536375D01*
X123685635Y-126537800D01*
X122671139Y-126537800D01*
X122586139Y-126554708D01*
X122543638Y-126563162D01*
X122506146Y-126570619D01*
X122496837Y-126572471D01*
X122332649Y-126640480D01*
X122184878Y-126739216D01*
X122184877Y-126739217D01*
X121718681Y-127205414D01*
X121657358Y-127238899D01*
X121587666Y-127233915D01*
X121531733Y-127192043D01*
X121507316Y-127126579D01*
X121507000Y-127117733D01*
X121507000Y-122351316D01*
X121526685Y-122284277D01*
X121543315Y-122263639D01*
X121862755Y-121944198D01*
X121924076Y-121910715D01*
X121934099Y-121909238D01*
X121934088Y-121909169D01*
X121938897Y-121908406D01*
X121938897Y-121908405D01*
X121938908Y-121908405D01*
X122171933Y-121852460D01*
X122304799Y-121797425D01*
X122393334Y-121760753D01*
X122393335Y-121760752D01*
X122393338Y-121760751D01*
X122597670Y-121635536D01*
X122779899Y-121479898D01*
X122935537Y-121297669D01*
X122955500Y-121265092D01*
X123939479Y-121265092D01*
X123939479Y-121414907D01*
X123968702Y-121561822D01*
X123968704Y-121561830D01*
X124026030Y-121700229D01*
X124026035Y-121700238D01*
X124109259Y-121824790D01*
X124109262Y-121824794D01*
X124215184Y-121930716D01*
X124215188Y-121930719D01*
X124339740Y-122013943D01*
X124339746Y-122013946D01*
X124339747Y-122013947D01*
X124478149Y-122071275D01*
X124625071Y-122100499D01*
X124625075Y-122100500D01*
X124625076Y-122100500D01*
X124774883Y-122100500D01*
X124774884Y-122100499D01*
X124921809Y-122071275D01*
X125060211Y-122013947D01*
X125184770Y-121930719D01*
X125290698Y-121824791D01*
X125373926Y-121700232D01*
X125431254Y-121561830D01*
X125460479Y-121414903D01*
X125460479Y-121265097D01*
X125431254Y-121118170D01*
X125378757Y-120991430D01*
X125373927Y-120979770D01*
X125373922Y-120979761D01*
X125290698Y-120855209D01*
X125290695Y-120855205D01*
X125184773Y-120749283D01*
X125184769Y-120749280D01*
X125060217Y-120666056D01*
X125060208Y-120666051D01*
X124921809Y-120608725D01*
X124921801Y-120608723D01*
X124774886Y-120579500D01*
X124774882Y-120579500D01*
X124625076Y-120579500D01*
X124625071Y-120579500D01*
X124478156Y-120608723D01*
X124478148Y-120608725D01*
X124339749Y-120666051D01*
X124339740Y-120666056D01*
X124215188Y-120749280D01*
X124215184Y-120749283D01*
X124109262Y-120855205D01*
X124109259Y-120855209D01*
X124026035Y-120979761D01*
X124026030Y-120979770D01*
X123968704Y-121118169D01*
X123968702Y-121118177D01*
X123939479Y-121265092D01*
X122955500Y-121265092D01*
X123060752Y-121093337D01*
X123081252Y-121043847D01*
X123111941Y-120969756D01*
X123152461Y-120871932D01*
X123208406Y-120638907D01*
X123227208Y-120399999D01*
X123208406Y-120161091D01*
X123152461Y-119928066D01*
X123130232Y-119874401D01*
X123060754Y-119706664D01*
X123060752Y-119706661D01*
X122957019Y-119537384D01*
X122935539Y-119502333D01*
X122935539Y-119502331D01*
X122878959Y-119436085D01*
X122779899Y-119320100D01*
X122639842Y-119200480D01*
X122597667Y-119164459D01*
X122597664Y-119164458D01*
X122393338Y-119039246D01*
X122333739Y-119014560D01*
X122279336Y-118970719D01*
X122257271Y-118904425D01*
X122274550Y-118836726D01*
X122325687Y-118789115D01*
X122333719Y-118785446D01*
X122393338Y-118760752D01*
X122597670Y-118635537D01*
X122779899Y-118479899D01*
X122935537Y-118297670D01*
X123060752Y-118093338D01*
X123152461Y-117871933D01*
X123208406Y-117638908D01*
X123227208Y-117400000D01*
X123208406Y-117161092D01*
X123152461Y-116928067D01*
X123138790Y-116895063D01*
X123060754Y-116706665D01*
X123060752Y-116706662D01*
X122935540Y-116502335D01*
X122935539Y-116502332D01*
X122899472Y-116460103D01*
X122779899Y-116320101D01*
X122618250Y-116182040D01*
X122597667Y-116164460D01*
X122597664Y-116164459D01*
X122393337Y-116039247D01*
X122393334Y-116039245D01*
X122171937Y-115947540D01*
X122158171Y-115944235D01*
X121938908Y-115891594D01*
X121938905Y-115891593D01*
X121938902Y-115891593D01*
X121700000Y-115872792D01*
X121461097Y-115891593D01*
X121461093Y-115891593D01*
X121461092Y-115891594D01*
X121416674Y-115902258D01*
X121228062Y-115947540D01*
X121006665Y-116039245D01*
X121006662Y-116039247D01*
X120802335Y-116164459D01*
X120802332Y-116164460D01*
X120620101Y-116320101D01*
X120464460Y-116502332D01*
X120464459Y-116502335D01*
X120339247Y-116706662D01*
X120339245Y-116706665D01*
X120247540Y-116928062D01*
X120191593Y-117161097D01*
X120172792Y-117400000D01*
X120186641Y-117575981D01*
X120172276Y-117644358D01*
X120150704Y-117673390D01*
X120027313Y-117796782D01*
X119965993Y-117830266D01*
X119939634Y-117833100D01*
X117346502Y-117833100D01*
X117279463Y-117813415D01*
X117233708Y-117760611D01*
X117222502Y-117709102D01*
X117222501Y-117635819D01*
X117242185Y-117568779D01*
X117258811Y-117548145D01*
X117589074Y-117217884D01*
X117593973Y-117211141D01*
X117700745Y-117064182D01*
X117778526Y-116911529D01*
X117786997Y-116894904D01*
X117845706Y-116714216D01*
X117863341Y-116602872D01*
X117875426Y-116526574D01*
X117875426Y-111750692D01*
X117895111Y-111683653D01*
X117947915Y-111637898D01*
X118017073Y-111627954D01*
X118080629Y-111656979D01*
G37*
%TD.AperFunction*%
%TA.AperFunction,Conductor*%
G36*
X103241973Y-107071885D02*
G01*
X103262615Y-107088519D01*
X103651739Y-107477642D01*
X103949216Y-107775119D01*
X104037424Y-107863327D01*
X104074882Y-107900785D01*
X104222641Y-107999515D01*
X104222647Y-107999518D01*
X104222648Y-107999519D01*
X104386838Y-108067529D01*
X104518786Y-108093775D01*
X104561136Y-108102199D01*
X104561139Y-108102200D01*
X104561141Y-108102200D01*
X114474934Y-108102200D01*
X114541973Y-108121885D01*
X114562615Y-108138519D01*
X115947057Y-109522961D01*
X115980542Y-109584284D01*
X115975558Y-109653976D01*
X115933686Y-109709909D01*
X115930501Y-109712216D01*
X115873224Y-109752322D01*
X115720747Y-109904799D01*
X115597059Y-110081445D01*
X115597058Y-110081447D01*
X115505926Y-110276880D01*
X115450112Y-110485176D01*
X115450111Y-110485183D01*
X115431318Y-110699997D01*
X115431318Y-110700002D01*
X115450112Y-110914821D01*
X115450112Y-110914822D01*
X115457201Y-110941278D01*
X115461426Y-110973372D01*
X115461426Y-115753500D01*
X115441741Y-115820539D01*
X115388937Y-115866294D01*
X115337426Y-115877500D01*
X114889198Y-115877500D01*
X114889182Y-115877501D01*
X114784759Y-115888169D01*
X114615564Y-115944235D01*
X114615559Y-115944237D01*
X114463851Y-116037812D01*
X114337814Y-116163849D01*
X114244239Y-116315557D01*
X114244237Y-116315562D01*
X114188171Y-116484757D01*
X114188170Y-116484764D01*
X114177502Y-116589181D01*
X114177502Y-116589189D01*
X114177502Y-117211141D01*
X114177503Y-117709100D01*
X114157818Y-117776139D01*
X114105015Y-117821894D01*
X114053503Y-117833100D01*
X98569765Y-117833100D01*
X98502726Y-117813415D01*
X98482084Y-117796781D01*
X98043219Y-117357915D01*
X98009734Y-117296592D01*
X98006900Y-117270234D01*
X98006900Y-108293556D01*
X98006899Y-108293554D01*
X97985566Y-108186308D01*
X97972229Y-108119256D01*
X97909701Y-107968300D01*
X97904220Y-107955068D01*
X97904215Y-107955060D01*
X97857174Y-107884658D01*
X97857174Y-107884657D01*
X97805486Y-107807300D01*
X97805480Y-107807293D01*
X97262067Y-107263881D01*
X97228582Y-107202558D01*
X97233566Y-107132867D01*
X97275437Y-107076933D01*
X97340902Y-107052516D01*
X97349748Y-107052200D01*
X103174934Y-107052200D01*
X103241973Y-107071885D01*
G37*
%TD.AperFunction*%
%TA.AperFunction,Conductor*%
G36*
X159452537Y-105574521D02*
G01*
X159519196Y-105595444D01*
X159563964Y-105649087D01*
X159572624Y-105718418D01*
X159542425Y-105781425D01*
X159537915Y-105786180D01*
X156099217Y-109224877D01*
X156099216Y-109224878D01*
X156000480Y-109372649D01*
X155932471Y-109536837D01*
X155932469Y-109536845D01*
X155897800Y-109711136D01*
X155897800Y-110243166D01*
X155878115Y-110310205D01*
X155825311Y-110355960D01*
X155756153Y-110365904D01*
X155737807Y-110361827D01*
X155708288Y-110352873D01*
X155500000Y-110332359D01*
X155291715Y-110352872D01*
X155091428Y-110413629D01*
X154906846Y-110512291D01*
X154745063Y-110645063D01*
X154612291Y-110806846D01*
X154513627Y-110991431D01*
X154470810Y-111132579D01*
X154439831Y-111184264D01*
X153337680Y-112286415D01*
X153276357Y-112319900D01*
X153206665Y-112314916D01*
X153162318Y-112286415D01*
X151175122Y-110299217D01*
X151175121Y-110299216D01*
X151091235Y-110243166D01*
X151027352Y-110200481D01*
X150863162Y-110132471D01*
X150863154Y-110132469D01*
X150688862Y-110097800D01*
X150688859Y-110097800D01*
X143571586Y-110097800D01*
X143504547Y-110078115D01*
X143458792Y-110025311D01*
X143448848Y-109956153D01*
X143477873Y-109892597D01*
X143480340Y-109889834D01*
X143506604Y-109861305D01*
X143633277Y-109667417D01*
X143726310Y-109455324D01*
X143783165Y-109230810D01*
X143783166Y-109230802D01*
X143802290Y-109000007D01*
X143802290Y-108999994D01*
X143783166Y-108769199D01*
X143783164Y-108769188D01*
X143726310Y-108544677D01*
X143634436Y-108335227D01*
X143633277Y-108332585D01*
X143633273Y-108332579D01*
X143633271Y-108332575D01*
X143627191Y-108323269D01*
X143607003Y-108256380D01*
X143607000Y-108255449D01*
X143607000Y-107901000D01*
X143626685Y-107833961D01*
X143679489Y-107788206D01*
X143731000Y-107777000D01*
X145999526Y-107777000D01*
X146066565Y-107796685D01*
X146078191Y-107805147D01*
X146152261Y-107865935D01*
X146152268Y-107865939D01*
X146328151Y-107959951D01*
X146328154Y-107959951D01*
X146328158Y-107959954D01*
X146519015Y-108017850D01*
X146667759Y-108032500D01*
X147417240Y-108032499D01*
X147565985Y-108017850D01*
X147756842Y-107959954D01*
X147763952Y-107956154D01*
X147894975Y-107886120D01*
X147932737Y-107865936D01*
X147988837Y-107819895D01*
X148053144Y-107792584D01*
X148122012Y-107804375D01*
X148146157Y-107819891D01*
X148202263Y-107865936D01*
X148202267Y-107865938D01*
X148202268Y-107865939D01*
X148378151Y-107959951D01*
X148378154Y-107959951D01*
X148378158Y-107959954D01*
X148569015Y-108017850D01*
X148717759Y-108032500D01*
X149467240Y-108032499D01*
X149615985Y-108017850D01*
X149806842Y-107959954D01*
X149813952Y-107956154D01*
X149944975Y-107886120D01*
X149982737Y-107865936D01*
X150026656Y-107829893D01*
X150056809Y-107805147D01*
X150121119Y-107777834D01*
X150135474Y-107777000D01*
X153249998Y-107777000D01*
X153437640Y-107747280D01*
X153545617Y-107712195D01*
X153572945Y-107706616D01*
X153682330Y-107696891D01*
X153877863Y-107640942D01*
X154058131Y-107546778D01*
X154215753Y-107418253D01*
X154344278Y-107260631D01*
X154438442Y-107080363D01*
X154494391Y-106884830D01*
X154505000Y-106765504D01*
X154505000Y-106174496D01*
X154494391Y-106055170D01*
X154438442Y-105859637D01*
X154344278Y-105679369D01*
X154344276Y-105679366D01*
X154340819Y-105674120D01*
X154343255Y-105672514D01*
X154320990Y-105619751D01*
X154332940Y-105550911D01*
X154380211Y-105499460D01*
X154446483Y-105481702D01*
X159452537Y-105574521D01*
G37*
%TD.AperFunction*%
%TA.AperFunction,Conductor*%
G36*
X126377139Y-106426685D02*
G01*
X126422894Y-106479489D01*
X126433873Y-106523509D01*
X126435526Y-106550827D01*
X126452629Y-106833585D01*
X126452629Y-106833590D01*
X126452630Y-106833591D01*
X126512871Y-107162318D01*
X126512872Y-107162322D01*
X126512873Y-107162326D01*
X126612290Y-107481367D01*
X126612294Y-107481378D01*
X126612295Y-107481381D01*
X126612297Y-107481386D01*
X126749457Y-107786144D01*
X126919561Y-108067530D01*
X126922351Y-108072145D01*
X126922357Y-108072154D01*
X127128462Y-108335227D01*
X127364772Y-108571537D01*
X127617068Y-108769199D01*
X127627853Y-108777648D01*
X127913856Y-108950543D01*
X128218614Y-109087703D01*
X128218624Y-109087706D01*
X128218632Y-109087709D01*
X128362279Y-109132471D01*
X128537682Y-109187129D01*
X128866409Y-109247370D01*
X129200000Y-109267549D01*
X129533591Y-109247370D01*
X129862318Y-109187129D01*
X130181386Y-109087703D01*
X130486144Y-108950543D01*
X130772147Y-108777648D01*
X131035224Y-108571540D01*
X131271540Y-108335224D01*
X131477648Y-108072147D01*
X131650543Y-107786144D01*
X131653259Y-107780108D01*
X131698724Y-107727054D01*
X131765654Y-107707002D01*
X131766335Y-107707000D01*
X141069000Y-107707000D01*
X141136039Y-107726685D01*
X141181794Y-107779489D01*
X141193000Y-107831000D01*
X141193000Y-108255449D01*
X141173315Y-108322488D01*
X141172809Y-108323269D01*
X141166729Y-108332575D01*
X141166720Y-108332590D01*
X141073689Y-108544677D01*
X141016835Y-108769188D01*
X141016833Y-108769199D01*
X140997710Y-108999994D01*
X140997710Y-109000007D01*
X141016833Y-109230802D01*
X141016835Y-109230813D01*
X141073690Y-109455324D01*
X141114226Y-109547738D01*
X141123129Y-109617038D01*
X141093152Y-109680150D01*
X141033812Y-109717037D01*
X140963950Y-109715986D01*
X140960407Y-109714829D01*
X140744244Y-109640620D01*
X140572909Y-109612030D01*
X140515799Y-109602500D01*
X140284199Y-109602500D01*
X140238510Y-109610124D01*
X140055753Y-109640620D01*
X139836710Y-109715818D01*
X139836704Y-109715820D01*
X139633019Y-109826049D01*
X139633014Y-109826053D01*
X139450260Y-109968296D01*
X139450256Y-109968299D01*
X139293392Y-110138698D01*
X139166721Y-110332584D01*
X139073688Y-110544676D01*
X139016833Y-110769192D01*
X139016832Y-110769201D01*
X139016830Y-110769204D01*
X139015575Y-110774162D01*
X139014555Y-110773903D01*
X138986386Y-110832088D01*
X138926774Y-110868532D01*
X138894522Y-110872800D01*
X121018266Y-110872800D01*
X120951227Y-110853115D01*
X120930585Y-110836481D01*
X119156172Y-109062068D01*
X119122687Y-109000745D01*
X119127671Y-108931053D01*
X119156170Y-108886707D01*
X119247680Y-108795198D01*
X119325362Y-108684254D01*
X119339245Y-108667709D01*
X119820648Y-108186308D01*
X119881756Y-108102200D01*
X119932319Y-108032606D01*
X119975749Y-107947370D01*
X120018571Y-107863328D01*
X120077280Y-107682640D01*
X120107000Y-107494998D01*
X120107000Y-106531000D01*
X120126685Y-106463961D01*
X120179489Y-106418206D01*
X120231000Y-106407000D01*
X126310100Y-106407000D01*
X126377139Y-106426685D01*
G37*
%TD.AperFunction*%
%TA.AperFunction,Conductor*%
G36*
X98903131Y-99564078D02*
G01*
X98904255Y-99565376D01*
X98996555Y-99673445D01*
X99119282Y-99778264D01*
X99179384Y-99829596D01*
X99179387Y-99829597D01*
X99384384Y-99955221D01*
X99606514Y-100047230D01*
X99606515Y-100047230D01*
X99606517Y-100047231D01*
X99840308Y-100103359D01*
X100080000Y-100122223D01*
X100319692Y-100103359D01*
X100553483Y-100047231D01*
X100775615Y-99955221D01*
X100980618Y-99829594D01*
X100983992Y-99826711D01*
X101047753Y-99798140D01*
X101064527Y-99797000D01*
X101423200Y-99797000D01*
X101490239Y-99816685D01*
X101535994Y-99869489D01*
X101547193Y-99922278D01*
X101500499Y-104451578D01*
X101480125Y-104518411D01*
X101426852Y-104563619D01*
X101376506Y-104574300D01*
X97326200Y-104574300D01*
X97259161Y-104554615D01*
X97213406Y-104501811D01*
X97202200Y-104450300D01*
X97202200Y-102341138D01*
X97202199Y-102341136D01*
X97167530Y-102166845D01*
X97167529Y-102166838D01*
X97111105Y-102030618D01*
X97099520Y-102002648D01*
X97000785Y-101854881D01*
X97000782Y-101854877D01*
X96553944Y-101408039D01*
X96520459Y-101346716D01*
X96518007Y-101310629D01*
X96519777Y-101288136D01*
X96532223Y-101130000D01*
X96513359Y-100890308D01*
X96457231Y-100656517D01*
X96415593Y-100555993D01*
X96365221Y-100434384D01*
X96239597Y-100229387D01*
X96239596Y-100229384D01*
X96150128Y-100124631D01*
X96083445Y-100046555D01*
X95975415Y-99954288D01*
X95937223Y-99895783D01*
X95936724Y-99825916D01*
X95974078Y-99766869D01*
X95975376Y-99765744D01*
X96083445Y-99673445D01*
X96175711Y-99565415D01*
X96234217Y-99527223D01*
X96304084Y-99526724D01*
X96363131Y-99564078D01*
X96364255Y-99565376D01*
X96456555Y-99673445D01*
X96579282Y-99778264D01*
X96639384Y-99829596D01*
X96639387Y-99829597D01*
X96844384Y-99955221D01*
X97066514Y-100047230D01*
X97066515Y-100047230D01*
X97066517Y-100047231D01*
X97300308Y-100103359D01*
X97540000Y-100122223D01*
X97779692Y-100103359D01*
X98013483Y-100047231D01*
X98235615Y-99955221D01*
X98440618Y-99829594D01*
X98623445Y-99673445D01*
X98715711Y-99565415D01*
X98774217Y-99527223D01*
X98844084Y-99526724D01*
X98903131Y-99564078D01*
G37*
%TD.AperFunction*%
%TD*%
M02*
