%TF.GenerationSoftware,KiCad,Pcbnew,8.0.4*%
%TF.CreationDate,2025-01-10T13:04:31-08:00*%
%TF.ProjectId,X17_Backplane,5831375f-4261-4636-9b70-6c616e652e6b,rev?*%
%TF.SameCoordinates,Original*%
%TF.FileFunction,Copper,L2,Bot*%
%TF.FilePolarity,Positive*%
%FSLAX46Y46*%
G04 Gerber Fmt 4.6, Leading zero omitted, Abs format (unit mm)*
G04 Created by KiCad (PCBNEW 8.0.4) date 2025-01-10 13:04:31*
%MOMM*%
%LPD*%
G01*
G04 APERTURE LIST*
%TA.AperFunction,SMDPad,CuDef*%
%ADD10R,3.150000X1.960000*%
%TD*%
%TA.AperFunction,ComponentPad*%
%ADD11R,1.700000X1.700000*%
%TD*%
%TA.AperFunction,ComponentPad*%
%ADD12O,1.700000X1.700000*%
%TD*%
%TA.AperFunction,ComponentPad*%
%ADD13R,1.530000X1.530000*%
%TD*%
%TA.AperFunction,ComponentPad*%
%ADD14C,1.530000*%
%TD*%
%TA.AperFunction,ComponentPad*%
%ADD15C,2.032000*%
%TD*%
%TA.AperFunction,ComponentPad*%
%ADD16R,1.520000X1.520000*%
%TD*%
%TA.AperFunction,ComponentPad*%
%ADD17C,1.520000*%
%TD*%
%TA.AperFunction,ComponentPad*%
%ADD18C,1.650000*%
%TD*%
%TA.AperFunction,ComponentPad*%
%ADD19R,1.650000X1.650000*%
%TD*%
%TA.AperFunction,ComponentPad*%
%ADD20C,1.270000*%
%TD*%
%TA.AperFunction,ComponentPad*%
%ADD21C,1.390000*%
%TD*%
%TA.AperFunction,ComponentPad*%
%ADD22R,1.390000X1.390000*%
%TD*%
%TA.AperFunction,ViaPad*%
%ADD23C,0.600000*%
%TD*%
%TA.AperFunction,ViaPad*%
%ADD24C,0.939800*%
%TD*%
%TA.AperFunction,Conductor*%
%ADD25C,0.889000*%
%TD*%
%TA.AperFunction,Conductor*%
%ADD26C,0.279400*%
%TD*%
%TA.AperFunction,Conductor*%
%ADD27C,1.270000*%
%TD*%
G04 APERTURE END LIST*
D10*
%TO.P,F1,1*%
%TO.N,48V*%
X109300000Y-129190000D03*
%TO.P,F1,2*%
%TO.N,Net-(F1-Pad2)*%
X109300000Y-134100000D03*
%TD*%
D11*
%TO.P,J11,1,Pin_1*%
%TO.N,A_TB+*%
X147200000Y-145575000D03*
D12*
%TO.P,J11,2,Pin_2*%
%TO.N,A_TB-*%
X147200000Y-143035000D03*
%TD*%
D13*
%TO.P,J14,01,01*%
%TO.N,Aout-*%
X95000000Y-103670000D03*
D14*
%TO.P,J14,02,02*%
%TO.N,Aout+*%
X95000000Y-101130000D03*
%TO.P,J14,03,03*%
%TO.N,NRST_PSB*%
X95000000Y-98590000D03*
%TO.P,J14,04,04*%
%TO.N,unconnected-(J14-Pad04)*%
X95000000Y-96050000D03*
%TO.P,J14,05,05*%
%TO.N,unconnected-(J14-Pad05)*%
X95000000Y-93510000D03*
%TO.P,J14,06,06*%
%TO.N,unconnected-(J14-Pad06)*%
X95000000Y-90970000D03*
%TO.P,J14,07,07*%
%TO.N,unconnected-(J14-Pad07)*%
X95000000Y-88430000D03*
%TO.P,J14,08,08*%
%TO.N,unconnected-(J14-Pad08)*%
X95000000Y-85890000D03*
%TO.P,J14,09,09*%
%TO.N,5V_GND*%
X97540000Y-103670000D03*
%TO.P,J14,10,10*%
X97540000Y-101130000D03*
%TO.P,J14,11,11*%
%TO.N,5V*%
X97540000Y-98590000D03*
%TO.P,J14,12,12*%
X97540000Y-96050000D03*
%TO.P,J14,13,13*%
%TO.N,48V*%
X97540000Y-93510000D03*
%TO.P,J14,14,14*%
X97540000Y-90970000D03*
%TO.P,J14,15,15*%
%TO.N,48V_GND*%
X97540000Y-88430000D03*
%TO.P,J14,16,16*%
X97540000Y-85890000D03*
%TO.P,J14,17,17*%
%TO.N,5V_GND*%
X100080000Y-103670000D03*
%TO.P,J14,18,18*%
X100080000Y-101130000D03*
%TO.P,J14,19,19*%
%TO.N,5V*%
X100080000Y-98590000D03*
%TO.P,J14,20,20*%
X100080000Y-96050000D03*
%TO.P,J14,21,21*%
%TO.N,48V*%
X100080000Y-93510000D03*
%TO.P,J14,22,22*%
X100080000Y-90970000D03*
%TO.P,J14,23,23*%
%TO.N,48V_GND*%
X100080000Y-88430000D03*
%TO.P,J14,24,24*%
X100080000Y-85890000D03*
%TO.P,J14,P01_1,P01*%
%TO.N,5V_GND*%
X106000000Y-125340000D03*
X103500000Y-125340000D03*
X101000000Y-125340000D03*
X98500000Y-125340000D03*
X96000000Y-125340000D03*
X106000000Y-128340000D03*
X103500000Y-128340000D03*
X101000000Y-128340000D03*
X98500000Y-128340000D03*
X96000000Y-128340000D03*
%TO.P,J14,P02_1,P02*%
X106000000Y-119840000D03*
X103500000Y-119840000D03*
X101000000Y-119840000D03*
X98500000Y-119840000D03*
X96000000Y-119840000D03*
X106000000Y-122840000D03*
X103500000Y-122840000D03*
X101000000Y-122840000D03*
X98500000Y-122840000D03*
X96000000Y-122840000D03*
%TO.P,J14,P03_1,P03*%
X106000000Y-114340000D03*
X103500000Y-114340000D03*
X101000000Y-114340000D03*
X98500000Y-114340000D03*
X96000000Y-114340000D03*
X106000000Y-117340000D03*
X103500000Y-117340000D03*
X101000000Y-117340000D03*
X98500000Y-117340000D03*
X96000000Y-117340000D03*
%TO.P,J14,P04_1,P04*%
X106000000Y-108840000D03*
X103500000Y-108840000D03*
X101000000Y-108840000D03*
X98500000Y-108840000D03*
X96000000Y-108840000D03*
X106000000Y-111840000D03*
X103500000Y-111840000D03*
X101000000Y-111840000D03*
X98500000Y-111840000D03*
X96000000Y-111840000D03*
%TO.P,J14,P05_1,P05*%
%TO.N,12V*%
X106000000Y-78080000D03*
X103500000Y-78080000D03*
X101000000Y-78080000D03*
X98500000Y-78080000D03*
X96000000Y-78080000D03*
X106000000Y-81080000D03*
X103500000Y-81080000D03*
X101000000Y-81080000D03*
X98500000Y-81080000D03*
X96000000Y-81080000D03*
%TO.P,J14,P06_1,P06*%
X106000000Y-72580000D03*
X103500000Y-72580000D03*
X101000000Y-72580000D03*
X98500000Y-72580000D03*
X96000000Y-72580000D03*
X106000000Y-75580000D03*
X103500000Y-75580000D03*
X101000000Y-75580000D03*
X98500000Y-75580000D03*
X96000000Y-75580000D03*
%TO.P,J14,P07_1,P07*%
%TO.N,12V_GND*%
X106000000Y-67080000D03*
X103500000Y-67080000D03*
X101000000Y-67080000D03*
X98500000Y-67080000D03*
X96000000Y-67080000D03*
X106000000Y-70080000D03*
X103500000Y-70080000D03*
X101000000Y-70080000D03*
X98500000Y-70080000D03*
X96000000Y-70080000D03*
%TO.P,J14,P08_1,P08*%
X106000000Y-61580000D03*
X103500000Y-61580000D03*
X101000000Y-61580000D03*
X98500000Y-61580000D03*
X96000000Y-61580000D03*
X106000000Y-64580000D03*
X103500000Y-64580000D03*
X101000000Y-64580000D03*
X98500000Y-64580000D03*
X96000000Y-64580000D03*
%TD*%
D15*
%TO.P,U4,1,1*%
%TO.N,PWMC0_OUT*%
X114970000Y-47550000D03*
%TO.P,U4,2,2*%
%TO.N,12V_GND*%
X120050000Y-47550000D03*
%TO.P,U4,3,3*%
%TO.N,12V*%
X125130000Y-47550000D03*
%TD*%
D16*
%TO.P,J8,1,1*%
%TO.N,5V*%
X115700002Y-117400000D03*
D17*
%TO.P,J8,2,2*%
%TO.N,5V_GND*%
X118700001Y-117400000D03*
%TO.P,J8,3,3*%
%TO.N,NRST_PSB*%
X121700000Y-117400000D03*
%TO.P,J8,4,4*%
%TO.N,NRST_ESCC*%
X115700002Y-120399999D03*
%TO.P,J8,5,5*%
%TO.N,NRST_TB*%
X118700001Y-120399999D03*
%TO.P,J8,6,6*%
%TO.N,5V_GNDTB*%
X121700000Y-120399999D03*
%TD*%
D11*
%TO.P,J6,1,Pin_1*%
%TO.N,A+*%
X156625000Y-132000000D03*
D12*
%TO.P,J6,2,Pin_2*%
%TO.N,A-*%
X159165000Y-132000000D03*
%TD*%
D11*
%TO.P,J5,1,Pin_1*%
%TO.N,PWMC0_OUT*%
X108450000Y-47100000D03*
%TD*%
D16*
%TO.P,J18,1,1*%
%TO.N,A-*%
X159415000Y-138760352D03*
D17*
%TO.P,J18,2,2*%
%TO.N,A+*%
X156415001Y-138760352D03*
%TD*%
D18*
%TO.P,U3,8,8*%
%TO.N,SOL1_1*%
X153900000Y-44100000D03*
%TO.P,U3,7,7*%
%TO.N,SOL2_1*%
X156400000Y-44100000D03*
%TO.P,U3,6,6*%
%TO.N,SOL3_1*%
X158900000Y-44100000D03*
%TO.P,U3,5,5*%
%TO.N,SOL4_1*%
X161400000Y-44100000D03*
%TO.P,U3,4,4*%
%TO.N,SOL5_1*%
X163900000Y-44100000D03*
%TO.P,U3,3,3*%
%TO.N,SOL6_1*%
X166400000Y-44100000D03*
%TO.P,U3,2,2*%
%TO.N,SOL7_1*%
X168900000Y-44100000D03*
D19*
%TO.P,U3,1,1*%
%TO.N,12V_GND*%
X171400000Y-44100000D03*
%TD*%
D12*
%TO.P,J4,7,Pin_7*%
%TO.N,GPIO1*%
X147675000Y-43175001D03*
%TO.P,J4,6,Pin_6*%
%TO.N,GPIO2*%
X145135000Y-43175001D03*
%TO.P,J4,5,Pin_5*%
%TO.N,GPIO3*%
X142595000Y-43175001D03*
%TO.P,J4,4,Pin_4*%
%TO.N,GPIO4*%
X140055000Y-43175001D03*
%TO.P,J4,3,Pin_3*%
%TO.N,GPIO5*%
X137515000Y-43175001D03*
%TO.P,J4,2,Pin_2*%
%TO.N,GPIO6*%
X134975000Y-43175001D03*
D11*
%TO.P,J4,1,Pin_1*%
%TO.N,GPIO7*%
X132435000Y-43175001D03*
%TD*%
D15*
%TO.P,U1,1,1*%
%TO.N,NRST_TB*%
X103933400Y-143500000D03*
%TO.P,U1,2,2*%
%TO.N,A_TB+*%
X109013400Y-143500000D03*
%TO.P,U1,3,3*%
%TO.N,A_TB-*%
X114093400Y-143500000D03*
%TO.P,U1,4,4*%
%TO.N,48V_GND*%
X119173400Y-143500000D03*
%TO.P,U1,5,5*%
%TO.N,Net-(F1-Pad2)*%
X124253400Y-143500000D03*
%TO.P,U1,6,6*%
%TO.N,5V_GNDTB*%
X129333400Y-143500000D03*
%TD*%
D20*
%TO.P,J19,1,1*%
%TO.N,5V*%
X142400000Y-109000001D03*
%TO.P,J19,2,2*%
%TO.N,5V_GND*%
X140399999Y-109000001D03*
%TO.P,J19,3,3*%
%TO.N,PWMA1*%
X142400000Y-111000000D03*
%TO.P,J19,4,4*%
%TO.N,Aout+*%
X140399999Y-111000000D03*
%TO.P,J19,5,5*%
%TO.N,PWMA0*%
X142400000Y-113000001D03*
%TO.P,J19,6,6*%
%TO.N,Aout-*%
X140399999Y-113000001D03*
%TO.P,J19,7,7*%
%TO.N,PWMA2*%
X142400000Y-115000002D03*
%TO.P,J19,8,8*%
%TO.N,PWMA3*%
X140399999Y-115000002D03*
%TO.P,J19,9,9*%
%TO.N,PWMB0*%
X142400000Y-117000000D03*
%TO.P,J19,10,10*%
%TO.N,PWMB1*%
X140399999Y-117000000D03*
%TO.P,J19,11,11*%
%TO.N,PWMB2*%
X169870901Y-109000001D03*
%TO.P,J19,12,12*%
%TO.N,PWMB3*%
X167870900Y-109000001D03*
%TO.P,J19,13,13*%
%TO.N,PWMC0*%
X169870901Y-111000000D03*
%TO.P,J19,14,14*%
%TO.N,PWMC1*%
X167870900Y-111000000D03*
%TO.P,J19,15,15*%
%TO.N,Telemetry*%
X169870901Y-113000001D03*
%TO.P,J19,16,16*%
%TO.N,NRST_ESCC*%
X167870900Y-113000001D03*
%TO.P,J19,17,17*%
%TO.N,A+*%
X169870901Y-115000002D03*
%TO.P,J19,18,18*%
%TO.N,A-*%
X167870900Y-115000002D03*
%TO.P,J19,19,19*%
%TO.N,unconnected-(J19-Pad19)*%
X169870901Y-117000000D03*
%TO.P,J19,20,20*%
%TO.N,unconnected-(J19-Pad20)*%
X167870900Y-117000000D03*
%TD*%
D21*
%TO.P,J3,01,01*%
%TO.N,12V*%
X179425000Y-89320000D03*
X176885000Y-89320000D03*
X179425000Y-91860000D03*
X176885000Y-91860000D03*
X179425000Y-94400000D03*
X176885000Y-94400000D03*
X179425000Y-96940000D03*
X176885000Y-96940000D03*
X179425000Y-99480000D03*
D22*
X176885000Y-99480000D03*
D21*
%TO.P,J3,02,02*%
%TO.N,5V_GND*%
X179450000Y-129980000D03*
X179450000Y-132520000D03*
D22*
X176910000Y-132520000D03*
%TO.P,J3,03,03*%
%TO.N,12V_GND*%
X179200000Y-56320000D03*
D21*
X176660000Y-56320000D03*
X179200000Y-58860000D03*
X176660000Y-58860000D03*
X179200000Y-61400000D03*
X176660000Y-61400000D03*
X179200000Y-63940000D03*
X176660000Y-63940000D03*
X179200000Y-66480000D03*
X176660000Y-66480000D03*
%TO.P,J3,04,04*%
%TO.N,PWMB0*%
X176910000Y-129980000D03*
%TO.P,J3,05,05*%
%TO.N,Telemetry*%
X179450000Y-127440000D03*
%TO.P,J3,06,06*%
%TO.N,PWMB1*%
X176910000Y-127440000D03*
%TO.P,J3,07,07*%
%TO.N,unconnected-(J3-Pad07)*%
X179450000Y-124900000D03*
%TO.P,J3,08,08*%
%TO.N,PWMB2*%
X176910000Y-124900000D03*
%TO.P,J3,09,09*%
%TO.N,unconnected-(J3-Pad09)*%
X179450000Y-122360000D03*
%TO.P,J3,10,10*%
%TO.N,PWMB3*%
X176910000Y-122360000D03*
%TD*%
%TO.P,J2,01,01*%
%TO.N,12V*%
X131425000Y-89320000D03*
X128885000Y-89320000D03*
X131425000Y-91860000D03*
X128885000Y-91860000D03*
X131425000Y-94400000D03*
X128885000Y-94400000D03*
X131425000Y-96940000D03*
X128885000Y-96940000D03*
X131425000Y-99480000D03*
D22*
X128885000Y-99480000D03*
D21*
%TO.P,J2,02,02*%
%TO.N,5V_GND*%
X131450000Y-129980000D03*
X131450000Y-132520000D03*
D22*
X128910000Y-132520000D03*
%TO.P,J2,03,03*%
%TO.N,12V_GND*%
X131200000Y-56320000D03*
D21*
X128660000Y-56320000D03*
X131200000Y-58860000D03*
X128660000Y-58860000D03*
X131200000Y-61400000D03*
X128660000Y-61400000D03*
X131200000Y-63940000D03*
X128660000Y-63940000D03*
X131200000Y-66480000D03*
X128660000Y-66480000D03*
%TO.P,J2,04,04*%
%TO.N,PWMA0*%
X128910000Y-129980000D03*
%TO.P,J2,05,05*%
%TO.N,Telemetry*%
X131450000Y-127440000D03*
%TO.P,J2,06,06*%
%TO.N,PWMA1*%
X128910000Y-127440000D03*
%TO.P,J2,07,07*%
%TO.N,unconnected-(J2-Pad07)*%
X131450000Y-124900000D03*
%TO.P,J2,08,08*%
%TO.N,PWMA2*%
X128910000Y-124900000D03*
%TO.P,J2,09,09*%
%TO.N,unconnected-(J2-Pad09)*%
X131450000Y-122360000D03*
%TO.P,J2,10,10*%
%TO.N,PWMA3*%
X128910000Y-122360000D03*
%TD*%
D16*
%TO.P,J1,1,1*%
%TO.N,A_TB-*%
X138200000Y-142500000D03*
D17*
%TO.P,J1,2,2*%
%TO.N,A_TB+*%
X138200000Y-145499999D03*
%TD*%
D11*
%TO.P,J10,1,Pin_1*%
%TO.N,PWMC0*%
X179000000Y-110000000D03*
%TD*%
D23*
%TO.N,5V_GND*%
X112400000Y-136000000D03*
X137900000Y-149400000D03*
X136100000Y-138800000D03*
X135600000Y-140900000D03*
X117300000Y-139900000D03*
X115100000Y-138500000D03*
X130300000Y-140200000D03*
D24*
%TO.N,12V_GND*%
X106000000Y-51400000D03*
X106000000Y-48400000D03*
D23*
%TO.N,5V_GND*%
X115000000Y-131200000D03*
X115200000Y-128600000D03*
X115100000Y-126400000D03*
X119200000Y-114700000D03*
X113500000Y-115400000D03*
X114600000Y-114100000D03*
X113600000Y-112400000D03*
X114300000Y-110500000D03*
X113500000Y-108700000D03*
D24*
%TO.N,5V*%
X116668426Y-109631574D03*
X118300000Y-108000000D03*
D23*
%TO.N,5V_GND*%
X113100000Y-117200000D03*
X114200000Y-124200000D03*
X113400000Y-122800000D03*
%TO.N,12V_GND*%
X135106400Y-60806000D03*
X124968000Y-55194200D03*
X120015000Y-55245000D03*
X150012400Y-69697600D03*
X148010000Y-60470000D03*
X110007400Y-55270400D03*
X126873000Y-69977000D03*
X160100000Y-61010800D03*
X115075400Y-66580200D03*
X120065800Y-62738000D03*
X155050000Y-70150000D03*
X135106400Y-69698400D03*
X173507400Y-61036200D03*
X110058200Y-66598800D03*
X120015000Y-59080400D03*
X155100000Y-61010800D03*
X165000000Y-69950000D03*
X125018800Y-66522600D03*
X165100000Y-61010800D03*
X140106400Y-69748400D03*
X160000000Y-70000000D03*
X135100000Y-65000000D03*
X140106400Y-60706000D03*
X154950000Y-65000000D03*
X150050000Y-65050000D03*
X115024600Y-59087200D03*
X139950000Y-64950000D03*
X120065800Y-66573400D03*
X165050000Y-64950000D03*
X170050000Y-64950000D03*
X110007400Y-59105800D03*
X125018800Y-62687200D03*
X110058200Y-62763400D03*
X115075400Y-62744800D03*
X170053000Y-61061600D03*
X124968000Y-59029600D03*
X160000000Y-65000000D03*
X144962400Y-69597600D03*
X115024600Y-55251800D03*
X145000000Y-64950000D03*
X173510400Y-57147800D03*
X173532800Y-64871600D03*
%TO.N,12V*%
X145415000Y-91973400D03*
X154520400Y-91999600D03*
X164469600Y-96672400D03*
X115392200Y-80416400D03*
X110668600Y-80387200D03*
X120370600Y-76530200D03*
X149369600Y-96622400D03*
X120345200Y-80467200D03*
X145389600Y-96672400D03*
X169519600Y-96672400D03*
X159519600Y-96672400D03*
X169545000Y-100533200D03*
X119888000Y-96596200D03*
X110794800Y-72817200D03*
X124434600Y-92125800D03*
X173177200Y-96672400D03*
X140415000Y-91923400D03*
X154469600Y-96622400D03*
X124434600Y-96621600D03*
X117245600Y-84357200D03*
X164520400Y-92049600D03*
X117246400Y-89331800D03*
X149420400Y-91999600D03*
X173202600Y-100533200D03*
X120421400Y-72847200D03*
X140389600Y-96622400D03*
X110744000Y-76500200D03*
X117297200Y-94234000D03*
X135365000Y-91973400D03*
X169570400Y-92049600D03*
X115467600Y-76529400D03*
X173228000Y-92049600D03*
X121564400Y-93319600D03*
X121792200Y-84382600D03*
X159570400Y-92049600D03*
X115518400Y-72846400D03*
X135339600Y-96672400D03*
X121793000Y-89357200D03*
%TO.N,PWMA2*%
X124800000Y-131000000D03*
X124800000Y-126000000D03*
%TO.N,Telemetry*%
X154700000Y-117300000D03*
X150560300Y-117600000D03*
%TO.N,PWMB0*%
X143000000Y-126900000D03*
X143000000Y-122000000D03*
%TO.N,PWMB1*%
X155100000Y-121700000D03*
X148200000Y-121400000D03*
%TO.N,5V_GND*%
X140600000Y-131700000D03*
X140500000Y-137800000D03*
X129700000Y-147000000D03*
X106600000Y-140300000D03*
X129200000Y-117500000D03*
X132400000Y-117600000D03*
X174300000Y-135400000D03*
X126200000Y-139600000D03*
X110600000Y-146100000D03*
X120700000Y-108600000D03*
X138600000Y-134300000D03*
X180300000Y-118100000D03*
X126200000Y-120700000D03*
X122400000Y-107400000D03*
X171200000Y-140500000D03*
X125700000Y-114300000D03*
X138700000Y-131700000D03*
X122300000Y-109900000D03*
X169000000Y-143300000D03*
X129200000Y-114300000D03*
X124800000Y-107400000D03*
X178700000Y-143900000D03*
D24*
X173600000Y-139200000D03*
D23*
X172400000Y-143900000D03*
X146200000Y-148700000D03*
X132400000Y-114300000D03*
X148700000Y-148700000D03*
X132500000Y-142600000D03*
X146600000Y-109000000D03*
X105200000Y-147200000D03*
X121000000Y-140400000D03*
X138500000Y-137700000D03*
X167800000Y-149200000D03*
X167100000Y-145100000D03*
X172900000Y-147900000D03*
X137100000Y-109500000D03*
X140700000Y-128600000D03*
X118300000Y-113000000D03*
X180300000Y-115600000D03*
X153400000Y-110000000D03*
D24*
X157167500Y-107270000D03*
D23*
X124800000Y-109800000D03*
X173500000Y-107400000D03*
X162700000Y-149200000D03*
X125700000Y-146800000D03*
X135900000Y-114200000D03*
X101100000Y-147300000D03*
X125600000Y-117700000D03*
X174300000Y-133000000D03*
X132600000Y-139500000D03*
X122100000Y-114200000D03*
X134700000Y-109300000D03*
X150900000Y-109200000D03*
X140500000Y-134200000D03*
%TO.N,NRST_ESCC*%
X115700000Y-133800000D03*
X124900000Y-137200000D03*
X155500000Y-111400000D03*
X161950000Y-111350000D03*
%TD*%
D25*
%TO.N,Net-(F1-Pad2)*%
X117500000Y-146600000D02*
X121153400Y-146600000D01*
X121153400Y-146600000D02*
X124253400Y-143500000D01*
X115300000Y-140500000D02*
X116500000Y-141700000D01*
X110300000Y-140500000D02*
X115300000Y-140500000D01*
X116500000Y-141700000D02*
X116500000Y-145600000D01*
X109300000Y-139500000D02*
X110300000Y-140500000D01*
X116500000Y-145600000D02*
X117500000Y-146600000D01*
X109300000Y-134100000D02*
X109300000Y-139500000D01*
%TO.N,48V*%
X109300000Y-121400000D02*
X109300000Y-129190000D01*
X108000000Y-120100000D02*
X109300000Y-121400000D01*
X108000000Y-105100000D02*
X108000000Y-120100000D01*
X102900000Y-100000000D02*
X108000000Y-105100000D01*
X102900000Y-96330000D02*
X102900000Y-100000000D01*
X100080000Y-93510000D02*
X102900000Y-96330000D01*
X109300000Y-129190000D02*
X108700000Y-129190000D01*
%TO.N,48V_GND*%
X119173400Y-139237675D02*
X119173400Y-143500000D01*
X112960000Y-133024275D02*
X119173400Y-139237675D01*
X112960000Y-125660000D02*
X112960000Y-133024275D01*
%TO.N,12V_GND*%
X106000000Y-51400000D02*
X106000000Y-48400000D01*
%TO.N,5V*%
X118300000Y-108000000D02*
X116668426Y-109631574D01*
%TO.N,48V_GND*%
X111300000Y-124000000D02*
X112960000Y-125660000D01*
X111300000Y-119900000D02*
X111300000Y-124000000D01*
X111400000Y-104600000D02*
X111400000Y-119800000D01*
X111400000Y-119800000D02*
X111300000Y-119900000D01*
X105700000Y-90000000D02*
X105700000Y-98900000D01*
X101590000Y-85890000D02*
X105700000Y-90000000D01*
X105700000Y-98900000D02*
X111400000Y-104600000D01*
X100080000Y-85890000D02*
X101590000Y-85890000D01*
D26*
%TO.N,NRST_ESCC*%
X115700000Y-133800000D02*
X119100000Y-137200000D01*
X119100000Y-137200000D02*
X124900000Y-137200000D01*
D25*
%TO.N,12V_GND*%
X98500000Y-61580000D02*
X98500000Y-64580000D01*
X96000000Y-64580000D02*
X96000000Y-70080000D01*
X176660000Y-63940000D02*
X179200000Y-63940000D01*
X128660000Y-56320000D02*
X128660000Y-66480000D01*
X96000000Y-61580000D02*
X96000000Y-64580000D01*
X179200000Y-66480000D02*
X179200000Y-56320000D01*
X131200000Y-66480000D02*
X131200000Y-56320000D01*
X176660000Y-56320000D02*
X176660000Y-66480000D01*
X98500000Y-64580000D02*
X98500000Y-70080000D01*
X96000000Y-61580000D02*
X106000000Y-61580000D01*
X128660000Y-61400000D02*
X131200000Y-61400000D01*
X101000000Y-61580000D02*
X101000000Y-64580000D01*
X128660000Y-63940000D02*
X131200000Y-63940000D01*
X106000000Y-64580000D02*
X106000000Y-67080000D01*
X101000000Y-64580000D02*
X101000000Y-70080000D01*
X179200000Y-66480000D02*
X176660000Y-66480000D01*
X128660000Y-66480000D02*
X131200000Y-66480000D01*
X103500000Y-64580000D02*
X103500000Y-70080000D01*
X106000000Y-64580000D02*
X106000000Y-61580000D01*
X179200000Y-61400000D02*
X176660000Y-61400000D01*
X96000000Y-67080000D02*
X106000000Y-67080000D01*
X103500000Y-61580000D02*
X103500000Y-64580000D01*
X179200000Y-56320000D02*
X176660000Y-56320000D01*
X106000000Y-70080000D02*
X106000000Y-67080000D01*
X128660000Y-56320000D02*
X131200000Y-56320000D01*
X128660000Y-58860000D02*
X131200000Y-58860000D01*
X96000000Y-70080000D02*
X106000000Y-70080000D01*
X176660000Y-58860000D02*
X179200000Y-58860000D01*
X96000000Y-64580000D02*
X106000000Y-64580000D01*
%TO.N,12V*%
X96000000Y-78080000D02*
X96000000Y-81080000D01*
X176885000Y-96940000D02*
X179425000Y-96940000D01*
X128885000Y-89320000D02*
X128885000Y-99480000D01*
X96000000Y-75580000D02*
X106000000Y-75580000D01*
X128885000Y-94400000D02*
X131425000Y-94400000D01*
X103500000Y-78080000D02*
X103500000Y-81080000D01*
X101000000Y-78080000D02*
X101000000Y-81080000D01*
X176885000Y-94400000D02*
X179425000Y-94400000D01*
X96000000Y-72580000D02*
X96000000Y-81080000D01*
X101000000Y-81080000D02*
X101000000Y-72580000D01*
X103500000Y-72580000D02*
X103500000Y-81080000D01*
X106000000Y-78080000D02*
X106000000Y-81080000D01*
X96000000Y-81080000D02*
X106000000Y-81080000D01*
X128885000Y-96940000D02*
X131425000Y-96940000D01*
X176885000Y-89320000D02*
X179425000Y-89320000D01*
X176885000Y-89320000D02*
X176885000Y-99480000D01*
X176885000Y-91860000D02*
X179425000Y-91860000D01*
X98500000Y-72580000D02*
X98500000Y-81080000D01*
X96000000Y-72580000D02*
X106000000Y-72580000D01*
X96000000Y-78080000D02*
X106000000Y-78080000D01*
X128885000Y-89320000D02*
X131425000Y-89320000D01*
X176885000Y-99480000D02*
X179425000Y-99480000D01*
X179425000Y-89320000D02*
X179425000Y-99480000D01*
X131425000Y-89320000D02*
X131425000Y-99480000D01*
X128885000Y-91860000D02*
X131425000Y-91860000D01*
X128885000Y-99480000D02*
X131425000Y-99480000D01*
X106000000Y-72580000D02*
X106000000Y-81080000D01*
X98500000Y-78080000D02*
X98500000Y-81080000D01*
D27*
%TO.N,5V*%
X97540000Y-98590000D02*
X97540000Y-96050000D01*
X100080000Y-96050000D02*
X97540000Y-96050000D01*
X100080000Y-96050000D02*
X100080000Y-98590000D01*
X97540000Y-98590000D02*
X100080000Y-98590000D01*
D26*
%TO.N,PWMA2*%
X124800000Y-131000000D02*
X124800000Y-126000000D01*
%TO.N,Telemetry*%
X150560300Y-117600000D02*
X150860300Y-117300000D01*
X150860300Y-117300000D02*
X154700000Y-117300000D01*
%TO.N,PWMB0*%
X143000000Y-126900000D02*
X143000000Y-122000000D01*
%TO.N,PWMB1*%
X154800000Y-121400000D02*
X155100000Y-121700000D01*
X148200000Y-121400000D02*
X154800000Y-121400000D01*
D27*
%TO.N,48V_GND*%
X97540000Y-88430000D02*
X100080000Y-88430000D01*
X97540000Y-88430000D02*
X97540000Y-85890000D01*
X100080000Y-88430000D02*
X100080000Y-85890000D01*
D26*
%TO.N,NRST_ESCC*%
X161900000Y-111400000D02*
X155500000Y-111400000D01*
X161950000Y-111350000D02*
X161900000Y-111400000D01*
%TD*%
%TA.AperFunction,Conductor*%
%TO.N,12V_GND*%
G36*
X124548803Y-52719685D02*
G01*
X124594558Y-52772489D01*
X124605624Y-52818102D01*
X124649999Y-53749999D01*
X124650000Y-53750000D01*
X134896124Y-53799402D01*
X134963066Y-53819410D01*
X135008565Y-53872434D01*
X135019523Y-53923878D01*
X134999999Y-59000000D01*
X135000000Y-58999999D01*
X135000000Y-59000000D01*
X143129700Y-58955084D01*
X143120000Y-60090000D01*
X168860000Y-60080000D01*
X168850023Y-58812983D01*
X171200000Y-58800000D01*
X171200000Y-53524000D01*
X171219685Y-53456961D01*
X171272489Y-53411206D01*
X171324000Y-53400000D01*
X181275500Y-53400000D01*
X181342539Y-53419685D01*
X181388294Y-53472489D01*
X181399500Y-53524000D01*
X181399500Y-71276000D01*
X181379815Y-71343039D01*
X181327011Y-71388794D01*
X181275500Y-71400000D01*
X174000256Y-71400000D01*
X173999614Y-71399998D01*
X135400065Y-71200000D01*
X135400000Y-71200000D01*
X135200000Y-71200000D01*
X125926960Y-71200000D01*
X125859921Y-71180315D01*
X125814166Y-71127511D01*
X125804378Y-71094699D01*
X125787323Y-70982893D01*
X125776117Y-70931382D01*
X125726707Y-70756668D01*
X125691107Y-70630787D01*
X125691105Y-70630783D01*
X125566668Y-70336329D01*
X125547614Y-70303471D01*
X125406308Y-70059795D01*
X125212553Y-69805539D01*
X125166798Y-69752735D01*
X125048127Y-69624907D01*
X124843958Y-69443866D01*
X124808954Y-69412827D01*
X124808952Y-69412825D01*
X124808948Y-69412822D01*
X124545073Y-69232386D01*
X124260668Y-69086446D01*
X124260657Y-69086441D01*
X123960219Y-68977304D01*
X123926688Y-68967458D01*
X123893169Y-68957616D01*
X123883478Y-68954950D01*
X123809048Y-68934474D01*
X123809045Y-68934473D01*
X123809040Y-68934472D01*
X123555342Y-68886076D01*
X123495027Y-68874570D01*
X123495030Y-68874570D01*
X123176011Y-68854500D01*
X123176000Y-68854500D01*
X109116033Y-68854500D01*
X109116026Y-68854500D01*
X109034576Y-68855803D01*
X108716341Y-68886075D01*
X108404417Y-68955992D01*
X108337846Y-68975375D01*
X108177574Y-69027860D01*
X107884719Y-69155992D01*
X107884708Y-69155998D01*
X107610226Y-69319821D01*
X107378277Y-69501238D01*
X107313344Y-69527034D01*
X107249817Y-69516104D01*
X107225299Y-69504761D01*
X107225294Y-69504759D01*
X107225289Y-69504757D01*
X107036404Y-69441114D01*
X106885613Y-69390306D01*
X106535555Y-69313253D01*
X106179220Y-69274500D01*
X106179219Y-69274500D01*
X105820781Y-69274500D01*
X105820779Y-69274500D01*
X105464444Y-69313253D01*
X105114383Y-69390307D01*
X104789593Y-69499742D01*
X104719778Y-69502494D01*
X104710407Y-69499742D01*
X104385616Y-69390307D01*
X104035555Y-69313253D01*
X103679220Y-69274500D01*
X103679219Y-69274500D01*
X103320781Y-69274500D01*
X103320779Y-69274500D01*
X102964444Y-69313253D01*
X102614383Y-69390307D01*
X102289593Y-69499742D01*
X102219778Y-69502494D01*
X102210407Y-69499742D01*
X101885616Y-69390307D01*
X101535555Y-69313253D01*
X101179220Y-69274500D01*
X101179219Y-69274500D01*
X100820781Y-69274500D01*
X100820779Y-69274500D01*
X100464444Y-69313253D01*
X100114383Y-69390307D01*
X99789593Y-69499742D01*
X99719778Y-69502494D01*
X99710407Y-69499742D01*
X99385616Y-69390307D01*
X99035555Y-69313253D01*
X98679220Y-69274500D01*
X98679219Y-69274500D01*
X98320781Y-69274500D01*
X98320779Y-69274500D01*
X97964444Y-69313253D01*
X97614383Y-69390307D01*
X97289593Y-69499742D01*
X97219778Y-69502494D01*
X97210407Y-69499742D01*
X96885616Y-69390307D01*
X96535555Y-69313253D01*
X96179220Y-69274500D01*
X96179219Y-69274500D01*
X95820781Y-69274500D01*
X95820779Y-69274500D01*
X95464444Y-69313253D01*
X95114383Y-69390307D01*
X94963593Y-69441114D01*
X94893778Y-69443866D01*
X94833557Y-69408435D01*
X94802052Y-69346072D01*
X94800000Y-69323605D01*
X94800000Y-55958711D01*
X99149500Y-55958711D01*
X99149500Y-56201288D01*
X99181161Y-56441785D01*
X99243947Y-56676104D01*
X99336773Y-56900205D01*
X99336776Y-56900212D01*
X99458064Y-57110289D01*
X99458066Y-57110292D01*
X99458067Y-57110293D01*
X99605733Y-57302736D01*
X99605739Y-57302743D01*
X99777256Y-57474260D01*
X99777262Y-57474265D01*
X99969711Y-57621936D01*
X100179788Y-57743224D01*
X100403900Y-57836054D01*
X100638211Y-57898838D01*
X100818586Y-57922584D01*
X100878711Y-57930500D01*
X100878712Y-57930500D01*
X101121289Y-57930500D01*
X101169388Y-57924167D01*
X101361789Y-57898838D01*
X101596100Y-57836054D01*
X101820212Y-57743224D01*
X102030289Y-57621936D01*
X102222738Y-57474265D01*
X102394265Y-57302738D01*
X102541936Y-57110289D01*
X102663224Y-56900212D01*
X102756054Y-56676100D01*
X102818838Y-56441789D01*
X102850500Y-56201288D01*
X102850500Y-55958712D01*
X102818838Y-55718211D01*
X102756054Y-55483900D01*
X102663224Y-55259788D01*
X102541936Y-55049711D01*
X102394265Y-54857262D01*
X102394260Y-54857256D01*
X102222743Y-54685739D01*
X102222736Y-54685733D01*
X102030293Y-54538067D01*
X102030292Y-54538066D01*
X102030289Y-54538064D01*
X101820212Y-54416776D01*
X101820205Y-54416773D01*
X101596104Y-54323947D01*
X101361785Y-54261161D01*
X101121289Y-54229500D01*
X101121288Y-54229500D01*
X100878712Y-54229500D01*
X100878711Y-54229500D01*
X100638214Y-54261161D01*
X100403895Y-54323947D01*
X100179794Y-54416773D01*
X100179785Y-54416777D01*
X99969706Y-54538067D01*
X99777263Y-54685733D01*
X99777256Y-54685739D01*
X99605739Y-54857256D01*
X99605733Y-54857263D01*
X99458067Y-55049706D01*
X99336777Y-55259785D01*
X99336773Y-55259794D01*
X99243947Y-55483895D01*
X99181161Y-55718214D01*
X99149500Y-55958711D01*
X94800000Y-55958711D01*
X94800000Y-52824000D01*
X94819685Y-52756961D01*
X94872489Y-52711206D01*
X94924000Y-52700000D01*
X124481764Y-52700000D01*
X124548803Y-52719685D01*
G37*
%TD.AperFunction*%
%TD*%
%TA.AperFunction,Conductor*%
%TO.N,12V*%
G36*
X123243039Y-71419685D02*
G01*
X123288794Y-71472489D01*
X123300000Y-71524000D01*
X123300000Y-88000000D01*
X125000000Y-88000000D01*
X125000000Y-85924000D01*
X125019685Y-85856961D01*
X125072489Y-85811206D01*
X125124000Y-85800000D01*
X134476000Y-85800000D01*
X134543039Y-85819685D01*
X134588794Y-85872489D01*
X134600000Y-85924000D01*
X134600000Y-89600000D01*
X166099999Y-89700000D01*
X166100000Y-89700000D01*
X166100000Y-86023202D01*
X166119685Y-85956163D01*
X166172489Y-85910408D01*
X166223199Y-85899205D01*
X181274702Y-85802098D01*
X181341865Y-85821349D01*
X181387960Y-85873857D01*
X181399500Y-85926095D01*
X181399500Y-102276000D01*
X181379815Y-102343039D01*
X181327011Y-102388794D01*
X181275500Y-102400000D01*
X166424000Y-102400000D01*
X166356961Y-102380315D01*
X166311206Y-102327511D01*
X166300000Y-102276000D01*
X166300000Y-99000000D01*
X134400000Y-98800000D01*
X134400000Y-102076000D01*
X134380315Y-102143039D01*
X134327511Y-102188794D01*
X134276000Y-102200000D01*
X125124000Y-102200000D01*
X125056961Y-102180315D01*
X125011206Y-102127511D01*
X125000000Y-102076000D01*
X125000000Y-98800000D01*
X114625771Y-98948203D01*
X114558457Y-98929478D01*
X114511953Y-98877333D01*
X114500000Y-98824216D01*
X114500000Y-83150000D01*
X102869964Y-83179517D01*
X102815848Y-83167237D01*
X102734121Y-83127879D01*
X102734113Y-83127876D01*
X102417667Y-83017146D01*
X102417655Y-83017142D01*
X102165398Y-82959566D01*
X102090794Y-82942538D01*
X102090791Y-82942537D01*
X102090779Y-82942535D01*
X101791371Y-82908801D01*
X101774503Y-82906900D01*
X101757637Y-82905000D01*
X101757635Y-82905000D01*
X101757634Y-82905000D01*
X101527640Y-82905000D01*
X101475573Y-82893539D01*
X101305296Y-82814759D01*
X100965613Y-82700306D01*
X100615555Y-82623253D01*
X100259220Y-82584500D01*
X100259219Y-82584500D01*
X99900781Y-82584500D01*
X99900779Y-82584500D01*
X99544444Y-82623253D01*
X99194383Y-82700307D01*
X98851528Y-82815829D01*
X98851157Y-82814728D01*
X98786334Y-82820812D01*
X98768552Y-82815590D01*
X98768472Y-82815829D01*
X98425616Y-82700307D01*
X98075555Y-82623253D01*
X97719220Y-82584500D01*
X97719219Y-82584500D01*
X97360781Y-82584500D01*
X97360779Y-82584500D01*
X97004444Y-82623253D01*
X96654383Y-82700307D01*
X96311528Y-82815829D01*
X96311157Y-82814728D01*
X96246334Y-82820812D01*
X96228552Y-82815590D01*
X96228472Y-82815829D01*
X95885616Y-82700307D01*
X95535555Y-82623253D01*
X95179220Y-82584500D01*
X95179219Y-82584500D01*
X94924000Y-82584500D01*
X94856961Y-82564815D01*
X94811206Y-82512011D01*
X94800000Y-82460500D01*
X94800000Y-73336393D01*
X94819685Y-73269354D01*
X94872489Y-73223599D01*
X94941647Y-73213655D01*
X94963581Y-73218881D01*
X95114386Y-73269693D01*
X95114391Y-73269694D01*
X95114394Y-73269695D01*
X95417409Y-73336393D01*
X95464444Y-73346746D01*
X95820781Y-73385500D01*
X95820787Y-73385500D01*
X96179213Y-73385500D01*
X96179219Y-73385500D01*
X96535556Y-73346746D01*
X96885614Y-73269693D01*
X97210408Y-73160256D01*
X97280222Y-73157505D01*
X97289578Y-73160252D01*
X97614386Y-73269693D01*
X97964444Y-73346746D01*
X98320781Y-73385500D01*
X98320787Y-73385500D01*
X98679213Y-73385500D01*
X98679219Y-73385500D01*
X99035556Y-73346746D01*
X99385614Y-73269693D01*
X99710408Y-73160256D01*
X99780222Y-73157505D01*
X99789578Y-73160252D01*
X100114386Y-73269693D01*
X100464444Y-73346746D01*
X100820781Y-73385500D01*
X100820787Y-73385500D01*
X101179213Y-73385500D01*
X101179219Y-73385500D01*
X101535556Y-73346746D01*
X101885614Y-73269693D01*
X102210408Y-73160256D01*
X102280222Y-73157505D01*
X102289578Y-73160252D01*
X102614386Y-73269693D01*
X102964444Y-73346746D01*
X103320781Y-73385500D01*
X103320787Y-73385500D01*
X103679213Y-73385500D01*
X103679219Y-73385500D01*
X104035556Y-73346746D01*
X104385614Y-73269693D01*
X104710408Y-73160256D01*
X104780222Y-73157505D01*
X104789578Y-73160252D01*
X105114386Y-73269693D01*
X105464444Y-73346746D01*
X105820781Y-73385500D01*
X105820787Y-73385500D01*
X106179213Y-73385500D01*
X106179219Y-73385500D01*
X106535556Y-73346746D01*
X106885614Y-73269693D01*
X107225289Y-73155243D01*
X107550598Y-73004739D01*
X107857728Y-72819944D01*
X108143078Y-72603027D01*
X108403303Y-72356529D01*
X108635351Y-72083341D01*
X108836501Y-71786666D01*
X108966997Y-71540526D01*
X109005971Y-71467014D01*
X109007230Y-71467681D01*
X109049467Y-71419382D01*
X109116033Y-71400000D01*
X123176000Y-71400000D01*
X123243039Y-71419685D01*
G37*
%TD.AperFunction*%
%TD*%
%TA.AperFunction,Conductor*%
%TO.N,12V_GND*%
G36*
X168806184Y-58813225D02*
G01*
X168850023Y-58812982D01*
X168860000Y-60080000D01*
X143120000Y-60090000D01*
X143129700Y-58955083D01*
X143130318Y-58955080D01*
X143190336Y-58922425D01*
X143215979Y-58919632D01*
X168795823Y-58810231D01*
X168806184Y-58813225D01*
G37*
%TD.AperFunction*%
%TD*%
%TA.AperFunction,Conductor*%
%TO.N,5V_GND*%
G36*
X101506163Y-99457235D02*
G01*
X101545194Y-99515187D01*
X101550989Y-99553952D01*
X101499999Y-104499998D01*
X101500000Y-104499999D01*
X101500000Y-104500000D01*
X105722249Y-104578286D01*
X105788908Y-104599209D01*
X105807627Y-104614583D01*
X106756681Y-105563637D01*
X106790166Y-105624960D01*
X106793000Y-105651318D01*
X106793000Y-120194998D01*
X106822720Y-120382641D01*
X106822720Y-120382644D01*
X106871402Y-120532469D01*
X106881429Y-120563328D01*
X106967681Y-120732606D01*
X107034722Y-120824880D01*
X107034724Y-120824882D01*
X107079348Y-120886304D01*
X107079350Y-120886306D01*
X108056681Y-121863636D01*
X108090166Y-121924959D01*
X108093000Y-121951317D01*
X108093000Y-127323500D01*
X108073315Y-127390539D01*
X108020511Y-127436294D01*
X107969000Y-127447500D01*
X107674197Y-127447500D01*
X107674180Y-127447501D01*
X107569757Y-127458169D01*
X107400562Y-127514235D01*
X107400557Y-127514237D01*
X107248849Y-127607812D01*
X107122812Y-127733849D01*
X107029237Y-127885557D01*
X107029235Y-127885562D01*
X106973169Y-128054757D01*
X106973168Y-128054764D01*
X106962500Y-128159181D01*
X106962500Y-130220803D01*
X106962501Y-130220819D01*
X106973169Y-130325242D01*
X107029235Y-130494437D01*
X107029237Y-130494442D01*
X107062156Y-130547811D01*
X107122811Y-130646149D01*
X107248851Y-130772189D01*
X107400560Y-130865764D01*
X107569759Y-130921831D01*
X107674189Y-130932500D01*
X110925810Y-130932499D01*
X111030241Y-130921831D01*
X111199440Y-130865764D01*
X111351149Y-130772189D01*
X111477189Y-130646149D01*
X111523462Y-130571127D01*
X111575409Y-130524405D01*
X111644372Y-130513182D01*
X111708454Y-130541026D01*
X111747310Y-130599094D01*
X111753000Y-130636226D01*
X111753000Y-132653773D01*
X111733315Y-132720812D01*
X111680511Y-132766567D01*
X111611353Y-132776511D01*
X111547797Y-132747486D01*
X111523462Y-132718870D01*
X111477191Y-132643854D01*
X111477188Y-132643850D01*
X111351150Y-132517812D01*
X111351149Y-132517811D01*
X111234302Y-132445739D01*
X111199442Y-132424237D01*
X111199437Y-132424235D01*
X111030242Y-132368169D01*
X111030235Y-132368168D01*
X110925812Y-132357500D01*
X107674196Y-132357500D01*
X107674180Y-132357501D01*
X107569757Y-132368169D01*
X107400562Y-132424235D01*
X107400557Y-132424237D01*
X107248849Y-132517812D01*
X107122812Y-132643849D01*
X107029237Y-132795557D01*
X107029235Y-132795562D01*
X106973169Y-132964757D01*
X106973168Y-132964764D01*
X106962500Y-133069181D01*
X106962500Y-135130803D01*
X106962501Y-135130819D01*
X106973169Y-135235242D01*
X107027805Y-135400121D01*
X107029236Y-135404440D01*
X107122811Y-135556149D01*
X107248851Y-135682189D01*
X107400560Y-135775764D01*
X107569759Y-135831831D01*
X107674189Y-135842500D01*
X107969001Y-135842499D01*
X108036039Y-135862183D01*
X108081794Y-135914987D01*
X108093000Y-135966499D01*
X108093000Y-139594998D01*
X108122719Y-139782640D01*
X108181430Y-139963331D01*
X108261820Y-140121104D01*
X108267681Y-140132606D01*
X108329259Y-140217361D01*
X108379349Y-140286304D01*
X108379354Y-140286310D01*
X109376226Y-141283181D01*
X109376240Y-141283196D01*
X109379351Y-141286307D01*
X109379352Y-141286308D01*
X109513692Y-141420648D01*
X109667394Y-141532319D01*
X109788075Y-141593809D01*
X109836673Y-141618571D01*
X110017361Y-141677280D01*
X110175287Y-141702292D01*
X110205007Y-141707000D01*
X110205008Y-141707000D01*
X110394993Y-141707000D01*
X113174300Y-141707000D01*
X113241339Y-141726685D01*
X113287094Y-141779489D01*
X113297038Y-141848647D01*
X113268013Y-141912203D01*
X113228101Y-141942720D01*
X113201664Y-141955450D01*
X113201663Y-141955451D01*
X112981413Y-142105614D01*
X112786015Y-142286916D01*
X112619814Y-142495326D01*
X112486534Y-142726173D01*
X112389150Y-142974302D01*
X112389145Y-142974319D01*
X112329832Y-143234187D01*
X112309913Y-143499995D01*
X112309913Y-143500004D01*
X112329832Y-143765812D01*
X112386060Y-144012164D01*
X112389148Y-144025692D01*
X112486534Y-144273826D01*
X112619814Y-144504674D01*
X112754049Y-144672999D01*
X112786015Y-144713083D01*
X112933307Y-144849749D01*
X112981414Y-144894386D01*
X113201657Y-145044545D01*
X113201662Y-145044547D01*
X113201663Y-145044548D01*
X113201665Y-145044549D01*
X113252041Y-145068808D01*
X113441815Y-145160199D01*
X113441816Y-145160199D01*
X113441819Y-145160201D01*
X113696537Y-145238771D01*
X113960120Y-145278500D01*
X113960121Y-145278500D01*
X114226679Y-145278500D01*
X114226680Y-145278500D01*
X114490263Y-145238771D01*
X114744981Y-145160201D01*
X114934755Y-145068810D01*
X114985136Y-145044549D01*
X114985136Y-145044548D01*
X114985144Y-145044545D01*
X115099148Y-144966817D01*
X115165627Y-144945317D01*
X115233177Y-144963171D01*
X115280352Y-145014711D01*
X115293000Y-145069271D01*
X115293000Y-145694998D01*
X115317437Y-145849283D01*
X115322720Y-145882640D01*
X115380228Y-146059632D01*
X115381429Y-146063327D01*
X115467681Y-146232606D01*
X115529259Y-146317361D01*
X115579349Y-146386304D01*
X115579354Y-146386310D01*
X116576226Y-147383181D01*
X116576240Y-147383196D01*
X116579351Y-147386307D01*
X116579352Y-147386308D01*
X116713692Y-147520648D01*
X116867394Y-147632319D01*
X117036673Y-147718571D01*
X117217361Y-147777280D01*
X117375287Y-147802292D01*
X117405007Y-147807000D01*
X117405008Y-147807000D01*
X121248398Y-147807000D01*
X121436040Y-147777280D01*
X121436049Y-147777277D01*
X121616727Y-147718571D01*
X121786006Y-147632319D01*
X121939708Y-147520648D01*
X122074048Y-147386308D01*
X123095264Y-146365092D01*
X134439501Y-146365092D01*
X134439501Y-146514907D01*
X134468724Y-146661822D01*
X134468726Y-146661830D01*
X134526052Y-146800229D01*
X134526057Y-146800238D01*
X134609281Y-146924790D01*
X134609284Y-146924794D01*
X134715206Y-147030716D01*
X134715210Y-147030719D01*
X134839762Y-147113943D01*
X134839771Y-147113948D01*
X134871124Y-147126934D01*
X134978171Y-147171275D01*
X135125093Y-147200499D01*
X135125097Y-147200500D01*
X135125098Y-147200500D01*
X135274905Y-147200500D01*
X135274906Y-147200499D01*
X135421831Y-147171275D01*
X135560233Y-147113947D01*
X135684792Y-147030719D01*
X135790720Y-146924791D01*
X135873948Y-146800232D01*
X135931276Y-146661830D01*
X135960501Y-146514903D01*
X135960501Y-146365097D01*
X135931276Y-146218170D01*
X135873948Y-146079768D01*
X135873947Y-146079767D01*
X135873944Y-146079761D01*
X135790720Y-145955209D01*
X135790717Y-145955205D01*
X135684795Y-145849283D01*
X135684791Y-145849280D01*
X135560239Y-145766056D01*
X135560230Y-145766051D01*
X135421831Y-145708725D01*
X135421823Y-145708723D01*
X135274908Y-145679500D01*
X135274904Y-145679500D01*
X135125098Y-145679500D01*
X135125093Y-145679500D01*
X134978178Y-145708723D01*
X134978170Y-145708725D01*
X134839771Y-145766051D01*
X134839762Y-145766056D01*
X134715210Y-145849280D01*
X134715206Y-145849283D01*
X134609284Y-145955205D01*
X134609281Y-145955209D01*
X134526057Y-146079761D01*
X134526052Y-146079770D01*
X134468726Y-146218169D01*
X134468724Y-146218177D01*
X134439501Y-146365092D01*
X123095264Y-146365092D01*
X123960357Y-145499999D01*
X136672792Y-145499999D01*
X136691593Y-145738901D01*
X136691593Y-145738904D01*
X136691594Y-145738907D01*
X136738040Y-145932365D01*
X136747540Y-145971936D01*
X136839245Y-146193333D01*
X136839247Y-146193336D01*
X136964459Y-146397663D01*
X136964460Y-146397666D01*
X136964463Y-146397669D01*
X137120101Y-146579898D01*
X137261163Y-146700376D01*
X137302332Y-146735538D01*
X137302334Y-146735538D01*
X137407522Y-146799998D01*
X137506662Y-146860751D01*
X137506665Y-146860753D01*
X137718379Y-146948447D01*
X137728067Y-146952460D01*
X137961092Y-147008405D01*
X138200000Y-147027207D01*
X138438908Y-147008405D01*
X138671933Y-146952460D01*
X138795809Y-146901149D01*
X138893334Y-146860753D01*
X138893335Y-146860752D01*
X138893338Y-146860751D01*
X139097670Y-146735536D01*
X139279899Y-146579898D01*
X139435537Y-146397669D01*
X139455500Y-146365092D01*
X140439489Y-146365092D01*
X140439489Y-146514907D01*
X140468712Y-146661822D01*
X140468714Y-146661830D01*
X140526040Y-146800229D01*
X140526045Y-146800238D01*
X140609269Y-146924790D01*
X140609272Y-146924794D01*
X140715194Y-147030716D01*
X140715198Y-147030719D01*
X140839750Y-147113943D01*
X140839759Y-147113948D01*
X140871112Y-147126934D01*
X140978159Y-147171275D01*
X141125081Y-147200499D01*
X141125085Y-147200500D01*
X141125086Y-147200500D01*
X141274893Y-147200500D01*
X141274894Y-147200499D01*
X141421819Y-147171275D01*
X141560221Y-147113947D01*
X141684780Y-147030719D01*
X141790708Y-146924791D01*
X141873936Y-146800232D01*
X141931264Y-146661830D01*
X141960489Y-146514903D01*
X141960489Y-146365097D01*
X141931264Y-146218170D01*
X141873936Y-146079768D01*
X141873935Y-146079767D01*
X141873932Y-146079761D01*
X141790708Y-145955209D01*
X141790705Y-145955205D01*
X141684783Y-145849283D01*
X141684779Y-145849280D01*
X141560227Y-145766056D01*
X141560218Y-145766051D01*
X141421819Y-145708725D01*
X141421811Y-145708723D01*
X141274896Y-145679500D01*
X141274892Y-145679500D01*
X141125086Y-145679500D01*
X141125081Y-145679500D01*
X140978166Y-145708723D01*
X140978158Y-145708725D01*
X140839759Y-145766051D01*
X140839750Y-145766056D01*
X140715198Y-145849280D01*
X140715194Y-145849283D01*
X140609272Y-145955205D01*
X140609269Y-145955209D01*
X140526045Y-146079761D01*
X140526040Y-146079770D01*
X140468714Y-146218169D01*
X140468712Y-146218177D01*
X140439489Y-146365092D01*
X139455500Y-146365092D01*
X139560752Y-146193337D01*
X139652461Y-145971932D01*
X139708406Y-145738907D01*
X139727208Y-145499999D01*
X139708406Y-145261091D01*
X139652461Y-145028066D01*
X139646929Y-145014711D01*
X139560754Y-144806664D01*
X139560752Y-144806661D01*
X139435540Y-144602334D01*
X139435539Y-144602331D01*
X139359827Y-144513684D01*
X139279899Y-144420100D01*
X139108634Y-144273826D01*
X139097667Y-144264459D01*
X139097664Y-144264458D01*
X139059791Y-144241249D01*
X139012916Y-144189437D01*
X139001493Y-144120508D01*
X139029151Y-144056345D01*
X139087106Y-144017320D01*
X139111982Y-144012164D01*
X139115241Y-144011831D01*
X139157170Y-143997937D01*
X139284440Y-143955764D01*
X139436149Y-143862189D01*
X139562189Y-143736149D01*
X139655764Y-143584440D01*
X139711831Y-143415241D01*
X139722500Y-143310811D01*
X139722500Y-143035000D01*
X145582514Y-143035000D01*
X145602427Y-143288028D01*
X145661676Y-143534821D01*
X145661680Y-143534833D01*
X145758808Y-143769323D01*
X145885755Y-143976481D01*
X145904000Y-144043927D01*
X145882884Y-144110529D01*
X145867710Y-144128952D01*
X145747810Y-144248852D01*
X145654237Y-144400557D01*
X145654235Y-144400562D01*
X145598169Y-144569757D01*
X145598168Y-144569764D01*
X145587500Y-144674181D01*
X145587500Y-146475803D01*
X145587501Y-146475819D01*
X145598169Y-146580242D01*
X145654235Y-146749437D01*
X145654237Y-146749442D01*
X145689678Y-146806900D01*
X145747811Y-146901149D01*
X145873851Y-147027189D01*
X146025560Y-147120764D01*
X146194759Y-147176831D01*
X146299189Y-147187500D01*
X148100810Y-147187499D01*
X148205241Y-147176831D01*
X148374440Y-147120764D01*
X148526149Y-147027189D01*
X148652189Y-146901149D01*
X148714580Y-146799998D01*
X175477500Y-146799998D01*
X175477500Y-146800001D01*
X175497329Y-147096226D01*
X175497331Y-147096236D01*
X175556467Y-147387176D01*
X175605724Y-147529027D01*
X175653856Y-147667640D01*
X175787757Y-147932623D01*
X175955783Y-148177394D01*
X175955785Y-148177396D01*
X175955789Y-148177402D01*
X175955792Y-148177404D01*
X176154935Y-148397586D01*
X176381658Y-148589268D01*
X176631907Y-148749021D01*
X176901216Y-148873994D01*
X177184780Y-148961956D01*
X177477537Y-149011338D01*
X177774265Y-149021259D01*
X178069667Y-148991541D01*
X178358472Y-148922715D01*
X178358475Y-148922713D01*
X178358479Y-148922713D01*
X178497000Y-148869362D01*
X178635528Y-148816010D01*
X178895888Y-148673328D01*
X179134908Y-148497217D01*
X179348322Y-148290819D01*
X179532321Y-148057817D01*
X179683623Y-147802370D01*
X179799527Y-147529035D01*
X179877965Y-147242691D01*
X179917537Y-146948447D01*
X179917537Y-146651553D01*
X179877965Y-146357309D01*
X179801938Y-146079768D01*
X179799529Y-146070972D01*
X179799529Y-146070971D01*
X179799527Y-146070968D01*
X179799527Y-146070965D01*
X179683623Y-145797630D01*
X179606474Y-145667377D01*
X179532321Y-145542182D01*
X179348321Y-145309180D01*
X179288528Y-145251353D01*
X179134908Y-145102783D01*
X178945425Y-144963171D01*
X178895894Y-144926676D01*
X178895891Y-144926674D01*
X178895888Y-144926672D01*
X178635528Y-144783990D01*
X178635523Y-144783988D01*
X178635521Y-144783987D01*
X178358479Y-144677286D01*
X178358474Y-144677285D01*
X178069667Y-144608459D01*
X178069664Y-144608458D01*
X177774269Y-144578741D01*
X177774265Y-144578741D01*
X177477537Y-144588662D01*
X177184779Y-144638044D01*
X177068236Y-144674196D01*
X176901216Y-144726006D01*
X176901209Y-144726009D01*
X176901207Y-144726010D01*
X176631911Y-144850976D01*
X176381658Y-145010731D01*
X176381656Y-145010733D01*
X176154933Y-145202415D01*
X175955792Y-145422595D01*
X175955789Y-145422597D01*
X175787755Y-145667380D01*
X175723623Y-145794293D01*
X175653856Y-145932360D01*
X175653854Y-145932363D01*
X175653854Y-145932365D01*
X175556467Y-146212823D01*
X175497331Y-146503763D01*
X175497329Y-146503773D01*
X175477500Y-146799998D01*
X148714580Y-146799998D01*
X148745764Y-146749440D01*
X148801831Y-146580241D01*
X148812500Y-146475811D01*
X148812499Y-144674190D01*
X148801831Y-144569759D01*
X148745764Y-144400560D01*
X148652189Y-144248851D01*
X148532290Y-144128952D01*
X148498805Y-144067629D01*
X148503789Y-143997937D01*
X148514244Y-143976481D01*
X148526940Y-143955764D01*
X148641191Y-143769323D01*
X148738321Y-143534831D01*
X148797572Y-143288031D01*
X148817486Y-143035000D01*
X148797572Y-142781969D01*
X148738321Y-142535169D01*
X148675531Y-142383581D01*
X148641191Y-142300676D01*
X148508577Y-142084271D01*
X148508576Y-142084269D01*
X148508575Y-142084268D01*
X148508574Y-142084266D01*
X148343735Y-141891265D01*
X148150734Y-141726426D01*
X148150732Y-141726424D01*
X148150730Y-141726423D01*
X148150728Y-141726422D01*
X148083840Y-141685433D01*
X154714500Y-141685433D01*
X154714500Y-141835248D01*
X154743723Y-141982163D01*
X154743725Y-141982171D01*
X154801051Y-142120570D01*
X154801056Y-142120579D01*
X154884280Y-142245131D01*
X154884283Y-142245135D01*
X154990205Y-142351057D01*
X154990209Y-142351060D01*
X155114761Y-142434284D01*
X155114767Y-142434287D01*
X155114768Y-142434288D01*
X155253170Y-142491616D01*
X155400092Y-142520840D01*
X155400096Y-142520841D01*
X155400097Y-142520841D01*
X155549904Y-142520841D01*
X155549905Y-142520840D01*
X155696830Y-142491616D01*
X155835232Y-142434288D01*
X155959791Y-142351060D01*
X156065719Y-142245132D01*
X156148947Y-142120573D01*
X156206275Y-141982171D01*
X156235500Y-141835244D01*
X156235500Y-141685438D01*
X156206275Y-141538511D01*
X156148947Y-141400109D01*
X156148946Y-141400108D01*
X156148943Y-141400102D01*
X156065719Y-141275550D01*
X156065716Y-141275546D01*
X155959794Y-141169624D01*
X155959790Y-141169621D01*
X155835238Y-141086397D01*
X155835229Y-141086392D01*
X155696830Y-141029066D01*
X155696822Y-141029064D01*
X155549907Y-140999841D01*
X155549903Y-140999841D01*
X155400097Y-140999841D01*
X155400092Y-140999841D01*
X155253177Y-141029064D01*
X155253169Y-141029066D01*
X155114770Y-141086392D01*
X155114761Y-141086397D01*
X154990209Y-141169621D01*
X154990205Y-141169624D01*
X154884283Y-141275546D01*
X154884280Y-141275550D01*
X154801056Y-141400102D01*
X154801051Y-141400111D01*
X154743725Y-141538510D01*
X154743723Y-141538518D01*
X154714500Y-141685433D01*
X148083840Y-141685433D01*
X147934323Y-141593808D01*
X147699833Y-141496680D01*
X147699835Y-141496680D01*
X147699831Y-141496679D01*
X147699827Y-141496678D01*
X147699821Y-141496676D01*
X147453027Y-141437427D01*
X147453028Y-141437427D01*
X147200000Y-141417514D01*
X146946971Y-141437427D01*
X146700178Y-141496676D01*
X146700166Y-141496680D01*
X146465676Y-141593808D01*
X146249271Y-141726422D01*
X146249269Y-141726423D01*
X146056265Y-141891265D01*
X145891423Y-142084269D01*
X145891422Y-142084271D01*
X145758808Y-142300676D01*
X145661680Y-142535166D01*
X145661676Y-142535178D01*
X145602427Y-142781971D01*
X145582514Y-143035000D01*
X139722500Y-143035000D01*
X139722499Y-141689190D01*
X139711831Y-141584759D01*
X139655764Y-141415560D01*
X139562189Y-141263851D01*
X139436149Y-141137811D01*
X139284440Y-141044236D01*
X139238654Y-141029064D01*
X139115242Y-140988169D01*
X139115235Y-140988168D01*
X139010812Y-140977500D01*
X137389196Y-140977500D01*
X137389180Y-140977501D01*
X137284757Y-140988169D01*
X137115562Y-141044235D01*
X137115557Y-141044237D01*
X136963849Y-141137812D01*
X136837812Y-141263849D01*
X136744237Y-141415557D01*
X136744235Y-141415562D01*
X136688169Y-141584757D01*
X136688168Y-141584764D01*
X136677500Y-141689181D01*
X136677500Y-143310803D01*
X136677501Y-143310819D01*
X136688169Y-143415242D01*
X136744235Y-143584437D01*
X136744237Y-143584442D01*
X136779678Y-143641900D01*
X136837811Y-143736149D01*
X136963851Y-143862189D01*
X137115560Y-143955764D01*
X137284759Y-144011831D01*
X137284763Y-144011831D01*
X137284766Y-144011832D01*
X137288017Y-144012164D01*
X137289894Y-144012930D01*
X137291384Y-144013249D01*
X137291327Y-144013514D01*
X137352709Y-144038558D01*
X137392862Y-144095737D01*
X137395728Y-144165548D01*
X137360396Y-144225826D01*
X137340209Y-144241249D01*
X137302331Y-144264460D01*
X137120101Y-144420100D01*
X136964460Y-144602331D01*
X136964459Y-144602334D01*
X136839247Y-144806661D01*
X136839245Y-144806664D01*
X136747540Y-145028061D01*
X136747539Y-145028066D01*
X136696954Y-145238768D01*
X136691593Y-145261096D01*
X136672792Y-145499999D01*
X123960357Y-145499999D01*
X124145537Y-145314819D01*
X124206860Y-145281334D01*
X124233218Y-145278500D01*
X124386679Y-145278500D01*
X124386680Y-145278500D01*
X124650263Y-145238771D01*
X124904981Y-145160201D01*
X125094755Y-145068810D01*
X125145136Y-145044549D01*
X125145136Y-145044548D01*
X125145144Y-145044545D01*
X125365386Y-144894386D01*
X125560788Y-144713079D01*
X125726986Y-144504674D01*
X125860266Y-144273826D01*
X125957652Y-144025692D01*
X126016967Y-143765815D01*
X126025504Y-143651894D01*
X126036887Y-143500004D01*
X126036887Y-143499995D01*
X127549913Y-143499995D01*
X127549913Y-143500004D01*
X127569832Y-143765812D01*
X127626060Y-144012164D01*
X127629148Y-144025692D01*
X127726534Y-144273826D01*
X127859814Y-144504674D01*
X127994049Y-144672999D01*
X128026015Y-144713083D01*
X128173307Y-144849749D01*
X128221414Y-144894386D01*
X128441657Y-145044545D01*
X128441662Y-145044547D01*
X128441663Y-145044548D01*
X128441665Y-145044549D01*
X128492041Y-145068808D01*
X128681815Y-145160199D01*
X128681816Y-145160199D01*
X128681819Y-145160201D01*
X128936537Y-145238771D01*
X129200120Y-145278500D01*
X129200121Y-145278500D01*
X129466679Y-145278500D01*
X129466680Y-145278500D01*
X129730263Y-145238771D01*
X129984981Y-145160201D01*
X130174755Y-145068810D01*
X130225136Y-145044549D01*
X130225136Y-145044548D01*
X130225144Y-145044545D01*
X130445386Y-144894386D01*
X130640788Y-144713079D01*
X130806986Y-144504674D01*
X130940266Y-144273826D01*
X131037652Y-144025692D01*
X131096967Y-143765815D01*
X131105504Y-143651894D01*
X131116887Y-143500004D01*
X131116887Y-143499995D01*
X131096967Y-143234187D01*
X131051504Y-143035000D01*
X131037652Y-142974308D01*
X130940266Y-142726174D01*
X130806986Y-142495326D01*
X130640788Y-142286921D01*
X130640787Y-142286920D01*
X130640784Y-142286916D01*
X130445386Y-142105614D01*
X130414074Y-142084266D01*
X130225144Y-141955455D01*
X130225140Y-141955453D01*
X130225137Y-141955451D01*
X130225136Y-141955450D01*
X129984983Y-141839800D01*
X129984985Y-141839800D01*
X129730271Y-141761231D01*
X129730267Y-141761230D01*
X129730263Y-141761229D01*
X129603474Y-141742118D01*
X129466685Y-141721500D01*
X129466680Y-141721500D01*
X129200120Y-141721500D01*
X129200114Y-141721500D01*
X129035966Y-141746242D01*
X128936537Y-141761229D01*
X128936534Y-141761230D01*
X128936528Y-141761231D01*
X128681815Y-141839800D01*
X128441665Y-141955450D01*
X128441663Y-141955451D01*
X128221413Y-142105614D01*
X128026015Y-142286916D01*
X127859814Y-142495326D01*
X127726534Y-142726173D01*
X127629150Y-142974302D01*
X127629145Y-142974319D01*
X127569832Y-143234187D01*
X127549913Y-143499995D01*
X126036887Y-143499995D01*
X126016967Y-143234187D01*
X125971504Y-143035000D01*
X125957652Y-142974308D01*
X125860266Y-142726174D01*
X125726986Y-142495326D01*
X125560788Y-142286921D01*
X125560787Y-142286920D01*
X125560784Y-142286916D01*
X125365386Y-142105614D01*
X125334074Y-142084266D01*
X125145144Y-141955455D01*
X125145140Y-141955453D01*
X125145137Y-141955451D01*
X125145136Y-141955450D01*
X124904983Y-141839800D01*
X124904985Y-141839800D01*
X124650271Y-141761231D01*
X124650267Y-141761230D01*
X124650263Y-141761229D01*
X124523474Y-141742118D01*
X124386685Y-141721500D01*
X124386680Y-141721500D01*
X124120120Y-141721500D01*
X124120114Y-141721500D01*
X123955966Y-141746242D01*
X123856537Y-141761229D01*
X123856534Y-141761230D01*
X123856528Y-141761231D01*
X123601815Y-141839800D01*
X123361665Y-141955450D01*
X123361663Y-141955451D01*
X123141413Y-142105614D01*
X122946015Y-142286916D01*
X122779814Y-142495326D01*
X122646534Y-142726173D01*
X122549150Y-142974302D01*
X122549145Y-142974319D01*
X122489832Y-143234187D01*
X122469913Y-143499995D01*
X122469913Y-143500003D01*
X122470997Y-143514470D01*
X122456377Y-143582793D01*
X122435025Y-143611417D01*
X120689763Y-145356681D01*
X120628440Y-145390166D01*
X120602082Y-145393000D01*
X119884848Y-145393000D01*
X119817809Y-145373315D01*
X119772054Y-145320511D01*
X119762110Y-145251353D01*
X119791135Y-145187797D01*
X119831047Y-145157280D01*
X120065136Y-145044549D01*
X120065136Y-145044548D01*
X120065144Y-145044545D01*
X120285386Y-144894386D01*
X120480788Y-144713079D01*
X120646986Y-144504674D01*
X120780266Y-144273826D01*
X120877652Y-144025692D01*
X120936967Y-143765815D01*
X120945504Y-143651894D01*
X120956887Y-143500004D01*
X120956887Y-143499995D01*
X120936967Y-143234187D01*
X120891504Y-143035000D01*
X120877652Y-142974308D01*
X120780266Y-142726174D01*
X120646986Y-142495326D01*
X120480788Y-142286921D01*
X120435754Y-142245135D01*
X120420058Y-142230571D01*
X120384304Y-142170542D01*
X120380400Y-142139673D01*
X120380400Y-139142677D01*
X120367040Y-139058331D01*
X120367040Y-139058330D01*
X120353848Y-138975040D01*
X120350680Y-138955036D01*
X120291971Y-138774348D01*
X120284840Y-138760352D01*
X154887793Y-138760352D01*
X154906594Y-138999254D01*
X154906594Y-138999257D01*
X154906595Y-138999260D01*
X154915503Y-139036363D01*
X154962541Y-139232289D01*
X155054246Y-139453686D01*
X155054248Y-139453689D01*
X155179460Y-139658016D01*
X155179461Y-139658019D01*
X155179464Y-139658022D01*
X155335102Y-139840251D01*
X155476164Y-139960729D01*
X155517333Y-139995891D01*
X155517336Y-139995892D01*
X155721663Y-140121104D01*
X155721666Y-140121106D01*
X155943063Y-140212811D01*
X155943068Y-140212813D01*
X156176093Y-140268758D01*
X156415001Y-140287560D01*
X156653909Y-140268758D01*
X156886934Y-140212813D01*
X157080571Y-140132606D01*
X157108335Y-140121106D01*
X157108336Y-140121105D01*
X157108339Y-140121104D01*
X157312671Y-139995889D01*
X157494900Y-139840251D01*
X157650538Y-139658022D01*
X157673749Y-139620144D01*
X157725560Y-139573269D01*
X157794489Y-139561845D01*
X157858653Y-139589501D01*
X157897678Y-139647456D01*
X157902834Y-139672322D01*
X157903168Y-139675591D01*
X157938641Y-139782640D01*
X157959236Y-139844792D01*
X158052811Y-139996501D01*
X158178851Y-140122541D01*
X158330560Y-140216116D01*
X158499759Y-140272183D01*
X158604189Y-140282852D01*
X160225810Y-140282851D01*
X160330241Y-140272183D01*
X160499440Y-140216116D01*
X160651149Y-140122541D01*
X160777189Y-139996501D01*
X160870764Y-139844792D01*
X160926831Y-139675593D01*
X160937500Y-139571163D01*
X160937499Y-137949542D01*
X160926831Y-137845111D01*
X160870764Y-137675912D01*
X160777189Y-137524203D01*
X160651149Y-137398163D01*
X160499440Y-137304588D01*
X160499437Y-137304587D01*
X160330242Y-137248521D01*
X160330235Y-137248520D01*
X160225812Y-137237852D01*
X158604196Y-137237852D01*
X158604180Y-137237853D01*
X158499757Y-137248521D01*
X158330562Y-137304587D01*
X158330557Y-137304589D01*
X158178849Y-137398164D01*
X158052812Y-137524201D01*
X157959237Y-137675909D01*
X157959235Y-137675914D01*
X157903169Y-137845109D01*
X157903167Y-137845122D01*
X157902834Y-137848381D01*
X157902066Y-137850260D01*
X157901751Y-137851736D01*
X157901487Y-137851679D01*
X157876434Y-137913071D01*
X157819250Y-137953218D01*
X157749439Y-137956077D01*
X157689165Y-137920739D01*
X157673749Y-137900559D01*
X157650539Y-137862684D01*
X157650538Y-137862682D01*
X157494900Y-137680453D01*
X157374420Y-137577553D01*
X157312668Y-137524812D01*
X157312665Y-137524811D01*
X157108338Y-137399599D01*
X157108335Y-137399597D01*
X156886938Y-137307892D01*
X156873172Y-137304587D01*
X156653909Y-137251946D01*
X156653906Y-137251945D01*
X156653903Y-137251945D01*
X156415001Y-137233144D01*
X156176098Y-137251945D01*
X156176094Y-137251945D01*
X156176093Y-137251946D01*
X156059580Y-137279918D01*
X155943063Y-137307892D01*
X155721666Y-137399597D01*
X155721663Y-137399599D01*
X155517336Y-137524811D01*
X155517333Y-137524812D01*
X155335102Y-137680453D01*
X155179461Y-137862684D01*
X155179460Y-137862687D01*
X155054248Y-138067014D01*
X155054246Y-138067017D01*
X154962541Y-138288414D01*
X154906594Y-138521449D01*
X154887793Y-138760352D01*
X120284840Y-138760352D01*
X120261065Y-138713692D01*
X120205719Y-138605069D01*
X120094048Y-138451367D01*
X119959708Y-138317027D01*
X119959707Y-138317026D01*
X119956596Y-138313915D01*
X119956581Y-138313901D01*
X119956561Y-138313881D01*
X119923076Y-138252558D01*
X119928060Y-138182866D01*
X119969932Y-138126933D01*
X120035396Y-138102516D01*
X120044242Y-138102200D01*
X124302897Y-138102200D01*
X124361349Y-138116841D01*
X124491431Y-138186372D01*
X124691714Y-138247127D01*
X124900000Y-138267641D01*
X125108286Y-138247127D01*
X125308569Y-138186372D01*
X125493150Y-138087711D01*
X125654936Y-137954936D01*
X125787711Y-137793150D01*
X125886372Y-137608569D01*
X125947127Y-137408286D01*
X125967641Y-137200000D01*
X125947127Y-136991714D01*
X125886372Y-136791431D01*
X125787711Y-136606850D01*
X125717134Y-136520852D01*
X125654936Y-136445063D01*
X125493153Y-136312291D01*
X125493151Y-136312290D01*
X125493150Y-136312289D01*
X125308569Y-136213628D01*
X125208427Y-136183250D01*
X125108284Y-136152872D01*
X124900000Y-136132359D01*
X124691715Y-136152872D01*
X124491428Y-136213629D01*
X124432471Y-136245143D01*
X124361349Y-136283158D01*
X124302897Y-136297800D01*
X119525065Y-136297800D01*
X119458026Y-136278115D01*
X119437384Y-136261481D01*
X118861348Y-135685445D01*
X154714500Y-135685445D01*
X154714500Y-135835260D01*
X154743723Y-135982175D01*
X154743725Y-135982183D01*
X154801051Y-136120582D01*
X154801056Y-136120591D01*
X154884280Y-136245143D01*
X154884283Y-136245147D01*
X154990205Y-136351069D01*
X154990209Y-136351072D01*
X155114761Y-136434296D01*
X155114767Y-136434299D01*
X155114768Y-136434300D01*
X155253170Y-136491628D01*
X155400092Y-136520852D01*
X155400096Y-136520853D01*
X155400097Y-136520853D01*
X155549904Y-136520853D01*
X155549905Y-136520852D01*
X155696830Y-136491628D01*
X155835232Y-136434300D01*
X155959791Y-136351072D01*
X156065719Y-136245144D01*
X156148947Y-136120585D01*
X156206275Y-135982183D01*
X156235500Y-135835256D01*
X156235500Y-135685450D01*
X156206275Y-135538523D01*
X156148947Y-135400121D01*
X156148946Y-135400120D01*
X156148943Y-135400114D01*
X156065719Y-135275562D01*
X156065716Y-135275558D01*
X155959794Y-135169636D01*
X155959790Y-135169633D01*
X155835238Y-135086409D01*
X155835229Y-135086404D01*
X155696830Y-135029078D01*
X155696822Y-135029076D01*
X155549907Y-134999853D01*
X155549903Y-134999853D01*
X155400097Y-134999853D01*
X155400092Y-134999853D01*
X155253177Y-135029076D01*
X155253169Y-135029078D01*
X155114770Y-135086404D01*
X155114761Y-135086409D01*
X154990209Y-135169633D01*
X154990205Y-135169636D01*
X154884283Y-135275558D01*
X154884280Y-135275562D01*
X154801056Y-135400114D01*
X154801051Y-135400123D01*
X154743725Y-135538522D01*
X154743723Y-135538530D01*
X154714500Y-135685445D01*
X118861348Y-135685445D01*
X116760167Y-133584263D01*
X116729188Y-133532579D01*
X116686372Y-133391431D01*
X116587711Y-133206850D01*
X116570924Y-133186395D01*
X116454936Y-133045063D01*
X116293153Y-132912291D01*
X116293151Y-132912290D01*
X116293150Y-132912289D01*
X116108569Y-132813628D01*
X116008427Y-132783250D01*
X115908284Y-132752872D01*
X115700000Y-132732359D01*
X115491715Y-132752872D01*
X115291428Y-132813629D01*
X115106846Y-132912291D01*
X114945065Y-133045062D01*
X114915866Y-133080640D01*
X114858120Y-133119973D01*
X114788275Y-133121842D01*
X114732334Y-133089654D01*
X114203319Y-132560638D01*
X114169834Y-132499315D01*
X114167000Y-132472957D01*
X114167000Y-126000000D01*
X123732359Y-126000000D01*
X123752872Y-126208284D01*
X123753792Y-126211317D01*
X123800110Y-126364007D01*
X123813629Y-126408571D01*
X123883158Y-126538649D01*
X123897800Y-126597103D01*
X123897800Y-130402896D01*
X123883158Y-130461349D01*
X123813629Y-130591426D01*
X123752872Y-130791715D01*
X123732359Y-131000000D01*
X123752872Y-131208284D01*
X123752873Y-131208286D01*
X123813628Y-131408569D01*
X123862589Y-131500169D01*
X123912291Y-131593153D01*
X124045063Y-131754936D01*
X124206846Y-131887708D01*
X124206850Y-131887711D01*
X124391431Y-131986372D01*
X124591714Y-132047127D01*
X124800000Y-132067641D01*
X125008286Y-132047127D01*
X125208569Y-131986372D01*
X125393150Y-131887711D01*
X125554936Y-131754936D01*
X125687711Y-131593150D01*
X125786372Y-131408569D01*
X125847127Y-131208286D01*
X125867641Y-131000000D01*
X125847127Y-130791714D01*
X125786372Y-130591431D01*
X125786370Y-130591428D01*
X125786370Y-130591426D01*
X125716842Y-130461349D01*
X125702200Y-130402896D01*
X125702200Y-126597103D01*
X125716842Y-126538649D01*
X125786372Y-126408569D01*
X125847127Y-126208286D01*
X125867641Y-126000000D01*
X125847127Y-125791714D01*
X125786372Y-125591431D01*
X125687711Y-125406850D01*
X125663509Y-125377360D01*
X125554936Y-125245063D01*
X125393153Y-125112291D01*
X125393151Y-125112290D01*
X125393150Y-125112289D01*
X125208569Y-125013628D01*
X125108427Y-124983250D01*
X125008284Y-124952872D01*
X124800000Y-124932359D01*
X124591715Y-124952872D01*
X124391428Y-125013629D01*
X124206846Y-125112291D01*
X124045063Y-125245063D01*
X123912291Y-125406846D01*
X123813629Y-125591428D01*
X123813628Y-125591430D01*
X123813628Y-125591431D01*
X123812220Y-125596072D01*
X123752872Y-125791715D01*
X123732359Y-126000000D01*
X114167000Y-126000000D01*
X114167000Y-125760128D01*
X114167001Y-125760103D01*
X114167001Y-125565008D01*
X114137280Y-125377360D01*
X114078569Y-125196668D01*
X114035575Y-125112289D01*
X113992318Y-125027393D01*
X113938176Y-124952873D01*
X113880648Y-124873692D01*
X113746308Y-124739352D01*
X113746307Y-124739351D01*
X113743196Y-124736240D01*
X113743181Y-124736226D01*
X112543319Y-123536363D01*
X112509834Y-123475040D01*
X112507000Y-123448682D01*
X112507000Y-122359994D01*
X127447505Y-122359994D01*
X127447505Y-122360005D01*
X127467451Y-122600715D01*
X127526746Y-122834869D01*
X127623774Y-123056072D01*
X127708019Y-123185017D01*
X127755886Y-123258283D01*
X127919479Y-123435993D01*
X127935782Y-123448682D01*
X128043017Y-123532147D01*
X128083830Y-123588857D01*
X128087504Y-123658630D01*
X128052872Y-123719313D01*
X128043017Y-123727853D01*
X127919481Y-123824005D01*
X127755887Y-124001715D01*
X127755884Y-124001719D01*
X127623774Y-124203927D01*
X127526746Y-124425130D01*
X127467451Y-124659284D01*
X127447505Y-124899994D01*
X127447505Y-124900005D01*
X127467451Y-125140715D01*
X127526746Y-125374869D01*
X127623774Y-125596072D01*
X127708019Y-125725017D01*
X127755886Y-125798283D01*
X127919479Y-125975993D01*
X127974507Y-126018823D01*
X128043017Y-126072147D01*
X128083830Y-126128857D01*
X128087504Y-126198630D01*
X128052872Y-126259313D01*
X128043017Y-126267853D01*
X127919481Y-126364005D01*
X127755887Y-126541715D01*
X127755884Y-126541719D01*
X127623774Y-126743927D01*
X127526746Y-126965130D01*
X127467451Y-127199284D01*
X127447505Y-127439994D01*
X127447505Y-127440005D01*
X127467451Y-127680715D01*
X127526746Y-127914869D01*
X127623774Y-128136072D01*
X127708019Y-128265017D01*
X127755886Y-128338283D01*
X127919479Y-128515993D01*
X127974507Y-128558823D01*
X128043017Y-128612147D01*
X128083830Y-128668857D01*
X128087504Y-128738630D01*
X128052872Y-128799313D01*
X128043017Y-128807853D01*
X127919481Y-128904005D01*
X127755887Y-129081715D01*
X127755884Y-129081719D01*
X127623774Y-129283927D01*
X127526746Y-129505130D01*
X127467451Y-129739284D01*
X127447505Y-129979994D01*
X127447505Y-129980005D01*
X127467451Y-130220715D01*
X127526746Y-130454869D01*
X127623774Y-130676072D01*
X127741501Y-130856265D01*
X127755886Y-130878283D01*
X127919479Y-131055993D01*
X127919482Y-131055995D01*
X127919485Y-131055998D01*
X128110082Y-131204346D01*
X128110088Y-131204350D01*
X128110091Y-131204352D01*
X128322522Y-131319314D01*
X128550979Y-131397743D01*
X128789228Y-131437500D01*
X128789229Y-131437500D01*
X129030771Y-131437500D01*
X129030772Y-131437500D01*
X129269021Y-131397743D01*
X129497478Y-131319314D01*
X129709909Y-131204352D01*
X129845033Y-131099181D01*
X155012500Y-131099181D01*
X155012500Y-132900803D01*
X155012501Y-132900819D01*
X155023169Y-133005242D01*
X155048154Y-133080640D01*
X155079236Y-133174440D01*
X155172811Y-133326149D01*
X155298851Y-133452189D01*
X155450560Y-133545764D01*
X155619759Y-133601831D01*
X155724189Y-133612500D01*
X157525810Y-133612499D01*
X157630241Y-133601831D01*
X157799440Y-133545764D01*
X157951149Y-133452189D01*
X158071050Y-133332287D01*
X158132369Y-133298805D01*
X158202061Y-133303789D01*
X158223518Y-133314244D01*
X158430676Y-133441191D01*
X158457228Y-133452189D01*
X158665169Y-133538321D01*
X158911969Y-133597572D01*
X159165000Y-133617486D01*
X159418031Y-133597572D01*
X159664831Y-133538321D01*
X159899323Y-133441191D01*
X160115734Y-133308574D01*
X160308735Y-133143735D01*
X160473574Y-132950734D01*
X160606191Y-132734323D01*
X160703321Y-132499831D01*
X160762572Y-132253031D01*
X160782486Y-132000000D01*
X160762572Y-131746969D01*
X160703321Y-131500169D01*
X160606191Y-131265677D01*
X160606191Y-131265676D01*
X160477699Y-131055998D01*
X160473574Y-131049266D01*
X160308735Y-130856265D01*
X160115734Y-130691426D01*
X160115732Y-130691424D01*
X160115730Y-130691423D01*
X160115728Y-130691422D01*
X159899323Y-130558808D01*
X159664833Y-130461680D01*
X159664835Y-130461680D01*
X159664831Y-130461679D01*
X159664827Y-130461678D01*
X159664821Y-130461676D01*
X159418027Y-130402427D01*
X159418028Y-130402427D01*
X159165000Y-130382514D01*
X158911971Y-130402427D01*
X158665178Y-130461676D01*
X158665166Y-130461680D01*
X158430681Y-130558806D01*
X158223518Y-130685756D01*
X158156072Y-130704000D01*
X158089469Y-130682883D01*
X158071047Y-130667709D01*
X157951150Y-130547812D01*
X157951149Y-130547811D01*
X157810972Y-130461349D01*
X157799442Y-130454237D01*
X157799437Y-130454235D01*
X157630242Y-130398169D01*
X157630235Y-130398168D01*
X157525812Y-130387500D01*
X155724196Y-130387500D01*
X155724180Y-130387501D01*
X155619757Y-130398169D01*
X155450562Y-130454235D01*
X155450557Y-130454237D01*
X155298849Y-130547812D01*
X155172812Y-130673849D01*
X155079237Y-130825557D01*
X155079235Y-130825562D01*
X155023169Y-130994757D01*
X155023168Y-130994764D01*
X155012500Y-131099181D01*
X129845033Y-131099181D01*
X129900521Y-131055993D01*
X130064114Y-130878283D01*
X130196226Y-130676071D01*
X130293253Y-130454871D01*
X130352548Y-130220719D01*
X130372495Y-129980000D01*
X130352548Y-129739281D01*
X130293253Y-129505129D01*
X130196226Y-129283929D01*
X130064114Y-129081717D01*
X129900521Y-128904007D01*
X129900516Y-128904003D01*
X129900514Y-128904001D01*
X129776983Y-128807853D01*
X129736170Y-128751143D01*
X129732495Y-128681370D01*
X129767127Y-128620687D01*
X129776983Y-128612147D01*
X129851993Y-128553763D01*
X129900521Y-128515993D01*
X130064114Y-128338283D01*
X130076191Y-128319798D01*
X130129337Y-128274441D01*
X130198568Y-128265017D01*
X130261904Y-128294518D01*
X130283809Y-128319798D01*
X130295881Y-128338277D01*
X130295884Y-128338280D01*
X130295886Y-128338283D01*
X130459479Y-128515993D01*
X130459482Y-128515995D01*
X130459485Y-128515998D01*
X130650082Y-128664346D01*
X130650088Y-128664350D01*
X130650091Y-128664352D01*
X130862522Y-128779314D01*
X131090979Y-128857743D01*
X131329228Y-128897500D01*
X131329229Y-128897500D01*
X131570771Y-128897500D01*
X131570772Y-128897500D01*
X131809021Y-128857743D01*
X132037478Y-128779314D01*
X132249909Y-128664352D01*
X132440521Y-128515993D01*
X132604114Y-128338283D01*
X132736226Y-128136071D01*
X132833253Y-127914871D01*
X132892548Y-127680719D01*
X132901413Y-127573732D01*
X132912495Y-127440005D01*
X132912495Y-127439994D01*
X132892548Y-127199284D01*
X132892548Y-127199281D01*
X132833253Y-126965129D01*
X132736226Y-126743929D01*
X132604114Y-126541717D01*
X132440521Y-126364007D01*
X132440516Y-126364003D01*
X132440514Y-126364001D01*
X132316983Y-126267853D01*
X132276170Y-126211143D01*
X132272495Y-126141370D01*
X132307127Y-126080687D01*
X132316983Y-126072147D01*
X132409677Y-126000000D01*
X132440521Y-125975993D01*
X132604114Y-125798283D01*
X132736226Y-125596071D01*
X132833253Y-125374871D01*
X132892548Y-125140719D01*
X132912495Y-124900000D01*
X132910315Y-124873693D01*
X132892548Y-124659284D01*
X132892548Y-124659281D01*
X132833253Y-124425129D01*
X132736226Y-124203929D01*
X132604114Y-124001717D01*
X132440521Y-123824007D01*
X132440516Y-123824003D01*
X132440514Y-123824001D01*
X132316983Y-123727853D01*
X132276170Y-123671143D01*
X132272495Y-123601370D01*
X132307127Y-123540687D01*
X132316983Y-123532147D01*
X132424218Y-123448682D01*
X132440521Y-123435993D01*
X132604114Y-123258283D01*
X132736226Y-123056071D01*
X132833253Y-122834871D01*
X132892548Y-122600719D01*
X132903575Y-122467641D01*
X132912495Y-122360005D01*
X132912495Y-122359994D01*
X132895712Y-122157461D01*
X132892548Y-122119281D01*
X132862342Y-122000000D01*
X141932359Y-122000000D01*
X141952872Y-122208284D01*
X141952873Y-122208286D01*
X141998896Y-122360005D01*
X142013629Y-122408571D01*
X142083158Y-122538649D01*
X142097800Y-122597103D01*
X142097800Y-126302896D01*
X142083158Y-126361349D01*
X142013629Y-126491426D01*
X141952872Y-126691715D01*
X141932359Y-126900000D01*
X141952872Y-127108284D01*
X141952873Y-127108286D01*
X142013628Y-127308569D01*
X142087888Y-127447500D01*
X142112291Y-127493153D01*
X142245063Y-127654936D01*
X142406846Y-127787708D01*
X142406850Y-127787711D01*
X142591431Y-127886372D01*
X142791714Y-127947127D01*
X143000000Y-127967641D01*
X143208286Y-127947127D01*
X143408569Y-127886372D01*
X143593150Y-127787711D01*
X143754936Y-127654936D01*
X143887711Y-127493150D01*
X143986372Y-127308569D01*
X144047127Y-127108286D01*
X144067641Y-126900000D01*
X144047127Y-126691714D01*
X143986372Y-126491431D01*
X143986370Y-126491428D01*
X143986370Y-126491426D01*
X143916842Y-126361349D01*
X143902200Y-126302896D01*
X143902200Y-122597103D01*
X143916842Y-122538649D01*
X143986372Y-122408569D01*
X144047127Y-122208286D01*
X144067641Y-122000000D01*
X144047127Y-121791714D01*
X143986372Y-121591431D01*
X143887711Y-121406850D01*
X143887708Y-121406846D01*
X143882090Y-121400000D01*
X147132359Y-121400000D01*
X147152872Y-121608284D01*
X147180764Y-121700232D01*
X147208515Y-121791715D01*
X147213629Y-121808571D01*
X147312291Y-121993153D01*
X147445063Y-122154936D01*
X147606846Y-122287708D01*
X147606850Y-122287711D01*
X147791431Y-122386372D01*
X147991714Y-122447127D01*
X148200000Y-122467641D01*
X148408286Y-122447127D01*
X148608569Y-122386372D01*
X148738650Y-122316841D01*
X148797103Y-122302200D01*
X154161069Y-122302200D01*
X154228108Y-122321885D01*
X154256922Y-122347535D01*
X154345063Y-122454936D01*
X154506846Y-122587708D01*
X154506850Y-122587711D01*
X154691431Y-122686372D01*
X154891714Y-122747127D01*
X155100000Y-122767641D01*
X155308286Y-122747127D01*
X155508569Y-122686372D01*
X155693150Y-122587711D01*
X155854936Y-122454936D01*
X155932853Y-122359994D01*
X175447505Y-122359994D01*
X175447505Y-122360005D01*
X175467451Y-122600715D01*
X175526746Y-122834869D01*
X175623774Y-123056072D01*
X175708019Y-123185017D01*
X175755886Y-123258283D01*
X175919479Y-123435993D01*
X175935782Y-123448682D01*
X176043017Y-123532147D01*
X176083830Y-123588857D01*
X176087504Y-123658630D01*
X176052872Y-123719313D01*
X176043017Y-123727853D01*
X175919481Y-123824005D01*
X175755887Y-124001715D01*
X175755884Y-124001719D01*
X175623774Y-124203927D01*
X175526746Y-124425130D01*
X175467451Y-124659284D01*
X175447505Y-124899994D01*
X175447505Y-124900005D01*
X175467451Y-125140715D01*
X175526746Y-125374869D01*
X175623774Y-125596072D01*
X175708019Y-125725017D01*
X175755886Y-125798283D01*
X175919479Y-125975993D01*
X175974507Y-126018823D01*
X176043017Y-126072147D01*
X176083830Y-126128857D01*
X176087504Y-126198630D01*
X176052872Y-126259313D01*
X176043017Y-126267853D01*
X175919481Y-126364005D01*
X175755887Y-126541715D01*
X175755884Y-126541719D01*
X175623774Y-126743927D01*
X175526746Y-126965130D01*
X175467451Y-127199284D01*
X175447505Y-127439994D01*
X175447505Y-127440005D01*
X175467451Y-127680715D01*
X175526746Y-127914869D01*
X175623774Y-128136072D01*
X175708019Y-128265017D01*
X175755886Y-128338283D01*
X175919479Y-128515993D01*
X175974507Y-128558823D01*
X176043017Y-128612147D01*
X176083830Y-128668857D01*
X176087504Y-128738630D01*
X176052872Y-128799313D01*
X176043017Y-128807853D01*
X175919481Y-128904005D01*
X175755887Y-129081715D01*
X175755884Y-129081719D01*
X175623774Y-129283927D01*
X175526746Y-129505130D01*
X175467451Y-129739284D01*
X175447505Y-129979994D01*
X175447505Y-129980005D01*
X175467451Y-130220715D01*
X175526746Y-130454869D01*
X175623774Y-130676072D01*
X175741501Y-130856265D01*
X175755886Y-130878283D01*
X175919479Y-131055993D01*
X175919482Y-131055995D01*
X175919485Y-131055998D01*
X176110082Y-131204346D01*
X176110088Y-131204350D01*
X176110091Y-131204352D01*
X176322522Y-131319314D01*
X176550979Y-131397743D01*
X176789228Y-131437500D01*
X176789229Y-131437500D01*
X177030771Y-131437500D01*
X177030772Y-131437500D01*
X177269021Y-131397743D01*
X177497478Y-131319314D01*
X177709909Y-131204352D01*
X177900521Y-131055993D01*
X178064114Y-130878283D01*
X178196226Y-130676071D01*
X178293253Y-130454871D01*
X178352548Y-130220719D01*
X178372495Y-129980000D01*
X178352548Y-129739281D01*
X178293253Y-129505129D01*
X178196226Y-129283929D01*
X178064114Y-129081717D01*
X177900521Y-128904007D01*
X177900516Y-128904003D01*
X177900514Y-128904001D01*
X177776983Y-128807853D01*
X177736170Y-128751143D01*
X177732495Y-128681370D01*
X177767127Y-128620687D01*
X177776983Y-128612147D01*
X177851993Y-128553763D01*
X177900521Y-128515993D01*
X178064114Y-128338283D01*
X178076191Y-128319798D01*
X178129337Y-128274441D01*
X178198568Y-128265017D01*
X178261904Y-128294518D01*
X178283809Y-128319798D01*
X178295881Y-128338277D01*
X178295884Y-128338280D01*
X178295886Y-128338283D01*
X178459479Y-128515993D01*
X178459482Y-128515995D01*
X178459485Y-128515998D01*
X178650082Y-128664346D01*
X178650088Y-128664350D01*
X178650091Y-128664352D01*
X178862522Y-128779314D01*
X179090979Y-128857743D01*
X179329228Y-128897500D01*
X179329229Y-128897500D01*
X179570771Y-128897500D01*
X179570772Y-128897500D01*
X179809021Y-128857743D01*
X180037478Y-128779314D01*
X180249909Y-128664352D01*
X180440521Y-128515993D01*
X180604114Y-128338283D01*
X180736226Y-128136071D01*
X180833253Y-127914871D01*
X180892548Y-127680719D01*
X180901413Y-127573732D01*
X180912495Y-127440005D01*
X180912495Y-127439994D01*
X180892548Y-127199284D01*
X180892548Y-127199281D01*
X180833253Y-126965129D01*
X180736226Y-126743929D01*
X180604114Y-126541717D01*
X180440521Y-126364007D01*
X180440516Y-126364003D01*
X180440514Y-126364001D01*
X180316983Y-126267853D01*
X180276170Y-126211143D01*
X180272495Y-126141370D01*
X180307127Y-126080687D01*
X180316983Y-126072147D01*
X180409677Y-126000000D01*
X180440521Y-125975993D01*
X180604114Y-125798283D01*
X180736226Y-125596071D01*
X180833253Y-125374871D01*
X180892548Y-125140719D01*
X180912495Y-124900000D01*
X180910315Y-124873693D01*
X180892548Y-124659284D01*
X180892548Y-124659281D01*
X180833253Y-124425129D01*
X180736226Y-124203929D01*
X180604114Y-124001717D01*
X180440521Y-123824007D01*
X180440516Y-123824003D01*
X180440514Y-123824001D01*
X180316983Y-123727853D01*
X180276170Y-123671143D01*
X180272495Y-123601370D01*
X180307127Y-123540687D01*
X180316983Y-123532147D01*
X180424218Y-123448682D01*
X180440521Y-123435993D01*
X180604114Y-123258283D01*
X180736226Y-123056071D01*
X180833253Y-122834871D01*
X180892548Y-122600719D01*
X180903575Y-122467641D01*
X180912495Y-122360005D01*
X180912495Y-122359994D01*
X180895712Y-122157461D01*
X180892548Y-122119281D01*
X180833253Y-121885129D01*
X180736226Y-121663929D01*
X180604114Y-121461717D01*
X180440521Y-121284007D01*
X180440516Y-121284003D01*
X180440514Y-121284001D01*
X180249917Y-121135653D01*
X180249911Y-121135649D01*
X180037479Y-121020686D01*
X180037474Y-121020684D01*
X179809023Y-120942257D01*
X179650188Y-120915752D01*
X179570772Y-120902500D01*
X179329228Y-120902500D01*
X179269665Y-120912439D01*
X179090976Y-120942257D01*
X178862525Y-121020684D01*
X178862520Y-121020686D01*
X178650088Y-121135649D01*
X178650082Y-121135653D01*
X178459485Y-121284001D01*
X178459482Y-121284004D01*
X178295887Y-121461715D01*
X178295885Y-121461717D01*
X178283807Y-121480205D01*
X178230660Y-121525560D01*
X178161428Y-121534982D01*
X178098093Y-121505479D01*
X178076193Y-121480205D01*
X178064114Y-121461717D01*
X178064112Y-121461715D01*
X177900521Y-121284007D01*
X177900516Y-121284003D01*
X177900514Y-121284001D01*
X177709917Y-121135653D01*
X177709911Y-121135649D01*
X177497479Y-121020686D01*
X177497474Y-121020684D01*
X177269023Y-120942257D01*
X177110188Y-120915752D01*
X177030772Y-120902500D01*
X176789228Y-120902500D01*
X176729665Y-120912439D01*
X176550976Y-120942257D01*
X176322525Y-121020684D01*
X176322520Y-121020686D01*
X176110088Y-121135649D01*
X176110082Y-121135653D01*
X175919485Y-121284001D01*
X175919482Y-121284004D01*
X175755887Y-121461715D01*
X175755884Y-121461719D01*
X175623774Y-121663927D01*
X175526746Y-121885130D01*
X175467451Y-122119284D01*
X175447505Y-122359994D01*
X155932853Y-122359994D01*
X155987711Y-122293150D01*
X156086372Y-122108569D01*
X156147127Y-121908286D01*
X156167641Y-121700000D01*
X156147127Y-121491714D01*
X156086372Y-121291431D01*
X155987711Y-121106850D01*
X155976621Y-121093337D01*
X155854936Y-120945063D01*
X155693153Y-120812291D01*
X155693151Y-120812290D01*
X155693150Y-120812289D01*
X155575269Y-120749280D01*
X155508568Y-120713627D01*
X155321265Y-120656809D01*
X155288371Y-120641252D01*
X155239687Y-120608723D01*
X155227352Y-120600481D01*
X155063162Y-120532471D01*
X155063154Y-120532469D01*
X154888862Y-120497800D01*
X154888859Y-120497800D01*
X148797103Y-120497800D01*
X148738650Y-120483158D01*
X148608569Y-120413628D01*
X148506415Y-120382640D01*
X148408284Y-120352872D01*
X148200000Y-120332359D01*
X147991715Y-120352872D01*
X147791428Y-120413629D01*
X147606846Y-120512291D01*
X147445063Y-120645063D01*
X147312291Y-120806846D01*
X147213629Y-120991428D01*
X147152872Y-121191715D01*
X147132359Y-121400000D01*
X143882090Y-121400000D01*
X143754936Y-121245063D01*
X143593153Y-121112291D01*
X143593151Y-121112290D01*
X143593150Y-121112289D01*
X143408569Y-121013628D01*
X143279739Y-120974548D01*
X143208284Y-120952872D01*
X143000000Y-120932359D01*
X142791715Y-120952872D01*
X142591428Y-121013629D01*
X142406846Y-121112291D01*
X142245063Y-121245063D01*
X142112291Y-121406846D01*
X142013629Y-121591428D01*
X141952872Y-121791715D01*
X141932359Y-122000000D01*
X132862342Y-122000000D01*
X132833253Y-121885129D01*
X132736226Y-121663929D01*
X132604114Y-121461717D01*
X132440521Y-121284007D01*
X132440516Y-121284003D01*
X132440514Y-121284001D01*
X132249917Y-121135653D01*
X132249911Y-121135649D01*
X132037479Y-121020686D01*
X132037474Y-121020684D01*
X131809023Y-120942257D01*
X131650188Y-120915752D01*
X131570772Y-120902500D01*
X131329228Y-120902500D01*
X131269665Y-120912439D01*
X131090976Y-120942257D01*
X130862525Y-121020684D01*
X130862520Y-121020686D01*
X130650088Y-121135649D01*
X130650082Y-121135653D01*
X130459485Y-121284001D01*
X130459482Y-121284004D01*
X130295887Y-121461715D01*
X130295885Y-121461717D01*
X130283807Y-121480205D01*
X130230660Y-121525560D01*
X130161428Y-121534982D01*
X130098093Y-121505479D01*
X130076193Y-121480205D01*
X130064114Y-121461717D01*
X130064112Y-121461715D01*
X129900521Y-121284007D01*
X129900516Y-121284003D01*
X129900514Y-121284001D01*
X129709917Y-121135653D01*
X129709911Y-121135649D01*
X129497479Y-121020686D01*
X129497474Y-121020684D01*
X129269023Y-120942257D01*
X129110188Y-120915752D01*
X129030772Y-120902500D01*
X128789228Y-120902500D01*
X128729665Y-120912439D01*
X128550976Y-120942257D01*
X128322525Y-121020684D01*
X128322520Y-121020686D01*
X128110088Y-121135649D01*
X128110082Y-121135653D01*
X127919485Y-121284001D01*
X127919482Y-121284004D01*
X127755887Y-121461715D01*
X127755884Y-121461719D01*
X127623774Y-121663927D01*
X127526746Y-121885130D01*
X127467451Y-122119284D01*
X127447505Y-122359994D01*
X112507000Y-122359994D01*
X112507000Y-122224500D01*
X112526685Y-122157461D01*
X112579489Y-122111706D01*
X112631000Y-122100500D01*
X112774907Y-122100500D01*
X112774908Y-122100499D01*
X112921833Y-122071275D01*
X113060235Y-122013947D01*
X113184794Y-121930719D01*
X113290722Y-121824791D01*
X113373950Y-121700232D01*
X113431278Y-121561830D01*
X113460503Y-121414903D01*
X113460503Y-121265097D01*
X113431278Y-121118170D01*
X113373950Y-120979768D01*
X113373949Y-120979767D01*
X113373946Y-120979761D01*
X113290722Y-120855209D01*
X113290719Y-120855205D01*
X113184797Y-120749283D01*
X113184793Y-120749280D01*
X113060241Y-120666056D01*
X113060232Y-120666051D01*
X112921833Y-120608725D01*
X112921825Y-120608723D01*
X112774910Y-120579500D01*
X112774906Y-120579500D01*
X112631000Y-120579500D01*
X112563961Y-120559815D01*
X112518206Y-120507011D01*
X112507000Y-120455500D01*
X112507000Y-120399999D01*
X114172794Y-120399999D01*
X114191595Y-120638901D01*
X114191595Y-120638904D01*
X114191596Y-120638907D01*
X114218095Y-120749280D01*
X114247542Y-120871936D01*
X114339247Y-121093333D01*
X114339249Y-121093336D01*
X114464461Y-121297663D01*
X114464462Y-121297666D01*
X114464465Y-121297669D01*
X114620103Y-121479898D01*
X114750688Y-121591428D01*
X114802334Y-121635538D01*
X114802336Y-121635538D01*
X114848662Y-121663927D01*
X115006664Y-121760751D01*
X115006667Y-121760753D01*
X115161277Y-121824794D01*
X115228069Y-121852460D01*
X115461094Y-121908405D01*
X115700002Y-121927207D01*
X115938910Y-121908405D01*
X116171935Y-121852460D01*
X116282637Y-121806605D01*
X116393336Y-121760753D01*
X116393337Y-121760752D01*
X116393340Y-121760751D01*
X116597672Y-121635536D01*
X116779901Y-121479898D01*
X116935539Y-121297669D01*
X117060754Y-121093337D01*
X117085440Y-121033737D01*
X117129280Y-120979336D01*
X117195573Y-120957270D01*
X117263273Y-120974548D01*
X117310884Y-121025685D01*
X117314562Y-121033738D01*
X117339248Y-121093337D01*
X117464460Y-121297663D01*
X117464461Y-121297666D01*
X117464464Y-121297669D01*
X117620102Y-121479898D01*
X117750687Y-121591428D01*
X117802333Y-121635538D01*
X117802335Y-121635538D01*
X117848661Y-121663927D01*
X118006663Y-121760751D01*
X118006666Y-121760753D01*
X118161276Y-121824794D01*
X118228068Y-121852460D01*
X118461093Y-121908405D01*
X118700001Y-121927207D01*
X118938909Y-121908405D01*
X119171934Y-121852460D01*
X119282636Y-121806605D01*
X119393335Y-121760753D01*
X119393336Y-121760752D01*
X119393339Y-121760751D01*
X119597671Y-121635536D01*
X119779900Y-121479898D01*
X119935538Y-121297669D01*
X120060753Y-121093337D01*
X120085439Y-121033737D01*
X120129279Y-120979336D01*
X120195572Y-120957270D01*
X120263272Y-120974548D01*
X120310883Y-121025685D01*
X120314561Y-121033738D01*
X120339247Y-121093337D01*
X120464459Y-121297663D01*
X120464460Y-121297666D01*
X120464463Y-121297669D01*
X120620101Y-121479898D01*
X120750686Y-121591428D01*
X120802332Y-121635538D01*
X120802334Y-121635538D01*
X120848660Y-121663927D01*
X121006662Y-121760751D01*
X121006665Y-121760753D01*
X121161275Y-121824794D01*
X121228067Y-121852460D01*
X121461092Y-121908405D01*
X121700000Y-121927207D01*
X121938908Y-121908405D01*
X122171933Y-121852460D01*
X122282635Y-121806605D01*
X122393334Y-121760753D01*
X122393335Y-121760752D01*
X122393338Y-121760751D01*
X122597670Y-121635536D01*
X122779899Y-121479898D01*
X122935537Y-121297669D01*
X122955500Y-121265092D01*
X123939479Y-121265092D01*
X123939479Y-121414907D01*
X123968702Y-121561822D01*
X123968704Y-121561830D01*
X124026030Y-121700229D01*
X124026035Y-121700238D01*
X124109259Y-121824790D01*
X124109262Y-121824794D01*
X124215184Y-121930716D01*
X124215188Y-121930719D01*
X124339740Y-122013943D01*
X124339746Y-122013946D01*
X124339747Y-122013947D01*
X124478149Y-122071275D01*
X124625071Y-122100499D01*
X124625075Y-122100500D01*
X124625076Y-122100500D01*
X124774883Y-122100500D01*
X124774884Y-122100499D01*
X124921809Y-122071275D01*
X125060211Y-122013947D01*
X125184770Y-121930719D01*
X125290698Y-121824791D01*
X125373926Y-121700232D01*
X125431254Y-121561830D01*
X125460479Y-121414903D01*
X125460479Y-121265097D01*
X125431254Y-121118170D01*
X125373926Y-120979768D01*
X125373925Y-120979767D01*
X125373922Y-120979761D01*
X125290698Y-120855209D01*
X125290695Y-120855205D01*
X125184773Y-120749283D01*
X125184769Y-120749280D01*
X125060217Y-120666056D01*
X125060208Y-120666051D01*
X124921809Y-120608725D01*
X124921801Y-120608723D01*
X124774886Y-120579500D01*
X124774882Y-120579500D01*
X124625076Y-120579500D01*
X124625071Y-120579500D01*
X124478156Y-120608723D01*
X124478148Y-120608725D01*
X124339749Y-120666051D01*
X124339740Y-120666056D01*
X124215188Y-120749280D01*
X124215184Y-120749283D01*
X124109262Y-120855205D01*
X124109259Y-120855209D01*
X124026035Y-120979761D01*
X124026030Y-120979770D01*
X123968704Y-121118169D01*
X123968702Y-121118177D01*
X123939479Y-121265092D01*
X122955500Y-121265092D01*
X123060752Y-121093337D01*
X123088775Y-121025685D01*
X123118934Y-120952873D01*
X123152461Y-120871932D01*
X123208406Y-120638907D01*
X123227208Y-120399999D01*
X123208406Y-120161091D01*
X123152461Y-119928066D01*
X123138762Y-119894993D01*
X123060754Y-119706664D01*
X123060752Y-119706661D01*
X122935540Y-119502334D01*
X122935539Y-119502331D01*
X122879462Y-119436674D01*
X122779899Y-119320100D01*
X122659419Y-119217200D01*
X122597667Y-119164459D01*
X122597664Y-119164458D01*
X122393338Y-119039246D01*
X122333739Y-119014560D01*
X122279336Y-118970719D01*
X122257271Y-118904425D01*
X122274550Y-118836726D01*
X122325687Y-118789115D01*
X122333719Y-118785446D01*
X122393338Y-118760752D01*
X122597670Y-118635537D01*
X122779899Y-118479899D01*
X122935537Y-118297670D01*
X123060752Y-118093338D01*
X123082935Y-118039785D01*
X123143671Y-117893153D01*
X123152461Y-117871933D01*
X123208406Y-117638908D01*
X123227208Y-117400000D01*
X123208406Y-117161092D01*
X123152461Y-116928067D01*
X123118080Y-116845063D01*
X123060754Y-116706665D01*
X123060752Y-116706662D01*
X122935540Y-116502335D01*
X122935539Y-116502332D01*
X122875870Y-116432469D01*
X122779899Y-116320101D01*
X122659419Y-116217201D01*
X122597667Y-116164460D01*
X122597664Y-116164459D01*
X122393337Y-116039247D01*
X122393334Y-116039245D01*
X122171937Y-115947540D01*
X122158171Y-115944235D01*
X121938908Y-115891594D01*
X121938905Y-115891593D01*
X121938902Y-115891593D01*
X121700000Y-115872792D01*
X121461097Y-115891593D01*
X121461093Y-115891593D01*
X121461092Y-115891594D01*
X121359364Y-115916017D01*
X121228062Y-115947540D01*
X121006665Y-116039245D01*
X121006662Y-116039247D01*
X120802335Y-116164459D01*
X120802332Y-116164460D01*
X120620101Y-116320101D01*
X120464460Y-116502332D01*
X120464459Y-116502335D01*
X120339247Y-116706662D01*
X120339245Y-116706665D01*
X120247540Y-116928062D01*
X120191593Y-117161097D01*
X120172792Y-117400000D01*
X120191593Y-117638902D01*
X120191593Y-117638905D01*
X120191594Y-117638908D01*
X120244987Y-117861304D01*
X120247540Y-117871937D01*
X120339245Y-118093334D01*
X120339247Y-118093337D01*
X120464459Y-118297664D01*
X120464460Y-118297667D01*
X120464463Y-118297670D01*
X120620101Y-118479899D01*
X120744763Y-118586370D01*
X120802332Y-118635539D01*
X120802335Y-118635540D01*
X121006662Y-118760752D01*
X121006664Y-118760753D01*
X121066259Y-118785438D01*
X121120663Y-118829278D01*
X121142728Y-118895572D01*
X121125449Y-118963272D01*
X121074313Y-119010882D01*
X121066260Y-119014560D01*
X121006661Y-119039246D01*
X120802335Y-119164458D01*
X120802332Y-119164459D01*
X120620101Y-119320100D01*
X120464460Y-119502331D01*
X120464459Y-119502334D01*
X120339247Y-119706660D01*
X120314561Y-119766259D01*
X120270720Y-119820662D01*
X120204425Y-119842727D01*
X120136726Y-119825447D01*
X120089116Y-119774310D01*
X120085439Y-119766258D01*
X120060754Y-119706663D01*
X120060753Y-119706661D01*
X119935541Y-119502334D01*
X119935540Y-119502331D01*
X119879463Y-119436674D01*
X119779900Y-119320100D01*
X119659420Y-119217200D01*
X119597668Y-119164459D01*
X119597665Y-119164458D01*
X119393338Y-119039246D01*
X119393335Y-119039244D01*
X119171938Y-118947539D01*
X119067644Y-118922500D01*
X118938909Y-118891593D01*
X118938906Y-118891592D01*
X118938903Y-118891592D01*
X118700001Y-118872791D01*
X118461098Y-118891592D01*
X118461094Y-118891592D01*
X118461093Y-118891593D01*
X118369787Y-118913514D01*
X118228063Y-118947539D01*
X118006666Y-119039244D01*
X118006663Y-119039246D01*
X117802336Y-119164458D01*
X117802333Y-119164459D01*
X117620102Y-119320100D01*
X117464461Y-119502331D01*
X117464460Y-119502334D01*
X117339248Y-119706660D01*
X117314562Y-119766259D01*
X117270721Y-119820662D01*
X117204426Y-119842727D01*
X117136727Y-119825447D01*
X117089117Y-119774310D01*
X117085440Y-119766258D01*
X117060755Y-119706663D01*
X117060754Y-119706661D01*
X116935542Y-119502334D01*
X116935541Y-119502331D01*
X116879464Y-119436674D01*
X116779901Y-119320100D01*
X116659421Y-119217200D01*
X116597669Y-119164459D01*
X116597666Y-119164458D01*
X116559793Y-119141249D01*
X116512918Y-119089437D01*
X116501495Y-119020508D01*
X116529153Y-118956345D01*
X116587108Y-118917320D01*
X116611984Y-118912164D01*
X116615243Y-118911831D01*
X116615246Y-118911830D01*
X116784442Y-118855764D01*
X116936151Y-118762189D01*
X117062191Y-118636149D01*
X117155766Y-118484440D01*
X117211833Y-118315241D01*
X117222502Y-118210811D01*
X117222501Y-116589190D01*
X117211833Y-116484759D01*
X117155766Y-116315560D01*
X117062191Y-116163851D01*
X116936151Y-116037811D01*
X116784442Y-115944236D01*
X116699283Y-115916017D01*
X116615244Y-115888169D01*
X116615237Y-115888168D01*
X116510814Y-115877500D01*
X114889198Y-115877500D01*
X114889182Y-115877501D01*
X114784759Y-115888169D01*
X114615564Y-115944235D01*
X114615559Y-115944237D01*
X114463851Y-116037812D01*
X114337814Y-116163849D01*
X114244239Y-116315557D01*
X114244237Y-116315562D01*
X114188171Y-116484757D01*
X114188170Y-116484764D01*
X114177502Y-116589181D01*
X114177502Y-118210803D01*
X114177503Y-118210819D01*
X114188171Y-118315242D01*
X114244237Y-118484437D01*
X114244239Y-118484442D01*
X114279680Y-118541900D01*
X114337813Y-118636149D01*
X114463853Y-118762189D01*
X114615562Y-118855764D01*
X114784761Y-118911831D01*
X114784765Y-118911831D01*
X114784768Y-118911832D01*
X114788019Y-118912164D01*
X114789896Y-118912930D01*
X114791386Y-118913249D01*
X114791329Y-118913514D01*
X114852711Y-118938558D01*
X114892864Y-118995737D01*
X114895730Y-119065548D01*
X114860398Y-119125826D01*
X114840211Y-119141249D01*
X114802333Y-119164460D01*
X114620103Y-119320100D01*
X114464462Y-119502331D01*
X114464461Y-119502334D01*
X114339249Y-119706661D01*
X114339247Y-119706664D01*
X114247542Y-119928061D01*
X114191595Y-120161096D01*
X114172794Y-120399999D01*
X112507000Y-120399999D01*
X112507000Y-120315807D01*
X112518370Y-120268526D01*
X112516704Y-120267837D01*
X112518568Y-120263334D01*
X112518568Y-120263333D01*
X112518571Y-120263328D01*
X112577280Y-120082640D01*
X112601763Y-119928061D01*
X112607000Y-119894998D01*
X112607000Y-110999993D01*
X138997709Y-110999993D01*
X138997709Y-111000006D01*
X139016832Y-111230801D01*
X139016834Y-111230812D01*
X139073688Y-111455323D01*
X139166721Y-111667415D01*
X139293392Y-111861301D01*
X139343762Y-111916017D01*
X139374684Y-111978672D01*
X139366824Y-112048098D01*
X139343763Y-112083981D01*
X139293393Y-112138699D01*
X139166721Y-112332585D01*
X139073688Y-112544677D01*
X139016834Y-112769188D01*
X139016832Y-112769199D01*
X138997709Y-112999994D01*
X138997709Y-113000007D01*
X139016832Y-113230802D01*
X139016834Y-113230813D01*
X139073688Y-113455324D01*
X139166721Y-113667416D01*
X139293392Y-113861302D01*
X139343762Y-113916018D01*
X139374684Y-113978673D01*
X139366824Y-114048099D01*
X139343763Y-114083982D01*
X139293393Y-114138700D01*
X139166721Y-114332586D01*
X139073688Y-114544678D01*
X139016834Y-114769189D01*
X139016832Y-114769200D01*
X138997709Y-114999995D01*
X138997709Y-115000008D01*
X139016832Y-115230803D01*
X139016834Y-115230814D01*
X139073688Y-115455325D01*
X139166721Y-115667417D01*
X139166722Y-115667418D01*
X139293395Y-115861306D01*
X139318123Y-115888168D01*
X139343761Y-115916019D01*
X139374682Y-115978674D01*
X139366821Y-116048100D01*
X139343761Y-116083983D01*
X139293393Y-116138698D01*
X139166721Y-116332584D01*
X139073688Y-116544676D01*
X139016834Y-116769187D01*
X139016832Y-116769198D01*
X138997709Y-116999993D01*
X138997709Y-117000006D01*
X139016832Y-117230801D01*
X139016834Y-117230812D01*
X139073688Y-117455323D01*
X139166721Y-117667415D01*
X139293392Y-117861301D01*
X139450256Y-118031700D01*
X139450260Y-118031703D01*
X139529449Y-118093338D01*
X139633019Y-118173950D01*
X139836706Y-118284180D01*
X139927184Y-118315241D01*
X140055753Y-118359379D01*
X140055755Y-118359379D01*
X140055757Y-118359380D01*
X140284199Y-118397500D01*
X140284200Y-118397500D01*
X140515798Y-118397500D01*
X140515799Y-118397500D01*
X140744241Y-118359380D01*
X140963292Y-118284180D01*
X141166979Y-118173950D01*
X141323838Y-118051860D01*
X141388830Y-118026219D01*
X141457370Y-118039785D01*
X141476161Y-118051862D01*
X141480111Y-118054936D01*
X141633020Y-118173950D01*
X141836707Y-118284180D01*
X141927185Y-118315241D01*
X142055754Y-118359379D01*
X142055756Y-118359379D01*
X142055758Y-118359380D01*
X142284200Y-118397500D01*
X142284201Y-118397500D01*
X142515799Y-118397500D01*
X142515800Y-118397500D01*
X142744242Y-118359380D01*
X142963293Y-118284180D01*
X143166980Y-118173950D01*
X143349745Y-118031698D01*
X143506604Y-117861304D01*
X143633277Y-117667416D01*
X143662849Y-117600000D01*
X149492659Y-117600000D01*
X149513172Y-117808284D01*
X149513173Y-117808286D01*
X149573928Y-118008569D01*
X149669680Y-118187708D01*
X149672591Y-118193153D01*
X149805363Y-118354936D01*
X149967146Y-118487708D01*
X149967150Y-118487711D01*
X150151731Y-118586372D01*
X150352014Y-118647127D01*
X150560300Y-118667641D01*
X150768586Y-118647127D01*
X150968869Y-118586372D01*
X151153450Y-118487711D01*
X151315236Y-118354936D01*
X151403378Y-118247534D01*
X151461123Y-118208201D01*
X151499231Y-118202200D01*
X154102897Y-118202200D01*
X154161349Y-118216841D01*
X154291431Y-118286372D01*
X154491714Y-118347127D01*
X154700000Y-118367641D01*
X154908286Y-118347127D01*
X155108569Y-118286372D01*
X155293150Y-118187711D01*
X155454936Y-118054936D01*
X155587711Y-117893150D01*
X155686372Y-117708569D01*
X155747127Y-117508286D01*
X155767641Y-117300000D01*
X155747127Y-117091714D01*
X155686372Y-116891431D01*
X155587711Y-116706850D01*
X155587557Y-116706662D01*
X155454936Y-116545063D01*
X155293153Y-116412291D01*
X155293151Y-116412290D01*
X155293150Y-116412289D01*
X155108569Y-116313628D01*
X155008427Y-116283250D01*
X154908284Y-116252872D01*
X154700000Y-116232359D01*
X154491715Y-116252872D01*
X154291428Y-116313629D01*
X154218059Y-116352846D01*
X154161349Y-116383158D01*
X154102897Y-116397800D01*
X150771438Y-116397800D01*
X150597145Y-116432469D01*
X150597137Y-116432471D01*
X150432946Y-116500481D01*
X150371927Y-116541252D01*
X150339034Y-116556809D01*
X150151731Y-116613627D01*
X149967146Y-116712291D01*
X149805363Y-116845063D01*
X149672591Y-117006846D01*
X149573929Y-117191428D01*
X149513172Y-117391715D01*
X149492659Y-117600000D01*
X143662849Y-117600000D01*
X143726310Y-117455323D01*
X143783165Y-117230809D01*
X143786428Y-117191431D01*
X143802290Y-117000006D01*
X143802290Y-116999993D01*
X143783166Y-116769198D01*
X143783164Y-116769187D01*
X143726310Y-116544676D01*
X143633277Y-116332584D01*
X143506606Y-116138698D01*
X143498863Y-116130287D01*
X143456236Y-116083982D01*
X143425315Y-116021330D01*
X143433175Y-115951904D01*
X143456237Y-115916019D01*
X143506604Y-115861306D01*
X143633277Y-115667418D01*
X143726310Y-115455325D01*
X143783165Y-115230811D01*
X143802290Y-115000002D01*
X143802290Y-114999995D01*
X143783166Y-114769200D01*
X143783164Y-114769189D01*
X143726310Y-114544678D01*
X143633277Y-114332586D01*
X143506606Y-114138700D01*
X143499522Y-114131005D01*
X143456234Y-114083982D01*
X143425313Y-114021330D01*
X143433173Y-113951904D01*
X143456235Y-113916018D01*
X143506604Y-113861305D01*
X143633277Y-113667417D01*
X143726310Y-113455324D01*
X143783165Y-113230810D01*
X143802290Y-113000001D01*
X143802290Y-112999994D01*
X143783166Y-112769199D01*
X143783164Y-112769188D01*
X143726310Y-112544677D01*
X143633277Y-112332585D01*
X143506606Y-112138699D01*
X143499522Y-112131004D01*
X143456234Y-112083981D01*
X143425313Y-112021329D01*
X143433173Y-111951903D01*
X143456235Y-111916017D01*
X143506604Y-111861304D01*
X143633277Y-111667416D01*
X143726310Y-111455323D01*
X143740320Y-111400000D01*
X154432359Y-111400000D01*
X154452872Y-111608284D01*
X154470810Y-111667416D01*
X154513628Y-111808569D01*
X154604550Y-111978672D01*
X154612291Y-111993153D01*
X154745063Y-112154936D01*
X154845921Y-112237708D01*
X154906850Y-112287711D01*
X155091431Y-112386372D01*
X155291714Y-112447127D01*
X155500000Y-112467641D01*
X155708286Y-112447127D01*
X155908569Y-112386372D01*
X156038650Y-112316841D01*
X156097103Y-112302200D01*
X161446440Y-112302200D01*
X161504892Y-112316841D01*
X161541431Y-112336372D01*
X161741714Y-112397127D01*
X161950000Y-112417641D01*
X162158286Y-112397127D01*
X162358569Y-112336372D01*
X162543150Y-112237711D01*
X162704936Y-112104936D01*
X162837711Y-111943150D01*
X162936372Y-111758569D01*
X162997127Y-111558286D01*
X163017641Y-111350000D01*
X162997127Y-111141714D01*
X162936372Y-110941431D01*
X162837711Y-110756850D01*
X162793468Y-110702940D01*
X162704936Y-110595063D01*
X162543153Y-110462291D01*
X162543151Y-110462290D01*
X162543150Y-110462289D01*
X162358569Y-110363628D01*
X162255489Y-110332359D01*
X162158284Y-110302872D01*
X161950000Y-110282359D01*
X161741715Y-110302872D01*
X161541428Y-110363629D01*
X161356849Y-110462289D01*
X161351820Y-110466416D01*
X161347877Y-110469652D01*
X161283569Y-110496966D01*
X161269212Y-110497800D01*
X156097103Y-110497800D01*
X156038650Y-110483158D01*
X155908569Y-110413628D01*
X155808427Y-110383250D01*
X155708284Y-110352872D01*
X155500000Y-110332359D01*
X155291715Y-110352872D01*
X155091428Y-110413629D01*
X154906846Y-110512291D01*
X154745063Y-110645063D01*
X154612291Y-110806846D01*
X154513629Y-110991428D01*
X154513628Y-110991430D01*
X154513628Y-110991431D01*
X154506680Y-111014334D01*
X154452872Y-111191715D01*
X154432359Y-111400000D01*
X143740320Y-111400000D01*
X143783165Y-111230809D01*
X143783166Y-111230801D01*
X143802290Y-111000006D01*
X143802290Y-110999993D01*
X143783166Y-110769198D01*
X143783164Y-110769187D01*
X143726310Y-110544676D01*
X143633277Y-110332584D01*
X143506606Y-110138698D01*
X143499208Y-110130661D01*
X143456235Y-110083981D01*
X143425314Y-110021329D01*
X143433174Y-109951903D01*
X143456236Y-109916017D01*
X143506604Y-109861305D01*
X143633277Y-109667417D01*
X143726310Y-109455324D01*
X143783165Y-109230810D01*
X143785017Y-109208458D01*
X143802290Y-109000007D01*
X143802290Y-108999994D01*
X166468610Y-108999994D01*
X166468610Y-109000007D01*
X166487733Y-109230802D01*
X166487735Y-109230813D01*
X166544589Y-109455324D01*
X166637622Y-109667416D01*
X166764293Y-109861302D01*
X166814662Y-109916017D01*
X166845584Y-109978672D01*
X166837724Y-110048098D01*
X166814663Y-110083982D01*
X166764294Y-110138698D01*
X166637622Y-110332584D01*
X166544589Y-110544676D01*
X166487735Y-110769187D01*
X166487733Y-110769198D01*
X166468610Y-110999993D01*
X166468610Y-111000006D01*
X166487733Y-111230801D01*
X166487735Y-111230812D01*
X166544589Y-111455323D01*
X166637622Y-111667415D01*
X166764293Y-111861301D01*
X166814663Y-111916017D01*
X166845585Y-111978672D01*
X166837725Y-112048098D01*
X166814664Y-112083981D01*
X166764294Y-112138699D01*
X166637622Y-112332585D01*
X166544589Y-112544677D01*
X166487735Y-112769188D01*
X166487733Y-112769199D01*
X166468610Y-112999994D01*
X166468610Y-113000007D01*
X166487733Y-113230802D01*
X166487735Y-113230813D01*
X166544589Y-113455324D01*
X166637622Y-113667416D01*
X166764293Y-113861302D01*
X166814663Y-113916018D01*
X166845585Y-113978673D01*
X166837725Y-114048099D01*
X166814664Y-114083982D01*
X166764294Y-114138700D01*
X166637622Y-114332586D01*
X166544589Y-114544678D01*
X166487735Y-114769189D01*
X166487733Y-114769200D01*
X166468610Y-114999995D01*
X166468610Y-115000008D01*
X166487733Y-115230803D01*
X166487735Y-115230814D01*
X166544589Y-115455325D01*
X166637622Y-115667417D01*
X166637623Y-115667418D01*
X166764296Y-115861306D01*
X166789024Y-115888168D01*
X166814662Y-115916019D01*
X166845583Y-115978674D01*
X166837722Y-116048100D01*
X166814662Y-116083983D01*
X166764294Y-116138698D01*
X166637622Y-116332584D01*
X166544589Y-116544676D01*
X166487735Y-116769187D01*
X166487733Y-116769198D01*
X166468610Y-116999993D01*
X166468610Y-117000006D01*
X166487733Y-117230801D01*
X166487735Y-117230812D01*
X166544589Y-117455323D01*
X166637622Y-117667415D01*
X166764293Y-117861301D01*
X166921157Y-118031700D01*
X166921161Y-118031703D01*
X167000350Y-118093338D01*
X167103920Y-118173950D01*
X167307607Y-118284180D01*
X167398085Y-118315241D01*
X167526654Y-118359379D01*
X167526656Y-118359379D01*
X167526658Y-118359380D01*
X167755100Y-118397500D01*
X167755101Y-118397500D01*
X167986699Y-118397500D01*
X167986700Y-118397500D01*
X168215142Y-118359380D01*
X168434193Y-118284180D01*
X168637880Y-118173950D01*
X168794739Y-118051860D01*
X168859731Y-118026219D01*
X168928271Y-118039785D01*
X168947062Y-118051862D01*
X168951012Y-118054936D01*
X169103921Y-118173950D01*
X169307608Y-118284180D01*
X169398086Y-118315241D01*
X169526655Y-118359379D01*
X169526657Y-118359379D01*
X169526659Y-118359380D01*
X169755101Y-118397500D01*
X169755102Y-118397500D01*
X169986700Y-118397500D01*
X169986701Y-118397500D01*
X170215143Y-118359380D01*
X170434194Y-118284180D01*
X170637881Y-118173950D01*
X170820646Y-118031698D01*
X170977505Y-117861304D01*
X171104178Y-117667416D01*
X171197211Y-117455323D01*
X171254066Y-117230809D01*
X171257329Y-117191431D01*
X171273191Y-117000006D01*
X171273191Y-116999993D01*
X171254067Y-116769198D01*
X171254065Y-116769187D01*
X171197211Y-116544676D01*
X171104178Y-116332584D01*
X170977507Y-116138698D01*
X170969764Y-116130287D01*
X170927137Y-116083982D01*
X170896216Y-116021330D01*
X170904076Y-115951904D01*
X170927138Y-115916019D01*
X170977505Y-115861306D01*
X171104178Y-115667418D01*
X171197211Y-115455325D01*
X171254066Y-115230811D01*
X171273191Y-115000002D01*
X171273191Y-114999995D01*
X171254067Y-114769200D01*
X171254065Y-114769189D01*
X171197211Y-114544678D01*
X171104178Y-114332586D01*
X170977507Y-114138700D01*
X170970423Y-114131005D01*
X170927135Y-114083982D01*
X170896214Y-114021330D01*
X170904074Y-113951904D01*
X170927136Y-113916018D01*
X170977505Y-113861305D01*
X171104178Y-113667417D01*
X171197211Y-113455324D01*
X171254066Y-113230810D01*
X171273191Y-113000001D01*
X171273191Y-112999994D01*
X171254067Y-112769199D01*
X171254065Y-112769188D01*
X171197211Y-112544677D01*
X171104178Y-112332585D01*
X170977507Y-112138699D01*
X170970423Y-112131004D01*
X170927135Y-112083981D01*
X170896214Y-112021329D01*
X170904074Y-111951903D01*
X170927136Y-111916017D01*
X170977505Y-111861304D01*
X171104178Y-111667416D01*
X171197211Y-111455323D01*
X171254066Y-111230809D01*
X171254067Y-111230801D01*
X171273191Y-111000006D01*
X171273191Y-110999993D01*
X171254067Y-110769198D01*
X171254065Y-110769187D01*
X171197211Y-110544676D01*
X171104178Y-110332584D01*
X170977507Y-110138698D01*
X170970109Y-110130661D01*
X170927136Y-110083981D01*
X170896215Y-110021329D01*
X170904075Y-109951903D01*
X170927137Y-109916017D01*
X170977505Y-109861305D01*
X171104178Y-109667417D01*
X171197211Y-109455324D01*
X171254066Y-109230810D01*
X171255918Y-109208458D01*
X171264973Y-109099181D01*
X177387500Y-109099181D01*
X177387500Y-110900803D01*
X177387501Y-110900819D01*
X177397634Y-111000006D01*
X177398169Y-111005241D01*
X177454236Y-111174440D01*
X177547811Y-111326149D01*
X177673851Y-111452189D01*
X177825560Y-111545764D01*
X177994759Y-111601831D01*
X178099189Y-111612500D01*
X179900810Y-111612499D01*
X180005241Y-111601831D01*
X180174440Y-111545764D01*
X180326149Y-111452189D01*
X180452189Y-111326149D01*
X180545764Y-111174440D01*
X180601831Y-111005241D01*
X180612500Y-110900811D01*
X180612499Y-109099190D01*
X180601831Y-108994759D01*
X180545764Y-108825560D01*
X180452189Y-108673851D01*
X180326149Y-108547811D01*
X180174440Y-108454236D01*
X180174437Y-108454235D01*
X180005242Y-108398169D01*
X180005235Y-108398168D01*
X179900812Y-108387500D01*
X178099196Y-108387500D01*
X178099180Y-108387501D01*
X177994757Y-108398169D01*
X177825562Y-108454235D01*
X177825557Y-108454237D01*
X177673849Y-108547812D01*
X177547812Y-108673849D01*
X177454237Y-108825557D01*
X177454235Y-108825562D01*
X177398169Y-108994757D01*
X177398168Y-108994764D01*
X177387500Y-109099181D01*
X171264973Y-109099181D01*
X171273191Y-109000007D01*
X171273191Y-108999994D01*
X171254067Y-108769199D01*
X171254065Y-108769188D01*
X171197211Y-108544677D01*
X171104178Y-108332585D01*
X170977507Y-108138699D01*
X170820643Y-107968300D01*
X170820639Y-107968297D01*
X170637885Y-107826054D01*
X170637880Y-107826050D01*
X170434195Y-107715821D01*
X170434189Y-107715819D01*
X170215146Y-107640621D01*
X170043811Y-107612031D01*
X169986701Y-107602501D01*
X169755101Y-107602501D01*
X169709412Y-107610125D01*
X169526655Y-107640621D01*
X169307612Y-107715819D01*
X169307606Y-107715821D01*
X169179438Y-107785183D01*
X169103921Y-107826051D01*
X169022035Y-107889785D01*
X168947062Y-107948139D01*
X168882068Y-107973781D01*
X168813528Y-107960214D01*
X168794738Y-107948139D01*
X168637880Y-107826051D01*
X168637878Y-107826050D01*
X168637877Y-107826049D01*
X168434194Y-107715821D01*
X168434188Y-107715819D01*
X168215145Y-107640621D01*
X168043810Y-107612031D01*
X167986700Y-107602501D01*
X167755100Y-107602501D01*
X167709411Y-107610125D01*
X167526654Y-107640621D01*
X167307611Y-107715819D01*
X167307605Y-107715821D01*
X167103920Y-107826050D01*
X167103915Y-107826054D01*
X166921161Y-107968297D01*
X166921157Y-107968300D01*
X166764293Y-108138699D01*
X166637622Y-108332585D01*
X166544589Y-108544677D01*
X166487735Y-108769188D01*
X166487733Y-108769199D01*
X166468610Y-108999994D01*
X143802290Y-108999994D01*
X143783166Y-108769199D01*
X143783164Y-108769188D01*
X143726310Y-108544677D01*
X143633277Y-108332585D01*
X143506606Y-108138699D01*
X143349742Y-107968300D01*
X143349738Y-107968297D01*
X143166984Y-107826054D01*
X143166979Y-107826050D01*
X142963294Y-107715821D01*
X142963288Y-107715819D01*
X142744245Y-107640621D01*
X142572910Y-107612031D01*
X142515800Y-107602501D01*
X142284200Y-107602501D01*
X142238511Y-107610125D01*
X142055754Y-107640621D01*
X141836711Y-107715819D01*
X141836705Y-107715821D01*
X141633020Y-107826050D01*
X141633015Y-107826054D01*
X141450261Y-107968297D01*
X141450257Y-107968300D01*
X141293393Y-108138699D01*
X141166722Y-108332585D01*
X141073689Y-108544677D01*
X141016835Y-108769188D01*
X141016833Y-108769199D01*
X140997710Y-108999994D01*
X140997710Y-109000007D01*
X141016833Y-109230802D01*
X141016835Y-109230813D01*
X141073690Y-109455324D01*
X141114226Y-109547738D01*
X141123129Y-109617038D01*
X141093152Y-109680150D01*
X141033812Y-109717037D01*
X140963950Y-109715986D01*
X140960407Y-109714829D01*
X140744244Y-109640620D01*
X140572909Y-109612030D01*
X140515799Y-109602500D01*
X140284199Y-109602500D01*
X140238510Y-109610124D01*
X140055753Y-109640620D01*
X139836710Y-109715818D01*
X139836704Y-109715820D01*
X139633019Y-109826049D01*
X139633014Y-109826053D01*
X139450260Y-109968296D01*
X139450256Y-109968299D01*
X139293392Y-110138698D01*
X139166721Y-110332584D01*
X139073688Y-110544676D01*
X139016834Y-110769187D01*
X139016832Y-110769198D01*
X138997709Y-110999993D01*
X112607000Y-110999993D01*
X112607000Y-109631571D01*
X115431318Y-109631571D01*
X115431318Y-109631576D01*
X115450111Y-109846390D01*
X115450112Y-109846397D01*
X115505926Y-110054693D01*
X115597058Y-110250126D01*
X115597059Y-110250128D01*
X115720747Y-110426774D01*
X115873225Y-110579252D01*
X115873228Y-110579254D01*
X116049872Y-110702941D01*
X116245310Y-110794075D01*
X116453604Y-110849888D01*
X116607048Y-110863312D01*
X116668424Y-110868682D01*
X116668426Y-110868682D01*
X116668428Y-110868682D01*
X116722131Y-110863983D01*
X116883248Y-110849888D01*
X117091542Y-110794075D01*
X117286980Y-110702941D01*
X117463624Y-110579254D01*
X117616106Y-110426772D01*
X117693788Y-110315828D01*
X117707671Y-110299283D01*
X118967709Y-109039245D01*
X118984254Y-109025362D01*
X119095198Y-108947680D01*
X119247680Y-108795198D01*
X119371367Y-108618554D01*
X119462501Y-108423116D01*
X119518314Y-108214822D01*
X119537108Y-108000000D01*
X119534334Y-107968297D01*
X119521890Y-107826051D01*
X119518314Y-107785178D01*
X119462501Y-107576884D01*
X119371367Y-107381446D01*
X119247685Y-107204809D01*
X119247678Y-107204799D01*
X119095200Y-107052321D01*
X118918554Y-106928633D01*
X118918552Y-106928632D01*
X118723119Y-106837500D01*
X118723116Y-106837499D01*
X118635086Y-106813911D01*
X118514823Y-106781686D01*
X118514816Y-106781685D01*
X118300002Y-106762892D01*
X118299998Y-106762892D01*
X118085183Y-106781685D01*
X118085176Y-106781686D01*
X117876880Y-106837500D01*
X117681447Y-106928632D01*
X117681445Y-106928633D01*
X117504803Y-107052318D01*
X117352318Y-107204804D01*
X117352314Y-107204809D01*
X117274639Y-107315739D01*
X117260746Y-107332296D01*
X116000722Y-108592320D01*
X115984165Y-108606213D01*
X115873235Y-108683888D01*
X115873230Y-108683892D01*
X115720744Y-108836377D01*
X115597059Y-109013019D01*
X115597058Y-109013021D01*
X115505926Y-109208454D01*
X115450112Y-109416750D01*
X115450111Y-109416757D01*
X115431318Y-109631571D01*
X112607000Y-109631571D01*
X112607000Y-104832259D01*
X112626685Y-104765220D01*
X112679489Y-104719465D01*
X112733293Y-104708281D01*
X181277800Y-105979192D01*
X181344462Y-106000116D01*
X181389230Y-106053759D01*
X181399500Y-106103171D01*
X181399500Y-150375500D01*
X181379815Y-150442539D01*
X181327011Y-150488294D01*
X181275500Y-150499500D01*
X93366600Y-150499500D01*
X93299561Y-150479815D01*
X93253806Y-150427011D01*
X93242600Y-150375500D01*
X93242600Y-146799998D01*
X94777500Y-146799998D01*
X94777500Y-146800001D01*
X94797329Y-147096226D01*
X94797331Y-147096236D01*
X94856467Y-147387176D01*
X94905724Y-147529027D01*
X94953856Y-147667640D01*
X95087757Y-147932623D01*
X95255783Y-148177394D01*
X95255785Y-148177396D01*
X95255789Y-148177402D01*
X95255792Y-148177404D01*
X95454935Y-148397586D01*
X95681658Y-148589268D01*
X95931907Y-148749021D01*
X96201216Y-148873994D01*
X96484780Y-148961956D01*
X96777537Y-149011338D01*
X97074265Y-149021259D01*
X97369667Y-148991541D01*
X97658472Y-148922715D01*
X97658475Y-148922713D01*
X97658479Y-148922713D01*
X97797000Y-148869362D01*
X97935528Y-148816010D01*
X98195888Y-148673328D01*
X98434908Y-148497217D01*
X98648322Y-148290819D01*
X98832321Y-148057817D01*
X98983623Y-147802370D01*
X99099527Y-147529035D01*
X99177965Y-147242691D01*
X99217537Y-146948447D01*
X99217537Y-146651553D01*
X99177965Y-146357309D01*
X99101938Y-146079768D01*
X99099529Y-146070972D01*
X99099529Y-146070971D01*
X99099527Y-146070968D01*
X99099527Y-146070965D01*
X98983623Y-145797630D01*
X98906474Y-145667377D01*
X98832321Y-145542182D01*
X98648321Y-145309180D01*
X98588528Y-145251353D01*
X98434908Y-145102783D01*
X98245425Y-144963171D01*
X98195894Y-144926676D01*
X98195891Y-144926674D01*
X98195888Y-144926672D01*
X97935528Y-144783990D01*
X97935523Y-144783988D01*
X97935521Y-144783987D01*
X97658479Y-144677286D01*
X97658474Y-144677285D01*
X97369667Y-144608459D01*
X97369664Y-144608458D01*
X97074269Y-144578741D01*
X97074265Y-144578741D01*
X96777537Y-144588662D01*
X96484779Y-144638044D01*
X96368236Y-144674196D01*
X96201216Y-144726006D01*
X96201209Y-144726009D01*
X96201207Y-144726010D01*
X95931911Y-144850976D01*
X95681658Y-145010731D01*
X95681656Y-145010733D01*
X95454933Y-145202415D01*
X95255792Y-145422595D01*
X95255789Y-145422597D01*
X95087755Y-145667380D01*
X95023623Y-145794293D01*
X94953856Y-145932360D01*
X94953854Y-145932363D01*
X94953854Y-145932365D01*
X94856467Y-146212823D01*
X94797331Y-146503763D01*
X94797329Y-146503773D01*
X94777500Y-146799998D01*
X93242600Y-146799998D01*
X93242600Y-143499995D01*
X102149913Y-143499995D01*
X102149913Y-143500004D01*
X102169832Y-143765812D01*
X102226060Y-144012164D01*
X102229148Y-144025692D01*
X102326534Y-144273826D01*
X102459814Y-144504674D01*
X102594049Y-144672999D01*
X102626015Y-144713083D01*
X102773307Y-144849749D01*
X102821414Y-144894386D01*
X103041657Y-145044545D01*
X103041662Y-145044547D01*
X103041663Y-145044548D01*
X103041665Y-145044549D01*
X103092041Y-145068808D01*
X103281815Y-145160199D01*
X103281816Y-145160199D01*
X103281819Y-145160201D01*
X103536537Y-145238771D01*
X103800120Y-145278500D01*
X103800121Y-145278500D01*
X104066679Y-145278500D01*
X104066680Y-145278500D01*
X104330263Y-145238771D01*
X104584981Y-145160201D01*
X104774755Y-145068810D01*
X104825136Y-145044549D01*
X104825136Y-145044548D01*
X104825144Y-145044545D01*
X105045386Y-144894386D01*
X105240788Y-144713079D01*
X105406986Y-144504674D01*
X105540266Y-144273826D01*
X105637652Y-144025692D01*
X105696967Y-143765815D01*
X105705504Y-143651894D01*
X105716887Y-143500004D01*
X105716887Y-143499995D01*
X107229913Y-143499995D01*
X107229913Y-143500004D01*
X107249832Y-143765812D01*
X107306060Y-144012164D01*
X107309148Y-144025692D01*
X107406534Y-144273826D01*
X107539814Y-144504674D01*
X107674049Y-144672999D01*
X107706015Y-144713083D01*
X107853307Y-144849749D01*
X107901414Y-144894386D01*
X108121657Y-145044545D01*
X108121662Y-145044547D01*
X108121663Y-145044548D01*
X108121665Y-145044549D01*
X108172041Y-145068808D01*
X108361815Y-145160199D01*
X108361816Y-145160199D01*
X108361819Y-145160201D01*
X108616537Y-145238771D01*
X108880120Y-145278500D01*
X108880121Y-145278500D01*
X109146679Y-145278500D01*
X109146680Y-145278500D01*
X109410263Y-145238771D01*
X109664981Y-145160201D01*
X109854755Y-145068810D01*
X109905136Y-145044549D01*
X109905136Y-145044548D01*
X109905144Y-145044545D01*
X110125386Y-144894386D01*
X110320788Y-144713079D01*
X110486986Y-144504674D01*
X110620266Y-144273826D01*
X110717652Y-144025692D01*
X110776967Y-143765815D01*
X110785504Y-143651894D01*
X110796887Y-143500004D01*
X110796887Y-143499995D01*
X110776967Y-143234187D01*
X110731504Y-143035000D01*
X110717652Y-142974308D01*
X110620266Y-142726174D01*
X110486986Y-142495326D01*
X110320788Y-142286921D01*
X110320787Y-142286920D01*
X110320784Y-142286916D01*
X110125386Y-142105614D01*
X110094074Y-142084266D01*
X109905144Y-141955455D01*
X109905140Y-141955453D01*
X109905137Y-141955451D01*
X109905136Y-141955450D01*
X109664983Y-141839800D01*
X109664985Y-141839800D01*
X109410271Y-141761231D01*
X109410267Y-141761230D01*
X109410263Y-141761229D01*
X109283474Y-141742118D01*
X109146685Y-141721500D01*
X109146680Y-141721500D01*
X108880120Y-141721500D01*
X108880114Y-141721500D01*
X108715966Y-141746242D01*
X108616537Y-141761229D01*
X108616534Y-141761230D01*
X108616528Y-141761231D01*
X108361815Y-141839800D01*
X108121665Y-141955450D01*
X108121663Y-141955451D01*
X107901413Y-142105614D01*
X107706015Y-142286916D01*
X107539814Y-142495326D01*
X107406534Y-142726173D01*
X107309150Y-142974302D01*
X107309145Y-142974319D01*
X107249832Y-143234187D01*
X107229913Y-143499995D01*
X105716887Y-143499995D01*
X105696967Y-143234187D01*
X105651504Y-143035000D01*
X105637652Y-142974308D01*
X105540266Y-142726174D01*
X105406986Y-142495326D01*
X105240788Y-142286921D01*
X105240787Y-142286920D01*
X105240784Y-142286916D01*
X105045386Y-142105614D01*
X105014074Y-142084266D01*
X104825144Y-141955455D01*
X104825140Y-141955453D01*
X104825137Y-141955451D01*
X104825136Y-141955450D01*
X104584983Y-141839800D01*
X104584985Y-141839800D01*
X104330271Y-141761231D01*
X104330267Y-141761230D01*
X104330263Y-141761229D01*
X104203474Y-141742118D01*
X104066685Y-141721500D01*
X104066680Y-141721500D01*
X103800120Y-141721500D01*
X103800114Y-141721500D01*
X103635966Y-141746242D01*
X103536537Y-141761229D01*
X103536534Y-141761230D01*
X103536528Y-141761231D01*
X103281815Y-141839800D01*
X103041665Y-141955450D01*
X103041663Y-141955451D01*
X102821413Y-142105614D01*
X102626015Y-142286916D01*
X102459814Y-142495326D01*
X102326534Y-142726173D01*
X102229150Y-142974302D01*
X102229145Y-142974319D01*
X102169832Y-143234187D01*
X102149913Y-143499995D01*
X93242600Y-143499995D01*
X93242600Y-133718711D01*
X99149500Y-133718711D01*
X99149500Y-133961288D01*
X99181161Y-134201785D01*
X99243947Y-134436104D01*
X99336773Y-134660205D01*
X99336776Y-134660212D01*
X99458064Y-134870289D01*
X99458066Y-134870292D01*
X99458067Y-134870293D01*
X99605733Y-135062736D01*
X99605739Y-135062743D01*
X99777256Y-135234260D01*
X99777262Y-135234265D01*
X99969711Y-135381936D01*
X100179788Y-135503224D01*
X100403900Y-135596054D01*
X100638211Y-135658838D01*
X100815567Y-135682187D01*
X100878711Y-135690500D01*
X100878712Y-135690500D01*
X101121289Y-135690500D01*
X101184417Y-135682189D01*
X101361789Y-135658838D01*
X101596100Y-135596054D01*
X101820212Y-135503224D01*
X102030289Y-135381936D01*
X102222738Y-135234265D01*
X102394265Y-135062738D01*
X102541936Y-134870289D01*
X102663224Y-134660212D01*
X102756054Y-134436100D01*
X102818838Y-134201789D01*
X102850500Y-133961288D01*
X102850500Y-133718712D01*
X102818838Y-133478211D01*
X102756054Y-133243900D01*
X102663224Y-133019788D01*
X102541936Y-132809711D01*
X102414670Y-132643854D01*
X102394266Y-132617263D01*
X102394260Y-132617256D01*
X102222743Y-132445739D01*
X102222736Y-132445733D01*
X102030293Y-132298067D01*
X102030292Y-132298066D01*
X102030289Y-132298064D01*
X101820212Y-132176776D01*
X101820205Y-132176773D01*
X101596104Y-132083947D01*
X101361785Y-132021161D01*
X101121289Y-131989500D01*
X101121288Y-131989500D01*
X100878712Y-131989500D01*
X100878711Y-131989500D01*
X100638214Y-132021161D01*
X100403895Y-132083947D01*
X100179794Y-132176773D01*
X100179785Y-132176777D01*
X99969706Y-132298067D01*
X99777263Y-132445733D01*
X99777256Y-132445739D01*
X99605739Y-132617256D01*
X99605733Y-132617263D01*
X99458067Y-132809706D01*
X99336777Y-133019785D01*
X99336773Y-133019794D01*
X99243947Y-133243895D01*
X99181161Y-133478214D01*
X99149500Y-133718711D01*
X93242600Y-133718711D01*
X93242600Y-104632677D01*
X93262285Y-104565638D01*
X93315089Y-104519883D01*
X93384247Y-104509939D01*
X93447803Y-104538964D01*
X93484306Y-104593673D01*
X93510555Y-104672887D01*
X93539236Y-104759440D01*
X93632811Y-104911149D01*
X93758851Y-105037189D01*
X93910560Y-105130764D01*
X94079759Y-105186831D01*
X94184189Y-105197500D01*
X95815810Y-105197499D01*
X95920241Y-105186831D01*
X96089440Y-105130764D01*
X96241149Y-105037189D01*
X96367189Y-104911149D01*
X96460764Y-104759440D01*
X96516831Y-104590241D01*
X96527500Y-104485811D01*
X96527499Y-102854190D01*
X96516831Y-102749759D01*
X96460764Y-102580560D01*
X96367189Y-102428851D01*
X96241149Y-102302811D01*
X96211073Y-102284260D01*
X96164350Y-102232313D01*
X96153128Y-102163350D01*
X96180971Y-102099268D01*
X96181802Y-102098283D01*
X96239594Y-102030618D01*
X96365221Y-101825615D01*
X96457231Y-101603483D01*
X96513359Y-101369692D01*
X96532223Y-101130000D01*
X96513359Y-100890308D01*
X96457231Y-100656517D01*
X96415593Y-100555993D01*
X96365221Y-100434384D01*
X96239597Y-100229387D01*
X96239596Y-100229384D01*
X96150128Y-100124631D01*
X96083445Y-100046555D01*
X95975415Y-99954288D01*
X95937223Y-99895783D01*
X95936724Y-99825916D01*
X95974078Y-99766869D01*
X95975376Y-99765744D01*
X96083445Y-99673445D01*
X96175711Y-99565415D01*
X96234217Y-99527223D01*
X96304084Y-99526724D01*
X96363131Y-99564078D01*
X96364255Y-99565376D01*
X96456555Y-99673445D01*
X96579282Y-99778264D01*
X96639384Y-99829596D01*
X96639387Y-99829597D01*
X96844384Y-99955221D01*
X97066514Y-100047230D01*
X97066515Y-100047230D01*
X97066517Y-100047231D01*
X97300308Y-100103359D01*
X97540000Y-100122223D01*
X97779692Y-100103359D01*
X98013483Y-100047231D01*
X98134899Y-99996938D01*
X98182352Y-99987500D01*
X99437648Y-99987500D01*
X99485100Y-99996938D01*
X99606517Y-100047231D01*
X99840308Y-100103359D01*
X100080000Y-100122223D01*
X100319692Y-100103359D01*
X100553483Y-100047231D01*
X100775615Y-99955221D01*
X100980618Y-99829594D01*
X101163445Y-99673445D01*
X101319594Y-99490618D01*
X101321263Y-99487893D01*
X101322168Y-99487074D01*
X101322462Y-99486671D01*
X101322546Y-99486732D01*
X101373069Y-99441014D01*
X101441998Y-99429585D01*
X101506163Y-99457235D01*
G37*
%TD.AperFunction*%
%TA.AperFunction,Conductor*%
G36*
X111842702Y-133510152D02*
G01*
X111871984Y-133547570D01*
X111927683Y-133656884D01*
X111972596Y-133718702D01*
X111972599Y-133718706D01*
X111972604Y-133718712D01*
X112039352Y-133810583D01*
X117930081Y-139701311D01*
X117963566Y-139762634D01*
X117966400Y-139788992D01*
X117966400Y-142139673D01*
X117946715Y-142206712D01*
X117926743Y-142230570D01*
X117915343Y-142241148D01*
X117852811Y-142272318D01*
X117783354Y-142264732D01*
X117729025Y-142220799D01*
X117707072Y-142154468D01*
X117707000Y-142150251D01*
X117707000Y-141605008D01*
X117695487Y-141532319D01*
X117695487Y-141532318D01*
X117677280Y-141417360D01*
X117677279Y-141417356D01*
X117663474Y-141374869D01*
X117618571Y-141236672D01*
X117568198Y-141137811D01*
X117568197Y-141137809D01*
X117532320Y-141067395D01*
X117504472Y-141029066D01*
X117420648Y-140913692D01*
X117286308Y-140779352D01*
X116719767Y-140212811D01*
X116086309Y-139579352D01*
X116075039Y-139571165D01*
X116075035Y-139571162D01*
X115932606Y-139467681D01*
X115905145Y-139453689D01*
X115763331Y-139381430D01*
X115582640Y-139322719D01*
X115394998Y-139293000D01*
X115394993Y-139293000D01*
X110851317Y-139293000D01*
X110784278Y-139273315D01*
X110763636Y-139256681D01*
X110543319Y-139036363D01*
X110509834Y-138975040D01*
X110507000Y-138948682D01*
X110507000Y-135966499D01*
X110526685Y-135899460D01*
X110579489Y-135853705D01*
X110631000Y-135842499D01*
X110925804Y-135842499D01*
X110925810Y-135842499D01*
X111030241Y-135831831D01*
X111199440Y-135775764D01*
X111351149Y-135682189D01*
X111477189Y-135556149D01*
X111570764Y-135404440D01*
X111626831Y-135235241D01*
X111637500Y-135130811D01*
X111637499Y-133603864D01*
X111657184Y-133536826D01*
X111709987Y-133491071D01*
X111779146Y-133481127D01*
X111842702Y-133510152D01*
G37*
%TD.AperFunction*%
%TD*%
M02*
